<svg xmlns="http://www.w3.org/2000/svg" xmlns:xlink="http://www.w3.org/1999/xlink" width="600" height="400" viewBox="0 0 2400 1600"><defs><clipPath id="clip390"><rect width="2400" height="1600" x="0" y="0"/></clipPath></defs><path fill="#fff" fill-opacity="1" fill-rule="evenodd" d="M0 1600 L2400 1600 L2400 0 L0 0 Z" clip-path="url(#clip390)"/><defs><clipPath id="clip391"><rect width="1681" height="1600" x="480" y="0"/></clipPath></defs><path fill="#fff" fill-opacity="1" fill-rule="evenodd" d="M257.204 1423.18 L2352.76 1423.18 L2352.76 47.2441 L257.204 47.2441 Z" clip-path="url(#clip390)"/><defs><clipPath id="clip392"><rect width="2097" height="1377" x="257" y="47"/></clipPath></defs><polyline style="stroke:#000;stroke-linecap:butt;stroke-linejoin:round;stroke-width:2;stroke-opacity:.1;fill:none" points="316.512 1423.18 316.512 47.244" clip-path="url(#clip392)"/><polyline style="stroke:#000;stroke-linecap:butt;stroke-linejoin:round;stroke-width:2;stroke-opacity:.1;fill:none" points="729.09 1423.18 729.09 47.244" clip-path="url(#clip392)"/><polyline style="stroke:#000;stroke-linecap:butt;stroke-linejoin:round;stroke-width:2;stroke-opacity:.1;fill:none" points="1141.67 1423.18 1141.67 47.244" clip-path="url(#clip392)"/><polyline style="stroke:#000;stroke-linecap:butt;stroke-linejoin:round;stroke-width:2;stroke-opacity:.1;fill:none" points="1554.25 1423.18 1554.25 47.244" clip-path="url(#clip392)"/><polyline style="stroke:#000;stroke-linecap:butt;stroke-linejoin:round;stroke-width:2;stroke-opacity:.1;fill:none" points="1966.82 1423.18 1966.82 47.244" clip-path="url(#clip392)"/><polyline style="stroke:#000;stroke-linecap:butt;stroke-linejoin:round;stroke-width:4;stroke-opacity:1;fill:none" points="257.204 1423.18 2352.76 1423.18" clip-path="url(#clip390)"/><polyline style="stroke:#000;stroke-linecap:butt;stroke-linejoin:round;stroke-width:4;stroke-opacity:1;fill:none" points="316.512 1423.18 316.512 1404.28" clip-path="url(#clip390)"/><polyline style="stroke:#000;stroke-linecap:butt;stroke-linejoin:round;stroke-width:4;stroke-opacity:1;fill:none" points="729.09 1423.18 729.09 1404.28" clip-path="url(#clip390)"/><polyline style="stroke:#000;stroke-linecap:butt;stroke-linejoin:round;stroke-width:4;stroke-opacity:1;fill:none" points="1141.67 1423.18 1141.67 1404.28" clip-path="url(#clip390)"/><polyline style="stroke:#000;stroke-linecap:butt;stroke-linejoin:round;stroke-width:4;stroke-opacity:1;fill:none" points="1554.25 1423.18 1554.25 1404.28" clip-path="url(#clip390)"/><polyline style="stroke:#000;stroke-linecap:butt;stroke-linejoin:round;stroke-width:4;stroke-opacity:1;fill:none" points="1966.82 1423.18 1966.82 1404.28" clip-path="url(#clip390)"/><path fill="#000" fill-opacity="1" fill-rule="evenodd" d="M293.896 1452.37 Q290.285 1452.37 288.457 1455.94 Q286.651 1459.48 286.651 1466.61 Q286.651 1473.71 288.457 1477.28 Q290.285 1480.82 293.896 1480.82 Q297.531 1480.82 299.336 1477.28 Q301.165 1473.71 301.165 1466.61 Q301.165 1459.48 299.336 1455.94 Q297.531 1452.37 293.896 1452.37 M293.896 1448.67 Q299.707 1448.67 302.762 1453.27 Q305.841 1457.86 305.841 1466.61 Q305.841 1475.33 302.762 1479.94 Q299.707 1484.52 293.896 1484.52 Q288.086 1484.52 285.008 1479.94 Q281.952 1475.33 281.952 1466.61 Q281.952 1457.86 285.008 1453.27 Q288.086 1448.67 293.896 1448.67 Z" clip-path="url(#clip390)"/><path fill="#000" fill-opacity="1" fill-rule="evenodd" d="M314.058 1477.97 L318.943 1477.97 L318.943 1483.85 L314.058 1483.85 L314.058 1477.97 Z" clip-path="url(#clip390)"/><path fill="#000" fill-opacity="1" fill-rule="evenodd" d="M339.128 1452.37 Q335.517 1452.37 333.688 1455.94 Q331.882 1459.48 331.882 1466.61 Q331.882 1473.71 333.688 1477.28 Q335.517 1480.82 339.128 1480.82 Q342.762 1480.82 344.568 1477.28 Q346.396 1473.71 346.396 1466.61 Q346.396 1459.48 344.568 1455.94 Q342.762 1452.37 339.128 1452.37 M339.128 1448.67 Q344.938 1448.67 347.993 1453.27 Q351.072 1457.86 351.072 1466.61 Q351.072 1475.33 347.993 1479.94 Q344.938 1484.52 339.128 1484.52 Q333.318 1484.52 330.239 1479.94 Q327.183 1475.33 327.183 1466.61 Q327.183 1457.86 330.239 1453.27 Q333.318 1448.67 339.128 1448.67 Z" clip-path="url(#clip390)"/><path fill="#000" fill-opacity="1" fill-rule="evenodd" d="M707.273 1452.37 Q703.662 1452.37 701.833 1455.94 Q700.028 1459.48 700.028 1466.61 Q700.028 1473.71 701.833 1477.28 Q703.662 1480.82 707.273 1480.82 Q710.907 1480.82 712.713 1477.28 Q714.541 1473.71 714.541 1466.61 Q714.541 1459.48 712.713 1455.94 Q710.907 1452.37 707.273 1452.37 M707.273 1448.67 Q713.083 1448.67 716.139 1453.27 Q719.217 1457.86 719.217 1466.61 Q719.217 1475.33 716.139 1479.94 Q713.083 1484.52 707.273 1484.52 Q701.463 1484.52 698.384 1479.94 Q695.329 1475.33 695.329 1466.61 Q695.329 1457.86 698.384 1453.27 Q701.463 1448.67 707.273 1448.67 Z" clip-path="url(#clip390)"/><path fill="#000" fill-opacity="1" fill-rule="evenodd" d="M727.435 1477.97 L732.319 1477.97 L732.319 1483.85 L727.435 1483.85 L727.435 1477.97 Z" clip-path="url(#clip390)"/><path fill="#000" fill-opacity="1" fill-rule="evenodd" d="M746.532 1479.92 L762.851 1479.92 L762.851 1483.85 L740.907 1483.85 L740.907 1479.92 Q743.569 1477.16 748.152 1472.53 Q752.759 1467.88 753.939 1466.54 Q756.185 1464.01 757.064 1462.28 Q757.967 1460.52 757.967 1458.83 Q757.967 1456.07 756.023 1454.34 Q754.101 1452.6 751 1452.6 Q748.801 1452.6 746.347 1453.37 Q743.916 1454.13 741.139 1455.68 L741.139 1450.96 Q743.963 1449.82 746.416 1449.25 Q748.87 1448.67 750.907 1448.67 Q756.277 1448.67 759.472 1451.35 Q762.666 1454.04 762.666 1458.53 Q762.666 1460.66 761.856 1462.58 Q761.069 1464.48 758.963 1467.07 Q758.384 1467.74 755.282 1470.96 Q752.18 1474.15 746.532 1479.92 Z" clip-path="url(#clip390)"/><path fill="#000" fill-opacity="1" fill-rule="evenodd" d="M1118.81 1452.37 Q1115.2 1452.37 1113.37 1455.94 Q1111.56 1459.48 1111.56 1466.61 Q1111.56 1473.71 1113.37 1477.28 Q1115.2 1480.82 1118.81 1480.82 Q1122.44 1480.82 1124.25 1477.28 Q1126.08 1473.71 1126.08 1466.61 Q1126.08 1459.48 1124.25 1455.94 Q1122.44 1452.37 1118.81 1452.37 M1118.81 1448.67 Q1124.62 1448.67 1127.67 1453.27 Q1130.75 1457.86 1130.75 1466.61 Q1130.75 1475.33 1127.67 1479.94 Q1124.62 1484.52 1118.81 1484.52 Q1113 1484.52 1109.92 1479.94 Q1106.86 1475.33 1106.86 1466.61 Q1106.86 1457.86 1109.92 1453.27 Q1113 1448.67 1118.81 1448.67 Z" clip-path="url(#clip390)"/><path fill="#000" fill-opacity="1" fill-rule="evenodd" d="M1138.97 1477.97 L1143.86 1477.97 L1143.86 1483.85 L1138.97 1483.85 L1138.97 1477.97 Z" clip-path="url(#clip390)"/><path fill="#000" fill-opacity="1" fill-rule="evenodd" d="M1166.89 1453.37 L1155.08 1471.81 L1166.89 1471.81 L1166.89 1453.37 M1165.66 1449.29 L1171.54 1449.29 L1171.54 1471.81 L1176.47 1471.81 L1176.47 1475.7 L1171.54 1475.7 L1171.54 1483.85 L1166.89 1483.85 L1166.89 1475.7 L1151.29 1475.7 L1151.29 1471.19 L1165.66 1449.29 Z" clip-path="url(#clip390)"/><path fill="#000" fill-opacity="1" fill-rule="evenodd" d="M1531.55 1452.37 Q1527.94 1452.37 1526.11 1455.94 Q1524.3 1459.48 1524.3 1466.61 Q1524.3 1473.71 1526.11 1477.28 Q1527.94 1480.82 1531.55 1480.82 Q1535.18 1480.82 1536.99 1477.28 Q1538.82 1473.71 1538.82 1466.61 Q1538.82 1459.48 1536.99 1455.94 Q1535.18 1452.37 1531.55 1452.37 M1531.55 1448.67 Q1537.36 1448.67 1540.41 1453.27 Q1543.49 1457.86 1543.49 1466.61 Q1543.49 1475.33 1540.41 1479.94 Q1537.36 1484.52 1531.55 1484.52 Q1525.74 1484.52 1522.66 1479.94 Q1519.6 1475.33 1519.6 1466.61 Q1519.6 1457.86 1522.66 1453.27 Q1525.74 1448.67 1531.55 1448.67 Z" clip-path="url(#clip390)"/><path fill="#000" fill-opacity="1" fill-rule="evenodd" d="M1551.71 1477.97 L1556.6 1477.97 L1556.6 1483.85 L1551.71 1483.85 L1551.71 1477.97 Z" clip-path="url(#clip390)"/><path fill="#000" fill-opacity="1" fill-rule="evenodd" d="M1577.36 1464.71 Q1574.21 1464.71 1572.36 1466.86 Q1570.53 1469.01 1570.53 1472.76 Q1570.53 1476.49 1572.36 1478.67 Q1574.21 1480.82 1577.36 1480.82 Q1580.51 1480.82 1582.34 1478.67 Q1584.19 1476.49 1584.19 1472.76 Q1584.19 1469.01 1582.34 1466.86 Q1580.51 1464.71 1577.36 1464.71 M1586.64 1450.06 L1586.64 1454.31 Q1584.88 1453.48 1583.08 1453.04 Q1581.29 1452.6 1579.53 1452.6 Q1574.91 1452.6 1572.45 1455.73 Q1570.02 1458.85 1569.67 1465.17 Q1571.04 1463.16 1573.1 1462.09 Q1575.16 1461 1577.64 1461 Q1582.85 1461 1585.85 1464.18 Q1588.89 1467.32 1588.89 1472.76 Q1588.89 1478.09 1585.74 1481.31 Q1582.59 1484.52 1577.36 1484.52 Q1571.36 1484.52 1568.19 1479.94 Q1565.02 1475.33 1565.02 1466.61 Q1565.02 1458.41 1568.91 1453.55 Q1572.8 1448.67 1579.35 1448.67 Q1581.11 1448.67 1582.89 1449.01 Q1584.7 1449.36 1586.64 1450.06 Z" clip-path="url(#clip390)"/><path fill="#000" fill-opacity="1" fill-rule="evenodd" d="M1944.25 1452.37 Q1940.64 1452.37 1938.81 1455.94 Q1937.01 1459.48 1937.01 1466.61 Q1937.01 1473.71 1938.81 1477.28 Q1940.64 1480.82 1944.25 1480.82 Q1947.89 1480.82 1949.69 1477.28 Q1951.52 1473.71 1951.52 1466.61 Q1951.52 1459.48 1949.69 1455.94 Q1947.89 1452.37 1944.25 1452.37 M1944.25 1448.67 Q1950.06 1448.67 1953.12 1453.27 Q1956.2 1457.86 1956.2 1466.61 Q1956.2 1475.33 1953.12 1479.94 Q1950.06 1484.52 1944.25 1484.52 Q1938.44 1484.52 1935.37 1479.94 Q1932.31 1475.33 1932.31 1466.61 Q1932.31 1457.86 1935.37 1453.27 Q1938.44 1448.67 1944.25 1448.67 Z" clip-path="url(#clip390)"/><path fill="#000" fill-opacity="1" fill-rule="evenodd" d="M1964.42 1477.97 L1969.3 1477.97 L1969.3 1483.85 L1964.42 1483.85 L1964.42 1477.97 Z" clip-path="url(#clip390)"/><path fill="#000" fill-opacity="1" fill-rule="evenodd" d="M1989.49 1467.44 Q1986.15 1467.44 1984.23 1469.22 Q1982.33 1471 1982.33 1474.13 Q1982.33 1477.25 1984.23 1479.04 Q1986.15 1480.82 1989.49 1480.82 Q1992.82 1480.82 1994.74 1479.04 Q1996.66 1477.23 1996.66 1474.13 Q1996.66 1471 1994.74 1469.22 Q1992.84 1467.44 1989.49 1467.44 M1984.81 1465.45 Q1981.8 1464.71 1980.11 1462.65 Q1978.44 1460.59 1978.44 1457.63 Q1978.44 1453.48 1981.38 1451.07 Q1984.35 1448.67 1989.49 1448.67 Q1994.65 1448.67 1997.59 1451.07 Q2000.53 1453.48 2000.53 1457.63 Q2000.53 1460.59 1998.84 1462.65 Q1997.17 1464.71 1994.18 1465.45 Q1997.56 1466.24 1999.44 1468.53 Q2001.34 1470.82 2001.34 1474.13 Q2001.34 1479.15 1998.26 1481.84 Q1995.2 1484.52 1989.49 1484.52 Q1983.77 1484.52 1980.69 1481.84 Q1977.63 1479.15 1977.63 1474.13 Q1977.63 1470.82 1979.53 1468.53 Q1981.43 1466.24 1984.81 1465.45 M1983.1 1458.06 Q1983.1 1460.75 1984.76 1462.25 Q1986.45 1463.76 1989.49 1463.76 Q1992.49 1463.76 1994.18 1462.25 Q1995.9 1460.75 1995.9 1458.06 Q1995.9 1455.38 1994.18 1453.88 Q1992.49 1452.37 1989.49 1452.37 Q1986.45 1452.37 1984.76 1453.88 Q1983.1 1455.38 1983.1 1458.06 Z" clip-path="url(#clip390)"/><path fill="#000" fill-opacity="1" fill-rule="evenodd" d="M1145.15 1533.45 L1145.15 1538.98 Q1142.67 1537.71 1140 1537.07 Q1137.32 1536.44 1134.46 1536.44 Q1130.1 1536.44 1127.9 1537.77 Q1125.74 1539.11 1125.74 1541.79 Q1125.74 1543.82 1127.3 1545 Q1128.86 1546.15 1133.57 1547.2 L1135.57 1547.64 Q1141.81 1548.98 1144.42 1551.43 Q1147.06 1553.85 1147.06 1558.21 Q1147.06 1563.17 1143.12 1566.07 Q1139.2 1568.97 1132.33 1568.97 Q1129.46 1568.97 1126.34 1568.39 Q1123.25 1567.85 1119.82 1566.74 L1119.82 1560.69 Q1123.06 1562.38 1126.22 1563.24 Q1129.37 1564.07 1132.45 1564.07 Q1136.59 1564.07 1138.82 1562.66 Q1141.05 1561.23 1141.05 1558.65 Q1141.05 1556.27 1139.42 1554.99 Q1137.83 1553.72 1132.39 1552.54 L1130.35 1552.07 Q1124.91 1550.92 1122.49 1548.56 Q1120.07 1546.18 1120.07 1542.04 Q1120.07 1537.01 1123.64 1534.27 Q1127.2 1531.54 1133.76 1531.54 Q1137 1531.54 1139.87 1532.01 Q1142.73 1532.49 1145.15 1533.45 Z" clip-path="url(#clip390)"/><path fill="#000" fill-opacity="1" fill-rule="evenodd" d="M1182.04 1533.76 L1182.04 1539.24 Q1179.56 1537.87 1177.05 1537.2 Q1174.56 1536.5 1172.02 1536.5 Q1166.32 1536.5 1163.17 1540.13 Q1160.02 1543.73 1160.02 1550.25 Q1160.02 1556.78 1163.17 1560.4 Q1166.32 1564 1172.02 1564 Q1174.56 1564 1177.05 1563.33 Q1179.56 1562.63 1182.04 1561.26 L1182.04 1566.68 Q1179.59 1567.82 1176.95 1568.39 Q1174.34 1568.97 1171.38 1568.97 Q1163.33 1568.97 1158.58 1563.91 Q1153.84 1558.85 1153.84 1550.25 Q1153.84 1541.53 1158.62 1536.53 Q1163.42 1531.54 1171.76 1531.54 Q1174.47 1531.54 1177.05 1532.11 Q1179.62 1532.65 1182.04 1533.76 Z" clip-path="url(#clip390)"/><path fill="#000" fill-opacity="1" fill-rule="evenodd" d="M1208.43 1550.12 Q1201.33 1550.12 1198.59 1551.75 Q1195.86 1553.37 1195.86 1557.29 Q1195.86 1560.4 1197.89 1562.25 Q1199.96 1564.07 1203.49 1564.07 Q1208.36 1564.07 1211.29 1560.63 Q1214.25 1557.16 1214.25 1551.43 L1214.25 1550.12 L1208.43 1550.12 M1220.11 1547.71 L1220.11 1568.04 L1214.25 1568.04 L1214.25 1562.63 Q1212.25 1565.88 1209.26 1567.44 Q1206.26 1568.97 1201.94 1568.97 Q1196.46 1568.97 1193.21 1565.91 Q1190 1562.82 1190 1557.67 Q1190 1551.65 1194.01 1548.6 Q1198.05 1545.54 1206.04 1545.54 L1214.25 1545.54 L1214.25 1544.97 Q1214.25 1540.93 1211.58 1538.73 Q1208.94 1536.5 1204.13 1536.5 Q1201.08 1536.5 1198.18 1537.23 Q1195.28 1537.97 1192.61 1539.43 L1192.61 1534.02 Q1195.82 1532.78 1198.85 1532.17 Q1201.87 1531.54 1204.74 1531.54 Q1212.47 1531.54 1216.29 1535.55 Q1220.11 1539.56 1220.11 1547.71 Z" clip-path="url(#clip390)"/><path fill="#000" fill-opacity="1" fill-rule="evenodd" d="M1232.17 1518.52 L1238.03 1518.52 L1238.03 1568.04 L1232.17 1568.04 L1232.17 1518.52 Z" clip-path="url(#clip390)"/><path fill="#000" fill-opacity="1" fill-rule="evenodd" d="M1280.77 1548.76 L1280.77 1551.62 L1253.85 1551.62 Q1254.23 1557.67 1257.48 1560.85 Q1260.75 1564 1266.58 1564 Q1269.95 1564 1273.1 1563.17 Q1276.29 1562.35 1279.41 1560.69 L1279.41 1566.23 Q1276.25 1567.57 1272.94 1568.27 Q1269.63 1568.97 1266.23 1568.97 Q1257.7 1568.97 1252.7 1564 Q1247.74 1559.04 1247.74 1550.57 Q1247.74 1541.82 1252.45 1536.69 Q1257.19 1531.54 1265.21 1531.54 Q1272.4 1531.54 1276.57 1536.18 Q1280.77 1540.8 1280.77 1548.76 M1274.92 1547.04 Q1274.85 1542.23 1272.21 1539.37 Q1269.6 1536.5 1265.27 1536.5 Q1260.37 1536.5 1257.41 1539.27 Q1254.48 1542.04 1254.04 1547.07 L1274.92 1547.04 Z" clip-path="url(#clip390)"/><path fill="#000" fill-opacity="1" fill-rule="evenodd" d="M1313.84 1537.81 L1313.84 1518.52 L1319.7 1518.52 L1319.7 1568.04 L1313.84 1568.04 L1313.84 1562.7 Q1312 1565.88 1309.17 1567.44 Q1306.36 1568.97 1302.42 1568.97 Q1295.96 1568.97 1291.88 1563.81 Q1287.84 1558.65 1287.84 1550.25 Q1287.84 1541.85 1291.88 1536.69 Q1295.96 1531.54 1302.42 1531.54 Q1306.36 1531.54 1309.17 1533.1 Q1312 1534.62 1313.84 1537.81 M1293.89 1550.25 Q1293.89 1556.71 1296.53 1560.4 Q1299.2 1564.07 1303.85 1564.07 Q1308.5 1564.07 1311.17 1560.4 Q1313.84 1556.71 1313.84 1550.25 Q1313.84 1543.79 1311.17 1540.13 Q1308.5 1536.44 1303.85 1536.44 Q1299.2 1536.44 1296.53 1540.13 Q1293.89 1543.79 1293.89 1550.25 Z" clip-path="url(#clip390)"/><path fill="#000" fill-opacity="1" fill-rule="evenodd" d="M1358.28 1522.27 L1358.28 1532.4 L1370.34 1532.4 L1370.34 1536.95 L1358.28 1536.95 L1358.28 1556.3 Q1358.28 1560.66 1359.45 1561.9 Q1360.66 1563.14 1364.32 1563.14 L1370.34 1563.14 L1370.34 1568.04 L1364.32 1568.04 Q1357.54 1568.04 1354.97 1565.53 Q1352.39 1562.98 1352.39 1556.3 L1352.39 1536.95 L1348.09 1536.95 L1348.09 1532.4 L1352.39 1532.4 L1352.39 1522.27 L1358.28 1522.27 Z" clip-path="url(#clip390)"/><path fill="#000" fill-opacity="1" fill-rule="evenodd" d="M1378.04 1532.4 L1383.9 1532.4 L1383.9 1568.04 L1378.04 1568.04 L1378.04 1532.4 M1378.04 1518.52 L1383.9 1518.52 L1383.9 1525.93 L1378.04 1525.93 L1378.04 1518.52 Z" clip-path="url(#clip390)"/><path fill="#000" fill-opacity="1" fill-rule="evenodd" d="M1423.91 1539.24 Q1426.1 1535.29 1429.16 1533.41 Q1432.21 1531.54 1436.35 1531.54 Q1441.92 1531.54 1444.95 1535.45 Q1447.97 1539.33 1447.97 1546.53 L1447.97 1568.04 L1442.08 1568.04 L1442.08 1546.72 Q1442.08 1541.59 1440.27 1539.11 Q1438.45 1536.63 1434.73 1536.63 Q1430.18 1536.63 1427.54 1539.65 Q1424.89 1542.68 1424.89 1547.9 L1424.89 1568.04 L1419.01 1568.04 L1419.01 1546.72 Q1419.01 1541.56 1417.19 1539.11 Q1415.38 1536.63 1411.59 1536.63 Q1407.1 1536.63 1404.46 1539.68 Q1401.82 1542.71 1401.82 1547.9 L1401.82 1568.04 L1395.93 1568.04 L1395.93 1532.4 L1401.82 1532.4 L1401.82 1537.93 Q1403.82 1534.66 1406.62 1533.1 Q1409.43 1531.54 1413.28 1531.54 Q1417.16 1531.54 1419.87 1533.51 Q1422.6 1535.48 1423.91 1539.24 Z" clip-path="url(#clip390)"/><path fill="#000" fill-opacity="1" fill-rule="evenodd" d="M1490.14 1548.76 L1490.14 1551.62 L1463.22 1551.62 Q1463.6 1557.67 1466.84 1560.85 Q1470.12 1564 1475.95 1564 Q1479.32 1564 1482.47 1563.17 Q1485.65 1562.35 1488.77 1560.69 L1488.77 1566.23 Q1485.62 1567.57 1482.31 1568.27 Q1479 1568.97 1475.6 1568.97 Q1467.07 1568.97 1462.07 1564 Q1457.1 1559.04 1457.1 1550.57 Q1457.1 1541.82 1461.82 1536.69 Q1466.56 1531.54 1474.58 1531.54 Q1481.77 1531.54 1485.94 1536.18 Q1490.14 1540.8 1490.14 1548.76 M1484.29 1547.04 Q1484.22 1542.23 1481.58 1539.37 Q1478.97 1536.5 1474.64 1536.5 Q1469.74 1536.5 1466.78 1539.27 Q1463.85 1542.04 1463.41 1547.07 L1484.29 1547.04 Z" clip-path="url(#clip390)"/><polyline style="stroke:#000;stroke-linecap:butt;stroke-linejoin:round;stroke-width:2;stroke-opacity:.1;fill:none" points="257.204 1329.72 2352.76 1329.72" clip-path="url(#clip392)"/><polyline style="stroke:#000;stroke-linecap:butt;stroke-linejoin:round;stroke-width:2;stroke-opacity:.1;fill:none" points="257.204 1131.58 2352.76 1131.58" clip-path="url(#clip392)"/><polyline style="stroke:#000;stroke-linecap:butt;stroke-linejoin:round;stroke-width:2;stroke-opacity:.1;fill:none" points="257.204 933.441 2352.76 933.441" clip-path="url(#clip392)"/><polyline style="stroke:#000;stroke-linecap:butt;stroke-linejoin:round;stroke-width:2;stroke-opacity:.1;fill:none" points="257.204 735.302 2352.76 735.302" clip-path="url(#clip392)"/><polyline style="stroke:#000;stroke-linecap:butt;stroke-linejoin:round;stroke-width:2;stroke-opacity:.1;fill:none" points="257.204 537.162 2352.76 537.162" clip-path="url(#clip392)"/><polyline style="stroke:#000;stroke-linecap:butt;stroke-linejoin:round;stroke-width:2;stroke-opacity:.1;fill:none" points="257.204 339.022 2352.76 339.022" clip-path="url(#clip392)"/><polyline style="stroke:#000;stroke-linecap:butt;stroke-linejoin:round;stroke-width:2;stroke-opacity:.1;fill:none" points="257.204 140.883 2352.76 140.883" clip-path="url(#clip392)"/><polyline style="stroke:#000;stroke-linecap:butt;stroke-linejoin:round;stroke-width:4;stroke-opacity:1;fill:none" points="257.204 1423.18 257.204 47.244" clip-path="url(#clip390)"/><polyline style="stroke:#000;stroke-linecap:butt;stroke-linejoin:round;stroke-width:4;stroke-opacity:1;fill:none" points="257.204 1329.72 276.102 1329.72" clip-path="url(#clip390)"/><polyline style="stroke:#000;stroke-linecap:butt;stroke-linejoin:round;stroke-width:4;stroke-opacity:1;fill:none" points="257.204 1131.58 276.102 1131.58" clip-path="url(#clip390)"/><polyline style="stroke:#000;stroke-linecap:butt;stroke-linejoin:round;stroke-width:4;stroke-opacity:1;fill:none" points="257.204 933.441 276.102 933.441" clip-path="url(#clip390)"/><polyline style="stroke:#000;stroke-linecap:butt;stroke-linejoin:round;stroke-width:4;stroke-opacity:1;fill:none" points="257.204 735.302 276.102 735.302" clip-path="url(#clip390)"/><polyline style="stroke:#000;stroke-linecap:butt;stroke-linejoin:round;stroke-width:4;stroke-opacity:1;fill:none" points="257.204 537.162 276.102 537.162" clip-path="url(#clip390)"/><polyline style="stroke:#000;stroke-linecap:butt;stroke-linejoin:round;stroke-width:4;stroke-opacity:1;fill:none" points="257.204 339.022 276.102 339.022" clip-path="url(#clip390)"/><polyline style="stroke:#000;stroke-linecap:butt;stroke-linejoin:round;stroke-width:4;stroke-opacity:1;fill:none" points="257.204 140.883 276.102 140.883" clip-path="url(#clip390)"/><path fill="#000" fill-opacity="1" fill-rule="evenodd" d="M115.256 1330.17 L144.931 1330.17 L144.931 1334.11 L115.256 1334.11 L115.256 1330.17 Z" clip-path="url(#clip390)"/><path fill="#000" fill-opacity="1" fill-rule="evenodd" d="M155.834 1343.07 L163.473 1343.07 L163.473 1316.7 L155.163 1318.37 L155.163 1314.11 L163.427 1312.44 L168.102 1312.44 L168.102 1343.07 L175.741 1343.07 L175.741 1347 L155.834 1347 L155.834 1343.07 Z" clip-path="url(#clip390)"/><path fill="#000" fill-opacity="1" fill-rule="evenodd" d="M185.186 1341.12 L190.07 1341.12 L190.07 1347 L185.186 1347 L185.186 1341.12 Z" clip-path="url(#clip390)"/><path fill="#000" fill-opacity="1" fill-rule="evenodd" d="M200.301 1312.44 L218.658 1312.44 L218.658 1316.38 L204.584 1316.38 L204.584 1324.85 Q205.602 1324.5 206.621 1324.34 Q207.639 1324.15 208.658 1324.15 Q214.445 1324.15 217.824 1327.32 Q221.204 1330.5 221.204 1335.91 Q221.204 1341.49 217.732 1344.59 Q214.26 1347.67 207.94 1347.67 Q205.764 1347.67 203.496 1347.3 Q201.25 1346.93 198.843 1346.19 L198.843 1341.49 Q200.926 1342.63 203.149 1343.18 Q205.371 1343.74 207.848 1343.74 Q211.852 1343.74 214.19 1341.63 Q216.528 1339.52 216.528 1335.91 Q216.528 1332.3 214.19 1330.2 Q211.852 1328.09 207.848 1328.09 Q205.973 1328.09 204.098 1328.51 Q202.246 1328.92 200.301 1329.8 L200.301 1312.44 Z" clip-path="url(#clip390)"/><path fill="#000" fill-opacity="1" fill-rule="evenodd" d="M114.26 1132.03 L143.936 1132.03 L143.936 1135.97 L114.26 1135.97 L114.26 1132.03 Z" clip-path="url(#clip390)"/><path fill="#000" fill-opacity="1" fill-rule="evenodd" d="M154.839 1144.93 L162.477 1144.93 L162.477 1118.56 L154.167 1120.23 L154.167 1115.97 L162.431 1114.3 L167.107 1114.3 L167.107 1144.93 L174.746 1144.93 L174.746 1148.86 L154.839 1148.86 L154.839 1144.93 Z" clip-path="url(#clip390)"/><path fill="#000" fill-opacity="1" fill-rule="evenodd" d="M184.19 1142.98 L189.075 1142.98 L189.075 1148.86 L184.19 1148.86 L184.19 1142.98 Z" clip-path="url(#clip390)"/><path fill="#000" fill-opacity="1" fill-rule="evenodd" d="M209.26 1117.38 Q205.649 1117.38 203.82 1120.94 Q202.014 1124.49 202.014 1131.62 Q202.014 1138.72 203.82 1142.29 Q205.649 1145.83 209.26 1145.83 Q212.894 1145.83 214.699 1142.29 Q216.528 1138.72 216.528 1131.62 Q216.528 1124.49 214.699 1120.94 Q212.894 1117.38 209.26 1117.38 M209.26 1113.68 Q215.07 1113.68 218.125 1118.28 Q221.204 1122.87 221.204 1131.62 Q221.204 1140.34 218.125 1144.95 Q215.07 1149.53 209.26 1149.53 Q203.449 1149.53 200.371 1144.95 Q197.315 1140.34 197.315 1131.62 Q197.315 1122.87 200.371 1118.28 Q203.449 1113.68 209.26 1113.68 Z" clip-path="url(#clip390)"/><path fill="#000" fill-opacity="1" fill-rule="evenodd" d="M115.256 933.893 L144.931 933.893 L144.931 937.828 L115.256 937.828 L115.256 933.893 Z" clip-path="url(#clip390)"/><path fill="#000" fill-opacity="1" fill-rule="evenodd" d="M165.024 919.24 Q161.413 919.24 159.584 922.805 Q157.778 926.346 157.778 933.476 Q157.778 940.582 159.584 944.147 Q161.413 947.689 165.024 947.689 Q168.658 947.689 170.464 944.147 Q172.292 940.582 172.292 933.476 Q172.292 926.346 170.464 922.805 Q168.658 919.24 165.024 919.24 M165.024 915.536 Q170.834 915.536 173.889 920.143 Q176.968 924.726 176.968 933.476 Q176.968 942.203 173.889 946.809 Q170.834 951.393 165.024 951.393 Q159.214 951.393 156.135 946.809 Q153.079 942.203 153.079 933.476 Q153.079 924.726 156.135 920.143 Q159.214 915.536 165.024 915.536 Z" clip-path="url(#clip390)"/><path fill="#000" fill-opacity="1" fill-rule="evenodd" d="M185.186 944.842 L190.07 944.842 L190.07 950.721 L185.186 950.721 L185.186 944.842 Z" clip-path="url(#clip390)"/><path fill="#000" fill-opacity="1" fill-rule="evenodd" d="M200.301 916.161 L218.658 916.161 L218.658 920.096 L204.584 920.096 L204.584 928.569 Q205.602 928.221 206.621 928.059 Q207.639 927.874 208.658 927.874 Q214.445 927.874 217.824 931.045 Q221.204 934.217 221.204 939.633 Q221.204 945.212 217.732 948.314 Q214.26 951.393 207.94 951.393 Q205.764 951.393 203.496 951.022 Q201.25 950.652 198.843 949.911 L198.843 945.212 Q200.926 946.346 203.149 946.902 Q205.371 947.457 207.848 947.457 Q211.852 947.457 214.19 945.351 Q216.528 943.244 216.528 939.633 Q216.528 936.022 214.19 933.916 Q211.852 931.809 207.848 931.809 Q205.973 931.809 204.098 932.226 Q202.246 932.643 200.301 933.522 L200.301 916.161 Z" clip-path="url(#clip390)"/><path fill="#000" fill-opacity="1" fill-rule="evenodd" d="M164.028 721.1 Q160.417 721.1 158.589 724.665 Q156.783 728.207 156.783 735.336 Q156.783 742.443 158.589 746.008 Q160.417 749.549 164.028 749.549 Q167.663 749.549 169.468 746.008 Q171.297 742.443 171.297 735.336 Q171.297 728.207 169.468 724.665 Q167.663 721.1 164.028 721.1 M164.028 717.397 Q169.839 717.397 172.894 722.003 Q175.973 726.586 175.973 735.336 Q175.973 744.063 172.894 748.67 Q169.839 753.253 164.028 753.253 Q158.218 753.253 155.14 748.67 Q152.084 744.063 152.084 735.336 Q152.084 726.586 155.14 722.003 Q158.218 717.397 164.028 717.397 Z" clip-path="url(#clip390)"/><path fill="#000" fill-opacity="1" fill-rule="evenodd" d="M184.19 746.702 L189.075 746.702 L189.075 752.582 L184.19 752.582 L184.19 746.702 Z" clip-path="url(#clip390)"/><path fill="#000" fill-opacity="1" fill-rule="evenodd" d="M209.26 721.1 Q205.649 721.1 203.82 724.665 Q202.014 728.207 202.014 735.336 Q202.014 742.443 203.82 746.008 Q205.649 749.549 209.26 749.549 Q212.894 749.549 214.699 746.008 Q216.528 742.443 216.528 735.336 Q216.528 728.207 214.699 724.665 Q212.894 721.1 209.26 721.1 M209.26 717.397 Q215.07 717.397 218.125 722.003 Q221.204 726.586 221.204 735.336 Q221.204 744.063 218.125 748.67 Q215.07 753.253 209.26 753.253 Q203.449 753.253 200.371 748.67 Q197.315 744.063 197.315 735.336 Q197.315 726.586 200.371 722.003 Q203.449 717.397 209.26 717.397 Z" clip-path="url(#clip390)"/><path fill="#000" fill-opacity="1" fill-rule="evenodd" d="M165.024 522.961 Q161.413 522.961 159.584 526.525 Q157.778 530.067 157.778 537.197 Q157.778 544.303 159.584 547.868 Q161.413 551.409 165.024 551.409 Q168.658 551.409 170.464 547.868 Q172.292 544.303 172.292 537.197 Q172.292 530.067 170.464 526.525 Q168.658 522.961 165.024 522.961 M165.024 519.257 Q170.834 519.257 173.889 523.863 Q176.968 528.447 176.968 537.197 Q176.968 545.923 173.889 550.53 Q170.834 555.113 165.024 555.113 Q159.214 555.113 156.135 550.53 Q153.079 545.923 153.079 537.197 Q153.079 528.447 156.135 523.863 Q159.214 519.257 165.024 519.257 Z" clip-path="url(#clip390)"/><path fill="#000" fill-opacity="1" fill-rule="evenodd" d="M185.186 548.562 L190.07 548.562 L190.07 554.442 L185.186 554.442 L185.186 548.562 Z" clip-path="url(#clip390)"/><path fill="#000" fill-opacity="1" fill-rule="evenodd" d="M200.301 519.882 L218.658 519.882 L218.658 523.817 L204.584 523.817 L204.584 532.289 Q205.602 531.942 206.621 531.78 Q207.639 531.595 208.658 531.595 Q214.445 531.595 217.824 534.766 Q221.204 537.937 221.204 543.354 Q221.204 548.933 217.732 552.034 Q214.26 555.113 207.94 555.113 Q205.764 555.113 203.496 554.743 Q201.25 554.372 198.843 553.632 L198.843 548.933 Q200.926 550.067 203.149 550.622 Q205.371 551.178 207.848 551.178 Q211.852 551.178 214.19 549.072 Q216.528 546.965 216.528 543.354 Q216.528 539.743 214.19 537.636 Q211.852 535.53 207.848 535.53 Q205.973 535.53 204.098 535.947 Q202.246 536.363 200.301 537.243 L200.301 519.882 Z" clip-path="url(#clip390)"/><path fill="#000" fill-opacity="1" fill-rule="evenodd" d="M154.839 352.367 L162.477 352.367 L162.477 326.001 L154.167 327.668 L154.167 323.409 L162.431 321.742 L167.107 321.742 L167.107 352.367 L174.746 352.367 L174.746 356.302 L154.839 356.302 L154.839 352.367 Z" clip-path="url(#clip390)"/><path fill="#000" fill-opacity="1" fill-rule="evenodd" d="M184.19 350.423 L189.075 350.423 L189.075 356.302 L184.19 356.302 L184.19 350.423 Z" clip-path="url(#clip390)"/><path fill="#000" fill-opacity="1" fill-rule="evenodd" d="M209.26 324.821 Q205.649 324.821 203.82 328.386 Q202.014 331.927 202.014 339.057 Q202.014 346.163 203.82 349.728 Q205.649 353.27 209.26 353.27 Q212.894 353.27 214.699 349.728 Q216.528 346.163 216.528 339.057 Q216.528 331.927 214.699 328.386 Q212.894 324.821 209.26 324.821 M209.26 321.117 Q215.07 321.117 218.125 325.724 Q221.204 330.307 221.204 339.057 Q221.204 347.784 218.125 352.39 Q215.07 356.973 209.26 356.973 Q203.449 356.973 200.371 352.39 Q197.315 347.784 197.315 339.057 Q197.315 330.307 200.371 325.724 Q203.449 321.117 209.26 321.117 Z" clip-path="url(#clip390)"/><path fill="#000" fill-opacity="1" fill-rule="evenodd" d="M155.834 154.227 L163.473 154.227 L163.473 127.862 L155.163 129.528 L155.163 125.269 L163.427 123.603 L168.102 123.603 L168.102 154.227 L175.741 154.227 L175.741 158.163 L155.834 158.163 L155.834 154.227 Z" clip-path="url(#clip390)"/><path fill="#000" fill-opacity="1" fill-rule="evenodd" d="M185.186 152.283 L190.07 152.283 L190.07 158.163 L185.186 158.163 L185.186 152.283 Z" clip-path="url(#clip390)"/><path fill="#000" fill-opacity="1" fill-rule="evenodd" d="M200.301 123.603 L218.658 123.603 L218.658 127.538 L204.584 127.538 L204.584 136.01 Q205.602 135.663 206.621 135.501 Q207.639 135.315 208.658 135.315 Q214.445 135.315 217.824 138.487 Q221.204 141.658 221.204 147.075 Q221.204 152.653 217.732 155.755 Q214.26 158.834 207.94 158.834 Q205.764 158.834 203.496 158.463 Q201.25 158.093 198.843 157.352 L198.843 152.653 Q200.926 153.788 203.149 154.343 Q205.371 154.899 207.848 154.899 Q211.852 154.899 214.19 152.792 Q216.528 150.686 216.528 147.075 Q216.528 143.464 214.19 141.357 Q211.852 139.251 207.848 139.251 Q205.973 139.251 204.098 139.667 Q202.246 140.084 200.301 140.964 L200.301 123.603 Z" clip-path="url(#clip390)"/><path fill="#000" fill-opacity="1" fill-rule="evenodd" d="M29.4065 903.474 L34.9447 903.474 Q33.6716 905.956 33.035 908.63 Q32.3984 911.303 32.3984 914.168 Q32.3984 918.528 33.7352 920.725 Q35.072 922.889 37.7456 922.889 Q39.7826 922.889 40.9603 921.329 Q42.1061 919.77 43.1565 915.059 L43.6021 913.054 Q44.9389 906.816 47.3897 904.206 Q49.8086 901.564 54.1691 901.564 Q59.1344 901.564 62.0308 905.511 Q64.9272 909.425 64.9272 916.3 Q64.9272 919.165 64.3543 922.284 Q63.8132 925.372 62.6992 928.809 L56.6518 928.809 Q58.3387 925.563 59.198 922.411 Q60.0256 919.26 60.0256 916.173 Q60.0256 912.035 58.6251 909.807 Q57.1929 907.579 54.6147 907.579 Q52.2276 907.579 50.9545 909.203 Q49.6813 910.794 48.5037 916.237 L48.0262 918.274 Q46.8804 923.716 44.5251 926.135 Q42.138 928.554 38.0002 928.554 Q32.9713 928.554 30.2341 924.99 Q27.4968 921.425 27.4968 914.868 Q27.4968 911.622 27.9743 908.757 Q28.4517 905.892 29.4065 903.474 Z" clip-path="url(#clip390)"/><path fill="#000" fill-opacity="1" fill-rule="evenodd" d="M29.7248 866.584 L35.1993 866.584 Q33.8307 869.067 33.1623 871.581 Q32.4621 874.064 32.4621 876.61 Q32.4621 882.308 36.0905 885.459 Q39.6872 888.61 46.212 888.61 Q52.7369 888.61 56.3653 885.459 Q59.9619 882.308 59.9619 876.61 Q59.9619 874.064 59.2935 871.581 Q58.5933 869.067 57.2247 866.584 L62.6355 866.584 Q63.7814 869.035 64.3543 871.677 Q64.9272 874.287 64.9272 877.247 Q64.9272 885.299 59.8664 890.042 Q54.8057 894.784 46.212 894.784 Q37.491 894.784 32.4939 890.01 Q27.4968 885.204 27.4968 876.865 Q27.4968 874.159 28.0697 871.581 Q28.6108 869.003 29.7248 866.584 Z" clip-path="url(#clip390)"/><path fill="#000" fill-opacity="1" fill-rule="evenodd" d="M46.0847 840.198 Q46.0847 847.296 47.7079 850.033 Q49.3312 852.771 53.2461 852.771 Q56.3653 852.771 58.2114 850.734 Q60.0256 848.665 60.0256 845.132 Q60.0256 840.262 56.5881 837.334 Q53.1188 834.374 47.3897 834.374 L46.0847 834.374 L46.0847 840.198 M43.6657 828.517 L64.0042 828.517 L64.0042 834.374 L58.5933 834.374 Q61.8398 836.379 63.3994 839.371 Q64.9272 842.363 64.9272 846.691 Q64.9272 852.166 61.8716 855.412 Q58.7843 858.627 53.6281 858.627 Q47.6125 858.627 44.5569 854.617 Q41.5014 850.574 41.5014 842.586 L41.5014 834.374 L40.9285 834.374 Q36.8862 834.374 34.6901 837.047 Q32.4621 839.689 32.4621 844.495 Q32.4621 847.551 33.1941 850.447 Q33.9262 853.344 35.3903 856.017 L29.9795 856.017 Q28.7381 852.802 28.1334 849.779 Q27.4968 846.755 27.4968 843.89 Q27.4968 836.156 31.5072 832.337 Q35.5176 828.517 43.6657 828.517 Z" clip-path="url(#clip390)"/><path fill="#000" fill-opacity="1" fill-rule="evenodd" d="M14.479 816.454 L14.479 810.598 L64.0042 810.598 L64.0042 816.454 L14.479 816.454 Z" clip-path="url(#clip390)"/><path fill="#000" fill-opacity="1" fill-rule="evenodd" d="M44.7161 767.852 L47.5806 767.852 L47.5806 794.779 Q53.6281 794.397 56.8109 791.151 Q59.9619 787.872 59.9619 782.048 Q59.9619 778.674 59.1344 775.523 Q58.3069 772.34 56.6518 769.221 L62.1899 769.221 Q63.5267 772.372 64.227 775.682 Q64.9272 778.992 64.9272 782.398 Q64.9272 790.928 59.9619 795.925 Q54.9967 800.89 46.5303 800.89 Q37.7774 800.89 32.6531 796.18 Q27.4968 791.437 27.4968 783.416 Q27.4968 776.223 32.1438 772.053 Q36.7589 767.852 44.7161 767.852 M42.9973 773.709 Q38.1912 773.772 35.3266 776.414 Q32.4621 779.024 32.4621 783.353 Q32.4621 788.254 35.2312 791.214 Q38.0002 794.142 43.0292 794.588 L42.9973 773.709 Z" clip-path="url(#clip390)"/><path fill="#000" fill-opacity="1" fill-rule="evenodd" d="M33.7671 734.782 L14.479 734.782 L14.479 728.926 L64.0042 728.926 L64.0042 734.782 L58.657 734.782 Q61.8398 736.628 63.3994 739.461 Q64.9272 742.262 64.9272 746.209 Q64.9272 752.67 59.771 756.744 Q54.6147 760.786 46.212 760.786 Q37.8093 760.786 32.6531 756.744 Q27.4968 752.67 27.4968 746.209 Q27.4968 742.262 29.0564 739.461 Q30.5842 736.628 33.7671 734.782 M46.212 754.739 Q52.6732 754.739 56.3653 752.097 Q60.0256 749.423 60.0256 744.776 Q60.0256 740.129 56.3653 737.456 Q52.6732 734.782 46.212 734.782 Q39.7508 734.782 36.0905 737.456 Q32.3984 740.129 32.3984 744.776 Q32.3984 749.423 36.0905 752.097 Q39.7508 754.739 46.212 754.739 Z" clip-path="url(#clip390)"/><path fill="#000" fill-opacity="1" fill-rule="evenodd" d="M14.479 678.096 L19.3487 678.096 L19.3487 683.697 Q19.3487 686.849 20.6219 688.09 Q21.895 689.299 25.2052 689.299 L28.3562 689.299 L28.3562 679.655 L32.9077 679.655 L32.9077 689.299 L64.0042 689.299 L64.0042 695.188 L32.9077 695.188 L32.9077 700.789 L28.3562 700.789 L28.3562 695.188 L25.8736 695.188 Q19.9216 695.188 17.2162 692.419 Q14.479 689.649 14.479 683.634 L14.479 678.096 Z" clip-path="url(#clip390)"/><path fill="#000" fill-opacity="1" fill-rule="evenodd" d="M32.4621 659.38 Q32.4621 664.091 36.1542 666.828 Q39.8145 669.566 46.212 669.566 Q52.6095 669.566 56.3017 666.86 Q59.9619 664.123 59.9619 659.38 Q59.9619 654.702 56.2698 651.964 Q52.5777 649.227 46.212 649.227 Q39.8781 649.227 36.186 651.964 Q32.4621 654.702 32.4621 659.38 M27.4968 659.38 Q27.4968 651.742 32.4621 647.381 Q37.4273 643.021 46.212 643.021 Q54.9649 643.021 59.9619 647.381 Q64.9272 651.742 64.9272 659.38 Q64.9272 667.051 59.9619 671.412 Q54.9649 675.74 46.212 675.74 Q37.4273 675.74 32.4621 671.412 Q27.4968 667.051 27.4968 659.38 Z" clip-path="url(#clip390)"/><path fill="#000" fill-opacity="1" fill-rule="evenodd" d="M33.8307 612.656 Q33.2578 613.643 33.0032 614.821 Q32.7167 615.966 32.7167 617.367 Q32.7167 622.332 35.9632 625.006 Q39.1779 627.647 45.2253 627.647 L64.0042 627.647 L64.0042 633.536 L28.3562 633.536 L28.3562 627.647 L33.8944 627.647 Q30.6479 625.801 29.0883 622.841 Q27.4968 619.881 27.4968 615.648 Q27.4968 615.043 27.5923 614.311 Q27.656 613.579 27.8151 612.688 L33.8307 612.656 Z" clip-path="url(#clip390)"/><path fill="#000" fill-opacity="1" fill-rule="evenodd" d="M29.7248 582.292 L35.1993 582.292 Q33.8307 584.774 33.1623 587.289 Q32.4621 589.771 32.4621 592.318 Q32.4621 598.015 36.0905 601.166 Q39.6872 604.317 46.212 604.317 Q52.7369 604.317 56.3653 601.166 Q59.9619 598.015 59.9619 592.318 Q59.9619 589.771 59.2935 587.289 Q58.5933 584.774 57.2247 582.292 L62.6355 582.292 Q63.7814 584.743 64.3543 587.384 Q64.9272 589.994 64.9272 592.954 Q64.9272 601.007 59.8664 605.749 Q54.8057 610.492 46.212 610.492 Q37.491 610.492 32.4939 605.718 Q27.4968 600.911 27.4968 592.572 Q27.4968 589.867 28.0697 587.289 Q28.6108 584.711 29.7248 582.292 Z" clip-path="url(#clip390)"/><path fill="#000" fill-opacity="1" fill-rule="evenodd" d="M44.7161 541.615 L47.5806 541.615 L47.5806 568.542 Q53.6281 568.16 56.8109 564.913 Q59.9619 561.635 59.9619 555.81 Q59.9619 552.437 59.1344 549.286 Q58.3069 546.103 56.6518 542.984 L62.1899 542.984 Q63.5267 546.135 64.227 549.445 Q64.9272 552.755 64.9272 556.161 Q64.9272 564.691 59.9619 569.688 Q54.9967 574.653 46.5303 574.653 Q37.7774 574.653 32.6531 569.942 Q27.4968 565.2 27.4968 557.179 Q27.4968 549.986 32.1438 545.816 Q36.7589 541.615 44.7161 541.615 M42.9973 547.471 Q38.1912 547.535 35.3266 550.177 Q32.4621 552.787 32.4621 557.115 Q32.4621 562.017 35.2312 564.977 Q38.0002 567.905 43.0292 568.351 L42.9973 547.471 Z" clip-path="url(#clip390)"/><circle cx="316.512" cy="636.126" r="14" fill="#009af9" fill-opacity="1" fill-rule="evenodd" stroke="#000" stroke-opacity="1" stroke-width="3.2" clip-path="url(#clip392)"/><circle cx="402.466" cy="619.968" r="14" fill="#009af9" fill-opacity="1" fill-rule="evenodd" stroke="#000" stroke-opacity="1" stroke-width="3.2" clip-path="url(#clip392)"/><circle cx="488.42" cy="622.74" r="14" fill="#009af9" fill-opacity="1" fill-rule="evenodd" stroke="#000" stroke-opacity="1" stroke-width="3.2" clip-path="url(#clip392)"/><circle cx="574.373" cy="651.696" r="14" fill="#009af9" fill-opacity="1" fill-rule="evenodd" stroke="#000" stroke-opacity="1" stroke-width="3.2" clip-path="url(#clip392)"/><circle cx="660.327" cy="688.688" r="14" fill="#009af9" fill-opacity="1" fill-rule="evenodd" stroke="#000" stroke-opacity="1" stroke-width="3.2" clip-path="url(#clip392)"/><circle cx="746.281" cy="726.085" r="14" fill="#009af9" fill-opacity="1" fill-rule="evenodd" stroke="#000" stroke-opacity="1" stroke-width="3.2" clip-path="url(#clip392)"/><circle cx="832.234" cy="751.555" r="14" fill="#009af9" fill-opacity="1" fill-rule="evenodd" stroke="#000" stroke-opacity="1" stroke-width="3.2" clip-path="url(#clip392)"/><circle cx="918.188" cy="763.339" r="14" fill="#009af9" fill-opacity="1" fill-rule="evenodd" stroke="#000" stroke-opacity="1" stroke-width="3.2" clip-path="url(#clip392)"/><circle cx="1004.14" cy="756.732" r="14" fill="#009af9" fill-opacity="1" fill-rule="evenodd" stroke="#000" stroke-opacity="1" stroke-width="3.2" clip-path="url(#clip392)"/><circle cx="1090.1" cy="736.31" r="14" fill="#009af9" fill-opacity="1" fill-rule="evenodd" stroke="#000" stroke-opacity="1" stroke-width="3.2" clip-path="url(#clip392)"/><circle cx="1176.05" cy="704.855" r="14" fill="#009af9" fill-opacity="1" fill-rule="evenodd" stroke="#000" stroke-opacity="1" stroke-width="3.2" clip-path="url(#clip392)"/><circle cx="1262" cy="666.842" r="14" fill="#009af9" fill-opacity="1" fill-rule="evenodd" stroke="#000" stroke-opacity="1" stroke-width="3.2" clip-path="url(#clip392)"/><circle cx="1347.96" cy="634.634" r="14" fill="#009af9" fill-opacity="1" fill-rule="evenodd" stroke="#000" stroke-opacity="1" stroke-width="3.2" clip-path="url(#clip392)"/><circle cx="1433.91" cy="619.707" r="14" fill="#009af9" fill-opacity="1" fill-rule="evenodd" stroke="#000" stroke-opacity="1" stroke-width="3.2" clip-path="url(#clip392)"/><circle cx="1519.86" cy="624.72" r="14" fill="#009af9" fill-opacity="1" fill-rule="evenodd" stroke="#000" stroke-opacity="1" stroke-width="3.2" clip-path="url(#clip392)"/><circle cx="1605.82" cy="650.794" r="14" fill="#009af9" fill-opacity="1" fill-rule="evenodd" stroke="#000" stroke-opacity="1" stroke-width="3.2" clip-path="url(#clip392)"/><circle cx="1691.77" cy="687.321" r="14" fill="#009af9" fill-opacity="1" fill-rule="evenodd" stroke="#000" stroke-opacity="1" stroke-width="3.2" clip-path="url(#clip392)"/><circle cx="1777.73" cy="724.277" r="14" fill="#009af9" fill-opacity="1" fill-rule="evenodd" stroke="#000" stroke-opacity="1" stroke-width="3.2" clip-path="url(#clip392)"/><circle cx="1863.68" cy="751.396" r="14" fill="#009af9" fill-opacity="1" fill-rule="evenodd" stroke="#000" stroke-opacity="1" stroke-width="3.2" clip-path="url(#clip392)"/><circle cx="1949.63" cy="762.075" r="14" fill="#009af9" fill-opacity="1" fill-rule="evenodd" stroke="#000" stroke-opacity="1" stroke-width="3.2" clip-path="url(#clip392)"/><circle cx="2035.59" cy="756.302" r="14" fill="#009af9" fill-opacity="1" fill-rule="evenodd" stroke="#000" stroke-opacity="1" stroke-width="3.2" clip-path="url(#clip392)"/><circle cx="2121.54" cy="739.019" r="14" fill="#009af9" fill-opacity="1" fill-rule="evenodd" stroke="#000" stroke-opacity="1" stroke-width="3.2" clip-path="url(#clip392)"/><circle cx="2207.49" cy="703.125" r="14" fill="#009af9" fill-opacity="1" fill-rule="evenodd" stroke="#000" stroke-opacity="1" stroke-width="3.2" clip-path="url(#clip392)"/><circle cx="2293.45" cy="666.173" r="14" fill="#009af9" fill-opacity="1" fill-rule="evenodd" stroke="#000" stroke-opacity="1" stroke-width="3.2" clip-path="url(#clip392)"/><circle cx="316.512" cy="128.284" r="14" fill="#e26f46" fill-opacity="1" fill-rule="evenodd" stroke="#000" stroke-opacity="1" stroke-width="3.2" clip-path="url(#clip392)"/><circle cx="402.466" cy="88.76" r="14" fill="#e26f46" fill-opacity="1" fill-rule="evenodd" stroke="#000" stroke-opacity="1" stroke-width="3.2" clip-path="url(#clip392)"/><circle cx="488.42" cy="86.186" r="14" fill="#e26f46" fill-opacity="1" fill-rule="evenodd" stroke="#000" stroke-opacity="1" stroke-width="3.2" clip-path="url(#clip392)"/><circle cx="574.373" cy="158.5" r="14" fill="#e26f46" fill-opacity="1" fill-rule="evenodd" stroke="#000" stroke-opacity="1" stroke-width="3.2" clip-path="url(#clip392)"/><circle cx="660.327" cy="255.106" r="14" fill="#e26f46" fill-opacity="1" fill-rule="evenodd" stroke="#000" stroke-opacity="1" stroke-width="3.2" clip-path="url(#clip392)"/><circle cx="746.281" cy="375.191" r="14" fill="#e26f46" fill-opacity="1" fill-rule="evenodd" stroke="#000" stroke-opacity="1" stroke-width="3.2" clip-path="url(#clip392)"/><circle cx="832.234" cy="501.069" r="14" fill="#e26f46" fill-opacity="1" fill-rule="evenodd" stroke="#000" stroke-opacity="1" stroke-width="3.2" clip-path="url(#clip392)"/><circle cx="918.188" cy="649.374" r="14" fill="#e26f46" fill-opacity="1" fill-rule="evenodd" stroke="#000" stroke-opacity="1" stroke-width="3.2" clip-path="url(#clip392)"/><circle cx="1004.14" cy="826.008" r="14" fill="#e26f46" fill-opacity="1" fill-rule="evenodd" stroke="#000" stroke-opacity="1" stroke-width="3.2" clip-path="url(#clip392)"/><circle cx="1090.1" cy="999.565" r="14" fill="#e26f46" fill-opacity="1" fill-rule="evenodd" stroke="#000" stroke-opacity="1" stroke-width="3.2" clip-path="url(#clip392)"/><circle cx="1176.05" cy="1134.45" r="14" fill="#e26f46" fill-opacity="1" fill-rule="evenodd" stroke="#000" stroke-opacity="1" stroke-width="3.2" clip-path="url(#clip392)"/><circle cx="1262" cy="1270.17" r="14" fill="#e26f46" fill-opacity="1" fill-rule="evenodd" stroke="#000" stroke-opacity="1" stroke-width="3.2" clip-path="url(#clip392)"/><circle cx="1347.96" cy="1355.59" r="14" fill="#e26f46" fill-opacity="1" fill-rule="evenodd" stroke="#000" stroke-opacity="1" stroke-width="3.2" clip-path="url(#clip392)"/><circle cx="1433.91" cy="1384.24" r="14" fill="#e26f46" fill-opacity="1" fill-rule="evenodd" stroke="#000" stroke-opacity="1" stroke-width="3.2" clip-path="url(#clip392)"/><circle cx="1519.86" cy="1375.39" r="14" fill="#e26f46" fill-opacity="1" fill-rule="evenodd" stroke="#000" stroke-opacity="1" stroke-width="3.2" clip-path="url(#clip392)"/><circle cx="1605.82" cy="1307.03" r="14" fill="#e26f46" fill-opacity="1" fill-rule="evenodd" stroke="#000" stroke-opacity="1" stroke-width="3.2" clip-path="url(#clip392)"/><circle cx="1691.77" cy="1209.03" r="14" fill="#e26f46" fill-opacity="1" fill-rule="evenodd" stroke="#000" stroke-opacity="1" stroke-width="3.2" clip-path="url(#clip392)"/><circle cx="1777.73" cy="1098.88" r="14" fill="#e26f46" fill-opacity="1" fill-rule="evenodd" stroke="#000" stroke-opacity="1" stroke-width="3.2" clip-path="url(#clip392)"/><circle cx="1863.68" cy="966.492" r="14" fill="#e26f46" fill-opacity="1" fill-rule="evenodd" stroke="#000" stroke-opacity="1" stroke-width="3.2" clip-path="url(#clip392)"/><circle cx="1949.63" cy="826.999" r="14" fill="#e26f46" fill-opacity="1" fill-rule="evenodd" stroke="#000" stroke-opacity="1" stroke-width="3.2" clip-path="url(#clip392)"/><circle cx="2035.59" cy="657.014" r="14" fill="#e26f46" fill-opacity="1" fill-rule="evenodd" stroke="#000" stroke-opacity="1" stroke-width="3.2" clip-path="url(#clip392)"/><circle cx="2121.54" cy="490.278" r="14" fill="#e26f46" fill-opacity="1" fill-rule="evenodd" stroke="#000" stroke-opacity="1" stroke-width="3.2" clip-path="url(#clip392)"/><circle cx="2207.49" cy="320.179" r="14" fill="#e26f46" fill-opacity="1" fill-rule="evenodd" stroke="#000" stroke-opacity="1" stroke-width="3.2" clip-path="url(#clip392)"/><circle cx="2293.45" cy="200.493" r="14" fill="#e26f46" fill-opacity="1" fill-rule="evenodd" stroke="#000" stroke-opacity="1" stroke-width="3.2" clip-path="url(#clip392)"/><path fill="#fff" fill-opacity="1" fill-rule="evenodd" d="M1911.01 248.629 L2282.9 248.629 L2282.9 93.1086 L1911.01 93.1086 Z" clip-path="url(#clip390)"/><polyline style="stroke:#000;stroke-linecap:butt;stroke-linejoin:round;stroke-width:4;stroke-opacity:1;fill:none" points="1911.01 248.629 2282.9 248.629 2282.9 93.109 1911.01 93.109 1911.01 248.629" clip-path="url(#clip390)"/><circle cx="2004.15" cy="144.949" r="23" fill="#009af9" fill-opacity="1" fill-rule="evenodd" stroke="#000" stroke-opacity="1" stroke-width="5.12" clip-path="url(#clip390)"/><path fill="#000" fill-opacity="1" fill-rule="evenodd" d="M2104.69 128.942 L2104.69 136.303 L2113.47 136.303 L2113.47 139.613 L2104.69 139.613 L2104.69 153.687 Q2104.69 156.858 2105.55 157.761 Q2106.43 158.664 2109.09 158.664 L2113.47 158.664 L2113.47 162.229 L2109.09 162.229 Q2104.16 162.229 2102.29 160.4 Q2100.41 158.548 2100.41 153.687 L2100.41 139.613 L2097.29 139.613 L2097.29 136.303 L2100.41 136.303 L2100.41 128.942 L2104.69 128.942 Z" clip-path="url(#clip390)"/><path fill="#000" fill-opacity="1" fill-rule="evenodd" d="M2140.62 146.581 L2140.62 162.229 L2136.36 162.229 L2136.36 146.719 Q2136.36 143.039 2134.92 141.21 Q2133.49 139.382 2130.62 139.382 Q2127.17 139.382 2125.18 141.581 Q2123.19 143.78 2123.19 147.576 L2123.19 162.229 L2118.91 162.229 L2118.91 126.21 L2123.19 126.21 L2123.19 140.331 Q2124.72 137.993 2126.78 136.835 Q2128.86 135.678 2131.57 135.678 Q2136.04 135.678 2138.33 138.456 Q2140.62 141.21 2140.62 146.581 Z" clip-path="url(#clip390)"/><path fill="#000" fill-opacity="1" fill-rule="evenodd" d="M2164.14 140.284 Q2163.42 139.868 2162.56 139.682 Q2161.73 139.474 2160.71 139.474 Q2157.1 139.474 2155.16 141.835 Q2153.23 144.173 2153.23 148.571 L2153.23 162.229 L2148.95 162.229 L2148.95 136.303 L2153.23 136.303 L2153.23 140.331 Q2154.58 137.969 2156.73 136.835 Q2158.88 135.678 2161.96 135.678 Q2162.4 135.678 2162.93 135.747 Q2163.47 135.794 2164.11 135.909 L2164.14 140.284 Z" clip-path="url(#clip390)"/><path fill="#000" fill-opacity="1" fill-rule="evenodd" d="M2168.17 151.997 L2168.17 136.303 L2172.42 136.303 L2172.42 151.835 Q2172.42 155.516 2173.86 157.368 Q2175.3 159.196 2178.17 159.196 Q2181.61 159.196 2183.61 156.997 Q2185.62 154.798 2185.62 151.002 L2185.62 136.303 L2189.88 136.303 L2189.88 162.229 L2185.62 162.229 L2185.62 158.247 Q2184.07 160.608 2182.01 161.766 Q2179.97 162.9 2177.26 162.9 Q2172.8 162.9 2170.48 160.122 Q2168.17 157.344 2168.17 151.997 M2178.88 135.678 L2178.88 135.678 Z" clip-path="url(#clip390)"/><path fill="#000" fill-opacity="1" fill-rule="evenodd" d="M2215.18 137.067 L2215.18 141.094 Q2213.37 140.169 2211.43 139.706 Q2209.48 139.243 2207.4 139.243 Q2204.23 139.243 2202.63 140.215 Q2201.06 141.187 2201.06 143.131 Q2201.06 144.613 2202.19 145.469 Q2203.33 146.303 2206.75 147.067 L2208.21 147.391 Q2212.75 148.363 2214.65 150.145 Q2216.57 151.905 2216.57 155.076 Q2216.57 158.687 2213.7 160.793 Q2210.85 162.9 2205.85 162.9 Q2203.77 162.9 2201.5 162.483 Q2199.25 162.09 2196.75 161.28 L2196.75 156.881 Q2199.11 158.108 2201.41 158.733 Q2203.7 159.335 2205.94 159.335 Q2208.95 159.335 2210.57 158.317 Q2212.19 157.275 2212.19 155.4 Q2212.19 153.664 2211.01 152.738 Q2209.86 151.812 2205.9 150.956 L2204.42 150.608 Q2200.46 149.775 2198.7 148.062 Q2196.94 146.326 2196.94 143.317 Q2196.94 139.659 2199.53 137.669 Q2202.12 135.678 2206.89 135.678 Q2209.25 135.678 2211.34 136.025 Q2213.42 136.372 2215.18 137.067 Z" clip-path="url(#clip390)"/><path fill="#000" fill-opacity="1" fill-rule="evenodd" d="M2227.56 128.942 L2227.56 136.303 L2236.34 136.303 L2236.34 139.613 L2227.56 139.613 L2227.56 153.687 Q2227.56 156.858 2228.42 157.761 Q2229.3 158.664 2231.96 158.664 L2236.34 158.664 L2236.34 162.229 L2231.96 162.229 Q2227.03 162.229 2225.16 160.4 Q2223.28 158.548 2223.28 153.687 L2223.28 139.613 L2220.16 139.613 L2220.16 136.303 L2223.28 136.303 L2223.28 128.942 L2227.56 128.942 Z" clip-path="url(#clip390)"/><circle cx="2004.15" cy="196.789" r="23" fill="#e26f46" fill-opacity="1" fill-rule="evenodd" stroke="#000" stroke-opacity="1" stroke-width="5.12" clip-path="url(#clip390)"/><path fill="#000" fill-opacity="1" fill-rule="evenodd" d="M2115.71 188.907 L2115.71 192.934 Q2113.91 192.009 2111.96 191.546 Q2110.02 191.083 2107.93 191.083 Q2104.76 191.083 2103.17 192.055 Q2101.59 193.027 2101.59 194.971 Q2101.59 196.453 2102.73 197.309 Q2103.86 198.143 2107.29 198.907 L2108.74 199.231 Q2113.28 200.203 2115.18 201.985 Q2117.1 203.745 2117.1 206.916 Q2117.1 210.527 2114.23 212.633 Q2111.38 214.74 2106.38 214.74 Q2104.3 214.74 2102.03 214.323 Q2099.79 213.93 2097.29 213.12 L2097.29 208.721 Q2099.65 209.948 2101.94 210.573 Q2104.23 211.175 2106.48 211.175 Q2109.49 211.175 2111.11 210.157 Q2112.73 209.115 2112.73 207.24 Q2112.73 205.504 2111.55 204.578 Q2110.39 203.652 2106.43 202.796 L2104.95 202.448 Q2100.99 201.615 2099.23 199.902 Q2097.47 198.166 2097.47 195.157 Q2097.47 191.499 2100.06 189.509 Q2102.66 187.518 2107.43 187.518 Q2109.79 187.518 2111.87 187.865 Q2113.95 188.212 2115.71 188.907 Z" clip-path="url(#clip390)"/><path fill="#000" fill-opacity="1" fill-rule="evenodd" d="M2123.88 188.143 L2128.14 188.143 L2128.14 214.069 L2123.88 214.069 L2123.88 188.143 M2123.88 178.05 L2128.14 178.05 L2128.14 183.444 L2123.88 183.444 L2123.88 178.05 Z" clip-path="url(#clip390)"/><path fill="#000" fill-opacity="1" fill-rule="evenodd" d="M2154.11 192.078 L2154.11 178.05 L2158.37 178.05 L2158.37 214.069 L2154.11 214.069 L2154.11 210.18 Q2152.77 212.495 2150.71 213.629 Q2148.67 214.74 2145.8 214.74 Q2141.11 214.74 2138.14 210.99 Q2135.2 207.24 2135.2 201.129 Q2135.2 195.018 2138.14 191.268 Q2141.11 187.518 2145.8 187.518 Q2148.67 187.518 2150.71 188.652 Q2152.77 189.763 2154.11 192.078 M2139.6 201.129 Q2139.6 205.828 2141.52 208.513 Q2143.47 211.175 2146.85 211.175 Q2150.23 211.175 2152.17 208.513 Q2154.11 205.828 2154.11 201.129 Q2154.11 196.43 2152.17 193.768 Q2150.23 191.083 2146.85 191.083 Q2143.47 191.083 2141.52 193.768 Q2139.6 196.43 2139.6 201.129 Z" clip-path="url(#clip390)"/><path fill="#000" fill-opacity="1" fill-rule="evenodd" d="M2189.32 200.041 L2189.32 202.124 L2169.74 202.124 Q2170.02 206.522 2172.38 208.837 Q2174.76 211.129 2179 211.129 Q2181.45 211.129 2183.74 210.527 Q2186.06 209.925 2188.33 208.721 L2188.33 212.749 Q2186.04 213.721 2183.63 214.231 Q2181.22 214.74 2178.74 214.74 Q2172.54 214.74 2168.91 211.129 Q2165.3 207.518 2165.3 201.36 Q2165.3 194.995 2168.72 191.268 Q2172.17 187.518 2178 187.518 Q2183.23 187.518 2186.27 190.897 Q2189.32 194.254 2189.32 200.041 M2185.06 198.791 Q2185.02 195.296 2183.1 193.212 Q2181.2 191.129 2178.05 191.129 Q2174.48 191.129 2172.33 193.143 Q2170.2 195.157 2169.88 198.814 L2185.06 198.791 Z" clip-path="url(#clip390)"/></svg>