<svg xmlns="http://www.w3.org/2000/svg" width="2100" height="350"><style>.a,.b,.c,.d{fill-opacity:.4;fill:#4063d8}.b,.c,.d{fill:#389826}.c,.d{fill:#cb3c33}.d{fill:#9558b2}</style><path fill="#0A0A0A" d="M0 0h2100v350H0z"/><path d="M-1 62.4l-2.4 4.7L.4 47.7zm0 0" class="a"/><path d="M1.7 141.3l-7-55.8 43.6 43.6zm0 0" class="b"/><path d="M7.6 13.9l34.6 40.7-39 6zm0 0" class="c"/><path d="M35.4-4.9l7.7 54.4-34-39.9zm0 0" class="d"/><path d="M2.3 64.8l29.1-4.5-34.9 15.5zm0 0" class="a"/><path d="M-4.2 286l46.9 21.3-50.4 31zm0 0" class="b"/><path d="M-5.5 279.9l-7.6-13 49-22.2zm0 0" class="c"/><path d="M1.2 201.6l43 34.9-57.3 26zm0 0" class="d"/><path d="M45 303.9l-47.3-21.4 48.2-41.1zm0 0" class="a"/><path d="M2 195.5v-47.7l52.1 35.3zm0 0" class="b"/><path d="M40.7 132.5l14.7 46.6-50.9-34.5zm0 0" class="c"/><path d="M46.7 233.4L4.4 199l52-12.3zm0 0" class="d"/><path d="M41.7 126.9L-1.6 83.5l63.3 14.8zm0 0" class="a"/><path d="M45 58.6l16.5 35.5-63.2-14.7zm0 0" class="b"/><path d="M46.3 309.8l17.2 28.3-66.1 1.7zm0 0" class="c"/><path d="M64.8 91.8L49 57.8l29.1-2.5zm0 0" class="d"/><path d="M47.7 53.8L40.1-.3l37.2 51.6zm0 0" class="a"/><path d="M79.5 63l1.4 29.3-12.8 2.2zm0 0" class="b"/><path d="M68 337.7l-15.5-25.5 37.9 20.1zm0 0" class="c"/><path d="M80.8 49.3L41.5-5.2l63.4 10.7zm0 0" class="d"/><path d="M60.2 188.1l47 47.8-56.8-.9zm0 0" class="a"/><path d="M49.9 241l61.6 47.1L49 304.4zm0 0" class="b"/><path d="M110.1 240l3.6 44.7L54 239.1zm0 0" class="c"/><path d="M95.1 330.2l-42.6-22.6 59.9-15.6zm0 0" class="d"/><path d="M60 180.4l-15.2-48.3 67.1 1.8zm0 0" class="a"/><path d="M65.5 99.8l44.7 30-64.4-1.7zm0 0" class="b"/><path d="M82.2 96.2l22.6 25.2-34.5-23.3zm0 0" class="c"/><path d="M110.5 233.6l-46.7-47.5 52 .9zm0 0" class="d"/><path d="M115.1 136.4l.9 46.6-51.9-.9zm0 0" class="a"/><path d="M119.8 173l-.7-35.2 8.7 10.6zm0 0" class="b"/><path d="M96.1 335l16.9 3H83.8zm0 0" class="c"/><path d="M115.9 294.1l16.9 43.3-33.9-5.9zm0 0" class="d"/><path d="M117.7 284.5l-3.2-40.8 20.7 23.2zm0 0" class="a"/><path d="M84.8 89.8l-1.7-35.2 56.6-12.9zm0 0" class="b"/><path d="M108.6 7.1l34.1 29.8-57.8 13.2zm0 0" class="c"/><path d="M117.4 129.5l-28.6-32 60.6 15.2zm0 0" class="d"/><path d="M145.4 42l7.3 67.4L87.2 93zm0 0" class="a"/><path d="M129.9 144.7l-9.8-12.1 28.6-15zm0 0" class="b"/><path d="M136.2 334.9l-17.1-43.6 35.9 3.4zm0 0" class="c"/><path d="M137.8 270l15.8 20.6-33.2-3.2zm0 0" class="d"/><path d="M107.8 1.9L53.9-7.2l98-6.8zm0 0" class="a"/><path d="M146.1 34.5L111.9 4.7l50.8-18.4zm0 0" class="b"/><path d="M119.7 187.8l43.8 17.5-49.1 28.9zm0 0" class="c"/><path d="M137.5 263.4l-22.4-24.9 48.2-28.4zm0 0" class="d"/><path d="M130.6 152.5l32.2 48.3-42.3-17zm0 0" class="a"/><path d="M156 114.1l24.6 2.3-43.8 25.4zm0 0" class="b"/><path d="M168.2 201.7l-31.7-47.6 48.4 28.4zm0 0" class="c"/><path d="M185.1 118.4l.8 60.1L134 148zm0 0" class="d"/><path d="M166.9-13.5l19 16.5-34.7 28.9zm0 0" class="a"/><path d="M158.9 290.8L143.6 271l45.9 15.3zm0 0" class="b"/><path d="M185.6 112.9l-26.2-2.5 40.1-41zm0 0" class="c"/><path d="M156.5 107.6l-7.1-66.4 51.1 21.5zm0 0" class="d"/><path d="M187.8 6.6l13.3 52-50.3-21.2zm0 0" class="a"/><path d="M189.9 178l-.8-54.9 21.3 39.3zm0 0" class="b"/><path d="M168.7 208.1l42.1 34.1-69 21.5zm0 0" class="c"/><path d="M196.8 284.5l-52.3-17.4 67.1-21zm0 0" class="d"/><path d="M187.4 185.7l22.4 50.5-38.9-31.4zm0 0" class="a"/><path d="M135.9 342l17.1 2.4-32.1-2.4zm0 0" class="b"/><path d="M158.6 296.5l50.9 51.7-70.5-9.8zm0 0" class="c"/><path d="M196.5 289.2l14.6 55-48.9-49.8zm0 0" class="d"/><path d="M215.7 246.7l11.4 12.2-24.3 21.3zm0 0" class="a"/><path d="M212.8 165.7l19.8 20.5-39.6-5.5zm0 0" class="b"/><path d="M215 238l-23.7-53.5 43.8 6.1zm0 0" class="c"/><path d="M190 1.2L178.1-9.2 216.9 9zm0 0" class="d"/><path d="M205 57.7L191.8 5.9l45.7 13.2zm0 0" class="a"/><path d="M239.1 23.3l.9 29.1-30.7 6.4zm0 0" class="b"/><path d="M205.1 65.1L238 85.8l-47.6 25.1zm0 0" class="c"/><path d="M240 56.5v25.9l-30.8-19.5zm0 0" class="d"/><path d="M214 160.6L192.5 121l47.9 31.4zm0 0" class="a"/><path d="M240.1 89.2l2.7 60-51.9-34zm0 0" class="b"/><path d="M236.8 184.8l-20.1-20.9 25.7-8zm0 0" class="c"/><path d="M216.2 347.8l-14.5-54.7 41 37.6zm0 0" class="d"/><path d="M230 261.6l30.3 26.1-57.2-2.5zm0 0" class="a"/><path d="M245.4 327.7l-42-38.5 59.5 2.7zm0 0" class="b"/><path d="M230 256.1l-11.8-12.6 51.2-27.5zm0 0" class="c"/><path d="M239 191.7l36.5 16.5-56.4 30.3zm0 0" class="d"/><path d="M246 158.3l28.7 45.1-34.4-15.6zm0 0" class="a"/><path d="M243.9 51.3l-.8-30.2 41.1 17.6zm0 0" class="b"/><path d="M246.7 146.6l-2.6-58.7 42.1-2.7zm0 0" class="c"/><path d="M244 83.9V57.5l39.5 23.9zm0 0" class="d"/><path d="M288 41.7v37.8l-41.2-24.9zm0 0" class="a"/><path d="M279.7 203.8l-30.8-48.5 51.1 4.5zm0 0" class="b"/><path d="M288.9 88.4l11.7 67.4-52.1-4.5zm0 0" class="c"/><path d="M246.6 333H286l-60.5 13.6zm0 0" class="d"/><path d="M266.5 293.5l32.9 35.5h-50.2zm0 0" class="a"/><path d="M266.1 287.5l-30.6-26.4 67.3.8zm0 0" class="b"/><path d="M279.6 211.3l26 46.7-70.9-.9zm0 0" class="c"/><path d="M241.1 15.8l-64.9-30.2 124.5 6.9zm0 0" class="d"/><path d="M288.9 36.4l-42.6-18.3 60-23.5zm0 0" class="a"/><path d="M303.9 328l-28.2-30.5 37.2 20.1zm0 0" class="b"/><path d="M307.4 263.5l6.1 49.9-43.7-23.6zm0 0" class="c"/><path d="M311-6.3l17.4 8.8-33.2 29.3zm0 0" class="d"/><path d="M303.9 151.7l-11.4-66.3 41.5 7.1zm0 0" class="a"/><path d="M292 81.3V44.2l39.6 43.9zm0 0" class="b"/><path d="M335.1 99.1l.9 45.5-29 9.9zm0 0" class="c"/><path d="M316.4 319.6l18 11.8-26.3-2.1zm0 0" class="d"/><path d="M303.5 161.8l37.2 46.1-57.6-1.8zm0 0" class="a"/><path d="M336.3 148.7l6 54.7-35.9-44.4zm0 0" class="b"/><path d="M309.2 256.3l-25.7-46.2 57.7 1.8zm0 0" class="c"/><path d="M340.7 330.7l-20.2-13.1 24.8-8.6zm0 0" class="d"/><path d="M317.7 314.3l-5.9-47.9 32.8 38.7zm0 0" class="a"/><path d="M344 214.9l5.7 27.8-35.2 13.1zm0 0" class="b"/><path d="M346.3 300.9l-33.9-40 37.4-14zm0 0" class="c"/><path d="M332 4.6l29.2 24.9-65.2 6.9zm0 0" class="d"/><path d="M336.5 87.5l-42.4-46.9 68.5-7.2zm0 0" class="a"/><path d="M366.7 29l-17.4-14.8L375.4 29zm0 0" class="b"/><path d="M353.9 245.9l29.4-.8-32.8 53zm0 0" class="c"/><path d="M353.6 242l-5.5-27.1 33.3 26.3zm0 0" class="d"/><path d="M381.5 27.8L337.1 2.6l50.5-14.8zm0 0" class="c"/><path d="M346.6 205.9l-6.3-56.9 48.9 17.8zm0 0" class="d"/><path d="M349.5 308.5l44.1 11.4-49 11.4zm0 0" class="a"/><path d="M386 248.4l13.4 68.9-48.3-12.6zm0 0" class="b"/><path d="M303.8 333.1l85 33.5-161.3-16.3zm0 0" class="c"/><path d="M341.4 336l38.8 22.9-63-24.9zm0 0" class="d"/><path d="M400.1 322.5l.8 44-53.6-31.7zm0 0" class="a"/><path d="M366.5 34.7l36.7 43.9-62.7 9.8zm0 0" class="b"/><path d="M381.8 33l16.1 33.1L370.3 33zm0 0" class="c"/><path d="M391.4 163.3l-49.7-18.1 62.4-59.6zm0 0" class="d"/><path d="M339.9 141.4l-.9-48.7 62-9.7zm0 0" class="a"/><path d="M386.2 239.8l-36.6-28.7 54-11.3zm0 0" class="b"/><path d="M392.3 169.3l11.9 26.3-52.5 10.9zm0 0" class="c"/><path d="M408 86.2l27.4 51.1-39.7 24.7zm0 0" class="d"/><path d="M407.1 192.4l-11.6-25.6 37.3-23.2zm0 0" class="a"/><path d="M391.6-12.3l43.3 14.7-49.3 25.1zm0 0" class="b"/><path d="M437.2 132.3l-23.6-44.1 28.2 23.6zm0 0" class="c"/><path d="M408 77.4L387.2 35l59.7 26zm0 0" class="d"/><path d="M438.6 5l10.7 52.6-61.6-26.7zm0 0" class="a"/><path d="M442.6 107.2l-31.8-26.6 38.7-16.4zm0 0" class="b"/><path d="M403.5 317.3L390 248.2l62 52.1zm0 0" class="c"/><path d="M438 142.3l22 41.3-49.2 10.5zm0 0" class="d"/><path d="M404.9 367.3l-.8-44 54.6 28.2zm0 0" class="a"/><path d="M454.4 303.7l7 44.7-54.4-28.1zm0 0" class="b"/><path d="M407.8 200.2l54.2 42.7-72-1.8zm0 0" class="c"/><path d="M461.2 187.4l4.4 53.2-54-42.5zm0 0" class="d"/><path d="M454.7 297.3l-62-52.2 72.8 1.8zm0 0" class="a"/><path d="M464.4 354l-20.5 3.2 86.6-22.7zm0 0" class="b"/><path d="M465.7 349.7l-6-38.1 20.1 35.9zm0 0" class="c"/><path d="M440.4 0l-20.7-7L459 .8zm0 0" class="d"/><path d="M452.9 55.4L442.5 4.1l39.1 1.8zm0 0" class="a"/><path d="M445.1 115.2l36.9 40.9-41.7-19.2zm0 0" class="b"/><path d="M463.6 181.9l-21-39.6 43.7 20.2zm0 0" class="c"/><path d="M469.4 237.9l-4.2-50.3 26.9 6.7zm0 0" class="d"/><path d="M488.6 165.8l3.9 24.5-25.2-6.3zm0 0" class="a"/><path d="M484.7 8.5l17.5 42.9-46.4 7zm0 0" class="b"/><path d="M453.4 64.7l51.3 41.5-58.3 2.7zm0 0" class="c"/><path d="M503.2 55.3l4.4 48.2-50.8-41.2zm0 0" class="d"/><path d="M489.3 158.2l-41-45.4 58.8-2.7zm0 0" class="a"/><path d="M494.7 197.8l13.6 34.8-36.5 9.4zm0 0" class="b"/><path d="M469.1 249.4l40.7 47.7-51.3 1.8zm0 0" class="c"/><path d="M509.1 236.5l2.6 56.8-40.1-47.2zm0 0" class="d"/><path d="M483.1 345.1l-23.7-42.2 50.9-1.8zm0 0" class="a"/><path d="M515.9 295.9l-2.6-55.1 29.7 42.4zm0 0" class="b"/><path d="M511.7 105l-4.3-47.3 37.9 31.8zm0 0" class="c"/><path d="M511.1 110.9l36.6 21-54.1 26.1zm0 0" class="d"/><path d="M547.2 93l2.5 35.4-35.3-20.2zm0 0" class="a"/><path d="M496.7 191l-4.1-25.6 51.9 24.7zm0 0" class="b"/><path d="M550.1 135.2l.8 53.6-56.3-26.8zm0 0" class="c"/><path d="M511.8 230.4l-13.9-35.5 50.2-.8zm0 0" class="d"/><path d="M514.4 302.1l35.3 33.6-62.7 10.6zm0 0" class="a"/><path d="M544.4 286.9l6.8 44.6-33.7-31.9zm0 0" class="b"/><path d="M545.8 280.2L518 240.5l37.3 22.2zm0 0" class="c"/><path d="M551.3 196.5l4.4 61.8-41.5-24.7zm0 0" class="d"/><path d="M485 2l-73.6-14.8 134 1.6zm0 0" class="a"/><path d="M505.6 49.3L487.8 5.4l69.7-15.1zm0 0" class="b"/><path d="M548.7 87.2l-35.9-30.3 50.6 12.3zm0 0" class="c"/><path d="M562.4-9.2l20.8 51.5-73.3 8.1zm0 0" class="d"/><path d="M566.2 65.8l-49.7-12.1 65-7.2zm0 0" class="a"/><path d="M559.7 257.6l-4.3-59.9 30.8 34.2zm0 0" class="b"/><path d="M555.6 333.9l-6.9-45.7 41.4 27.6zm0 0" class="c"/><path d="M558.2 265.9l28.6 42.9-38.2-25.4zm0 0" class="d"/><path d="M587.7 227.6l-30.9-34.4 37.8-8.6zm0 0" class="a"/><path d="M595.1 180.4l-32.4 7.3 33.1-22.8zm0 0" class="b"/><path d="M554.9 188.2l-.8-52.5 40.3 25.4zm0 0" class="c"/><path d="M553.7 128.3l-2.5-36.2 50.8 1.7zm0 0" class="d"/><path d="M567.5 70.6l32.7 19.1-47.1-1.6zm0 0" class="a"/><path d="M596.5 157.7l-40.9-25.8 49.7-35.5zm0 0" class="b"/><path d="M585.5 47.8l18 39.3L570 67.4zm0 0" class="c"/><path d="M593.9 318.3l14.6 10.3-44 5.2zm0 0" class="d"/><path d="M586.2 39.1l-20.4-50.4 48.7-6.2zm0 0" class="b"/><path d="M588.7 235.1l35.8 52.5-62.9-26.3zm0 0" class="c"/><path d="M594.6 313.2l-31.3-46.8 62.5 26zm0 0" class="d"/><path d="M613.1 326.9L597.5 316l28.1-18.6zm0 0" class="a"/><path d="M599.9 163.2l32.4 3-33.2 12.8zm0 0" class="b"/><path d="M629.3 287.5l-36.4-53.4 52.4 1.8zm0 0" class="c"/><path d="M598.5 185.4l46.6 31.7-53.7 12.3zm0 0" class="d"/><path d="M646.2 231.9l-41.8-1.4 43.3-9.9zm0 0" class="a"/><path d="M639.4 167.7l7.8 46-45.9-31.2zm0 0" class="b"/><path d="M608.9 89.2l-19.1-41.7 58.3 20.9zm0 0" class="c"/><path d="M609.6 94.6l39.6 12.3-48.4 48.4zm0 0" class="d"/><path d="M639.4 162.8l-37-3.4 47.3-47.3zm0 0" class="a"/><path d="M651 71.3v32l-37.8-11.8zm0 0" class="b"/><path d="M618.8-17.1l41 26.7L590.3 40zm0 0" class="c"/><path d="M651.5 65.3l-60.1-21.5 69.9-30.5zm0 0" class="d"/><path d="M630.5 295.9l32.6 42.1-46.3-9.5zm0 0" class="a"/><path d="M654.1 110.5l28.7 34.7-39.1 16.5zm0 0" class="b"/><path d="M649.2 237l33.9 20-49.6 30.5zm0 0" class="c"/><path d="M667 336.4l-34.1-43.9 51.1-31.3zm0 0" class="d"/><path d="M664.1 7.7L626.3-17l66.5 8.2zm0 0" class="a"/><path d="M651.7 215.8l-7.8-45.8 50.1 41.5zm0 0" class="b"/><path d="M684.5 148.8l11.5 59.1-51.2-42.3zm0 0" class="c"/><path d="M651.8 219.8l33.7-3.4-35.1 14.4zm0 0" class="d"/><path d="M685.8 253.9l-33.3-19.6 43.5-17.9zm0 0" class="a"/><path d="M655 101.2V69.6l41.6-9.1zm0 0" class="b"/><path d="M665.2 14.5l34.2 41.3-43.9 9.6zm0 0" class="c"/><path d="M697.2-6.7l3.4 57.7-33.5-40.4zm0 0" class="d"/><path d="M554 339l115.7 24.1-170.9-14.7zm0 0" class="b"/><path d="M613.7 332l70 29.9-117.2-24.3zm0 0" class="c"/><path d="M667.1 342.9l22.3 17.1-56.5-24.1zm0 0" class="d"/><path d="M687.8 262.7l27.5 51.5-44.4 23zm0 0" class="a"/><path d="M701.9 364.6l-30.2-23.3 43.1-22.4zm0 0" class="b"/><path d="M686 142.8l-28.9-34.9 57.7-1.8zm0 0" class="c"/><path d="M702.1 60.7l14.1 41.4-58.1 1.7zm0 0" class="d"/><path d="M704.7 51.8l-3.5-58L735 15.5zm0 0" class="a"/><path d="M700 217l36.3 39.8-46.7-1.7zm0 0" class="b"/><path d="M717.8 310.3l-27.4-51.2 47.7 1.8zm0 0" class="c"/><path d="M744.1 108.4l-22-5.7 22.8-36.5zm0 0" class="d"/><path d="M719.5 99.4l-13.7-40.3 37.7 1.7zm0 0" class="a"/><path d="M736.9 19.5l7.6 37.4-37.4-1.7zm0 0" class="b"/><path d="M700.4 209.7l-11.6-59.8 54.4 31.2zm0 0" class="c"/><path d="M739.4 254.2L702 213.4l42.7-28.5zm0 0" class="d"/><path d="M719.1 107.1l30.6 34.1-59.4 2.6zm0 0" class="a"/><path d="M744.3 112.6l5.8 23.1-25.2-28.1zm0 0" class="b"/><path d="M745.5 177.9L693 147.7l58.6-2.6zm0 0" class="c"/><path d="M718.9 319.1l40.7 46-53.9.9zm0 0" class="d"/><path d="M741.3 263.5l25.4 43.9-45.6 5.2zm0 0" class="a"/><path d="M762.5 362.3L722 316.5l45.8-5.2zm0 0" class="b"/><path d="M748.9 63.6l38.9 37.2-39.8 7.8zm0 0" class="c"/><path d="M755 138.9l-6.6-26.3 38-7.5zm0 0" class="d"/><path d="M738.4 12.9L707.6-6.9l79.8 10.3zm0 0" class="a"/><path d="M748.2 54.8l-7.8-38.2 53.9-10.5zm0 0" class="b"/><path d="M748.6 186.3l49.6 64.1-55 6.3zm0 0" class="c"/><path d="M770 305l-25.7-44.4 54-6.2zm0 0" class="d"/><path d="M755.7 145l44.4-.9-50.3 32.7zm0 0" class="a"/><path d="M791.3 105.7l12.8 34.4-45.4.8zm0 0" class="b"/><path d="M771.6 312.5l34.8 23.5-40 26.9zm0 0" class="c"/><path d="M801 257.8l7.7 42.6-34.9 5.9zm0 0" class="d"/><path d="M808.1 332.3l-32.8-22.2 33.6-5.7zm0 0" class="a"/><path d="M791.5 98.8l-39.1-37.4 57.3 4.4zm0 0" class="b"/><path d="M798.8 7.1l11.7 54.7-59.2-4.5zm0 0" class="c"/><path d="M800.8 247.2l-49.5-63.9 59.4 4.5zm0 0" class="d"/><path d="M805.4 145.4l5.3 38.4-57.6-4.3zm0 0" class="a"/><path d="M814.7 187.8l13.1-1.4-21.1 49.4zm0 0" class="b"/><path d="M814.7 183.8l-4.3-31.9 17.4 30.4zm0 0" class="c"/><path d="M809.8 338.6l24.4 23.6-63.2 2.5zm0 0" class="d"/><path d="M799.8 1l-71.2-9.2 100.1-.7zm0 0" class="b"/><path d="M812.4 298.5l-7.6-42.1 33.7 23.6zm0 0" class="c"/><path d="M813 303.1l22.8-16.2-23.6 41.2zm0 0" class="d"/><path d="M837.2 359.4l-24.7-23.8 27.2-47.6zm0 0" class="a"/><path d="M808 138.9l-12.8-34.1 46 10.2zm0 0" class="b"/><path d="M813.2 67.9l28.4 43.1-46.6-10.4zm0 0" class="c"/><path d="M831.3 180.6l-19.4-34.1 34.9 16.2zm0 0" class="d"/><path d="M844.3 117.7l3.4 41-36.8-17.1zm0 0" class="a"/><path d="M814.3 60.4L802.9 7.1l44.6 27.1zm0 0" class="b"/><path d="M839.5-8.4l8.5 38.3-43.3-26.4zm0 0" class="c"/><path d="M844.4 107.9l-28.7-43.5 33-26.1zm0 0" class="d"/><path d="M831.5 187.9l31.2 41.1-57.1 19.6zm0 0" class="a"/><path d="M841.2 277l-34.8-24.4 55.7-19.2zm0 0" class="b"/><path d="M848.9 166.3l13 55-28.3-37.2zm0 0" class="c"/><path d="M843.8 287.1l37.1 64.6-39.8 9.7zm0 0" class="d"/><path d="M852.2 30l-8.6-38.5 40.2 6.8zm0 0" class="a"/><path d="M852.6 39.9L889 92.2l-40.8 18.6zm0 0" class="b"/><path d="M867.2 226.3l-14-59.5 44.6 32.4zm0 0" class="c"/><path d="M867.1 232.4l34 10.2-54.4 32.3zm0 0" class="d"/><path d="M899.5 203l4.2 36.2-33.7-10.1zm0 0" class="a"/><path d="M887.2.6l20.3 56.6-53-23.8zm0 0" class="b"/><path d="M891.9 89.3l-35.1-50.5 51.3 23.1zm0 0" class="c"/><path d="M883.9 348.8l-37.7-65.6 61.9 17.1zm0 0" class="d"/><path d="M904.3 245.3l4.5 51-61.7-17zm0 0" class="a"/><path d="M851.8 159l-3.6-42.4 60.9 15.9zm0 0" class="b"/><path d="M891.2 95.6l19.6 33.2-58.9-15.3zm0 0" class="c"/><path d="M899.7 195.6l-45.8-33.2 58.3-26.9zm0 0" class="d"/><path d="M911.3 64.4l15.1 17.5-30.2 7.9zm0 0" class="a"/><path d="M914.4 127.1l-19.3-32.8 31.9-8.5zm0 0" class="b"/><path d="M907.5 237.8l-4-34.6 23.3 16.1zm0 0" class="c"/><path d="M928.4 78l-10.5-12.1 11 4.4zm0 0" class="d"/><path d="M915.9 137.3l19.5 31.3-31.3 25.3zm0 0" class="a"/><path d="M928.5 215.6l-24.2-16.7 30.9-25.1zm0 0" class="b"/><path d="M911.2 303.2l26.4 44-50.2 3.6zm0 0" class="d"/><path d="M940.1 343.6l-24.8-41.3 31.4 9.1zm0 0" class="a"/><path d="M947.5 307.5l-32.8-9.5 45.8-47.4zm0 0" class="b"/><path d="M912.6 294.4l-4.4-50.3 51.2 1.7zm0 0" class="c"/><path d="M930.2 221.6l27.4 20.2-46.8-1.6zm0 0" class="d"/><path d="M930 66.4l-15.7-6.2 44-52.6zm0 0" class="b"/><path d="M911.7 57L890.8-1.1l71.8-2.7zm0 0" class="c"/><path d="M966.8-.9l11.8 32.2-42.3 31.3zm0 0" class="d"/><path d="M978 5l.6 14.6-7.3-19.8zm0 0" class="a"/><path d="M965.3 247.3l16.9 11.2-29 41.9zm0 0" class="b"/><path d="M939.6 171.4l47.1 9.6-54 34zm0 0" class="c"/><path d="M963.2 240.9l-29.6-21.8 54-33.9zm0 0" class="d"/><path d="M983.3 254.5l-16.8-11.2 22.4-51.2zm0 0" class="a"/><path d="M931.4 85.1l56.8 4.4-69.8 38.4zm0 0" class="b"/><path d="M932.8 71.6l43.6 13-44.3-3.4zm0 0" class="c"/><path d="M979.8 35.4l12.4 49.7-56.8-16.9zm0 0" class="d"/><path d="M950.3 313.8l44.6 39.5-51.5-6zm0 0" class="b"/><path d="M938.8 166.6L919 134.7l75.9 12zm0 0" class="c"/><path d="M993.4 91.2l7.2 52.4-79.5-12.7zm0 0" class="d"/><path d="M990.6 177.7l-45.1-9.2 54.4-19.3zm0 0" class="a"/><path d="M985.5 260.9l24.6 18.7-55.3 25.5zm0 0" class="b"/><path d="M999.6 352.1l-47-41.6 58.8-27.1zm0 0" class="c"/><path d="M993.5 186l34.5 54-40.7 15zm0 0" class="d"/><path d="M1013.2 276.9l-24.1-18.3 38.2-14.1zm0 0" class="a"/><path d="M1004.7 143.4L998 95.3l30.7 40.6zm0 0" class="b"/><path d="M1004.6 147.6l20.8-6.5-28.7 30.9zm0 0" class="c"/><path d="M1030.6 131.9l-31.4-41.6 36.5 2.5zm0 0" class="d"/><path d="M1015.5 283.3l21.7 13.3-32.6 50.2zm0 0" class="a"/><path d="M1030.1 248l7.2 44-20.8-12.8zm0 0" class="b"/><path d="M1036.7 88.9l-36-2.5 53.6-38.6zm0 0" class="c"/><path d="M996.2 84.7l-12.5-50.3 70 8.9zm0 0" class="d"/><path d="M980.8 2.1l-5.2-4 39.5 9.2zm0 0" class="a"/><path d="M1057.5 39.8l-63.3-8.1 68.1-12.2zm0 0" class="b"/><path d="M982.9 29.6l-.8-23.3 70.7 10.9zm0 0" class="c"/><path d="M1031.3 237.7l-34.7-54.2 65.8 20.5zm0 0" class="d"/><path d="M1031.5 140.4l30.5 59.3-66.4-20.7zm0 0" class="a"/><path d="M1039.7 300.1l27.1 58.7-62.3-4.5zm0 0" class="c"/><path d="M1070.4 357.1l-24.5-53.2 38.4 34.4zm0 0" class="d"/><path d="M1085.5 334l-36.8-32.9 39.1 13.3zm0 0" class="a"/><path d="M1088.1 310.2l-43.6-14.8 44.4-29.6zm0 0" class="b"/><path d="M1041.5 292.6l-8-48.6 53.1 18.6zm0 0" class="c"/><path d="M1066.4 205.5l23.8 14-52.5 17.2zm0 0" class="d"/><path d="M1089.3 259.3l-52.1-18.2 55.5-18.2zm0 0" class="a"/><path d="M1039.8 92.8l51.4-7.8-56.6 47.2zm0 0" class="b"/><path d="M1059.7 45.5l34.1 35.1-52.5 7.9zm0 0" class="c"/><path d="M1066 21.6l27.1 35.6-31.8-16.3zm0 0" class="d"/><path d="M1096.5 77.6L1069 49.3l28.9 14.9zm0 0" class="a"/><path d="M1093.6 216.8l-24.3-14.2 32.6-30.9zm0 0" class="b"/><path d="M1066.6 199.7l-30.4-58.9 65.2 25.9zm0 0" class="c"/><path d="M1096.3 86l6.4 76.9-66.8-26.5zm0 0" class="d"/><path d="M1064.8 14.9L987.3-3.3l112.3 4zm0 0" class="a"/><path d="M1098.7 58l-30.5-40.1 38.3-15.7zm0 0" class="b"/><path d="M1110.6 2.1l17.6 9.7-24.8 41.7zm0 0" class="c"/><path d="M1101.8 64.9l28.8-1.4-30.2 15.1zm0 0" class="d"/><path d="M1130 16.6l7.6 42.5-34 1.7zm0 0" class="a"/><path d="M1091.8 314.6l39.2-10-41.5 29.2zm0 0" class="b"/><path d="M1092.9 266l43.6 33.1-44.4 11.3zm0 0" class="c"/><path d="M1106.8 163l-6.2-74 41.4 57.2zm0 0" class="d"/><path d="M1096.7 223.3l46.6 27.7-50.1 8.6zm0 0" class="a"/><path d="M1139.6 296.4l-43.7-33.2 50.7-8.8zm0 0" class="b"/><path d="M1106.3 170.1l40.5 39.6-49.3 7.9zm0 0" class="c"/><path d="M1147.2 248.6l-46.4-27.5 48.1-7.7zm0 0" class="d"/><path d="M1143.3 150l5.2 55.8-40.1-39.2zm0 0" class="a"/><path d="M1139 63.7l18.1 40.5-54.3-22.4zm0 0" class="b"/><path d="M1144.5 142.9l-40.8-56.4 54.7 22.6zm0 0" class="c"/><path d="M1087.9 340.2l64.2 12.9-77.9 5.6zm0 0" class="d"/><path d="M1140.2 303l23.3 48.3L1092 337zm0 0" class="a"/><path d="M1152.4 204.2l-5.2-54.7 30.8 6.9zm0 0" class="b"/><path d="M1161 113.2l16.6 39-29.8-6.6zm0 0" class="c"/><path d="M1150.3 256.1l27.1 26.2-33.8 14.4zm0 0" class="d"/><path d="M1166.2 347.7l-22.5-46.7 34.6-14.7zm0 0" class="a"/><path d="M1180.4 296.5l5.4 52.8-16.3 2.3zm0 0" class="b"/><path d="M1131.2 8.8L1115.7.4l62-5.6zm0 0" class="d"/><path d="M1162.3 106l-17.4-38.9 53 38.9zm0 0" class="a"/><path d="M1181.1 150.2L1164 110h36.8zm0 0" class="b"/><path d="M1152.8 215.3l46 41.8-47.7-6.8zm0 0" class="c"/><path d="M1181 280.2l-26.2-25.3 45.8 6.5zm0 0" class="d"/><path d="M1181.2 158.8l24.5 34.1-50.7 14.8zm0 0" class="a"/><path d="M1203.3 255.7l-48.3-43.8 51.8-15.2zm0 0" class="b"/><path d="M1141.6 58.7l-7.9-44.2 69.8 33.6zm0 0" class="c"/><path d="M1195.5-6.5l11.6 51.9-70.6-34zm0 0" class="d"/><path d="M1202.4 104.3L1145 62.2l62.7-10.8zm0 0" class="a"/><path d="M1205 110.4l26.4 8.3-45.3 30.5zm0 0" class="b"/><path d="M1209.8 191.7l-22.3-31.1 46.2 23.9zm0 0" class="c"/><path d="M1189.6 346.7l-6.3-60.9 52.9 16.1zm0 0" class="d"/><path d="M1204.9 262.9l29.1 34.2-49.2-15zm0 0" class="a"/><path d="M1211.8 51.5l26.8 6.7-31.9 42.8zm0 0" class="b"/><path d="M1234.3 115.4l-27-8.5 32-42.9zm0 0" class="c"/><path d="M1235.5 120.7l13.1 18-57.9 12.2zm0 0" class="d"/><path d="M1237.8 182.1l-50.9-26.3 62.3-13.2zm0 0" class="a"/><path d="M1240.6 54.6l-26.4-6.6 38.8-33.9zm0 0" class="b"/><path d="M1211.2 45.3l-11.5-51.5 53.2 15.1zm0 0" class="c"/><path d="M1239.1 304.6l19.9 60.7-66.9-15.4zm0 0" class="b"/><path d="M1210.8 198.1l53.9 45.9-57.5 13.4zm0 0" class="c"/><path d="M1238 187.4l24.8 49.7-49.7-42.2zm0 0" class="d"/><path d="M1239.6 297.4l-30.9-36.2 56.5-13.3zm0 0" class="a"/><path d="M1252.8 137.7l-12-16.5 39.8 9.8zm0 0" class="b"/><path d="M1284.2 234.7l-9.8 5.2 12.7-21.4zm0 0" class="c"/><path d="M1269.2 240.8l-25.9-51.7 44.8 19.8zm0 0" class="d"/><path d="M1252.6 145.1l33.6 58.6-44.8-19.8zm0 0" class="a"/><path d="M1287.1 133.5l1.7 66.6-33.7-58.8zm0 0" class="b"/><path d="M1258.4 10.3l35.6 5.9-48.3 35.6zm0 0" class="c"/><path d="M1283.6 364.1l-16.9 1.5 30.1-35.3zm0 0" class="d"/><path d="M1262.8 364l-19.7-60 56.4 17zm0 0" class="a"/><path d="M1268.9 249.6l30.5 67.2-56.5-17zm0 0" class="b"/><path d="M1284.6 239l12.9 64.1-25.9-57.2zm0 0" class="c"/><path d="M1243.7 60.1l59.4 28.7-64.8 26.1zm0 0" class="d"/><path d="M1287.9 128.7l-45.4-11.2 61.6-24.8zm0 0" class="a"/><path d="M1298.8 17.6l14.4 13.6-59.8 19.9zm0 0" class="b"/><path d="M1306.4 86l-59.1-28.7 67.2-22.4zm0 0" class="c"/><path d="M1298.8 12.9L1275.3 9l42-2.2zm0 0" class="d"/><path d="M1257.2 6l-38.3-10.9 86.3 8.3zm0 0" class="a"/><path d="M1316.5 28.8l-13.7-13 25.1-8.3zm0 0" class="b"/><path d="M1304.6 317.8l-14.2-70.3 39.3 67.8zm0 0" class="c"/><path d="M1309.2 91.3l20.2 3.9-35 28.8zm0 0" class="d"/><path d="M1317.5 41.5l13.7 49.9-20.9-4zm0 0" class="a"/><path d="M1303.6 323.8l35 41.1-50.7-.8zm0 0" class="c"/><path d="M1331.4 319.2l8.1 40.6-32.5-38.2zm0 0" class="d"/><path d="M1292.5 210.7l48.6 18.1-52.7 5zm0 0" class="a"/><path d="M1332.1 311.4l-42.8-73.7 58.2-5.5zm0 0" class="b"/><path d="M1332.1 8.1l16 28.1-28.1-5.6zm0 0" class="c"/><path d="M1334.2 87.1l-14.4-52.5 29.6 5.9zm0 0" class="d"/><path d="M1348.3 227.2l-49.2-18.3 52.6-7.5zm0 0" class="a"/><path d="M1352.2 197.2l-53.6 7.7 57-41.6zm0 0" class="b"/><path d="M1292.9 204.1l-1.8-70.1 62.8 25.5zm0 0" class="c"/><path d="M1333.1 97.3l21.5 58.1-61.7-25zm0 0" class="d"/><path d="M1352.7 36.1l-16.8-29.4 47 8.4zm0 0" class="a"/><path d="M1355.8 200.9l27.3-2.4-30.4 26.5zm0 0" class="b"/><path d="M1359.5 163.9l25.5 30.4-28.8 2.5zm0 0" class="c"/><path d="M1351.6 232.5l35 9.6-50 66.7zm0 0" class="d"/><path d="M1387.1 200.3l.8 38.1-33.8-9.3zm0 0" class="a"/><path d="M1353.2 41.6l34.5 13.9-50 33.6zm0 0" class="b"/><path d="M1386.3 17.6l3.4 34.3-33.5-13.4zm0 0" class="c"/><path d="M1344.4 364l-8.8-44.1 60.1 17.6zm0 0" class="d"/><path d="M1389 192.9l-25.9-30.9 44.2 8.3zm0 0" class="a"/><path d="M1389.4 245.1l19.9 52.5-71.4 16.2zm0 0" class="b"/><path d="M1399.6 334.5l-58.7-17.3 68.2-15.5zm0 0" class="c"/><path d="M1358.8 155.4l-21.9-59.2 75.6 4.5zm0 0" class="d"/><path d="M1391.3 57.9l22.1 38.9-73.4-4.4zm0 0" class="a"/><path d="M1409.2 166.6l-47.1-8.9 52.4-53.3zm0 0" class="b"/><path d="M1411.4 171.6l15.9 9.8-32.5 10.6zm0 0" class="c"/><path d="M1391.9 238.6l-.8-38.5 41.1 30.8zm0 0" class="d"/><path d="M1430.3 184.7l4.3 43-41.3-31zm0 0" class="a"/><path d="M1412 293.3l-19.3-50.8 41.2-7.9zm0 0" class="b"/><path d="M1393.6 51.2l-3.4-35.1 44.4 2.6zm0 0" class="c"/><path d="M1418.8 101.9l18.5 8.1-23.4 48.4zm0 0" class="d"/><path d="M1412.9 303l23.2 25.7-32.3 5.8zm0 0" class="a"/><path d="M1417.4 95.6l-21.3-37.5 45.2 12zm0 0" class="b"/><path d="M1438.4 20.8l4.3 45.5-46.3-12.2zm0 0" class="c"/><path d="M1438.3 106.1l-17.9-7.8 21.9-23.4zm0 0" class="d"/><path d="M1431.6 179.4l-16.6-10.3 43.3-22.8zm0 0" class="a"/><path d="M1440.5 112.7l22.4 26.7-47.5 25zm0 0" class="b"/><path d="M1437 237.8l28.7 77.9-51.1-17.9zm0 0" class="c"/><path d="M1440.6 327.6l-21.8-24.1 44.4 15.6zm0 0" class="d"/><path d="M1438.8 229.5l-4.4-43.5 47.8 32.2zm0 0" class="a"/><path d="M1465.1 144.3l18.6 70.1-48.8-32.8zm0 0" class="b"/><path d="M1446.5 72.9l39.2 32.3-43.4 1.7zm0 0" class="c"/><path d="M1465.9 136.8l-21.7-26 42.7-1.6zm0 0" class="d"/><path d="M1401.3 339.1l75.7 13.3-123.9 11.6zm0 0" class="a"/><path d="M1439.8 332.1l36.4 16.1-63.8-11.2zm0 0" class="b"/><path d="M1468.2 321.4l18.2 27-41.1-18.3zm0 0" class="c"/><path d="M1332 2L1228-8l231.8-7.7zm0 0" class="d"/><path d="M1439.5 15l-40.1-2.3 84.7-25.5zm0 0" class="a"/><path d="M1387.9 11.9l-43.1-7.6 127.8-17.8zm0 0" class="b"/><path d="M1469 313.3l-28.9-78.7 55.2 9.9zm0 0" class="c"/><path d="M1485.9 221.4l8.7 19-48.3-8.8zm0 0" class="d"/><path d="M1490.9 347.9l-19-28.2 27.3-14.9zm0 0" class="a"/><path d="M1496.6 252.2l3.3 47.7-27.1 14.7zm0 0" class="b"/><path d="M1490.5 104L1450 70.5l66.1-6.1zm0 0" class="c"/><path d="M1446.8 66.8l-4.4-46.2 71 40zm0 0" class="d"/><path d="M1496.8-15.9l20 73.8-72.9-41zm0 0" class="a"/><path d="M1487.4 212.9l-18.8-70.8 48.4 1.8zm0 0" class="b"/><path d="M1491.1 110.2l24.5 29.6-45.7-1.7zm0 0" class="c"/><path d="M1519.8 53.7l-18.7-68.9L1531.7.1zm0 0" class="d"/><path d="M1533.1 12.1l4.7 53.1-15.4-4.6zm0 0" class="a"/><path d="M1520.2 65.4l18.4 21.7-42.7 15.9zm0 0" class="b"/><path d="M1538.1 69.5l1.3 12.3-13.5-15.9zm0 0" class="c"/><path d="M1519.4 138.2l-25.1-30.3 44.1-16.4zm0 0" class="d"/><path d="M1541.4 94.7l11 50.8-29.6-5.1zm0 0" class="a"/><path d="M1503.4 304.5l51.4 37.2-60.3 8.9zm0 0" class="b"/><path d="M1498.9 240.3l-8.9-19.6 60.4-6.5zm0 0" class="c"/><path d="M1520.3 146.4l37.4 62.9-67.5 7.3zm0 0" class="d"/><path d="M1553.2 149.7l5 52.6-34.3-57.6zm0 0" class="a"/><path d="M1558.2 339.2l-49.7-36 51.4 1.7zm0 0" class="b"/><path d="M1503.9 299.1l-3.6-51.2 56.5 52.9zm0 0" class="c"/><path d="M1559.7 213.9l6.7 28.1-60.3-.9zm0 0" class="d"/><path d="M1560.5 298.8l-57.4-53.7 63.7.9zm0 0" class="a"/><path d="M1563.9 305.2l19.4 1.5-21 29.6zm0 0" class="b"/><path d="M1569.8 253.9l14.5 48.9-20.1-1.6zm0 0" class="c"/><path d="M1555.8 142.3l-11.4-52.5 42-4.4zm0 0" class="d"/><path d="M1543.8 85.8l-1.5-15 37.6 11.2zm0 0" class="a"/><path d="M1570.1 240.1l-6.5-26.7 30 4zm0 0" class="c"/><path d="M1589.4 80.7L1553 69.8l47.3-.7zm0 0" class="d"/><path d="M1541.8 66l-5.3-61.9 63.6 61zm0 0" class="a"/><path d="M1591.3-15.4l10.9 77L1537.9 0zm0 0" class="b"/><path d="M1587.4 299.4l-15.4-52.2 34.3 12zm0 0" class="c"/><path d="M1596.9 219.8l9.2 35.1-33.4-11.7zm0 0" class="d"/><path d="M1596.6 213.8l-30.9-4.2 45.1-38.4zm0 0" class="a"/><path d="M1562.6 207l-5.3-56.3 53.6 15.2zm0 0" class="b"/><path d="M1589.5 88.2l22.5 73.9-54.1-15.3zm0 0" class="c"/><path d="M1560.1 345h5.6l-12.4 1zm0 0" class="d"/><path d="M1587 308.4l24 32.6h-47.1zm0 0" class="a"/><path d="M1609.8 253l-9.3-35.3 34.5-5.1zm0 0" class="b"/><path d="M1615.4 170l20.5 38.4-35 5.2zm0 0" class="c"/><path d="M1630.3 165.2l5 33.6-17.2-32.2zm0 0" class="d"/><path d="M1606.6 63.7l-10.5-74.4 42 55.1zm0 0" class="a"/><path d="M1605.2 69.8l34 28.6-45.7-16.3zm0 0" class="b"/><path d="M1630.4 161.2l-11.7 1.4 23.5-42.4zm0 0" class="c"/><path d="M1615.5 159.9l-22.4-73.7 53 18.9zm0 0" class="d"/><path d="M1639.4 48.3l6.9 50.8-37.9-31.8zm0 0" class="a"/><path d="M1638.5 214.6l9 26.2-33.6 13.1zm0 0" class="b"/><path d="M1609.5 261.6l37 42.3-56.4-.9zm0 0" class="c"/><path d="M1645.2 337.2l-24.8 3.1 27.9-28.7zm0 0" class="d"/><path d="M1615.2 339.9l-24.2-32.8 55.3.8zm0 0" class="a"/><path d="M1648 244.9l.9 55.7-36.5-41.8zm0 0" class="b"/><path d="M1640.4 40.9l-41.5-54.5 53.6 20.8zm0 0" class="c"/><path d="M1640.4 205.8l-6-40.5 41.3 5.2zm0 0" class="d"/><path d="M1649.5 109.6l27.1 57-42-5.3zm0 0" class="a"/><path d="M1652.9 301.7l-.8-54 26.1 32.1zm0 0" class="b"/><path d="M1679 252.5v21.9l-23.4-28.7zm0 0" class="c"/><path d="M1655.2 3.9l-41.8-16.1L1676-.8zm0 0" class="d"/><path d="M1656.5 7.7l23.3-5.3-33.8 34.7zm0 0" class="a"/><path d="M1679.9 248.6l-24.4-7.1 36.2-18.1zm0 0" class="b"/><path d="M1651.1 239.2l-9.1-26.7 47.5 7.5zm0 0" class="c"/><path d="M1679.1 172.7l14 43.8-49.9-7.9zm0 0" class="d"/><path d="M1650.6 101.2l-7-52.2 52.1 33.6zm0 0" class="a"/><path d="M1679.3 163l-27.6-58 45.5-18.7zm0 0" class="b"/><path d="M1652.7 308.7l55.9 20.4-59.3 7.6zm0 0" class="c"/><path d="M1680.7 282.9l30.9 43-56.7-20.6zm0 0" class="d"/><path d="M1685.9 1.9l29 32.6-68.5 7.9zm0 0" class="a"/><path d="M1699.1 80l-52.3-33.7 69.1-7.9zm0 0" class="b"/><path d="M1614.9 345l89.4 17.4-182.7-9.8zm0 0" class="d"/><path d="M1646.8 341l51.5 16.2-70.6-13.8zm0 0" class="a"/><path d="M1715.8 332.2l13.6 30.6-73.1-23zm0 0" class="b"/><path d="M1718.9 32.9L1692 2.7l42.5 11.4zm0 0" class="c"/><path d="M1700.9 88.1L1737 144l-54.2 21.7zm0 0" class="d"/><path d="M1683 277v-23.9l48.5 3.3zm0 0" class="a"/><path d="M1696.7 222.2l37.2 30.4-49.8-3.4zm0 0" class="b"/><path d="M1717.2 326.8l-30.6-42.4 51 20.4zm0 0" class="c"/><path d="M1738.1 258l.8 43-52.6-21.1zm0 0" class="d"/><path d="M1731.9 358.7l-12.5-28.3 18.8-20.4zm0 0" class="a"/><path d="M1738.8 139.5l-32.1-49.8 36.1 23.3zm0 0" class="b"/><path d="M1697.3 216.5l-14-43.7 59.4 28.8zm0 0" class="c"/><path d="M1738.4 147.8l7.1 50.8-60.6-29.4zm0 0" class="d"/><path d="M1738.5 251.2l-38.4-31.4 45.4-14.9zm0 0" class="a"/><path d="M1720.1 38.5l27.5 9.1-43.2 29.9zm0 0" class="b"/><path d="M1743.4 108.6l-39.8-25.7 45.9-31.8zm0 0" class="c"/><path d="M1737.4 16.8l11.1 26.9-26.1-8.7zm0 0" class="d"/><path d="M1752.8 43.7L1741 15.1l44.7 1.7zm0 0" class="a"/><path d="M1746.7 114l37.5-.9-41.5 27.7zm0 0" class="b"/><path d="M1753.4 53.1l34.1 56-40.3.8zm0 0" class="c"/><path d="M1749.7 204.1l45.2 3.5-52.1 42.6zm0 0" class="d"/><path d="M1742.5 308l55.8 49.5-63 6.3zm0 0" class="a"/><path d="M1798.5 203.9l-44.4-3.4 54.6-35zm0 0" class="b"/><path d="M1749.5 198.6l-7.1-51 64.5 14.3zm0 0" class="c"/><path d="M1790.1 114l18.6 44.2-63.7-14.1zm0 0" class="d"/><path d="M1742.9 300.1l-.9-43.2 65.3-3.5zm0 0" class="a"/><path d="M1799 209.4l12.3 39.7-65.3 3.6zm0 0" class="b"/><path d="M1801.8 355.3l-54.9-48.7 64.6 6.2zm0 0" class="c"/><path d="M1812 254.9v53.9l-65.5-6.3zm0 0" class="d"/><path d="M1790.8 17.7l23.7 24.5-56.6 2.5zm0 0" class="a"/><path d="M1790.7 106.6l-35.2-57.8 60.4-2.7zm0 0" class="b"/><path d="M1815.5 249l-10.2-32.6L1830 249zm0 0" class="c"/><path d="M1816 304.9v-47.8l17.5 23.9zm0 0" class="d"/><path d="M1832.1 253l1.4 21.3-15.6-21.3zm0 0" class="a"/><path d="M1815.1 315.1l21.7 23.4-30.9 16.6zm0 0" class="b"/><path d="M1834.4 286.6l3.2 46.9-21-22.6zm0 0" class="c"/><path d="M1813.3 159l-16.4-39.1 39.2 39.9zm0 0" class="d"/><path d="M1813.5 163.1l23 .7-32.5 35zm0 0" class="a"/><path d="M1790.7 13l-33.6-1.3L1822.9.3zm0 0" class="c"/><path d="M1738.1 11L1699.8.6l114.9-2.9zm0 0" class="d"/><path d="M1818.4 40.5l-23.9-24.7 43.6-17.1zm0 0" class="a"/><path d="M1841 1.8l6.6 43-25.6-2.5zm0 0" class="b"/><path d="M1833.8 247.5l-29.9-39.6 55.4-1.8zm0 0" class="c"/><path d="M1840.5 165.4l19.3 36.7-55.1 1.7zm0 0" class="d"/><path d="M1819.6 47.8l40.7 48.8-66 11.8zm0 0" class="a"/><path d="M1848.4 48.9l11.2 40.7-35.9-43.1zm0 0" class="b"/><path d="M1840.2 158.3l-45.1-46 65.8-11.7zm0 0" class="c"/><path d="M1837.8 277.7l-1.7-24.7h45.3zm0 0" class="d"/><path d="M1862.9 208l22.7 41h-48zm0 0" class="a"/><path d="M1865 93.9L1853.2 51l33.6 18.5zm0 0" class="b"/><path d="M1840 341.3l44.4 24.6-74.8-8.2zm0 0" class="d"/><path d="M1841.8 335.3l-3.6-51.5 53.3 16.9zm0 0" class="a"/><path d="M1887.4 254.2l6.2 42.9-52.6-16.6zm0 0" class="b"/><path d="M1892.1 365.7l-48.3-26.9 50.1-34.9zm0 0" class="c"/><path d="M1888.5 65.9l-35.1-19.3 44.7-40.3zm0 0" class="d"/><path d="M1851.4 43l-7-45.7 51.9 5.2zm0 0" class="a"/><path d="M1888.7 246.4l-21.9-39.6 35.4 6.7zm0 0" class="b"/><path d="M1903.2 209.6l-35.6-6.8 38.1-30.4zm0 0" class="c"/><path d="M1863.6 200.9l-19.1-36.6 58.4 5.2zm0 0" class="d"/><path d="M1864.5 102.5l39.7 63.1-60.4-5.4zm0 0" class="a"/><path d="M1890.3 71.7l20.9 16.1-41.9 7.2zm0 0" class="b"/><path d="M1906.6 162l-39.3-62.5 46.4-8.1zm0 0" class="c"/><path d="M1897.9 302.2l31.8 2.5-33.5 56.6zm0 0" class="d"/><path d="M1897.8 298.1l-5.8-40.5 36.4 43zm0 0" class="a"/><path d="M1909.7 172l25.7 20.7-28.2 15.8zm0 0" class="b"/><path d="M1902.2 6l34.5 46-44.2 14.1zm0 0" class="c"/><path d="M1915.5 86.1l-21.3-16.4 41-13.1zm0 0" class="d"/><path d="M1917.3 96.4l21.2 45-28 22.1zm0 0" class="a"/><path d="M1937.2 188.9l-26-20.9 27.6-21.7zm0 0" class="b"/><path d="M1938.2 47.2l-33.9-45.1 35.6-10.4zm0 0" class="a"/><path d="M1932.6 307.7l20.6 56.4-55.6 2.7zm0 0" class="b"/><path d="M1939.6 57.3l23.3 57.9-44.1-26.8zm0 0" class="c"/><path d="M1941.7 138.8l-21.1-44.6 43 26.1zm0 0" class="d"/><path d="M1905.9 215.2l55.1 42-69.1-7.9zm0 0" class="a"/><path d="M1933 299.9l-39.2-46.3 70.3 8zm0 0" class="b"/><path d="M1938 195.8l25.1 58-54.5-41.5zm0 0" class="c"/><path d="M1956.2 360.7l-20.3-55.5 44.1 3.6zm0 0" class="d"/><path d="M1967.2 264.1l13 40.7-43.2-3.5zm0 0" class="a"/><path d="M1942.8 148.4l39.9 62-41.6-18.7zm0 0" class="b"/><path d="M1968 255l-25.1-58.1 42.5 19.1zm0 0" class="c"/><path d="M1967.6 116.1l-23.8-59 51.1 24.6zm0 0" class="d"/><path d="M1983.6 310.4l24.1 24.2-47.3 26.6zm0 0" class="a"/><path d="M1983.5 301.9l-12.9-40.3 38.7-6.9zm0 0" class="b"/><path d="M1988.4 219.1l21.2 31.5-38.2 6.8zm0 0" class="c"/><path d="M1943.9-7.2l69.7 48.9-71.5 9zm0 0" class="d"/><path d="M2011.2-11.9l5.4 50.7-68.6-48zm0 0" class="a"/><path d="M1997.2 78.4L1947 54.1l68.3-8.6zm0 0" class="b"/><path d="M1967.3 122.3l42 18.6-62.9-.8zm0 0" class="c"/><path d="M1987.6 210.8l-42.9-66.8 71.3 1zm0 0" class="d"/><path d="M1997.3 85.1l18.3 54.2-45.4-20.1zm0 0" class="a"/><path d="M2019.7 146.5l7.7 7.7-29.5 42.9zm0 0" class="b"/><path d="M2013.9 249.7l-17.7-26.1 30.3 22.6zm0 0" class="c"/><path d="M2020.1 34.3l-4.9-46.5 22.8-1.6zm0 0" class="a"/><path d="M2029.2 158.7l11.3 40.9-47.8 12.2zm0 0" class="b"/><path d="M2029.8 243.6l-37.2-27.7 47.6-12.1zm0 0" class="c"/><path d="M2020 45.4l22.1 6.3-38.7 23.6zm0 0" class="d"/><path d="M2039.8-7l5 55.3-23.2-6.6zm0 0" class="a"/><path d="M2020 139.7l-18.1-53.4 44.8 32.7zm0 0" class="b"/><path d="M2045.2 54.5l2.6 60.4-46.2-33.8zm0 0" class="c"/><path d="M2029.6 150.7l-7.6-7.5 21.3-16.5zm0 0" class="d"/><path d="M2010.9 332.1l-24.1-24.1 59.3-17.2zm0 0" class="a"/><path d="M2013.5 255.2l34.5 30.9-60.9 17.6zm0 0" class="b"/><path d="M2030 249.4l15.1 28.7-28-25.2zm0 0" class="c"/><path d="M2011.4 337.1l45.1 4.6-87.8 19.4zm0 0" class="d"/><path d="M2051.2 291l15 47.7-51.2-5.3zm0 0" class="a"/><path d="M2048.6 46.1l-5.2-57.9 33.7 24.2zm0 0" class="b"/><path d="M2051.7 112.2l-2.6-58.5 31.9 9.5zm0 0" class="c"/><path d="M2078.4 17l3.4 42.3-31.3-9.3zm0 0" class="d"/><path d="M2069.3 335.3l-14.2-45.1 29.2 10zm0 0" class="a"/><path d="M2044.3 204l51.9 28.1-62.5 12.3zm0 0" class="b"/><path d="M2085.5 296.4l-29.9-10.3 42.8-46.3zm0 0" class="c"/><path d="M2052.5 283.6l-18.5-35.2 62.4-12.2zm0 0" class="d"/><path d="M2051 121.3l53.5 13.6L2034 151zm0 0" class="a"/><path d="M2044.5 198.8l-11.5-41.4 75.6 31.7zm0 0" class="b"/><path d="M2111.1 137.5l2.7 49.4-77.3-32.3zm0 0" class="c"/><path d="M2100.8 230.1l-51.6-28 63.9-9.6zm0 0" class="d"/><path d="M2087.6 302.6l25.5 27.2-40.7 8.5zm0 0" class="a"/><path d="M2101.6 243.7l12.4 81.2-24.8-26.5zm0 0" class="b"/><path d="M2085.9 61.2l-2.9-36.8 28 67zm0 0" class="d"/><path d="M2084.3 65.5l30.1 36.3-60.3 14.2zm0 0" class="a"/><path d="M2111.4 132.5l-53-13.4 57.2-13.5zm0 0" class="b"/></svg>