<?xml version="1.0" encoding="UTF-8" standalone="no"?><!DOCTYPE svg PUBLIC "-//W3C//DTD SVG 1.1//EN" "http://www.w3.org/Graphics/SVG/1.1/DTD/svg11.dtd"><svg width="40" height="40" viewBox="0 0 167 167" version="1.1" xmlns="http://www.w3.org/2000/svg" xmlns:xlink="http://www.w3.org/1999/xlink" xml:space="preserve" xmlns:serif="http://www.serif.com/" style="fill-rule:evenodd;clip-rule:evenodd;stroke-linejoin:round;stroke-miterlimit:2;"><g><path d="M41.825,16.488c14.817,-2.525 30.008,1.812 41.254,11.783l0.309,0.275l0.279,-0.25c10.725,-9.408 25,-13.754 39.146,-11.908l2.033,0.295c23.7,4.092 41.179,24.855 41.179,48.9c0,12.571 -4.775,24.688 -13.354,33.875l-1.492,1.53l-0.396,0.337l-61.616,61.029c-2.925,2.896 -7.596,3.188 -10.859,0.679l-0.779,-0.679l-61.971,-61.383c-9.595,-9.338 -15.016,-22.175 -15.016,-35.567c-0,-24.087 17.537,-44.871 41.283,-48.916Z" style="fill:#2d4a9e;fill-rule:nonzero;stroke:#2d4a9e;stroke-width:0.83px;"/><g><circle cx="83.38" cy="49.432" r="12.702" style="fill:#d89aff;"/><circle cx="63.172" cy="72.527" r="12.702" style="fill:#ff8080;"/><circle cx="103.588" cy="72.527" r="12.702" style="fill:#6dd96d;"/><path d="M74.065,120.882l0,-33.984l16.809,-0l0,32.922c0,7.202 -0.213,12.006 -0.641,14.411c-0.427,2.404 -1.568,4.571 -3.424,6.5c-1.855,1.929 -4.15,2.893 -6.885,2.893c-3.491,-0 -6.573,-1.227 -9.246,-3.68c-2.674,-2.454 -4.474,-5.829 -5.402,-10.126c0.855,0.293 1.953,0.439 3.296,0.439c1.807,0 3.064,-0.189 3.772,-0.567c0.708,-0.379 1.172,-1.172 1.392,-2.381c0.219,-1.208 0.329,-3.351 0.329,-6.427Z" style="fill:#ffffff;fill-rule:nonzero;"/></g></g></svg>
