<svg xmlns="http://www.w3.org/2000/svg" fill-rule="evenodd" clip-rule="evenodd" image-rendering="optimizeQuality" shape-rendering="geometricPrecision" text-rendering="geometricPrecision" viewBox="0 0 333333 333333"><path fill="#f00" d="M329930 100020s-3254-22976-13269-33065c-12691-13269-26901-13354-33397-14124-46609-3396-116614-3396-116614-3396h-122s-69973 0-116608 3396c-6522 793-20712 848-33397 14124-10022 10089-13207 33065-13207 33065s-3317 26962-3317 53981v25265c0 26962 3315 53979 3315 53979s3254 22976 13207 33082c12685 13269 29356 12838 36798 14254 26685 2547 113354 3315 113354 3315s70065-124 116675-3457c6522-770 20706-848 33397-14124 10021-10089 13269-33090 13269-33090s3319-26962 3319-53979v-25263c-67-26962-3384-53979-3384-53979l-18 18-2-2zm-197807 109897v-93681l90046 46997-90046 46684z"/></svg>