<?xml version="1.0" encoding="utf-8"?>
<svg xmlns="http://www.w3.org/2000/svg" xmlns:xlink="http://www.w3.org/1999/xlink" width="600" height="300" viewBox="0 0 2400 1200">
<defs>
  <clipPath id="clip150">
    <rect x="0" y="0" width="2400" height="1200"/>
  </clipPath>
</defs>
<path clip-path="url(#clip150)" d="
M0 1200 L2400 1200 L2400 0 L0 0  Z
  " fill="#ffffff" fill-rule="evenodd" fill-opacity="1"/>
<defs>
  <clipPath id="clip151">
    <rect x="480" y="0" width="1681" height="1200"/>
  </clipPath>
</defs>
<defs>
  <clipPath id="clip152">
    <rect x="236" y="0" width="2117" height="121"/>
  </clipPath>
</defs>
<path clip-path="url(#clip150)" d="
M236.516 1059.32 L1176.96 1059.32 L1176.96 219.853 L236.516 219.853  Z
  " fill="#ffffff" fill-rule="evenodd" fill-opacity="1"/>
<defs>
  <clipPath id="clip153">
    <rect x="236" y="219" width="941" height="840"/>
  </clipPath>
</defs>
<polyline clip-path="url(#clip153)" style="stroke:#000000; stroke-linecap:butt; stroke-linejoin:round; stroke-width:2; stroke-opacity:0.1; fill:none" points="
  263.133,1059.32 263.133,219.853 
  "/>
<polyline clip-path="url(#clip153)" style="stroke:#000000; stroke-linecap:butt; stroke-linejoin:round; stroke-width:2; stroke-opacity:0.1; fill:none" points="
  558.87,1059.32 558.87,219.853 
  "/>
<polyline clip-path="url(#clip153)" style="stroke:#000000; stroke-linecap:butt; stroke-linejoin:round; stroke-width:2; stroke-opacity:0.1; fill:none" points="
  854.608,1059.32 854.608,219.853 
  "/>
<polyline clip-path="url(#clip153)" style="stroke:#000000; stroke-linecap:butt; stroke-linejoin:round; stroke-width:2; stroke-opacity:0.1; fill:none" points="
  1150.35,1059.32 1150.35,219.853 
  "/>
<polyline clip-path="url(#clip150)" style="stroke:#000000; stroke-linecap:butt; stroke-linejoin:round; stroke-width:4; stroke-opacity:1; fill:none" points="
  236.516,1059.32 1176.96,1059.32 
  "/>
<polyline clip-path="url(#clip150)" style="stroke:#000000; stroke-linecap:butt; stroke-linejoin:round; stroke-width:4; stroke-opacity:1; fill:none" points="
  263.133,1059.32 263.133,1040.43 
  "/>
<polyline clip-path="url(#clip150)" style="stroke:#000000; stroke-linecap:butt; stroke-linejoin:round; stroke-width:4; stroke-opacity:1; fill:none" points="
  558.87,1059.32 558.87,1040.43 
  "/>
<polyline clip-path="url(#clip150)" style="stroke:#000000; stroke-linecap:butt; stroke-linejoin:round; stroke-width:4; stroke-opacity:1; fill:none" points="
  854.608,1059.32 854.608,1040.43 
  "/>
<polyline clip-path="url(#clip150)" style="stroke:#000000; stroke-linecap:butt; stroke-linejoin:round; stroke-width:4; stroke-opacity:1; fill:none" points="
  1150.35,1059.32 1150.35,1040.43 
  "/>
<path clip-path="url(#clip150)" d="M228.125 1133.45 L235.764 1133.45 L235.764 1107.08 L227.454 1108.75 L227.454 1104.49 L235.717 1102.82 L240.393 1102.82 L240.393 1133.45 L248.032 1133.45 L248.032 1137.38 L228.125 1137.38 L228.125 1133.45 Z" fill="#000000" fill-rule="evenodd" fill-opacity="1" /><path clip-path="url(#clip150)" d="M267.476 1105.9 Q263.865 1105.9 262.037 1109.47 Q260.231 1113.01 260.231 1120.14 Q260.231 1127.24 262.037 1130.81 Q263.865 1134.35 267.476 1134.35 Q271.111 1134.35 272.916 1130.81 Q274.745 1127.24 274.745 1120.14 Q274.745 1113.01 272.916 1109.47 Q271.111 1105.9 267.476 1105.9 M267.476 1102.2 Q273.287 1102.2 276.342 1106.8 Q279.421 1111.39 279.421 1120.14 Q279.421 1128.86 276.342 1133.47 Q273.287 1138.05 267.476 1138.05 Q261.666 1138.05 258.588 1133.47 Q255.532 1128.86 255.532 1120.14 Q255.532 1111.39 258.588 1106.8 Q261.666 1102.2 267.476 1102.2 Z" fill="#000000" fill-rule="evenodd" fill-opacity="1" /><path clip-path="url(#clip150)" d="M289.445 1094.42 Q286.888 1094.42 285.383 1096.17 Q283.897 1097.92 283.897 1100.96 Q283.897 1103.99 285.383 1105.76 Q286.888 1107.51 289.445 1107.51 Q292.003 1107.51 293.489 1105.76 Q294.994 1103.99 294.994 1100.96 Q294.994 1097.92 293.489 1096.17 Q292.003 1094.42 289.445 1094.42 M296.987 1082.51 L296.987 1085.97 Q295.558 1085.3 294.091 1084.94 Q292.643 1084.58 291.213 1084.58 Q287.452 1084.58 285.458 1087.12 Q283.483 1089.66 283.201 1094.79 Q284.311 1093.16 285.985 1092.29 Q287.659 1091.41 289.671 1091.41 Q293.903 1091.41 296.348 1093.99 Q298.812 1096.54 298.812 1100.96 Q298.812 1105.29 296.254 1107.9 Q293.696 1110.52 289.445 1110.52 Q284.574 1110.52 281.998 1106.79 Q279.421 1103.05 279.421 1095.96 Q279.421 1089.3 282.581 1085.35 Q285.74 1081.38 291.063 1081.38 Q292.492 1081.38 293.94 1081.67 Q295.407 1081.95 296.987 1082.51 Z" fill="#000000" fill-rule="evenodd" fill-opacity="1" /><path clip-path="url(#clip150)" d="M524.53 1133.45 L532.169 1133.45 L532.169 1107.08 L523.859 1108.75 L523.859 1104.49 L532.123 1102.82 L536.799 1102.82 L536.799 1133.45 L544.437 1133.45 L544.437 1137.38 L524.53 1137.38 L524.53 1133.45 Z" fill="#000000" fill-rule="evenodd" fill-opacity="1" /><path clip-path="url(#clip150)" d="M563.882 1105.9 Q560.271 1105.9 558.442 1109.47 Q556.636 1113.01 556.636 1120.14 Q556.636 1127.24 558.442 1130.81 Q560.271 1134.35 563.882 1134.35 Q567.516 1134.35 569.322 1130.81 Q571.15 1127.24 571.15 1120.14 Q571.15 1113.01 569.322 1109.47 Q567.516 1105.9 563.882 1105.9 M563.882 1102.2 Q569.692 1102.2 572.748 1106.8 Q575.826 1111.39 575.826 1120.14 Q575.826 1128.86 572.748 1133.47 Q569.692 1138.05 563.882 1138.05 Q558.072 1138.05 554.993 1133.47 Q551.937 1128.86 551.937 1120.14 Q551.937 1111.39 554.993 1106.8 Q558.072 1102.2 563.882 1102.2 Z" fill="#000000" fill-rule="evenodd" fill-opacity="1" /><path clip-path="url(#clip150)" d="M575.826 1081.89 L593.882 1081.89 L593.882 1083.51 L583.688 1109.97 L579.719 1109.97 L589.311 1085.09 L575.826 1085.09 L575.826 1081.89 Z" fill="#000000" fill-rule="evenodd" fill-opacity="1" /><path clip-path="url(#clip150)" d="M819.666 1133.45 L827.305 1133.45 L827.305 1107.08 L818.995 1108.75 L818.995 1104.49 L827.259 1102.82 L831.934 1102.82 L831.934 1133.45 L839.573 1133.45 L839.573 1137.38 L819.666 1137.38 L819.666 1133.45 Z" fill="#000000" fill-rule="evenodd" fill-opacity="1" /><path clip-path="url(#clip150)" d="M859.018 1105.9 Q855.407 1105.9 853.578 1109.47 Q851.772 1113.01 851.772 1120.14 Q851.772 1127.24 853.578 1130.81 Q855.407 1134.35 859.018 1134.35 Q862.652 1134.35 864.457 1130.81 Q866.286 1127.24 866.286 1120.14 Q866.286 1113.01 864.457 1109.47 Q862.652 1105.9 859.018 1105.9 M859.018 1102.2 Q864.828 1102.2 867.883 1106.8 Q870.962 1111.39 870.962 1120.14 Q870.962 1128.86 867.883 1133.47 Q864.828 1138.05 859.018 1138.05 Q853.207 1138.05 850.129 1133.47 Q847.073 1128.86 847.073 1120.14 Q847.073 1111.39 850.129 1106.8 Q853.207 1102.2 859.018 1102.2 Z" fill="#000000" fill-rule="evenodd" fill-opacity="1" /><path clip-path="url(#clip150)" d="M880.592 1096.64 Q877.883 1096.64 876.322 1098.09 Q874.78 1099.53 874.78 1102.07 Q874.78 1104.61 876.322 1106.06 Q877.883 1107.51 880.592 1107.51 Q883.3 1107.51 884.861 1106.06 Q886.422 1104.59 886.422 1102.07 Q886.422 1099.53 884.861 1098.09 Q883.319 1096.64 880.592 1096.64 M876.792 1095.02 Q874.347 1094.42 872.974 1092.74 Q871.62 1091.07 871.62 1088.66 Q871.62 1085.3 874.009 1083.34 Q876.416 1081.38 880.592 1081.38 Q884.786 1081.38 887.174 1083.34 Q889.563 1085.3 889.563 1088.66 Q889.563 1091.07 888.19 1092.74 Q886.836 1094.42 884.41 1095.02 Q887.155 1095.66 888.679 1097.52 Q890.221 1099.38 890.221 1102.07 Q890.221 1106.15 887.72 1108.34 Q885.237 1110.52 880.592 1110.52 Q875.946 1110.52 873.445 1108.34 Q870.962 1106.15 870.962 1102.07 Q870.962 1099.38 872.504 1097.52 Q874.046 1095.66 876.792 1095.02 M875.401 1089.02 Q875.401 1091.2 876.755 1092.42 Q878.128 1093.65 880.592 1093.65 Q883.037 1093.65 884.41 1092.42 Q885.801 1091.2 885.801 1089.02 Q885.801 1086.84 884.41 1085.62 Q883.037 1084.39 880.592 1084.39 Q878.128 1084.39 876.755 1085.62 Q875.401 1086.84 875.401 1089.02 Z" fill="#000000" fill-rule="evenodd" fill-opacity="1" /><path clip-path="url(#clip150)" d="M1115.35 1133.45 L1122.99 1133.45 L1122.99 1107.08 L1114.68 1108.75 L1114.68 1104.49 L1122.94 1102.82 L1127.62 1102.82 L1127.62 1133.45 L1135.25 1133.45 L1135.25 1137.38 L1115.35 1137.38 L1115.35 1133.45 Z" fill="#000000" fill-rule="evenodd" fill-opacity="1" /><path clip-path="url(#clip150)" d="M1154.7 1105.9 Q1151.09 1105.9 1149.26 1109.47 Q1147.45 1113.01 1147.45 1120.14 Q1147.45 1127.24 1149.26 1130.81 Q1151.09 1134.35 1154.7 1134.35 Q1158.33 1134.35 1160.14 1130.81 Q1161.97 1127.24 1161.97 1120.14 Q1161.97 1113.01 1160.14 1109.47 Q1158.33 1105.9 1154.7 1105.9 M1154.7 1102.2 Q1160.51 1102.2 1163.56 1106.8 Q1166.64 1111.39 1166.64 1120.14 Q1166.64 1128.86 1163.56 1133.47 Q1160.51 1138.05 1154.7 1138.05 Q1148.89 1138.05 1145.81 1133.47 Q1142.75 1128.86 1142.75 1120.14 Q1142.75 1111.39 1145.81 1106.8 Q1148.89 1102.2 1154.7 1102.2 Z" fill="#000000" fill-rule="evenodd" fill-opacity="1" /><path clip-path="url(#clip150)" d="M1168.45 1109.39 L1168.45 1105.93 Q1169.88 1106.61 1171.35 1106.96 Q1172.81 1107.32 1174.22 1107.32 Q1177.98 1107.32 1179.96 1104.8 Q1181.95 1102.26 1182.23 1097.11 Q1181.14 1098.73 1179.47 1099.59 Q1177.8 1100.46 1175.76 1100.46 Q1171.55 1100.46 1169.09 1097.92 Q1166.64 1095.36 1166.64 1090.94 Q1166.64 1086.61 1169.2 1084 Q1171.76 1081.38 1176.01 1081.38 Q1180.88 1081.38 1183.44 1085.13 Q1186.02 1088.85 1186.02 1095.96 Q1186.02 1102.6 1182.86 1106.57 Q1179.71 1110.52 1174.39 1110.52 Q1172.96 1110.52 1171.5 1110.24 Q1170.03 1109.95 1168.45 1109.39 M1176.01 1097.48 Q1178.57 1097.48 1180.05 1095.73 Q1181.56 1093.99 1181.56 1090.94 Q1181.56 1087.91 1180.05 1086.16 Q1178.57 1084.39 1176.01 1084.39 Q1173.45 1084.39 1171.95 1086.16 Q1170.46 1087.91 1170.46 1090.94 Q1170.46 1093.99 1171.95 1095.73 Q1173.45 1097.48 1176.01 1097.48 Z" fill="#000000" fill-rule="evenodd" fill-opacity="1" /><path clip-path="url(#clip150)" d="M722.902 1182.07 Q722.902 1182.32 722.612 1183.32 Q722.322 1184.32 721.614 1185.87 Q720.937 1187.41 720.003 1188.83 Q719.069 1190.21 717.524 1191.24 Q716.01 1192.24 714.271 1192.24 Q711.952 1192.24 710.406 1190.7 Q708.86 1189.15 708.86 1186.83 Q708.86 1185.54 709.536 1183.77 Q713.82 1172.34 713.82 1168.41 Q713.82 1163.8 710.245 1163.8 Q708.474 1163.8 706.799 1164.48 Q705.156 1165.13 704.029 1166.03 Q702.902 1166.93 701.871 1168.18 Q700.873 1169.41 700.358 1170.25 Q699.875 1171.05 699.488 1171.86 L698.651 1175.14 Q698.458 1176.04 697.524 1179.55 L696.074 1185.51 Q695.044 1189.96 694.818 1190.37 Q694.496 1191.28 693.788 1191.76 Q693.079 1192.24 692.371 1192.24 Q691.566 1192.24 691.018 1191.76 Q690.471 1191.28 690.471 1190.44 Q690.471 1190.31 690.567 1189.83 Q690.664 1189.34 690.825 1188.67 Q690.986 1187.99 691.05 1187.6 L694.883 1172.37 Q695.591 1169.6 695.752 1168.73 Q695.946 1167.83 695.946 1166.83 Q695.946 1163.8 693.884 1163.8 Q692.21 1163.8 691.115 1165.8 Q690.02 1167.8 689.086 1171.66 Q688.796 1172.73 688.603 1172.95 Q688.442 1173.18 687.959 1173.18 Q687.153 1173.14 687.153 1172.5 Q687.153 1172.34 687.411 1171.28 Q687.669 1170.21 688.152 1168.7 Q688.667 1167.15 689.15 1166.12 Q689.569 1165.35 689.794 1165 Q690.052 1164.61 690.664 1163.87 Q691.308 1163.1 692.145 1162.74 Q693.015 1162.36 694.078 1162.36 Q696.461 1162.36 698.2 1163.9 Q699.939 1165.41 700.165 1168.09 Q704.448 1162.36 710.438 1162.36 Q713.981 1162.36 716.01 1164.22 Q718.039 1166.09 718.039 1169.41 Q718.039 1170.18 717.878 1171.18 Q717.749 1172.15 717.427 1173.37 Q717.137 1174.59 716.879 1175.53 Q716.622 1176.46 716.106 1177.98 Q715.591 1179.46 715.366 1180.1 Q715.14 1180.74 714.593 1182.26 Q714.078 1183.74 714.013 1183.9 Q712.821 1186.9 712.821 1188.6 Q712.821 1189.73 713.176 1190.25 Q713.562 1190.76 714.4 1190.76 Q716.654 1190.76 718.329 1188.54 Q720.036 1186.28 721.131 1182.61 Q721.388 1181.81 721.517 1181.61 Q721.678 1181.42 722.129 1181.42 Q722.902 1181.42 722.902 1182.07 Z" fill="#000000" fill-rule="evenodd" fill-opacity="1" /><polyline clip-path="url(#clip153)" style="stroke:#000000; stroke-linecap:butt; stroke-linejoin:round; stroke-width:2; stroke-opacity:0.1; fill:none" points="
  236.516,913.697 1176.96,913.697 
  "/>
<polyline clip-path="url(#clip153)" style="stroke:#000000; stroke-linecap:butt; stroke-linejoin:round; stroke-width:2; stroke-opacity:0.1; fill:none" points="
  236.516,733.076 1176.96,733.076 
  "/>
<polyline clip-path="url(#clip153)" style="stroke:#000000; stroke-linecap:butt; stroke-linejoin:round; stroke-width:2; stroke-opacity:0.1; fill:none" points="
  236.516,552.454 1176.96,552.454 
  "/>
<polyline clip-path="url(#clip153)" style="stroke:#000000; stroke-linecap:butt; stroke-linejoin:round; stroke-width:2; stroke-opacity:0.1; fill:none" points="
  236.516,371.833 1176.96,371.833 
  "/>
<polyline clip-path="url(#clip150)" style="stroke:#000000; stroke-linecap:butt; stroke-linejoin:round; stroke-width:4; stroke-opacity:1; fill:none" points="
  236.516,1059.32 236.516,219.853 
  "/>
<polyline clip-path="url(#clip150)" style="stroke:#000000; stroke-linecap:butt; stroke-linejoin:round; stroke-width:4; stroke-opacity:1; fill:none" points="
  236.516,913.697 255.414,913.697 
  "/>
<polyline clip-path="url(#clip150)" style="stroke:#000000; stroke-linecap:butt; stroke-linejoin:round; stroke-width:4; stroke-opacity:1; fill:none" points="
  236.516,733.076 255.414,733.076 
  "/>
<polyline clip-path="url(#clip150)" style="stroke:#000000; stroke-linecap:butt; stroke-linejoin:round; stroke-width:4; stroke-opacity:1; fill:none" points="
  236.516,552.454 255.414,552.454 
  "/>
<polyline clip-path="url(#clip150)" style="stroke:#000000; stroke-linecap:butt; stroke-linejoin:round; stroke-width:4; stroke-opacity:1; fill:none" points="
  236.516,371.833 255.414,371.833 
  "/>
<path clip-path="url(#clip150)" d="M100.376 933.489 L108.015 933.489 L108.015 907.124 L99.7051 908.791 L99.7051 904.531 L107.969 902.865 L112.645 902.865 L112.645 933.489 L120.284 933.489 L120.284 937.425 L100.376 937.425 L100.376 933.489 Z" fill="#000000" fill-rule="evenodd" fill-opacity="1" /><path clip-path="url(#clip150)" d="M139.728 905.943 Q136.117 905.943 134.288 909.508 Q132.483 913.05 132.483 920.179 Q132.483 927.286 134.288 930.851 Q136.117 934.392 139.728 934.392 Q143.362 934.392 145.168 930.851 Q146.997 927.286 146.997 920.179 Q146.997 913.05 145.168 909.508 Q143.362 905.943 139.728 905.943 M139.728 902.24 Q145.538 902.24 148.594 906.846 Q151.672 911.429 151.672 920.179 Q151.672 928.906 148.594 933.513 Q145.538 938.096 139.728 938.096 Q133.918 938.096 130.839 933.513 Q127.784 928.906 127.784 920.179 Q127.784 911.429 130.839 906.846 Q133.918 902.24 139.728 902.24 Z" fill="#000000" fill-rule="evenodd" fill-opacity="1" /><path clip-path="url(#clip150)" d="M151.672 896.341 L175.784 896.341 L175.784 899.538 L151.672 899.538 L151.672 896.341 Z" fill="#000000" fill-rule="evenodd" fill-opacity="1" /><path clip-path="url(#clip150)" d="M187.257 906.817 L200.516 906.817 L200.516 910.014 L182.686 910.014 L182.686 906.817 Q184.849 904.579 188.573 900.817 Q192.316 897.037 193.275 895.946 Q195.1 893.896 195.814 892.485 Q196.548 891.056 196.548 889.683 Q196.548 887.445 194.968 886.034 Q193.407 884.624 190.887 884.624 Q189.1 884.624 187.106 885.244 Q185.131 885.865 182.875 887.125 L182.875 883.288 Q185.169 882.367 187.163 881.897 Q189.156 881.426 190.811 881.426 Q195.175 881.426 197.77 883.608 Q200.366 885.79 200.366 889.439 Q200.366 891.169 199.708 892.73 Q199.068 894.272 197.357 896.379 Q196.886 896.924 194.366 899.538 Q191.846 902.134 187.257 906.817 Z" fill="#000000" fill-rule="evenodd" fill-opacity="1" /><path clip-path="url(#clip150)" d="M100.076 752.868 L107.714 752.868 L107.714 726.502 L99.4042 728.169 L99.4042 723.91 L107.668 722.243 L112.344 722.243 L112.344 752.868 L119.983 752.868 L119.983 756.803 L100.076 756.803 L100.076 752.868 Z" fill="#000000" fill-rule="evenodd" fill-opacity="1" /><path clip-path="url(#clip150)" d="M139.427 725.322 Q135.816 725.322 133.987 728.887 Q132.182 732.428 132.182 739.558 Q132.182 746.664 133.987 750.229 Q135.816 753.771 139.427 753.771 Q143.061 753.771 144.867 750.229 Q146.696 746.664 146.696 739.558 Q146.696 732.428 144.867 728.887 Q143.061 725.322 139.427 725.322 M139.427 721.618 Q145.237 721.618 148.293 726.225 Q151.372 730.808 151.372 739.558 Q151.372 748.285 148.293 752.891 Q145.237 757.474 139.427 757.474 Q133.617 757.474 130.538 752.891 Q127.483 748.285 127.483 739.558 Q127.483 730.808 130.538 726.225 Q133.617 721.618 139.427 721.618 Z" fill="#000000" fill-rule="evenodd" fill-opacity="1" /><path clip-path="url(#clip150)" d="M151.372 715.719 L175.483 715.719 L175.483 718.917 L151.372 718.917 L151.372 715.719 Z" fill="#000000" fill-rule="evenodd" fill-opacity="1" /><path clip-path="url(#clip150)" d="M184.342 726.195 L190.548 726.195 L190.548 704.773 L183.796 706.128 L183.796 702.667 L190.511 701.313 L194.31 701.313 L194.31 726.195 L200.516 726.195 L200.516 729.393 L184.342 729.393 L184.342 726.195 Z" fill="#000000" fill-rule="evenodd" fill-opacity="1" /><path clip-path="url(#clip150)" d="M129.811 572.246 L137.449 572.246 L137.449 545.881 L129.139 547.548 L129.139 543.288 L137.403 541.622 L142.079 541.622 L142.079 572.246 L149.718 572.246 L149.718 576.182 L129.811 576.182 L129.811 572.246 Z" fill="#000000" fill-rule="evenodd" fill-opacity="1" /><path clip-path="url(#clip150)" d="M169.162 544.7 Q165.551 544.7 163.722 548.265 Q161.917 551.807 161.917 558.936 Q161.917 566.043 163.722 569.608 Q165.551 573.149 169.162 573.149 Q172.796 573.149 174.602 569.608 Q176.431 566.043 176.431 558.936 Q176.431 551.807 174.602 548.265 Q172.796 544.7 169.162 544.7 M169.162 540.997 Q174.972 540.997 178.028 545.603 Q181.107 550.186 181.107 558.936 Q181.107 567.663 178.028 572.27 Q174.972 576.853 169.162 576.853 Q163.352 576.853 160.273 572.27 Q157.218 567.663 157.218 558.936 Q157.218 550.186 160.273 545.603 Q163.352 540.997 169.162 540.997 Z" fill="#000000" fill-rule="evenodd" fill-opacity="1" /><path clip-path="url(#clip150)" d="M190.811 523.193 Q187.877 523.193 186.392 526.089 Q184.925 528.967 184.925 534.759 Q184.925 540.533 186.392 543.43 Q187.877 546.307 190.811 546.307 Q193.764 546.307 195.231 543.43 Q196.717 540.533 196.717 534.759 Q196.717 528.967 195.231 526.089 Q193.764 523.193 190.811 523.193 M190.811 520.183 Q195.532 520.183 198.015 523.926 Q200.516 527.65 200.516 534.759 Q200.516 541.85 198.015 545.593 Q195.532 549.317 190.811 549.317 Q186.091 549.317 183.589 545.593 Q181.107 541.85 181.107 534.759 Q181.107 527.65 183.589 523.926 Q186.091 520.183 190.811 520.183 Z" fill="#000000" fill-rule="evenodd" fill-opacity="1" /><path clip-path="url(#clip150)" d="M132.5 391.625 L140.139 391.625 L140.139 365.259 L131.829 366.926 L131.829 362.667 L140.093 361 L144.769 361 L144.769 391.625 L152.407 391.625 L152.407 395.56 L132.5 395.56 L132.5 391.625 Z" fill="#000000" fill-rule="evenodd" fill-opacity="1" /><path clip-path="url(#clip150)" d="M171.852 364.079 Q168.241 364.079 166.412 367.644 Q164.606 371.185 164.606 378.315 Q164.606 385.421 166.412 388.986 Q168.241 392.528 171.852 392.528 Q175.486 392.528 177.292 388.986 Q179.12 385.421 179.12 378.315 Q179.12 371.185 177.292 367.644 Q175.486 364.079 171.852 364.079 M171.852 360.375 Q177.662 360.375 180.717 364.982 Q183.796 369.565 183.796 378.315 Q183.796 387.042 180.717 391.648 Q177.662 396.231 171.852 396.231 Q166.042 396.231 162.963 391.648 Q159.907 387.042 159.907 378.315 Q159.907 369.565 162.963 364.982 Q166.042 360.375 171.852 360.375 Z" fill="#000000" fill-rule="evenodd" fill-opacity="1" /><path clip-path="url(#clip150)" d="M184.342 364.952 L190.548 364.952 L190.548 343.53 L183.796 344.885 L183.796 341.424 L190.511 340.07 L194.31 340.07 L194.31 364.952 L200.516 364.952 L200.516 368.15 L184.342 368.15 L184.342 364.952 Z" fill="#000000" fill-rule="evenodd" fill-opacity="1" /><path clip-path="url(#clip150)" d="M27.2323 743.897 L25.783 743.897 Q25.6542 740.869 23.5286 738.873 Q21.3708 736.844 18.73 736.167 Q16.0891 735.459 13.0295 735.394 L13.0295 733.752 L25.1711 733.752 L25.1711 724.316 L27.2323 724.316 L27.2323 733.752 L45.5574 733.752 Q52.6749 733.752 52.6749 729.307 Q52.6749 727.407 50.7426 726.151 Q48.778 724.895 45.2998 724.895 L41.6605 724.895 L41.6605 723.253 L45.4286 723.253 Q49.0035 723.253 51.6766 724.895 Q54.3496 726.538 54.3496 729.791 Q54.3496 730.982 54.0276 732.174 Q53.7377 733.333 52.9648 734.879 Q52.1596 736.393 50.2273 737.359 Q48.2627 738.293 45.4286 738.293 L27.2323 738.293 L27.2323 743.897 Z" fill="#000000" fill-rule="evenodd" fill-opacity="1" /><path clip-path="url(#clip150)" d="M53.6089 719.361 L51.5799 719.361 Q51.5799 715.851 51.1613 715.046 Q50.7104 714.241 48.5848 714.241 L30.8394 714.241 Q28.3917 714.241 27.812 715.078 Q27.2323 715.883 27.2323 719.104 L25.1711 719.104 L24.4626 709.893 L48.6492 709.893 Q50.6138 709.893 51.0969 709.184 Q51.5799 708.476 51.5799 705.255 L53.6089 705.255 Q53.4157 711.986 53.4157 712.115 Q53.4157 713.017 53.6089 719.361 M12.9651 716.592 Q11.6447 716.592 10.5819 715.593 Q9.48688 714.563 9.48688 713.113 Q9.48688 711.664 10.4853 710.634 Q11.4514 709.603 12.9973 709.603 Q14.511 709.603 15.5094 710.634 Q16.4755 711.664 16.4755 713.113 Q16.4755 714.627 15.4128 715.625 Q14.35 716.592 12.9651 716.592 Z" fill="#000000" fill-rule="evenodd" fill-opacity="1" /><path clip-path="url(#clip150)" d="M53.6089 700.747 L51.5799 700.747 Q51.5799 697.236 51.1613 696.431 Q50.7104 695.626 48.5848 695.626 L30.9038 695.626 Q28.4561 695.626 27.8442 696.496 Q27.2323 697.333 27.2323 700.747 L25.1711 700.747 L24.4626 691.472 L31.3869 691.472 Q24.4626 688.38 24.4626 681.713 Q24.4626 673.984 30.9038 672.921 Q28.3917 671.794 26.4272 669.443 Q24.4626 667.06 24.4626 663.356 Q24.4626 658.396 26.9102 656.432 Q28.5527 654.982 30.3885 654.692 Q32.2242 654.403 36.9907 654.403 L49.5832 654.403 Q50.968 654.338 51.2901 653.275 Q51.5799 652.213 51.5799 649.25 L53.6089 649.25 Q53.4157 655.981 53.4157 656.625 Q53.4157 657.14 53.6089 664.097 L51.5799 664.097 Q51.5799 660.586 51.1613 659.781 Q50.7104 658.944 48.5848 658.944 L33.2226 658.944 Q29.8732 658.944 27.9086 659.974 Q25.9119 661.005 25.9119 663.839 Q25.9119 667.253 28.7782 669.99 Q31.6445 672.728 36.4754 672.728 L48.5848 672.728 Q50.7104 672.728 51.1613 671.923 Q51.5799 671.085 51.5799 667.575 L53.6089 667.575 Q53.4157 674.306 53.4157 674.982 Q53.4157 675.497 53.6089 682.422 L51.5799 682.422 Q51.5799 678.911 51.1613 678.106 Q50.7104 677.269 48.5848 677.269 L33.2226 677.269 Q29.8732 677.269 27.9086 678.299 Q25.9119 679.33 25.9119 682.164 Q25.9119 685.578 28.7782 688.315 Q31.6445 691.053 36.4754 691.053 L48.5848 691.053 Q50.7104 691.053 51.1613 690.248 Q51.5799 689.41 51.5799 685.932 L53.6089 685.932 Q53.4157 692.663 53.4157 693.307 Q53.4157 693.823 53.6089 700.747 Z" fill="#000000" fill-rule="evenodd" fill-opacity="1" /><path clip-path="url(#clip150)" d="M39.0841 645.304 Q32.8683 645.304 28.4561 641.31 Q24.0439 637.317 24.0439 631.584 Q24.0439 625.787 27.812 622.792 Q31.5801 619.765 36.9907 619.765 Q37.9891 619.765 38.1823 620.022 Q38.3755 620.28 38.3755 621.407 L38.3755 639.829 Q45.1066 639.829 48.2627 637.832 Q52.6749 635.062 52.6749 630.393 Q52.6749 629.749 52.5461 628.976 Q52.4173 628.203 51.8698 626.625 Q51.2901 625.046 49.7764 623.662 Q48.2627 622.277 45.8795 621.472 Q44.9455 621.278 44.9777 620.634 Q44.9777 619.765 45.7507 619.765 Q46.3304 619.765 47.6508 620.409 Q48.9391 621.021 50.4849 622.212 Q52.0308 623.404 53.1902 625.723 Q54.3496 628.009 54.3496 630.779 Q54.3496 636.576 49.9696 640.956 Q45.5574 645.304 39.0841 645.304 M36.9907 639.765 L36.9907 624.112 Q35.6058 624.112 34.0599 624.37 Q32.5141 624.596 30.3885 625.304 Q28.2307 625.98 26.878 627.591 Q25.5254 629.201 25.5254 631.584 Q25.5254 632.647 25.9763 633.806 Q26.4272 634.934 27.5222 636.318 Q28.6172 637.703 31.097 638.67 Q33.5769 639.636 36.9907 639.765 Z" fill="#000000" fill-rule="evenodd" fill-opacity="1" /><path clip-path="url(#clip150)" d="M70.0983 590.162 L4.1407 590.162 L4.1407 580.21 L5.65438 580.21 L5.65438 585.749 L68.5846 585.749 L68.5846 580.21 L70.0983 580.21 L70.0983 590.162 Z" fill="#000000" fill-rule="evenodd" fill-opacity="1" /><path clip-path="url(#clip150)" d="M52.7393 577.555 L44.0438 577.555 Q43.303 577.555 43.0454 577.523 Q42.7877 577.491 42.5945 577.298 Q42.4013 577.104 42.4013 576.718 Q42.4013 576.267 42.5945 576.106 Q42.7877 575.913 43.5285 575.784 Q48.0695 574.786 50.4849 572.66 Q52.8682 570.502 52.8682 566.605 Q52.8682 562.902 51.2257 561.034 Q49.5832 559.166 46.8779 559.166 Q42.047 559.166 40.8232 566.026 Q40.018 569.987 39.5027 571.629 Q38.9552 573.272 37.7636 574.721 Q35.4448 577.555 32.1598 577.555 Q28.8748 577.555 26.4594 575.076 Q24.0439 572.563 24.0439 567.024 Q24.0439 563.32 25.9119 560.808 Q25.3322 560.068 24.8491 559.681 Q24.0439 558.812 24.0439 558.361 Q24.0439 557.845 24.3982 557.749 Q24.7202 557.652 25.6542 557.652 L32.2886 557.652 Q33.0294 557.652 33.287 557.684 Q33.5447 557.717 33.7379 557.91 Q33.8989 558.103 33.8989 558.522 Q33.8989 559.262 33.287 559.295 Q25.3 559.81 25.3 567.024 Q25.3 570.921 26.8136 572.66 Q28.2951 574.399 30.3241 574.399 Q31.4513 574.399 32.3208 573.884 Q33.1582 573.336 33.6735 572.66 Q34.1566 571.952 34.6397 570.663 Q35.0905 569.375 35.2516 568.602 Q35.4126 567.797 35.7347 566.283 Q36.733 561.002 38.8908 558.779 Q41.6605 556.01 45.171 556.01 Q49.0679 556.01 51.7088 558.651 Q54.3496 561.291 54.3496 566.605 Q54.3496 570.889 51.4833 573.884 Q51.8698 574.27 52.2241 574.56 Q52.5461 574.85 52.6749 574.979 Q52.8038 575.076 52.9004 575.108 Q52.9648 575.14 53.0292 575.204 Q54.3496 576.525 54.3496 576.847 Q54.3496 577.362 53.9954 577.459 Q53.6733 577.555 52.7393 577.555 Z" fill="#000000" fill-rule="evenodd" fill-opacity="1" /><path clip-path="url(#clip150)" d="M68.5846 553.429 L68.5846 547.89 L5.65438 547.89 L5.65438 553.429 L4.1407 553.429 L4.1407 543.478 L70.0983 543.478 L70.0983 553.429 L68.5846 553.429 Z" fill="#000000" fill-rule="evenodd" fill-opacity="1" /><path clip-path="url(#clip150)" d="M480.108 195.226 Q475.54 190.448 475.54 183.632 Q475.54 176.781 480.037 171.862 Q484.534 166.908 491.139 166.908 Q495.531 166.908 498.834 169.016 Q502.136 171.089 502.136 174.637 Q502.136 176.218 501.188 177.132 Q500.274 178.01 498.834 178.01 Q497.323 178.01 496.41 177.097 Q495.531 176.148 495.531 174.708 Q495.531 174.075 495.742 173.443 Q495.953 172.81 496.726 172.143 Q497.534 171.475 498.904 171.37 Q496.339 168.735 491.35 168.735 Q491.28 168.735 491.21 168.735 Q487.556 168.735 484.534 172.178 Q481.513 175.621 481.513 183.491 Q481.513 187.602 482.497 190.623 Q483.515 193.61 485.167 195.155 Q486.818 196.701 488.434 197.439 Q490.05 198.142 491.631 198.142 Q498.693 198.142 501.082 190.588 Q501.293 189.885 501.996 189.885 Q502.944 189.885 502.944 190.588 Q502.944 190.939 502.663 191.853 Q502.382 192.766 501.504 194.207 Q500.626 195.647 499.361 196.912 Q498.131 198.142 495.918 199.055 Q493.739 199.969 490.999 199.969 Q484.675 199.969 480.108 195.226 Z" fill="#000000" fill-rule="evenodd" fill-opacity="1" /><path clip-path="url(#clip150)" d="M506.47 199.161 L506.47 196.947 Q510.3 196.947 511.178 196.49 Q512.056 195.999 512.056 193.68 L512.056 156.262 Q512.056 153.592 511.108 152.925 Q510.194 152.257 506.47 152.257 L506.47 150.009 L516.8 149.236 L516.8 174.251 L516.87 174.251 Q518.029 171.651 520.629 169.508 Q523.229 167.365 527.234 167.365 Q532.645 167.365 534.788 170.035 Q536.369 171.827 536.685 173.829 Q537.037 175.832 537.037 181.032 L537.037 194.769 Q537.107 196.28 538.266 196.631 Q539.426 196.947 542.658 196.947 L542.658 199.161 Q535.315 198.95 534.577 198.95 Q534.015 198.95 526.461 199.161 L526.461 196.947 Q530.291 196.947 531.169 196.49 Q532.083 195.999 532.083 193.68 L532.083 176.921 Q532.083 173.267 530.958 171.124 Q529.834 168.946 526.742 168.946 Q523.018 168.946 520.032 172.073 Q517.045 175.199 517.045 180.47 L517.045 193.68 Q517.045 195.999 517.924 196.49 Q518.837 196.947 522.632 196.947 L522.632 199.161 Q515.289 198.95 514.586 198.95 Q514.024 198.95 506.47 199.161 Z" fill="#000000" fill-rule="evenodd" fill-opacity="1" /><path clip-path="url(#clip150)" d="M543.696 170.386 L543.696 168.138 L554.272 167.365 L554.272 191.256 Q554.272 192.977 554.412 193.996 Q554.553 194.98 555.115 196.139 Q555.712 197.299 557.047 197.826 Q558.417 198.353 560.596 198.353 Q564.496 198.353 566.885 195.155 Q569.309 191.958 569.309 187.215 L569.309 174.391 Q569.309 171.721 568.36 171.054 Q567.412 170.386 563.687 170.386 L563.687 168.138 L574.263 167.365 L574.263 192.907 Q574.263 195.577 575.176 196.28 Q576.125 196.947 579.884 196.947 L579.884 199.161 L569.52 199.969 L569.52 193.469 Q566.498 199.934 560.244 199.969 Q557.082 199.969 554.904 199.161 Q552.761 198.353 551.672 197.369 Q550.583 196.35 549.985 194.418 Q549.423 192.485 549.353 191.291 Q549.283 190.096 549.283 187.777 L549.283 176.991 Q549.283 172.108 548.58 171.265 Q547.877 170.386 543.696 170.386 Z" fill="#000000" fill-rule="evenodd" fill-opacity="1" /><path clip-path="url(#clip150)" d="M582.363 199.161 L582.363 196.947 Q586.192 196.947 587.07 196.49 Q587.949 195.999 587.949 193.68 L587.949 174.391 Q587.949 171.721 587 171.054 Q586.087 170.386 582.363 170.386 L582.363 168.138 L592.481 167.365 L592.481 174.918 Q595.854 167.365 603.127 167.365 Q608.537 167.365 610.68 170.035 Q612.261 171.827 612.577 173.829 Q612.929 175.832 612.929 181.032 L612.929 194.769 Q612.999 196.28 614.158 196.631 Q615.318 196.947 618.55 196.947 L618.55 199.161 Q611.207 198.95 610.469 198.95 Q609.907 198.95 602.354 199.161 L602.354 196.947 Q606.183 196.947 607.061 196.49 Q607.975 195.999 607.975 193.68 L607.975 176.921 Q607.975 173.267 606.851 171.124 Q605.726 168.946 602.635 168.946 Q598.91 168.946 595.924 172.073 Q592.938 175.199 592.938 180.47 L592.938 193.68 Q592.938 195.999 593.816 196.49 Q594.73 196.947 598.524 196.947 L598.524 199.161 Q591.181 198.95 590.478 198.95 Q589.916 198.95 582.363 199.161 Z" fill="#000000" fill-rule="evenodd" fill-opacity="1" /><path clip-path="url(#clip150)" d="M623.621 199.161 L623.621 196.947 Q627.45 196.947 628.329 196.49 Q629.242 195.999 629.242 193.68 L629.242 156.262 Q629.242 153.592 628.293 152.925 Q627.38 152.257 623.621 152.257 L623.621 150.009 L633.985 149.236 L633.985 183.772 L644.139 174.989 Q645.72 173.618 645.72 172.178 Q645.72 170.527 643.647 170.386 L643.647 168.138 Q646.668 168.348 651.692 168.348 Q654.644 168.348 656.717 168.138 L656.717 170.386 Q652.184 170.597 647.652 174.251 Q646.633 175.059 644.209 177.167 Q641.82 179.24 641.82 179.451 Q641.82 179.521 641.89 179.697 Q641.996 179.872 642.136 180.013 Q642.277 180.153 642.277 180.224 L651.411 193.118 Q653.273 195.718 654.644 196.35 Q656.014 196.947 658.403 196.947 L658.403 199.161 Q655.311 198.95 652.114 198.95 Q650.393 198.95 644.35 199.161 L644.35 196.947 Q646.949 196.947 646.949 195.261 Q646.949 194.101 641.117 186.056 Q640.696 185.494 639.747 184.264 Q638.869 182.964 638.377 182.332 L633.774 186.267 L633.774 193.68 Q633.774 195.999 634.653 196.49 Q635.566 196.947 639.396 196.947 L639.396 199.161 Q635.074 198.95 631.491 198.95 Q630.753 198.95 623.621 199.161 Z" fill="#000000" fill-rule="evenodd" fill-opacity="1" /><path clip-path="url(#clip150)" d="M662.395 198.212 L662.395 188.726 Q662.395 187.918 662.43 187.637 Q662.466 187.356 662.676 187.145 Q662.887 186.934 663.309 186.934 Q663.801 186.934 663.976 187.145 Q664.187 187.356 664.328 188.164 Q665.417 193.118 667.736 195.753 Q670.09 198.353 674.341 198.353 Q678.381 198.353 680.419 196.561 Q682.457 194.769 682.457 191.818 Q682.457 186.548 674.973 185.213 Q670.652 184.334 668.86 183.772 Q667.068 183.175 665.487 181.875 Q662.395 179.345 662.395 175.762 Q662.395 172.178 665.101 169.543 Q667.841 166.908 673.884 166.908 Q677.924 166.908 680.665 168.946 Q681.473 168.313 681.895 167.786 Q682.843 166.908 683.335 166.908 Q683.897 166.908 684.003 167.294 Q684.108 167.646 684.108 168.665 L684.108 175.902 Q684.108 176.71 684.073 176.991 Q684.038 177.272 683.827 177.483 Q683.616 177.659 683.159 177.659 Q682.351 177.659 682.316 176.991 Q681.754 168.278 673.884 168.278 Q669.633 168.278 667.736 169.929 Q665.838 171.546 665.838 173.759 Q665.838 174.989 666.401 175.937 Q666.998 176.851 667.736 177.413 Q668.509 177.94 669.914 178.467 Q671.319 178.959 672.163 179.134 Q673.041 179.31 674.692 179.661 Q680.454 180.751 682.878 183.105 Q685.9 186.126 685.9 189.956 Q685.9 194.207 683.019 197.088 Q680.138 199.969 674.341 199.969 Q669.668 199.969 666.401 196.842 Q665.979 197.263 665.663 197.65 Q665.347 198.001 665.206 198.142 Q665.101 198.282 665.066 198.388 Q665.03 198.458 664.96 198.528 Q663.52 199.969 663.168 199.969 Q662.606 199.969 662.501 199.582 Q662.395 199.231 662.395 198.212 Z" fill="#000000" fill-rule="evenodd" fill-opacity="1" /><path clip-path="url(#clip150)" d="M688.714 199.161 L688.714 196.947 Q692.544 196.947 693.422 196.49 Q694.301 195.999 694.301 193.68 L694.301 174.321 Q694.301 171.651 693.387 171.019 Q692.509 170.386 688.995 170.386 L688.995 168.138 L699.044 167.365 L699.044 193.75 Q699.044 195.893 699.817 196.42 Q700.589 196.947 704.103 196.947 L704.103 199.161 Q696.76 198.95 696.619 198.95 Q695.636 198.95 688.714 199.161 M691.736 154.822 Q691.736 153.381 692.825 152.222 Q693.949 151.028 695.53 151.028 Q697.111 151.028 698.235 152.117 Q699.36 153.171 699.36 154.857 Q699.36 156.508 698.235 157.598 Q697.111 158.652 695.53 158.652 Q693.879 158.652 692.79 157.492 Q691.736 156.333 691.736 154.822 Z" fill="#000000" fill-rule="evenodd" fill-opacity="1" /><path clip-path="url(#clip150)" d="M710.461 198.142 Q710.461 197.65 711.128 196.842 L731.189 169.719 L723.003 169.719 Q717.312 169.719 715.45 171.827 Q713.623 173.9 713.271 179.732 L711.479 179.732 L712.287 168.138 L735.3 168.138 Q736.108 168.138 736.424 168.173 Q736.741 168.208 736.951 168.454 Q737.162 168.665 737.162 169.086 Q737.162 169.508 736.53 170.316 L716.504 197.369 L725.006 197.369 Q730.979 197.369 732.981 194.874 Q735.019 192.38 735.511 185.704 L737.303 185.704 L736.073 199.161 L712.358 199.161 Q711.198 199.161 710.812 199.02 Q710.461 198.844 710.461 198.142 Z" fill="#000000" fill-rule="evenodd" fill-opacity="1" /><path clip-path="url(#clip150)" d="M744.972 183.315 Q744.972 176.535 749.328 171.721 Q753.685 166.908 759.939 166.908 Q766.263 166.908 769.53 171.019 Q772.833 175.129 772.833 181.032 Q772.833 182.121 772.552 182.332 Q772.27 182.542 771.041 182.542 L750.944 182.542 Q750.944 189.885 753.123 193.328 Q756.144 198.142 761.239 198.142 Q761.941 198.142 762.784 198.001 Q763.628 197.861 765.349 197.263 Q767.071 196.631 768.581 194.98 Q770.092 193.328 770.971 190.729 Q771.181 189.71 771.884 189.745 Q772.833 189.745 772.833 190.588 Q772.833 191.22 772.13 192.661 Q771.462 194.066 770.162 195.753 Q768.863 197.439 766.333 198.704 Q763.838 199.969 760.817 199.969 Q754.493 199.969 749.715 195.191 Q744.972 190.377 744.972 183.315 M751.015 181.032 L768.09 181.032 Q768.09 179.521 767.809 177.835 Q767.563 176.148 766.79 173.829 Q766.052 171.475 764.295 170 Q762.538 168.524 759.939 168.524 Q758.779 168.524 757.514 169.016 Q756.285 169.508 754.774 170.702 Q753.263 171.897 752.209 174.602 Q751.155 177.308 751.015 181.032 Z" fill="#000000" fill-rule="evenodd" fill-opacity="1" /><path clip-path="url(#clip150)" d="M797.689 198.072 Q796.564 196.947 796.564 195.366 Q796.564 193.785 797.689 192.661 Q798.813 191.537 800.394 191.537 Q801.975 191.537 803.099 192.661 Q804.223 193.785 804.223 195.366 Q804.223 196.947 803.099 198.072 Q801.975 199.161 800.394 199.161 Q798.813 199.161 797.689 198.072 M797.689 174.672 Q796.564 173.548 796.564 171.967 Q796.564 170.386 797.689 169.262 Q798.813 168.138 800.394 168.138 Q801.975 168.138 803.099 169.262 Q804.223 170.386 804.223 171.967 Q804.223 173.548 803.099 174.672 Q801.975 175.762 800.394 175.762 Q798.813 175.762 797.689 174.672 Z" fill="#000000" fill-rule="evenodd" fill-opacity="1" /><path clip-path="url(#clip150)" d="M836.256 158.089 L836.256 155.841 Q844.899 155.841 849.361 151.238 Q850.591 151.238 850.802 151.519 Q851.012 151.8 851.012 153.1 L851.012 193.469 Q851.012 195.612 852.066 196.28 Q853.12 196.947 857.723 196.947 L860.007 196.947 L860.007 199.161 Q857.477 198.95 848.342 198.95 Q839.207 198.95 836.713 199.161 L836.713 196.947 L838.997 196.947 Q843.529 196.947 844.618 196.315 Q845.707 195.647 845.707 193.469 L845.707 156.192 Q841.948 158.089 836.256 158.089 Z" fill="#000000" fill-rule="evenodd" fill-opacity="1" /><path clip-path="url(#clip150)" d="M871.889 176.148 Q871.889 165.573 874.559 159.811 Q878.283 151.238 887.067 151.238 Q888.929 151.238 890.861 151.765 Q892.829 152.257 895.288 154.19 Q897.782 156.122 899.293 159.284 Q902.174 165.397 902.174 176.148 Q902.174 186.653 899.504 192.38 Q895.604 200.742 886.996 200.742 Q883.764 200.742 880.462 199.09 Q877.194 197.439 875.121 193.469 Q871.889 187.531 871.889 176.148 M877.862 175.27 Q877.862 186.126 878.635 190.448 Q879.513 195.12 881.902 197.158 Q884.326 199.161 886.996 199.161 Q889.877 199.161 892.267 197.018 Q894.691 194.839 895.429 190.166 Q896.237 185.564 896.201 175.27 Q896.201 165.257 895.499 161.251 Q894.55 156.579 892.021 154.717 Q889.526 152.819 886.996 152.819 Q886.048 152.819 885.029 153.1 Q884.045 153.381 882.605 154.19 Q881.164 154.998 880.04 157 Q878.951 159.003 878.424 162.024 Q877.862 165.924 877.862 175.27 Z" fill="#000000" fill-rule="evenodd" fill-opacity="1" /><path clip-path="url(#clip150)" d="M909.553 144.655 Q909.553 136.735 913.587 131.89 Q917.62 127.021 922.809 127.021 Q925.834 127.021 927.507 128.57 Q929.204 130.095 929.204 132.456 Q929.204 133.76 928.441 134.325 Q927.679 134.891 926.892 134.891 Q925.982 134.891 925.269 134.276 Q924.555 133.661 924.555 132.555 Q924.555 130.292 927.334 130.292 Q926.031 128.275 922.908 128.275 Q921.949 128.275 920.965 128.57 Q919.981 128.841 918.702 129.775 Q917.423 130.71 916.44 132.186 Q915.456 133.661 914.767 136.44 Q914.079 139.219 914.079 142.835 L914.079 144.04 Q916.144 139.047 920.375 139.072 Q924.605 139.072 927.531 142.294 Q930.458 145.515 930.458 150.286 Q930.458 155.181 927.408 158.427 Q924.359 161.673 920.079 161.673 Q918.161 161.673 916.415 160.862 Q914.693 160.075 913.07 158.255 Q911.472 156.435 910.512 152.943 Q909.553 149.45 909.553 144.655 M914.177 149.18 Q914.177 154.123 915.087 156.484 Q915.234 156.878 915.554 157.419 Q915.898 157.96 916.464 158.673 Q917.054 159.362 918.014 159.829 Q918.973 160.271 920.079 160.271 Q923.449 160.271 925.072 157.001 Q925.933 155.181 925.933 150.237 Q925.933 145.196 925.023 143.351 Q923.473 140.228 920.325 140.228 Q918.21 140.228 916.735 141.679 Q915.284 143.13 914.718 145.073 Q914.177 147.016 914.177 149.18 Z" fill="#000000" fill-rule="evenodd" fill-opacity="1" /><polyline clip-path="url(#clip153)" style="stroke:#009af9; stroke-linecap:butt; stroke-linejoin:round; stroke-width:4; stroke-opacity:1; fill:none" points="
  263.133,990.406 558.87,930.124 854.608,771.614 1061.32,644.907 1150.35,584.798 
  "/>
<polyline clip-path="url(#clip153)" style="stroke:#e26f46; stroke-linecap:butt; stroke-linejoin:round; stroke-width:4; stroke-opacity:1; fill:none" points="
  263.133,812.377 558.87,701.963 854.608,558.322 1061.32,435.279 1150.35,253.616 
  "/>
<polyline clip-path="url(#clip153)" style="stroke:#3da44d; stroke-linecap:butt; stroke-linejoin:round; stroke-width:4; stroke-opacity:1; fill:none" points="
  263.133,1035.56 558.87,856.816 854.608,675.828 1061.32,548.442 1150.35,495.376 
  "/>
<path clip-path="url(#clip150)" d="
M267.864 455.195 L690.273 455.195 L690.273 247.835 L267.864 247.835  Z
  " fill="#ffffff" fill-rule="evenodd" fill-opacity="1"/>
<polyline clip-path="url(#clip150)" style="stroke:#000000; stroke-linecap:butt; stroke-linejoin:round; stroke-width:4; stroke-opacity:1; fill:none" points="
  267.864,455.195 690.273,455.195 690.273,247.835 267.864,247.835 267.864,455.195 
  "/>
<polyline clip-path="url(#clip150)" style="stroke:#009af9; stroke-linecap:butt; stroke-linejoin:round; stroke-width:4; stroke-opacity:1; fill:none" points="
  278.314,299.675 341.01,299.675 
  "/>
<path clip-path="url(#clip150)" d="M356.136 286.238 L356.136 313.113 L361.784 313.113 Q368.936 313.113 372.247 309.872 Q375.58 306.631 375.58 299.641 Q375.58 292.696 372.247 289.479 Q368.936 286.238 361.784 286.238 L356.136 286.238 M351.46 282.395 L361.066 282.395 Q371.112 282.395 375.811 286.585 Q380.51 290.752 380.51 299.641 Q380.51 308.576 375.788 312.765 Q371.066 316.955 361.066 316.955 L351.46 316.955 L351.46 282.395 Z" fill="#000000" fill-rule="evenodd" fill-opacity="1" /><path clip-path="url(#clip150)" d="M383.172 282.395 L412.408 282.395 L412.408 286.33 L400.14 286.33 L400.14 316.955 L395.441 316.955 L395.441 286.33 L383.172 286.33 L383.172 282.395 Z" fill="#000000" fill-rule="evenodd" fill-opacity="1" /><path clip-path="url(#clip150)" d="M420.672 303.923 Q415.51 303.923 413.519 305.103 Q411.529 306.284 411.529 309.131 Q411.529 311.4 413.01 312.742 Q414.515 314.062 417.084 314.062 Q420.626 314.062 422.756 311.562 Q424.908 309.039 424.908 304.872 L424.908 303.923 L420.672 303.923 M429.168 302.164 L429.168 316.955 L424.908 316.955 L424.908 313.02 Q423.45 315.381 421.274 316.515 Q419.098 317.627 415.95 317.627 Q411.969 317.627 409.607 315.404 Q407.269 313.159 407.269 309.409 Q407.269 305.034 410.186 302.812 Q413.126 300.59 418.936 300.59 L424.908 300.59 L424.908 300.173 Q424.908 297.233 422.964 295.636 Q421.043 294.016 417.547 294.016 Q415.325 294.016 413.219 294.548 Q411.112 295.08 409.168 296.145 L409.168 292.21 Q411.506 291.307 413.705 290.867 Q415.904 290.404 417.987 290.404 Q423.612 290.404 426.39 293.321 Q429.168 296.238 429.168 302.164 Z" fill="#000000" fill-rule="evenodd" fill-opacity="1" /><path clip-path="url(#clip150)" d="M456.552 304.015 Q456.552 299.316 454.607 296.654 Q452.686 293.969 449.306 293.969 Q445.927 293.969 443.982 296.654 Q442.061 299.316 442.061 304.015 Q442.061 308.715 443.982 311.4 Q445.927 314.062 449.306 314.062 Q452.686 314.062 454.607 311.4 Q456.552 308.715 456.552 304.015 M442.061 294.965 Q443.404 292.65 445.441 291.539 Q447.501 290.404 450.348 290.404 Q455.07 290.404 458.01 294.154 Q460.973 297.904 460.973 304.015 Q460.973 310.127 458.01 313.877 Q455.07 317.627 450.348 317.627 Q447.501 317.627 445.441 316.515 Q443.404 315.381 442.061 313.066 L442.061 316.955 L437.779 316.955 L437.779 280.937 L442.061 280.937 L442.061 294.965 Z" fill="#000000" fill-rule="evenodd" fill-opacity="1" /><path clip-path="url(#clip150)" d="M468.033 280.937 L472.292 280.937 L472.292 316.955 L468.033 316.955 L468.033 280.937 Z" fill="#000000" fill-rule="evenodd" fill-opacity="1" /><path clip-path="url(#clip150)" d="M503.38 302.928 L503.38 305.011 L483.797 305.011 Q484.075 309.409 486.436 311.724 Q488.82 314.015 493.056 314.015 Q495.51 314.015 497.801 313.414 Q500.116 312.812 502.385 311.608 L502.385 315.636 Q500.093 316.608 497.686 317.117 Q495.278 317.627 492.801 317.627 Q486.598 317.627 482.964 314.015 Q479.352 310.404 479.352 304.247 Q479.352 297.881 482.778 294.154 Q486.227 290.404 492.061 290.404 Q497.292 290.404 500.325 293.784 Q503.38 297.141 503.38 302.928 M499.121 301.678 Q499.075 298.182 497.153 296.099 Q495.255 294.016 492.107 294.016 Q488.542 294.016 486.389 296.029 Q484.26 298.043 483.936 301.701 L499.121 301.678 Z" fill="#000000" fill-rule="evenodd" fill-opacity="1" /><polyline clip-path="url(#clip150)" style="stroke:#e26f46; stroke-linecap:butt; stroke-linejoin:round; stroke-width:4; stroke-opacity:1; fill:none" points="
  278.314,351.515 341.01,351.515 
  "/>
<path clip-path="url(#clip150)" d="M356.136 338.078 L356.136 364.953 L361.784 364.953 Q368.936 364.953 372.247 361.712 Q375.58 358.471 375.58 351.481 Q375.58 344.536 372.247 341.319 Q368.936 338.078 361.784 338.078 L356.136 338.078 M351.46 334.235 L361.066 334.235 Q371.112 334.235 375.811 338.425 Q380.51 342.592 380.51 351.481 Q380.51 360.416 375.788 364.605 Q371.066 368.795 361.066 368.795 L351.46 368.795 L351.46 334.235 Z" fill="#000000" fill-rule="evenodd" fill-opacity="1" /><path clip-path="url(#clip150)" d="M399.561 355.763 Q394.399 355.763 392.408 356.943 Q390.418 358.124 390.418 360.971 Q390.418 363.24 391.899 364.582 Q393.404 365.902 395.973 365.902 Q399.515 365.902 401.645 363.402 Q403.797 360.879 403.797 356.712 L403.797 355.763 L399.561 355.763 M408.057 354.004 L408.057 368.795 L403.797 368.795 L403.797 364.86 Q402.339 367.221 400.163 368.355 Q397.987 369.467 394.839 369.467 Q390.858 369.467 388.496 367.244 Q386.158 364.999 386.158 361.249 Q386.158 356.874 389.075 354.652 Q392.015 352.43 397.825 352.43 L403.797 352.43 L403.797 352.013 Q403.797 349.073 401.853 347.476 Q399.932 345.856 396.436 345.856 Q394.214 345.856 392.108 346.388 Q390.001 346.92 388.057 347.985 L388.057 344.05 Q390.395 343.147 392.594 342.707 Q394.793 342.244 396.876 342.244 Q402.501 342.244 405.279 345.161 Q408.057 348.078 408.057 354.004 Z" fill="#000000" fill-rule="evenodd" fill-opacity="1" /><path clip-path="url(#clip150)" d="M433.357 343.633 L433.357 347.661 Q431.552 346.735 429.607 346.272 Q427.663 345.809 425.58 345.809 Q422.408 345.809 420.811 346.781 Q419.237 347.754 419.237 349.698 Q419.237 351.18 420.371 352.036 Q421.506 352.869 424.931 353.633 L426.39 353.957 Q430.927 354.93 432.825 356.712 Q434.746 358.471 434.746 361.642 Q434.746 365.254 431.876 367.36 Q429.029 369.467 424.029 369.467 Q421.945 369.467 419.677 369.05 Q417.431 368.656 414.931 367.846 L414.931 363.448 Q417.293 364.675 419.584 365.3 Q421.876 365.902 424.121 365.902 Q427.13 365.902 428.751 364.883 Q430.371 363.842 430.371 361.967 Q430.371 360.23 429.191 359.305 Q428.033 358.379 424.075 357.522 L422.593 357.175 Q418.635 356.342 416.876 354.629 Q415.117 352.893 415.117 349.883 Q415.117 346.226 417.709 344.235 Q420.302 342.244 425.07 342.244 Q427.431 342.244 429.515 342.592 Q431.598 342.939 433.357 343.633 Z" fill="#000000" fill-rule="evenodd" fill-opacity="1" /><path clip-path="url(#clip150)" d="M441.367 332.777 L445.649 332.777 L445.649 354.05 L458.357 342.869 L463.797 342.869 L450.047 354.999 L464.376 368.795 L458.82 368.795 L445.649 356.133 L445.649 368.795 L441.367 368.795 L441.367 332.777 Z" fill="#000000" fill-rule="evenodd" fill-opacity="1" /><polyline clip-path="url(#clip150)" style="stroke:#3da44d; stroke-linecap:butt; stroke-linejoin:round; stroke-width:4; stroke-opacity:1; fill:none" points="
  278.314,403.355 341.01,403.355 
  "/>
<path clip-path="url(#clip150)" d="M356.136 389.918 L356.136 416.793 L361.784 416.793 Q368.936 416.793 372.247 413.552 Q375.58 410.311 375.58 403.321 Q375.58 396.376 372.247 393.159 Q368.936 389.918 361.784 389.918 L356.136 389.918 M351.46 386.075 L361.066 386.075 Q371.112 386.075 375.811 390.265 Q380.51 394.432 380.51 403.321 Q380.51 412.256 375.788 416.445 Q371.066 420.635 361.066 420.635 L351.46 420.635 L351.46 386.075 Z" fill="#000000" fill-rule="evenodd" fill-opacity="1" /><path clip-path="url(#clip150)" d="M399.561 407.603 Q394.399 407.603 392.408 408.783 Q390.418 409.964 390.418 412.811 Q390.418 415.08 391.899 416.422 Q393.404 417.742 395.973 417.742 Q399.515 417.742 401.645 415.242 Q403.797 412.719 403.797 408.552 L403.797 407.603 L399.561 407.603 M408.057 405.844 L408.057 420.635 L403.797 420.635 L403.797 416.7 Q402.339 419.061 400.163 420.195 Q397.987 421.307 394.839 421.307 Q390.858 421.307 388.496 419.084 Q386.158 416.839 386.158 413.089 Q386.158 408.714 389.075 406.492 Q392.015 404.27 397.825 404.27 L403.797 404.27 L403.797 403.853 Q403.797 400.913 401.853 399.316 Q399.932 397.696 396.436 397.696 Q394.214 397.696 392.108 398.228 Q390.001 398.76 388.057 399.825 L388.057 395.89 Q390.395 394.987 392.594 394.547 Q394.793 394.084 396.876 394.084 Q402.501 394.084 405.279 397.001 Q408.057 399.918 408.057 405.844 Z" fill="#000000" fill-rule="evenodd" fill-opacity="1" /><path clip-path="url(#clip150)" d="M421.043 387.348 L421.043 394.709 L429.816 394.709 L429.816 398.02 L421.043 398.02 L421.043 412.094 Q421.043 415.265 421.899 416.168 Q422.779 417.07 425.441 417.07 L429.816 417.07 L429.816 420.635 L425.441 420.635 Q420.51 420.635 418.635 418.807 Q416.76 416.955 416.76 412.094 L416.76 398.02 L413.635 398.02 L413.635 394.709 L416.76 394.709 L416.76 387.348 L421.043 387.348 Z" fill="#000000" fill-rule="evenodd" fill-opacity="1" /><path clip-path="url(#clip150)" d="M447.2 407.603 Q442.038 407.603 440.047 408.783 Q438.056 409.964 438.056 412.811 Q438.056 415.08 439.538 416.422 Q441.042 417.742 443.612 417.742 Q447.154 417.742 449.283 415.242 Q451.436 412.719 451.436 408.552 L451.436 407.603 L447.2 407.603 M455.695 405.844 L455.695 420.635 L451.436 420.635 L451.436 416.7 Q449.978 419.061 447.802 420.195 Q445.626 421.307 442.478 421.307 Q438.496 421.307 436.135 419.084 Q433.797 416.839 433.797 413.089 Q433.797 408.714 436.714 406.492 Q439.654 404.27 445.464 404.27 L451.436 404.27 L451.436 403.853 Q451.436 400.913 449.491 399.316 Q447.57 397.696 444.075 397.696 Q441.853 397.696 439.746 398.228 Q437.64 398.76 435.695 399.825 L435.695 395.89 Q438.033 394.987 440.232 394.547 Q442.431 394.084 444.515 394.084 Q450.14 394.084 452.917 397.001 Q455.695 399.918 455.695 405.844 Z" fill="#000000" fill-rule="evenodd" fill-opacity="1" /><path clip-path="url(#clip150)" d="M464.653 386.075 L484.514 386.075 L484.514 390.01 L469.329 390.01 L469.329 400.196 L483.033 400.196 L483.033 404.131 L469.329 404.131 L469.329 420.635 L464.653 420.635 L464.653 386.075 Z" fill="#000000" fill-rule="evenodd" fill-opacity="1" /><path clip-path="url(#clip150)" d="M503.311 398.691 Q502.593 398.274 501.737 398.089 Q500.903 397.881 499.885 397.881 Q496.274 397.881 494.329 400.242 Q492.408 402.58 492.408 406.978 L492.408 420.635 L488.126 420.635 L488.126 394.709 L492.408 394.709 L492.408 398.737 Q493.751 396.376 495.903 395.242 Q498.056 394.084 501.135 394.084 Q501.575 394.084 502.107 394.154 Q502.639 394.2 503.287 394.316 L503.311 398.691 Z" fill="#000000" fill-rule="evenodd" fill-opacity="1" /><path clip-path="url(#clip150)" d="M519.561 407.603 Q514.399 407.603 512.408 408.783 Q510.417 409.964 510.417 412.811 Q510.417 415.08 511.899 416.422 Q513.403 417.742 515.973 417.742 Q519.514 417.742 521.644 415.242 Q523.797 412.719 523.797 408.552 L523.797 407.603 L519.561 407.603 M528.056 405.844 L528.056 420.635 L523.797 420.635 L523.797 416.7 Q522.338 419.061 520.162 420.195 Q517.986 421.307 514.838 421.307 Q510.857 421.307 508.496 419.084 Q506.158 416.839 506.158 413.089 Q506.158 408.714 509.074 406.492 Q512.014 404.27 517.824 404.27 L523.797 404.27 L523.797 403.853 Q523.797 400.913 521.852 399.316 Q519.931 397.696 516.436 397.696 Q514.213 397.696 512.107 398.228 Q510 398.76 508.056 399.825 L508.056 395.89 Q510.394 394.987 512.593 394.547 Q514.792 394.084 516.875 394.084 Q522.5 394.084 525.278 397.001 Q528.056 399.918 528.056 405.844 Z" fill="#000000" fill-rule="evenodd" fill-opacity="1" /><path clip-path="url(#clip150)" d="M557.014 399.686 Q558.611 396.816 560.833 395.45 Q563.056 394.084 566.065 394.084 Q570.116 394.084 572.315 396.932 Q574.514 399.756 574.514 404.987 L574.514 420.635 L570.232 420.635 L570.232 405.126 Q570.232 401.399 568.912 399.594 Q567.593 397.788 564.884 397.788 Q561.574 397.788 559.653 399.987 Q557.732 402.186 557.732 405.983 L557.732 420.635 L553.449 420.635 L553.449 405.126 Q553.449 401.376 552.13 399.594 Q550.81 397.788 548.056 397.788 Q544.792 397.788 542.871 400.01 Q540.949 402.209 540.949 405.983 L540.949 420.635 L536.667 420.635 L536.667 394.709 L540.949 394.709 L540.949 398.737 Q542.408 396.353 544.445 395.219 Q546.482 394.084 549.283 394.084 Q552.107 394.084 554.074 395.52 Q556.065 396.955 557.014 399.686 Z" fill="#000000" fill-rule="evenodd" fill-opacity="1" /><path clip-path="url(#clip150)" d="M605.185 406.608 L605.185 408.691 L585.602 408.691 Q585.88 413.089 588.241 415.404 Q590.625 417.695 594.861 417.695 Q597.315 417.695 599.606 417.094 Q601.921 416.492 604.19 415.288 L604.19 419.316 Q601.898 420.288 599.491 420.797 Q597.083 421.307 594.606 421.307 Q588.403 421.307 584.769 417.695 Q581.157 414.084 581.157 407.927 Q581.157 401.561 584.583 397.834 Q588.032 394.084 593.866 394.084 Q599.097 394.084 602.13 397.464 Q605.185 400.821 605.185 406.608 M600.926 405.358 Q600.88 401.862 598.958 399.779 Q597.06 397.696 593.912 397.696 Q590.347 397.696 588.194 399.709 Q586.065 401.723 585.741 405.381 L600.926 405.358 Z" fill="#000000" fill-rule="evenodd" fill-opacity="1" /><path clip-path="url(#clip150)" d="M628.703 395.473 L628.703 399.501 Q626.898 398.575 624.954 398.112 Q623.009 397.649 620.926 397.649 Q617.754 397.649 616.157 398.621 Q614.583 399.594 614.583 401.538 Q614.583 403.02 615.717 403.876 Q616.852 404.709 620.278 405.473 L621.736 405.797 Q626.273 406.77 628.171 408.552 Q630.092 410.311 630.092 413.482 Q630.092 417.094 627.222 419.2 Q624.375 421.307 619.375 421.307 Q617.292 421.307 615.023 420.89 Q612.778 420.496 610.278 419.686 L610.278 415.288 Q612.639 416.515 614.93 417.14 Q617.222 417.742 619.467 417.742 Q622.477 417.742 624.097 416.723 Q625.717 415.682 625.717 413.807 Q625.717 412.07 624.537 411.145 Q623.379 410.219 619.421 409.362 L617.94 409.015 Q613.981 408.182 612.222 406.469 Q610.463 404.733 610.463 401.723 Q610.463 398.066 613.055 396.075 Q615.648 394.084 620.416 394.084 Q622.778 394.084 624.861 394.432 Q626.944 394.779 628.703 395.473 Z" fill="#000000" fill-rule="evenodd" fill-opacity="1" /><path clip-path="url(#clip150)" d="M637.477 414.756 L642.361 414.756 L642.361 420.635 L637.477 420.635 L637.477 414.756 Z" fill="#000000" fill-rule="evenodd" fill-opacity="1" /><path clip-path="url(#clip150)" d="M651.944 394.709 L656.203 394.709 L656.203 421.098 Q656.203 426.052 654.305 428.274 Q652.43 430.496 648.24 430.496 L646.62 430.496 L646.62 426.885 L647.754 426.885 Q650.185 426.885 651.064 425.751 Q651.944 424.64 651.944 421.098 L651.944 394.709 M651.944 384.617 L656.203 384.617 L656.203 390.01 L651.944 390.01 L651.944 384.617 Z" fill="#000000" fill-rule="evenodd" fill-opacity="1" /><path clip-path="url(#clip150)" d="M665.115 384.617 L669.375 384.617 L669.375 420.635 L665.115 420.635 L665.115 384.617 Z" fill="#000000" fill-rule="evenodd" fill-opacity="1" /><path clip-path="url(#clip150)" d="
M1412.31 1059.32 L2352.76 1059.32 L2352.76 219.853 L1412.31 219.853  Z
  " fill="#ffffff" fill-rule="evenodd" fill-opacity="1"/>
<defs>
  <clipPath id="clip154">
    <rect x="1412" y="219" width="941" height="840"/>
  </clipPath>
</defs>
<polyline clip-path="url(#clip154)" style="stroke:#000000; stroke-linecap:butt; stroke-linejoin:round; stroke-width:2; stroke-opacity:0.1; fill:none" points="
  1438.93,1059.32 1438.93,219.853 
  "/>
<polyline clip-path="url(#clip154)" style="stroke:#000000; stroke-linecap:butt; stroke-linejoin:round; stroke-width:2; stroke-opacity:0.1; fill:none" points="
  1734.66,1059.32 1734.66,219.853 
  "/>
<polyline clip-path="url(#clip154)" style="stroke:#000000; stroke-linecap:butt; stroke-linejoin:round; stroke-width:2; stroke-opacity:0.1; fill:none" points="
  2030.4,1059.32 2030.4,219.853 
  "/>
<polyline clip-path="url(#clip154)" style="stroke:#000000; stroke-linecap:butt; stroke-linejoin:round; stroke-width:2; stroke-opacity:0.1; fill:none" points="
  2326.14,1059.32 2326.14,219.853 
  "/>
<polyline clip-path="url(#clip150)" style="stroke:#000000; stroke-linecap:butt; stroke-linejoin:round; stroke-width:4; stroke-opacity:1; fill:none" points="
  1412.31,1059.32 2352.76,1059.32 
  "/>
<polyline clip-path="url(#clip150)" style="stroke:#000000; stroke-linecap:butt; stroke-linejoin:round; stroke-width:4; stroke-opacity:1; fill:none" points="
  1438.93,1059.32 1438.93,1040.43 
  "/>
<polyline clip-path="url(#clip150)" style="stroke:#000000; stroke-linecap:butt; stroke-linejoin:round; stroke-width:4; stroke-opacity:1; fill:none" points="
  1734.66,1059.32 1734.66,1040.43 
  "/>
<polyline clip-path="url(#clip150)" style="stroke:#000000; stroke-linecap:butt; stroke-linejoin:round; stroke-width:4; stroke-opacity:1; fill:none" points="
  2030.4,1059.32 2030.4,1040.43 
  "/>
<polyline clip-path="url(#clip150)" style="stroke:#000000; stroke-linecap:butt; stroke-linejoin:round; stroke-width:4; stroke-opacity:1; fill:none" points="
  2326.14,1059.32 2326.14,1040.43 
  "/>
<path clip-path="url(#clip150)" d="M1403.92 1133.45 L1411.56 1133.45 L1411.56 1107.08 L1403.25 1108.75 L1403.25 1104.49 L1411.51 1102.82 L1416.19 1102.82 L1416.19 1133.45 L1423.83 1133.45 L1423.83 1137.38 L1403.92 1137.38 L1403.92 1133.45 Z" fill="#000000" fill-rule="evenodd" fill-opacity="1" /><path clip-path="url(#clip150)" d="M1443.27 1105.9 Q1439.66 1105.9 1437.83 1109.47 Q1436.03 1113.01 1436.03 1120.14 Q1436.03 1127.24 1437.83 1130.81 Q1439.66 1134.35 1443.27 1134.35 Q1446.9 1134.35 1448.71 1130.81 Q1450.54 1127.24 1450.54 1120.14 Q1450.54 1113.01 1448.71 1109.47 Q1446.9 1105.9 1443.27 1105.9 M1443.27 1102.2 Q1449.08 1102.2 1452.14 1106.8 Q1455.21 1111.39 1455.21 1120.14 Q1455.21 1128.86 1452.14 1133.47 Q1449.08 1138.05 1443.27 1138.05 Q1437.46 1138.05 1434.38 1133.47 Q1431.33 1128.86 1431.33 1120.14 Q1431.33 1111.39 1434.38 1106.8 Q1437.46 1102.2 1443.27 1102.2 Z" fill="#000000" fill-rule="evenodd" fill-opacity="1" /><path clip-path="url(#clip150)" d="M1465.24 1094.42 Q1462.68 1094.42 1461.18 1096.17 Q1459.69 1097.92 1459.69 1100.96 Q1459.69 1103.99 1461.18 1105.76 Q1462.68 1107.51 1465.24 1107.51 Q1467.8 1107.51 1469.28 1105.76 Q1470.79 1103.99 1470.79 1100.96 Q1470.79 1097.92 1469.28 1096.17 Q1467.8 1094.42 1465.24 1094.42 M1472.78 1082.51 L1472.78 1085.97 Q1471.35 1085.3 1469.88 1084.94 Q1468.44 1084.58 1467.01 1084.58 Q1463.25 1084.58 1461.25 1087.12 Q1459.28 1089.66 1459 1094.79 Q1460.1 1093.16 1461.78 1092.29 Q1463.45 1091.41 1465.47 1091.41 Q1469.7 1091.41 1472.14 1093.99 Q1474.61 1096.54 1474.61 1100.96 Q1474.61 1105.29 1472.05 1107.9 Q1469.49 1110.52 1465.24 1110.52 Q1460.37 1110.52 1457.79 1106.79 Q1455.21 1103.05 1455.21 1095.96 Q1455.21 1089.3 1458.37 1085.35 Q1461.53 1081.38 1466.86 1081.38 Q1468.29 1081.38 1469.73 1081.67 Q1471.2 1081.95 1472.78 1082.51 Z" fill="#000000" fill-rule="evenodd" fill-opacity="1" /><path clip-path="url(#clip150)" d="M1700.32 1133.45 L1707.96 1133.45 L1707.96 1107.08 L1699.65 1108.75 L1699.65 1104.49 L1707.92 1102.82 L1712.59 1102.82 L1712.59 1133.45 L1720.23 1133.45 L1720.23 1137.38 L1700.32 1137.38 L1700.32 1133.45 Z" fill="#000000" fill-rule="evenodd" fill-opacity="1" /><path clip-path="url(#clip150)" d="M1739.68 1105.9 Q1736.06 1105.9 1734.24 1109.47 Q1732.43 1113.01 1732.43 1120.14 Q1732.43 1127.24 1734.24 1130.81 Q1736.06 1134.35 1739.68 1134.35 Q1743.31 1134.35 1745.12 1130.81 Q1746.94 1127.24 1746.94 1120.14 Q1746.94 1113.01 1745.12 1109.47 Q1743.31 1105.9 1739.68 1105.9 M1739.68 1102.2 Q1745.49 1102.2 1748.54 1106.8 Q1751.62 1111.39 1751.62 1120.14 Q1751.62 1128.86 1748.54 1133.47 Q1745.49 1138.05 1739.68 1138.05 Q1733.87 1138.05 1730.79 1133.47 Q1727.73 1128.86 1727.73 1120.14 Q1727.73 1111.39 1730.79 1106.8 Q1733.87 1102.2 1739.68 1102.2 Z" fill="#000000" fill-rule="evenodd" fill-opacity="1" /><path clip-path="url(#clip150)" d="M1751.62 1081.89 L1769.68 1081.89 L1769.68 1083.51 L1759.48 1109.97 L1755.51 1109.97 L1765.11 1085.09 L1751.62 1085.09 L1751.62 1081.89 Z" fill="#000000" fill-rule="evenodd" fill-opacity="1" /><path clip-path="url(#clip150)" d="M1995.46 1133.45 L2003.1 1133.45 L2003.1 1107.08 L1994.79 1108.75 L1994.79 1104.49 L2003.05 1102.82 L2007.73 1102.82 L2007.73 1133.45 L2015.37 1133.45 L2015.37 1137.38 L1995.46 1137.38 L1995.46 1133.45 Z" fill="#000000" fill-rule="evenodd" fill-opacity="1" /><path clip-path="url(#clip150)" d="M2034.81 1105.9 Q2031.2 1105.9 2029.37 1109.47 Q2027.57 1113.01 2027.57 1120.14 Q2027.57 1127.24 2029.37 1130.81 Q2031.2 1134.35 2034.81 1134.35 Q2038.45 1134.35 2040.25 1130.81 Q2042.08 1127.24 2042.08 1120.14 Q2042.08 1113.01 2040.25 1109.47 Q2038.45 1105.9 2034.81 1105.9 M2034.81 1102.2 Q2040.62 1102.2 2043.68 1106.8 Q2046.76 1111.39 2046.76 1120.14 Q2046.76 1128.86 2043.68 1133.47 Q2040.62 1138.05 2034.81 1138.05 Q2029 1138.05 2025.92 1133.47 Q2022.87 1128.86 2022.87 1120.14 Q2022.87 1111.39 2025.92 1106.8 Q2029 1102.2 2034.81 1102.2 Z" fill="#000000" fill-rule="evenodd" fill-opacity="1" /><path clip-path="url(#clip150)" d="M2056.39 1096.64 Q2053.68 1096.64 2052.12 1098.09 Q2050.57 1099.53 2050.57 1102.07 Q2050.57 1104.61 2052.12 1106.06 Q2053.68 1107.51 2056.39 1107.51 Q2059.09 1107.51 2060.65 1106.06 Q2062.22 1104.59 2062.22 1102.07 Q2062.22 1099.53 2060.65 1098.09 Q2059.11 1096.64 2056.39 1096.64 M2052.59 1095.02 Q2050.14 1094.42 2048.77 1092.74 Q2047.41 1091.07 2047.41 1088.66 Q2047.41 1085.3 2049.8 1083.34 Q2052.21 1081.38 2056.39 1081.38 Q2060.58 1081.38 2062.97 1083.34 Q2065.36 1085.3 2065.36 1088.66 Q2065.36 1091.07 2063.98 1092.74 Q2062.63 1094.42 2060.2 1095.02 Q2062.95 1095.66 2064.47 1097.52 Q2066.02 1099.38 2066.02 1102.07 Q2066.02 1106.15 2063.51 1108.34 Q2061.03 1110.52 2056.39 1110.52 Q2051.74 1110.52 2049.24 1108.34 Q2046.76 1106.15 2046.76 1102.07 Q2046.76 1099.38 2048.3 1097.52 Q2049.84 1095.66 2052.59 1095.02 M2051.19 1089.02 Q2051.19 1091.2 2052.55 1092.42 Q2053.92 1093.65 2056.39 1093.65 Q2058.83 1093.65 2060.2 1092.42 Q2061.6 1091.2 2061.6 1089.02 Q2061.6 1086.84 2060.2 1085.62 Q2058.83 1084.39 2056.39 1084.39 Q2053.92 1084.39 2052.55 1085.62 Q2051.19 1086.84 2051.19 1089.02 Z" fill="#000000" fill-rule="evenodd" fill-opacity="1" /><path clip-path="url(#clip150)" d="M2291.14 1133.45 L2298.78 1133.45 L2298.78 1107.08 L2290.47 1108.75 L2290.47 1104.49 L2298.73 1102.82 L2303.41 1102.82 L2303.41 1133.45 L2311.05 1133.45 L2311.05 1137.38 L2291.14 1137.38 L2291.14 1133.45 Z" fill="#000000" fill-rule="evenodd" fill-opacity="1" /><path clip-path="url(#clip150)" d="M2330.49 1105.9 Q2326.88 1105.9 2325.05 1109.47 Q2323.25 1113.01 2323.25 1120.14 Q2323.25 1127.24 2325.05 1130.81 Q2326.88 1134.35 2330.49 1134.35 Q2334.13 1134.35 2335.93 1130.81 Q2337.76 1127.24 2337.76 1120.14 Q2337.76 1113.01 2335.93 1109.47 Q2334.13 1105.9 2330.49 1105.9 M2330.49 1102.2 Q2336.3 1102.2 2339.36 1106.8 Q2342.44 1111.39 2342.44 1120.14 Q2342.44 1128.86 2339.36 1133.47 Q2336.3 1138.05 2330.49 1138.05 Q2324.68 1138.05 2321.6 1133.47 Q2318.55 1128.86 2318.55 1120.14 Q2318.55 1111.39 2321.6 1106.8 Q2324.68 1102.2 2330.49 1102.2 Z" fill="#000000" fill-rule="evenodd" fill-opacity="1" /><path clip-path="url(#clip150)" d="M2344.24 1109.39 L2344.24 1105.93 Q2345.67 1106.61 2347.14 1106.96 Q2348.61 1107.32 2350.02 1107.32 Q2353.78 1107.32 2355.75 1104.8 Q2357.75 1102.26 2358.03 1097.11 Q2356.94 1098.73 2355.26 1099.59 Q2353.59 1100.46 2351.56 1100.46 Q2347.35 1100.46 2344.88 1097.92 Q2342.44 1095.36 2342.44 1090.94 Q2342.44 1086.61 2345 1084 Q2347.55 1081.38 2351.8 1081.38 Q2356.67 1081.38 2359.23 1085.13 Q2361.81 1088.85 2361.81 1095.96 Q2361.81 1102.6 2358.65 1106.57 Q2355.51 1110.52 2350.19 1110.52 Q2348.76 1110.52 2347.29 1110.24 Q2345.82 1109.95 2344.24 1109.39 M2351.8 1097.48 Q2354.36 1097.48 2355.85 1095.73 Q2357.35 1093.99 2357.35 1090.94 Q2357.35 1087.91 2355.85 1086.16 Q2354.36 1084.39 2351.8 1084.39 Q2349.25 1084.39 2347.74 1086.16 Q2346.26 1087.91 2346.26 1090.94 Q2346.26 1093.99 2347.74 1095.73 Q2349.25 1097.48 2351.8 1097.48 Z" fill="#000000" fill-rule="evenodd" fill-opacity="1" /><path clip-path="url(#clip150)" d="M1898.7 1182.07 Q1898.7 1182.32 1898.41 1183.32 Q1898.12 1184.32 1897.41 1185.87 Q1896.73 1187.41 1895.8 1188.83 Q1894.86 1190.21 1893.32 1191.24 Q1891.8 1192.24 1890.06 1192.24 Q1887.75 1192.24 1886.2 1190.7 Q1884.65 1189.15 1884.65 1186.83 Q1884.65 1185.54 1885.33 1183.77 Q1889.61 1172.34 1889.61 1168.41 Q1889.61 1163.8 1886.04 1163.8 Q1884.27 1163.8 1882.59 1164.48 Q1880.95 1165.13 1879.82 1166.03 Q1878.7 1166.93 1877.67 1168.18 Q1876.67 1169.41 1876.15 1170.25 Q1875.67 1171.05 1875.28 1171.86 L1874.44 1175.14 Q1874.25 1176.04 1873.32 1179.55 L1871.87 1185.51 Q1870.84 1189.96 1870.61 1190.37 Q1870.29 1191.28 1869.58 1191.76 Q1868.87 1192.24 1868.16 1192.24 Q1867.36 1192.24 1866.81 1191.76 Q1866.26 1191.28 1866.26 1190.44 Q1866.26 1190.31 1866.36 1189.83 Q1866.46 1189.34 1866.62 1188.67 Q1866.78 1187.99 1866.84 1187.6 L1870.68 1172.37 Q1871.39 1169.6 1871.55 1168.73 Q1871.74 1167.83 1871.74 1166.83 Q1871.74 1163.8 1869.68 1163.8 Q1868 1163.8 1866.91 1165.8 Q1865.81 1167.8 1864.88 1171.66 Q1864.59 1172.73 1864.4 1172.95 Q1864.24 1173.18 1863.75 1173.18 Q1862.95 1173.14 1862.95 1172.5 Q1862.95 1172.34 1863.21 1171.28 Q1863.46 1170.21 1863.95 1168.7 Q1864.46 1167.15 1864.94 1166.12 Q1865.36 1165.35 1865.59 1165 Q1865.85 1164.61 1866.46 1163.87 Q1867.1 1163.1 1867.94 1162.74 Q1868.81 1162.36 1869.87 1162.36 Q1872.25 1162.36 1873.99 1163.9 Q1875.73 1165.41 1875.96 1168.09 Q1880.24 1162.36 1886.23 1162.36 Q1889.77 1162.36 1891.8 1164.22 Q1893.83 1166.09 1893.83 1169.41 Q1893.83 1170.18 1893.67 1171.18 Q1893.54 1172.15 1893.22 1173.37 Q1892.93 1174.59 1892.67 1175.53 Q1892.42 1176.46 1891.9 1177.98 Q1891.39 1179.46 1891.16 1180.1 Q1890.93 1180.74 1890.39 1182.26 Q1889.87 1183.74 1889.81 1183.9 Q1888.62 1186.9 1888.62 1188.6 Q1888.62 1189.73 1888.97 1190.25 Q1889.36 1190.76 1890.19 1190.76 Q1892.45 1190.76 1894.12 1188.54 Q1895.83 1186.28 1896.92 1182.61 Q1897.18 1181.81 1897.31 1181.61 Q1897.47 1181.42 1897.92 1181.42 Q1898.7 1181.42 1898.7 1182.07 Z" fill="#000000" fill-rule="evenodd" fill-opacity="1" /><polyline clip-path="url(#clip154)" style="stroke:#000000; stroke-linecap:butt; stroke-linejoin:round; stroke-width:2; stroke-opacity:0.1; fill:none" points="
  1412.31,913.697 2352.76,913.697 
  "/>
<polyline clip-path="url(#clip154)" style="stroke:#000000; stroke-linecap:butt; stroke-linejoin:round; stroke-width:2; stroke-opacity:0.1; fill:none" points="
  1412.31,733.076 2352.76,733.076 
  "/>
<polyline clip-path="url(#clip154)" style="stroke:#000000; stroke-linecap:butt; stroke-linejoin:round; stroke-width:2; stroke-opacity:0.1; fill:none" points="
  1412.31,552.454 2352.76,552.454 
  "/>
<polyline clip-path="url(#clip154)" style="stroke:#000000; stroke-linecap:butt; stroke-linejoin:round; stroke-width:2; stroke-opacity:0.1; fill:none" points="
  1412.31,371.833 2352.76,371.833 
  "/>
<polyline clip-path="url(#clip150)" style="stroke:#000000; stroke-linecap:butt; stroke-linejoin:round; stroke-width:4; stroke-opacity:1; fill:none" points="
  1412.31,1059.32 1412.31,219.853 
  "/>
<polyline clip-path="url(#clip150)" style="stroke:#000000; stroke-linecap:butt; stroke-linejoin:round; stroke-width:4; stroke-opacity:1; fill:none" points="
  1412.31,913.697 1431.21,913.697 
  "/>
<polyline clip-path="url(#clip150)" style="stroke:#000000; stroke-linecap:butt; stroke-linejoin:round; stroke-width:4; stroke-opacity:1; fill:none" points="
  1412.31,733.076 1431.21,733.076 
  "/>
<polyline clip-path="url(#clip150)" style="stroke:#000000; stroke-linecap:butt; stroke-linejoin:round; stroke-width:4; stroke-opacity:1; fill:none" points="
  1412.31,552.454 1431.21,552.454 
  "/>
<polyline clip-path="url(#clip150)" style="stroke:#000000; stroke-linecap:butt; stroke-linejoin:round; stroke-width:4; stroke-opacity:1; fill:none" points="
  1412.31,371.833 1431.21,371.833 
  "/>
<path clip-path="url(#clip150)" d="M1276.17 933.489 L1283.81 933.489 L1283.81 907.124 L1275.5 908.791 L1275.5 904.531 L1283.76 902.865 L1288.44 902.865 L1288.44 933.489 L1296.08 933.489 L1296.08 937.425 L1276.17 937.425 L1276.17 933.489 Z" fill="#000000" fill-rule="evenodd" fill-opacity="1" /><path clip-path="url(#clip150)" d="M1315.52 905.943 Q1311.91 905.943 1310.08 909.508 Q1308.28 913.05 1308.28 920.179 Q1308.28 927.286 1310.08 930.851 Q1311.91 934.392 1315.52 934.392 Q1319.16 934.392 1320.96 930.851 Q1322.79 927.286 1322.79 920.179 Q1322.79 913.05 1320.96 909.508 Q1319.16 905.943 1315.52 905.943 M1315.52 902.24 Q1321.33 902.24 1324.39 906.846 Q1327.47 911.429 1327.47 920.179 Q1327.47 928.906 1324.39 933.513 Q1321.33 938.096 1315.52 938.096 Q1309.71 938.096 1306.63 933.513 Q1303.58 928.906 1303.58 920.179 Q1303.58 911.429 1306.63 906.846 Q1309.71 902.24 1315.52 902.24 Z" fill="#000000" fill-rule="evenodd" fill-opacity="1" /><path clip-path="url(#clip150)" d="M1327.47 896.341 L1351.58 896.341 L1351.58 899.538 L1327.47 899.538 L1327.47 896.341 Z" fill="#000000" fill-rule="evenodd" fill-opacity="1" /><path clip-path="url(#clip150)" d="M1363.05 906.817 L1376.31 906.817 L1376.31 910.014 L1358.48 910.014 L1358.48 906.817 Q1360.64 904.579 1364.37 900.817 Q1368.11 897.037 1369.07 895.946 Q1370.89 893.896 1371.61 892.485 Q1372.34 891.056 1372.34 889.683 Q1372.34 887.445 1370.76 886.034 Q1369.2 884.624 1366.68 884.624 Q1364.89 884.624 1362.9 885.244 Q1360.93 885.865 1358.67 887.125 L1358.67 883.288 Q1360.96 882.367 1362.96 881.897 Q1364.95 881.426 1366.61 881.426 Q1370.97 881.426 1373.56 883.608 Q1376.16 885.79 1376.16 889.439 Q1376.16 891.169 1375.5 892.73 Q1374.86 894.272 1373.15 896.379 Q1372.68 896.924 1370.16 899.538 Q1367.64 902.134 1363.05 906.817 Z" fill="#000000" fill-rule="evenodd" fill-opacity="1" /><path clip-path="url(#clip150)" d="M1275.87 752.868 L1283.51 752.868 L1283.51 726.502 L1275.2 728.169 L1275.2 723.91 L1283.46 722.243 L1288.14 722.243 L1288.14 752.868 L1295.78 752.868 L1295.78 756.803 L1275.87 756.803 L1275.87 752.868 Z" fill="#000000" fill-rule="evenodd" fill-opacity="1" /><path clip-path="url(#clip150)" d="M1315.22 725.322 Q1311.61 725.322 1309.78 728.887 Q1307.98 732.428 1307.98 739.558 Q1307.98 746.664 1309.78 750.229 Q1311.61 753.771 1315.22 753.771 Q1318.86 753.771 1320.66 750.229 Q1322.49 746.664 1322.49 739.558 Q1322.49 732.428 1320.66 728.887 Q1318.86 725.322 1315.22 725.322 M1315.22 721.618 Q1321.03 721.618 1324.09 726.225 Q1327.17 730.808 1327.17 739.558 Q1327.17 748.285 1324.09 752.891 Q1321.03 757.474 1315.22 757.474 Q1309.41 757.474 1306.33 752.891 Q1303.28 748.285 1303.28 739.558 Q1303.28 730.808 1306.33 726.225 Q1309.41 721.618 1315.22 721.618 Z" fill="#000000" fill-rule="evenodd" fill-opacity="1" /><path clip-path="url(#clip150)" d="M1327.17 715.719 L1351.28 715.719 L1351.28 718.917 L1327.17 718.917 L1327.17 715.719 Z" fill="#000000" fill-rule="evenodd" fill-opacity="1" /><path clip-path="url(#clip150)" d="M1360.14 726.195 L1366.34 726.195 L1366.34 704.773 L1359.59 706.128 L1359.59 702.667 L1366.3 701.313 L1370.1 701.313 L1370.1 726.195 L1376.31 726.195 L1376.31 729.393 L1360.14 729.393 L1360.14 726.195 Z" fill="#000000" fill-rule="evenodd" fill-opacity="1" /><path clip-path="url(#clip150)" d="M1305.6 572.246 L1313.24 572.246 L1313.24 545.881 L1304.93 547.548 L1304.93 543.288 L1313.2 541.622 L1317.87 541.622 L1317.87 572.246 L1325.51 572.246 L1325.51 576.182 L1305.6 576.182 L1305.6 572.246 Z" fill="#000000" fill-rule="evenodd" fill-opacity="1" /><path clip-path="url(#clip150)" d="M1344.96 544.7 Q1341.35 544.7 1339.52 548.265 Q1337.71 551.807 1337.71 558.936 Q1337.71 566.043 1339.52 569.608 Q1341.35 573.149 1344.96 573.149 Q1348.59 573.149 1350.4 569.608 Q1352.22 566.043 1352.22 558.936 Q1352.22 551.807 1350.4 548.265 Q1348.59 544.7 1344.96 544.7 M1344.96 540.997 Q1350.77 540.997 1353.82 545.603 Q1356.9 550.186 1356.9 558.936 Q1356.9 567.663 1353.82 572.27 Q1350.77 576.853 1344.96 576.853 Q1339.15 576.853 1336.07 572.27 Q1333.01 567.663 1333.01 558.936 Q1333.01 550.186 1336.07 545.603 Q1339.15 540.997 1344.96 540.997 Z" fill="#000000" fill-rule="evenodd" fill-opacity="1" /><path clip-path="url(#clip150)" d="M1366.61 523.193 Q1363.67 523.193 1362.19 526.089 Q1360.72 528.967 1360.72 534.759 Q1360.72 540.533 1362.19 543.43 Q1363.67 546.307 1366.61 546.307 Q1369.56 546.307 1371.03 543.43 Q1372.51 540.533 1372.51 534.759 Q1372.51 528.967 1371.03 526.089 Q1369.56 523.193 1366.61 523.193 M1366.61 520.183 Q1371.33 520.183 1373.81 523.926 Q1376.31 527.65 1376.31 534.759 Q1376.31 541.85 1373.81 545.593 Q1371.33 549.317 1366.61 549.317 Q1361.88 549.317 1359.38 545.593 Q1356.9 541.85 1356.9 534.759 Q1356.9 527.65 1359.38 523.926 Q1361.88 520.183 1366.61 520.183 Z" fill="#000000" fill-rule="evenodd" fill-opacity="1" /><path clip-path="url(#clip150)" d="M1308.29 391.625 L1315.93 391.625 L1315.93 365.259 L1307.62 366.926 L1307.62 362.667 L1315.89 361 L1320.56 361 L1320.56 391.625 L1328.2 391.625 L1328.2 395.56 L1308.29 395.56 L1308.29 391.625 Z" fill="#000000" fill-rule="evenodd" fill-opacity="1" /><path clip-path="url(#clip150)" d="M1347.65 364.079 Q1344.03 364.079 1342.21 367.644 Q1340.4 371.185 1340.4 378.315 Q1340.4 385.421 1342.21 388.986 Q1344.03 392.528 1347.65 392.528 Q1351.28 392.528 1353.09 388.986 Q1354.91 385.421 1354.91 378.315 Q1354.91 371.185 1353.09 367.644 Q1351.28 364.079 1347.65 364.079 M1347.65 360.375 Q1353.46 360.375 1356.51 364.982 Q1359.59 369.565 1359.59 378.315 Q1359.59 387.042 1356.51 391.648 Q1353.46 396.231 1347.65 396.231 Q1341.84 396.231 1338.76 391.648 Q1335.7 387.042 1335.7 378.315 Q1335.7 369.565 1338.76 364.982 Q1341.84 360.375 1347.65 360.375 Z" fill="#000000" fill-rule="evenodd" fill-opacity="1" /><path clip-path="url(#clip150)" d="M1360.14 364.952 L1366.34 364.952 L1366.34 343.53 L1359.59 344.885 L1359.59 341.424 L1366.3 340.07 L1370.1 340.07 L1370.1 364.952 L1376.31 364.952 L1376.31 368.15 L1360.14 368.15 L1360.14 364.952 Z" fill="#000000" fill-rule="evenodd" fill-opacity="1" /><path clip-path="url(#clip150)" d="M1655.56 195.596 Q1651 190.818 1651 184.002 Q1651 177.151 1655.49 172.232 Q1659.99 167.279 1666.59 167.279 Q1670.99 167.279 1674.29 169.387 Q1677.59 171.459 1677.59 175.008 Q1677.59 176.589 1676.64 177.502 Q1675.73 178.381 1674.29 178.381 Q1672.78 178.381 1671.86 177.467 Q1670.99 176.519 1670.99 175.078 Q1670.99 174.446 1671.2 173.813 Q1671.41 173.181 1672.18 172.513 Q1672.99 171.846 1674.36 171.74 Q1671.79 169.105 1666.81 169.105 Q1666.73 169.105 1666.66 169.105 Q1663.01 169.105 1659.99 172.549 Q1656.97 175.992 1656.97 183.862 Q1656.97 187.972 1657.95 190.994 Q1658.97 193.98 1660.62 195.526 Q1662.27 197.072 1663.89 197.81 Q1665.51 198.512 1667.09 198.512 Q1674.15 198.512 1676.54 190.959 Q1676.75 190.256 1677.45 190.256 Q1678.4 190.256 1678.4 190.959 Q1678.4 191.31 1678.12 192.223 Q1677.84 193.137 1676.96 194.577 Q1676.08 196.018 1674.82 197.283 Q1673.59 198.512 1671.37 199.426 Q1669.19 200.339 1666.45 200.339 Q1660.13 200.339 1655.56 195.596 Z" fill="#000000" fill-rule="evenodd" fill-opacity="1" /><path clip-path="url(#clip150)" d="M1681.93 199.531 L1681.93 197.318 Q1685.75 197.318 1686.63 196.861 Q1687.51 196.369 1687.51 194.05 L1687.51 156.633 Q1687.51 153.963 1686.56 153.295 Q1685.65 152.628 1681.93 152.628 L1681.93 150.379 L1692.25 149.606 L1692.25 174.621 L1692.32 174.621 Q1693.48 172.022 1696.08 169.878 Q1698.68 167.735 1702.69 167.735 Q1708.1 167.735 1710.24 170.405 Q1711.82 172.197 1712.14 174.2 Q1712.49 176.202 1712.49 181.402 L1712.49 195.14 Q1712.56 196.65 1713.72 197.002 Q1714.88 197.318 1718.11 197.318 L1718.11 199.531 Q1710.77 199.32 1710.03 199.32 Q1709.47 199.32 1701.92 199.531 L1701.92 197.318 Q1705.75 197.318 1706.62 196.861 Q1707.54 196.369 1707.54 194.05 L1707.54 177.292 Q1707.54 173.638 1706.41 171.495 Q1705.29 169.316 1702.2 169.316 Q1698.47 169.316 1695.49 172.443 Q1692.5 175.57 1692.5 180.84 L1692.5 194.05 Q1692.5 196.369 1693.38 196.861 Q1694.29 197.318 1698.09 197.318 L1698.09 199.531 Q1690.74 199.32 1690.04 199.32 Q1689.48 199.32 1681.93 199.531 Z" fill="#000000" fill-rule="evenodd" fill-opacity="1" /><path clip-path="url(#clip150)" d="M1719.15 170.757 L1719.15 168.508 L1729.73 167.735 L1729.73 191.626 Q1729.73 193.348 1729.87 194.367 Q1730.01 195.35 1730.57 196.51 Q1731.17 197.669 1732.5 198.196 Q1733.87 198.723 1736.05 198.723 Q1739.95 198.723 1742.34 195.526 Q1744.76 192.329 1744.76 187.586 L1744.76 174.762 Q1744.76 172.092 1743.82 171.424 Q1742.87 170.757 1739.14 170.757 L1739.14 168.508 L1749.72 167.735 L1749.72 193.277 Q1749.72 195.948 1750.63 196.65 Q1751.58 197.318 1755.34 197.318 L1755.34 199.531 L1744.97 200.339 L1744.97 193.84 Q1741.95 200.304 1735.7 200.339 Q1732.54 200.339 1730.36 199.531 Q1728.22 198.723 1727.13 197.739 Q1726.04 196.721 1725.44 194.788 Q1724.88 192.856 1724.81 191.661 Q1724.74 190.467 1724.74 188.148 L1724.74 177.362 Q1724.74 172.478 1724.03 171.635 Q1723.33 170.757 1719.15 170.757 Z" fill="#000000" fill-rule="evenodd" fill-opacity="1" /><path clip-path="url(#clip150)" d="M1757.82 199.531 L1757.82 197.318 Q1761.65 197.318 1762.53 196.861 Q1763.4 196.369 1763.4 194.05 L1763.4 174.762 Q1763.4 172.092 1762.46 171.424 Q1761.54 170.757 1757.82 170.757 L1757.82 168.508 L1767.94 167.735 L1767.94 175.289 Q1771.31 167.735 1778.58 167.735 Q1783.99 167.735 1786.14 170.405 Q1787.72 172.197 1788.03 174.2 Q1788.38 176.202 1788.38 181.402 L1788.38 195.14 Q1788.45 196.65 1789.61 197.002 Q1790.77 197.318 1794.01 197.318 L1794.01 199.531 Q1786.66 199.32 1785.92 199.32 Q1785.36 199.32 1777.81 199.531 L1777.81 197.318 Q1781.64 197.318 1782.52 196.861 Q1783.43 196.369 1783.43 194.05 L1783.43 177.292 Q1783.43 173.638 1782.31 171.495 Q1781.18 169.316 1778.09 169.316 Q1774.37 169.316 1771.38 172.443 Q1768.39 175.57 1768.39 180.84 L1768.39 194.05 Q1768.39 196.369 1769.27 196.861 Q1770.18 197.318 1773.98 197.318 L1773.98 199.531 Q1766.64 199.32 1765.93 199.32 Q1765.37 199.32 1757.82 199.531 Z" fill="#000000" fill-rule="evenodd" fill-opacity="1" /><path clip-path="url(#clip150)" d="M1799.08 199.531 L1799.08 197.318 Q1802.91 197.318 1803.78 196.861 Q1804.7 196.369 1804.7 194.05 L1804.7 156.633 Q1804.7 153.963 1803.75 153.295 Q1802.83 152.628 1799.08 152.628 L1799.08 150.379 L1809.44 149.606 L1809.44 184.143 L1819.59 175.359 Q1821.17 173.989 1821.17 172.549 Q1821.17 170.897 1819.1 170.757 L1819.1 168.508 Q1822.12 168.719 1827.15 168.719 Q1830.1 168.719 1832.17 168.508 L1832.17 170.757 Q1827.64 170.968 1823.11 174.621 Q1822.09 175.43 1819.66 177.538 Q1817.27 179.61 1817.27 179.821 Q1817.27 179.891 1817.35 180.067 Q1817.45 180.243 1817.59 180.383 Q1817.73 180.524 1817.73 180.594 L1826.87 193.488 Q1828.73 196.088 1830.1 196.721 Q1831.47 197.318 1833.86 197.318 L1833.86 199.531 Q1830.77 199.32 1827.57 199.32 Q1825.85 199.32 1819.8 199.531 L1819.8 197.318 Q1822.4 197.318 1822.4 195.631 Q1822.4 194.472 1816.57 186.426 Q1816.15 185.864 1815.2 184.635 Q1814.32 183.335 1813.83 182.702 L1809.23 186.637 L1809.23 194.05 Q1809.23 196.369 1810.11 196.861 Q1811.02 197.318 1814.85 197.318 L1814.85 199.531 Q1810.53 199.32 1806.95 199.32 Q1806.21 199.32 1799.08 199.531 Z" fill="#000000" fill-rule="evenodd" fill-opacity="1" /><path clip-path="url(#clip150)" d="M1837.85 198.583 L1837.85 189.097 Q1837.85 188.288 1837.89 188.007 Q1837.92 187.726 1838.13 187.516 Q1838.34 187.305 1838.76 187.305 Q1839.26 187.305 1839.43 187.516 Q1839.64 187.726 1839.78 188.534 Q1840.87 193.488 1843.19 196.123 Q1845.54 198.723 1849.8 198.723 Q1853.84 198.723 1855.87 196.931 Q1857.91 195.14 1857.91 192.188 Q1857.91 186.918 1850.43 185.583 Q1846.11 184.705 1844.31 184.143 Q1842.52 183.545 1840.94 182.245 Q1837.85 179.716 1837.85 176.132 Q1837.85 172.549 1840.56 169.914 Q1843.3 167.279 1849.34 167.279 Q1853.38 167.279 1856.12 169.316 Q1856.93 168.684 1857.35 168.157 Q1858.3 167.279 1858.79 167.279 Q1859.35 167.279 1859.46 167.665 Q1859.56 168.016 1859.56 169.035 L1859.56 176.273 Q1859.56 177.081 1859.53 177.362 Q1859.49 177.643 1859.28 177.854 Q1859.07 178.029 1858.61 178.029 Q1857.81 178.029 1857.77 177.362 Q1857.21 168.649 1849.34 168.649 Q1845.09 168.649 1843.19 170.3 Q1841.29 171.916 1841.29 174.13 Q1841.29 175.359 1841.86 176.308 Q1842.45 177.221 1843.19 177.783 Q1843.96 178.31 1845.37 178.837 Q1846.77 179.329 1847.62 179.505 Q1848.5 179.681 1850.15 180.032 Q1855.91 181.121 1858.33 183.475 Q1861.35 186.497 1861.35 190.326 Q1861.35 194.577 1858.47 197.458 Q1855.59 200.339 1849.8 200.339 Q1845.12 200.339 1841.86 197.212 Q1841.43 197.634 1841.12 198.02 Q1840.8 198.372 1840.66 198.512 Q1840.56 198.653 1840.52 198.758 Q1840.49 198.829 1840.42 198.899 Q1838.97 200.339 1838.62 200.339 Q1838.06 200.339 1837.96 199.953 Q1837.85 199.601 1837.85 198.583 Z" fill="#000000" fill-rule="evenodd" fill-opacity="1" /><path clip-path="url(#clip150)" d="M1864.17 199.531 L1864.17 197.318 Q1868 197.318 1868.88 196.861 Q1869.76 196.369 1869.76 194.05 L1869.76 174.692 Q1869.76 172.022 1868.84 171.389 Q1867.96 170.757 1864.45 170.757 L1864.45 168.508 L1874.5 167.735 L1874.5 194.121 Q1874.5 196.264 1875.27 196.791 Q1876.04 197.318 1879.56 197.318 L1879.56 199.531 Q1872.21 199.32 1872.07 199.32 Q1871.09 199.32 1864.17 199.531 M1867.19 155.193 Q1867.19 153.752 1868.28 152.593 Q1869.4 151.398 1870.99 151.398 Q1872.57 151.398 1873.69 152.487 Q1874.81 153.541 1874.81 155.228 Q1874.81 156.879 1873.69 157.968 Q1872.57 159.022 1870.99 159.022 Q1869.33 159.022 1868.24 157.863 Q1867.19 156.703 1867.19 155.193 Z" fill="#000000" fill-rule="evenodd" fill-opacity="1" /><path clip-path="url(#clip150)" d="M1885.92 198.512 Q1885.92 198.02 1886.58 197.212 L1906.64 170.089 L1898.46 170.089 Q1892.77 170.089 1890.9 172.197 Q1889.08 174.27 1888.73 180.102 L1886.93 180.102 L1887.74 168.508 L1910.75 168.508 Q1911.56 168.508 1911.88 168.543 Q1912.2 168.578 1912.41 168.824 Q1912.62 169.035 1912.62 169.457 Q1912.62 169.878 1911.98 170.686 L1891.96 197.739 L1900.46 197.739 Q1906.43 197.739 1908.44 195.245 Q1910.47 192.75 1910.97 186.075 L1912.76 186.075 L1911.53 199.531 L1887.81 199.531 Q1886.65 199.531 1886.27 199.391 Q1885.92 199.215 1885.92 198.512 Z" fill="#000000" fill-rule="evenodd" fill-opacity="1" /><path clip-path="url(#clip150)" d="M1920.43 183.686 Q1920.43 176.905 1924.78 172.092 Q1929.14 167.279 1935.39 167.279 Q1941.72 167.279 1944.98 171.389 Q1948.29 175.5 1948.29 181.402 Q1948.29 182.491 1948.01 182.702 Q1947.73 182.913 1946.5 182.913 L1926.4 182.913 Q1926.4 190.256 1928.58 193.699 Q1931.6 198.512 1936.69 198.512 Q1937.4 198.512 1938.24 198.372 Q1939.08 198.231 1940.8 197.634 Q1942.53 197.002 1944.04 195.35 Q1945.55 193.699 1946.43 191.099 Q1946.64 190.08 1947.34 190.115 Q1948.29 190.115 1948.29 190.959 Q1948.29 191.591 1947.58 193.031 Q1946.92 194.437 1945.62 196.123 Q1944.32 197.81 1941.79 199.074 Q1939.29 200.339 1936.27 200.339 Q1929.95 200.339 1925.17 195.561 Q1920.43 190.748 1920.43 183.686 M1926.47 181.402 L1943.54 181.402 Q1943.54 179.891 1943.26 178.205 Q1943.02 176.519 1942.24 174.2 Q1941.51 171.846 1939.75 170.37 Q1937.99 168.895 1935.39 168.895 Q1934.23 168.895 1932.97 169.387 Q1931.74 169.878 1930.23 171.073 Q1928.72 172.267 1927.66 174.973 Q1926.61 177.678 1926.47 181.402 Z" fill="#000000" fill-rule="evenodd" fill-opacity="1" /><path clip-path="url(#clip150)" d="M1973.14 198.442 Q1972.02 197.318 1972.02 195.737 Q1972.02 194.156 1973.14 193.031 Q1974.27 191.907 1975.85 191.907 Q1977.43 191.907 1978.55 193.031 Q1979.68 194.156 1979.68 195.737 Q1979.68 197.318 1978.55 198.442 Q1977.43 199.531 1975.85 199.531 Q1974.27 199.531 1973.14 198.442 M1973.14 175.043 Q1972.02 173.919 1972.02 172.338 Q1972.02 170.757 1973.14 169.632 Q1974.27 168.508 1975.85 168.508 Q1977.43 168.508 1978.55 169.632 Q1979.68 170.757 1979.68 172.338 Q1979.68 173.919 1978.55 175.043 Q1977.43 176.132 1975.85 176.132 Q1974.27 176.132 1973.14 175.043 Z" fill="#000000" fill-rule="evenodd" fill-opacity="1" /><path clip-path="url(#clip150)" d="M2011.71 158.46 L2011.71 156.211 Q2020.35 156.211 2024.82 151.609 Q2026.05 151.609 2026.26 151.89 Q2026.47 152.171 2026.47 153.471 L2026.47 193.84 Q2026.47 195.983 2027.52 196.65 Q2028.58 197.318 2033.18 197.318 L2035.46 197.318 L2035.46 199.531 Q2032.93 199.32 2023.8 199.32 Q2014.66 199.32 2012.17 199.531 L2012.17 197.318 L2014.45 197.318 Q2018.98 197.318 2020.07 196.685 Q2021.16 196.018 2021.16 193.84 L2021.16 156.563 Q2017.4 158.46 2011.71 158.46 Z" fill="#000000" fill-rule="evenodd" fill-opacity="1" /><path clip-path="url(#clip150)" d="M2047.34 176.519 Q2047.34 165.943 2050.01 160.182 Q2053.74 151.609 2062.52 151.609 Q2064.38 151.609 2066.32 152.136 Q2068.28 152.628 2070.74 154.56 Q2073.24 156.492 2074.75 159.655 Q2077.63 165.768 2077.63 176.519 Q2077.63 187.024 2074.96 192.75 Q2071.06 201.112 2062.45 201.112 Q2059.22 201.112 2055.92 199.461 Q2052.65 197.81 2050.58 193.84 Q2047.34 187.902 2047.34 176.519 M2053.32 175.64 Q2053.32 186.497 2054.09 190.818 Q2054.97 195.491 2057.36 197.529 Q2059.78 199.531 2062.45 199.531 Q2065.33 199.531 2067.72 197.388 Q2070.15 195.21 2070.88 190.537 Q2071.69 185.934 2071.66 175.64 Q2071.66 165.627 2070.95 161.622 Q2070.01 156.949 2067.48 155.087 Q2064.98 153.19 2062.45 153.19 Q2061.5 153.19 2060.48 153.471 Q2059.5 153.752 2058.06 154.56 Q2056.62 155.368 2055.49 157.371 Q2054.41 159.373 2053.88 162.395 Q2053.32 166.295 2053.32 175.64 Z" fill="#000000" fill-rule="evenodd" fill-opacity="1" /><path clip-path="url(#clip150)" d="M2085.01 137.398 L2086.66 127.044 L2087.91 127.044 Q2088.06 127.659 2088.3 127.929 Q2088.57 128.2 2090 128.421 Q2091.45 128.643 2094.38 128.643 L2106.6 128.643 Q2106.6 129.799 2106.16 130.413 L2099.35 139.98 Q2097.18 143.005 2096.22 148.588 Q2095.66 152.326 2095.68 156.851 L2095.68 159.409 Q2095.68 162.188 2093.35 162.188 Q2091.03 162.188 2091.03 159.409 Q2091.03 149.793 2097.23 140.472 Q2097.9 139.513 2100.33 136.094 Q2102.79 132.676 2102.89 132.528 L2092.46 132.528 Q2087.89 132.528 2087.52 132.824 Q2087.02 133.266 2086.26 137.398 L2085.01 137.398 Z" fill="#000000" fill-rule="evenodd" fill-opacity="1" /><polyline clip-path="url(#clip154)" style="stroke:#009af9; stroke-linecap:butt; stroke-linejoin:round; stroke-width:4; stroke-opacity:1; fill:none" points="
  1438.93,991.914 1734.66,849.055 2030.4,794.7 2237.11,676.811 2326.14,626.443 
  "/>
<polyline clip-path="url(#clip154)" style="stroke:#e26f46; stroke-linecap:butt; stroke-linejoin:round; stroke-width:4; stroke-opacity:1; fill:none" points="
  1438.93,810.445 1734.66,698.657 2030.4,568.046 2237.11,439.469 2326.14,243.611 
  "/>
<polyline clip-path="url(#clip154)" style="stroke:#3da44d; stroke-linecap:butt; stroke-linejoin:round; stroke-width:4; stroke-opacity:1; fill:none" points="
  1438.93,1035.56 1734.66,856.816 2030.4,675.828 2237.11,548.442 2326.14,495.376 
  "/>
<path clip-path="url(#clip150)" d="
M236.516 120 L2352.76 120 L2352.76 0 L236.516 0  Z
  " fill="#ffffff" fill-rule="evenodd" fill-opacity="1"/>
<path clip-path="url(#clip150)" d="M738.134 50.5368 Q741.144 51.5553 743.968 54.8886 Q746.838 58.2219 749.708 64.0552 L759.199 82.944 L749.153 82.944 L740.31 65.2126 Q736.884 58.2682 733.644 55.9997 Q730.449 53.7312 724.894 53.7312 L714.709 53.7312 L714.709 82.944 L705.357 82.944 L705.357 13.824 L726.468 13.824 Q738.32 13.824 744.153 18.7777 Q749.986 23.7314 749.986 33.7313 Q749.986 40.259 746.931 44.5646 Q743.921 48.8701 738.134 50.5368 M714.709 21.5091 L714.709 46.046 L726.468 46.046 Q733.227 46.046 736.653 42.9442 Q740.125 39.7961 740.125 33.7313 Q740.125 27.6665 736.653 24.611 Q733.227 21.5091 726.468 21.5091 L714.709 21.5091 Z" fill="#000000" fill-rule="evenodd" fill-opacity="1" /><path clip-path="url(#clip150)" d="M810.958 54.8886 L810.958 59.0552 L771.792 59.0552 Q772.347 67.8515 777.069 72.4811 Q781.838 77.0644 790.31 77.0644 Q795.217 77.0644 799.801 75.8607 Q804.43 74.657 808.967 72.2496 L808.967 80.3051 Q804.384 82.2496 799.569 83.2681 Q794.754 84.2866 789.801 84.2866 Q777.393 84.2866 770.125 77.0644 Q762.903 69.8422 762.903 57.5275 Q762.903 44.7961 769.755 37.3424 Q776.653 29.8424 788.319 29.8424 Q798.782 29.8424 804.847 36.6017 Q810.958 43.3146 810.958 54.8886 M802.44 52.3886 Q802.347 45.3979 798.504 41.2313 Q794.708 37.0646 788.412 37.0646 Q781.282 37.0646 776.977 41.0924 Q772.718 45.1201 772.069 52.4349 L802.44 52.3886 Z" fill="#000000" fill-rule="evenodd" fill-opacity="1" /><path clip-path="url(#clip150)" d="M859.06 38.9628 L859.06 10.9073 L867.578 10.9073 L867.578 82.944 L859.06 82.944 L859.06 75.1663 Q856.375 79.7959 852.254 82.0644 Q848.18 84.2866 842.439 84.2866 Q833.041 84.2866 827.115 76.7866 Q821.236 69.2867 821.236 57.0645 Q821.236 44.8424 827.115 37.3424 Q833.041 29.8424 842.439 29.8424 Q848.18 29.8424 852.254 32.1109 Q856.375 34.3331 859.06 38.9628 M830.032 57.0645 Q830.032 66.4626 833.875 71.8329 Q837.764 77.157 844.523 77.157 Q851.282 77.157 855.171 71.8329 Q859.06 66.4626 859.06 57.0645 Q859.06 47.6664 855.171 42.3424 Q851.282 36.972 844.523 36.972 Q837.764 36.972 833.875 42.3424 Q830.032 47.6664 830.032 57.0645 Z" fill="#000000" fill-rule="evenodd" fill-opacity="1" /><path clip-path="url(#clip150)" d="M884.245 62.4811 L884.245 31.0924 L892.763 31.0924 L892.763 62.1571 Q892.763 69.5181 895.634 73.2218 Q898.504 76.8792 904.245 76.8792 Q911.143 76.8792 915.124 72.4811 Q919.152 68.083 919.152 60.4904 L919.152 31.0924 L927.67 31.0924 L927.67 82.944 L919.152 82.944 L919.152 74.9811 Q916.05 79.7033 911.93 82.0181 Q907.856 84.2866 902.439 84.2866 Q893.504 84.2866 888.874 78.7311 Q884.245 73.1755 884.245 62.4811 M905.68 29.8424 L905.68 29.8424 Z" fill="#000000" fill-rule="evenodd" fill-opacity="1" /><path clip-path="url(#clip150)" d="M982.531 33.0832 L982.531 41.0461 Q978.92 39.0553 975.263 38.0831 Q971.652 37.0646 967.948 37.0646 Q959.661 37.0646 955.078 42.3424 Q950.494 47.5738 950.494 57.0645 Q950.494 66.5552 955.078 71.8329 Q959.661 77.0644 967.948 77.0644 Q971.652 77.0644 975.263 76.0922 Q978.92 75.0737 982.531 73.0829 L982.531 80.9533 Q978.966 82.6199 975.124 83.4533 Q971.328 84.2866 967.022 84.2866 Q955.309 84.2866 948.411 76.9255 Q941.513 69.5644 941.513 57.0645 Q941.513 44.3794 948.457 37.1109 Q955.448 29.8424 967.578 29.8424 Q971.513 29.8424 975.263 30.6758 Q979.013 31.4628 982.531 33.0832 Z" fill="#000000" fill-rule="evenodd" fill-opacity="1" /><path clip-path="url(#clip150)" d="M1005.77 16.3703 L1005.77 31.0924 L1023.32 31.0924 L1023.32 37.7128 L1005.77 37.7128 L1005.77 65.8608 Q1005.77 72.2033 1007.48 74.0089 Q1009.24 75.8144 1014.57 75.8144 L1023.32 75.8144 L1023.32 82.944 L1014.57 82.944 Q1004.71 82.944 1000.96 79.2866 Q997.207 75.5829 997.207 65.8608 L997.207 37.7128 L990.957 37.7128 L990.957 31.0924 L997.207 31.0924 L997.207 16.3703 L1005.77 16.3703 Z" fill="#000000" fill-rule="evenodd" fill-opacity="1" /><path clip-path="url(#clip150)" d="M1034.52 31.0924 L1043.04 31.0924 L1043.04 82.944 L1034.52 82.944 L1034.52 31.0924 M1034.52 10.9073 L1043.04 10.9073 L1043.04 21.6943 L1034.52 21.6943 L1034.52 10.9073 Z" fill="#000000" fill-rule="evenodd" fill-opacity="1" /><path clip-path="url(#clip150)" d="M1080.96 37.0646 Q1074.1 37.0646 1070.12 42.435 Q1066.14 47.759 1066.14 57.0645 Q1066.14 66.37 1070.08 71.7404 Q1074.06 77.0644 1080.96 77.0644 Q1087.76 77.0644 1091.74 71.6941 Q1095.73 66.3237 1095.73 57.0645 Q1095.73 47.8516 1091.74 42.4813 Q1087.76 37.0646 1080.96 37.0646 M1080.96 29.8424 Q1092.07 29.8424 1098.41 37.0646 Q1104.75 44.2868 1104.75 57.0645 Q1104.75 69.7959 1098.41 77.0644 Q1092.07 84.2866 1080.96 84.2866 Q1069.8 84.2866 1063.46 77.0644 Q1057.16 69.7959 1057.16 57.0645 Q1057.16 44.2868 1063.46 37.0646 Q1069.8 29.8424 1080.96 29.8424 Z" fill="#000000" fill-rule="evenodd" fill-opacity="1" /><path clip-path="url(#clip150)" d="M1161.97 51.6479 L1161.97 82.944 L1153.46 82.944 L1153.46 51.9256 Q1153.46 44.5646 1150.59 40.9072 Q1147.72 37.2498 1141.97 37.2498 Q1135.08 37.2498 1131.1 41.6479 Q1127.11 46.046 1127.11 53.6386 L1127.11 82.944 L1118.55 82.944 L1118.55 31.0924 L1127.11 31.0924 L1127.11 39.1479 Q1130.17 34.472 1134.29 32.1572 Q1138.46 29.8424 1143.87 29.8424 Q1152.81 29.8424 1157.39 35.398 Q1161.97 40.9072 1161.97 51.6479 Z" fill="#000000" fill-rule="evenodd" fill-opacity="1" /><path clip-path="url(#clip150)" d="M1181.14 71.1848 L1190.91 71.1848 L1190.91 82.944 L1181.14 82.944 L1181.14 71.1848 M1181.14 33.9165 L1190.91 33.9165 L1190.91 45.6757 L1181.14 45.6757 L1181.14 33.9165 Z" fill="#000000" fill-rule="evenodd" fill-opacity="1" /><path clip-path="url(#clip150)" d="M1274.1 32.6202 L1274.1 40.6757 Q1270.49 38.8239 1266.6 37.8979 Q1262.71 36.972 1258.55 36.972 Q1252.21 36.972 1249.01 38.9165 Q1245.86 40.8609 1245.86 44.7498 Q1245.86 47.7127 1248.13 49.4257 Q1250.4 51.0923 1257.25 52.6201 L1260.17 53.2682 Q1269.24 55.2127 1273.04 58.7775 Q1276.88 62.296 1276.88 68.6385 Q1276.88 75.8607 1271.14 80.0736 Q1265.45 84.2866 1255.45 84.2866 Q1251.28 84.2866 1246.74 83.4533 Q1242.25 82.6662 1237.25 81.0459 L1237.25 72.2496 Q1241.97 74.7033 1246.56 75.9533 Q1251.14 77.157 1255.63 77.157 Q1261.65 77.157 1264.89 75.12 Q1268.13 73.0366 1268.13 69.2867 Q1268.13 65.8145 1265.77 63.9626 Q1263.46 62.1108 1255.54 60.3978 L1252.58 59.7034 Q1244.66 58.0367 1241.14 54.6108 Q1237.62 51.1386 1237.62 45.1201 Q1237.62 37.8054 1242.81 33.8239 Q1247.99 29.8424 1257.53 29.8424 Q1262.25 29.8424 1266.42 30.5369 Q1270.59 31.2313 1274.1 32.6202 Z" fill="#000000" fill-rule="evenodd" fill-opacity="1" /><path clip-path="url(#clip150)" d="M1290.45 31.0924 L1298.96 31.0924 L1298.96 82.944 L1290.45 82.944 L1290.45 31.0924 M1290.45 10.9073 L1298.96 10.9073 L1298.96 21.6943 L1290.45 21.6943 L1290.45 10.9073 Z" fill="#000000" fill-rule="evenodd" fill-opacity="1" /><path clip-path="url(#clip150)" d="M1359.89 51.6479 L1359.89 82.944 L1351.37 82.944 L1351.37 51.9256 Q1351.37 44.5646 1348.5 40.9072 Q1345.63 37.2498 1339.89 37.2498 Q1332.99 37.2498 1329.01 41.6479 Q1325.03 46.046 1325.03 53.6386 L1325.03 82.944 L1316.46 82.944 L1316.46 31.0924 L1325.03 31.0924 L1325.03 39.1479 Q1328.08 34.472 1332.21 32.1572 Q1336.37 29.8424 1341.79 29.8424 Q1350.72 29.8424 1355.31 35.398 Q1359.89 40.9072 1359.89 51.6479 Z" fill="#000000" fill-rule="evenodd" fill-opacity="1" /><path clip-path="url(#clip150)" d="M1411 56.4164 Q1411 47.1572 1407.16 42.0646 Q1403.36 36.972 1396.46 36.972 Q1389.61 36.972 1385.77 42.0646 Q1381.97 47.1572 1381.97 56.4164 Q1381.97 65.6293 1385.77 70.7218 Q1389.61 75.8144 1396.46 75.8144 Q1403.36 75.8144 1407.16 70.7218 Q1411 65.6293 1411 56.4164 M1419.52 76.5088 Q1419.52 89.7495 1413.64 96.1847 Q1407.76 102.666 1395.63 102.666 Q1391.14 102.666 1387.16 101.972 Q1383.18 101.324 1379.43 99.9346 L1379.43 91.6477 Q1383.18 93.6847 1386.83 94.6569 Q1390.49 95.6291 1394.29 95.6291 Q1402.67 95.6291 1406.83 91.231 Q1411 86.8792 1411 78.0366 L1411 73.8237 Q1408.36 78.407 1404.24 80.6755 Q1400.12 82.944 1394.38 82.944 Q1384.84 82.944 1379.01 75.6755 Q1373.18 68.407 1373.18 56.4164 Q1373.18 44.3794 1379.01 37.1109 Q1384.84 29.8424 1394.38 29.8424 Q1400.12 29.8424 1404.24 32.1109 Q1408.36 34.3794 1411 38.9628 L1411 31.0924 L1419.52 31.0924 L1419.52 76.5088 Z" fill="#000000" fill-rule="evenodd" fill-opacity="1" /><path clip-path="url(#clip150)" d="M1437.07 10.9073 L1445.58 10.9073 L1445.58 82.944 L1437.07 82.944 L1437.07 10.9073 Z" fill="#000000" fill-rule="evenodd" fill-opacity="1" /><path clip-path="url(#clip150)" d="M1507.76 54.8886 L1507.76 59.0552 L1468.59 59.0552 Q1469.15 67.8515 1473.87 72.4811 Q1478.64 77.0644 1487.11 77.0644 Q1492.02 77.0644 1496.6 75.8607 Q1501.23 74.657 1505.77 72.2496 L1505.77 80.3051 Q1501.19 82.2496 1496.37 83.2681 Q1491.56 84.2866 1486.6 84.2866 Q1474.2 84.2866 1466.93 77.0644 Q1459.7 69.8422 1459.7 57.5275 Q1459.7 44.7961 1466.56 37.3424 Q1473.45 29.8424 1485.12 29.8424 Q1495.58 29.8424 1501.65 36.6017 Q1507.76 43.3146 1507.76 54.8886 M1499.24 52.3886 Q1499.15 45.3979 1495.31 41.2313 Q1491.51 37.0646 1485.21 37.0646 Q1478.08 37.0646 1473.78 41.0924 Q1469.52 45.1201 1468.87 52.4349 L1499.24 52.3886 Z" fill="#000000" fill-rule="evenodd" fill-opacity="1" /><path clip-path="url(#clip150)" d="M1589.19 33.0832 L1589.19 41.0461 Q1585.58 39.0553 1581.93 38.0831 Q1578.32 37.0646 1574.61 37.0646 Q1566.32 37.0646 1561.74 42.3424 Q1557.16 47.5738 1557.16 57.0645 Q1557.16 66.5552 1561.74 71.8329 Q1566.32 77.0644 1574.61 77.0644 Q1578.32 77.0644 1581.93 76.0922 Q1585.58 75.0737 1589.19 73.0829 L1589.19 80.9533 Q1585.63 82.6199 1581.79 83.4533 Q1577.99 84.2866 1573.69 84.2866 Q1561.97 84.2866 1555.07 76.9255 Q1548.18 69.5644 1548.18 57.0645 Q1548.18 44.3794 1555.12 37.1109 Q1562.11 29.8424 1574.24 29.8424 Q1578.18 29.8424 1581.93 30.6758 Q1585.68 31.4628 1589.19 33.0832 Z" fill="#000000" fill-rule="evenodd" fill-opacity="1" /><path clip-path="url(#clip150)" d="M1624.1 37.0646 Q1617.25 37.0646 1613.27 42.435 Q1609.29 47.759 1609.29 57.0645 Q1609.29 66.37 1613.22 71.7404 Q1617.2 77.0644 1624.1 77.0644 Q1630.91 77.0644 1634.89 71.6941 Q1638.87 66.3237 1638.87 57.0645 Q1638.87 47.8516 1634.89 42.4813 Q1630.91 37.0646 1624.1 37.0646 M1624.1 29.8424 Q1635.21 29.8424 1641.56 37.0646 Q1647.9 44.2868 1647.9 57.0645 Q1647.9 69.7959 1641.56 77.0644 Q1635.21 84.2866 1624.1 84.2866 Q1612.94 84.2866 1606.6 77.0644 Q1600.31 69.7959 1600.31 57.0645 Q1600.31 44.2868 1606.6 37.0646 Q1612.94 29.8424 1624.1 29.8424 Z" fill="#000000" fill-rule="evenodd" fill-opacity="1" /><path clip-path="url(#clip150)" d="M1662.02 10.9073 L1670.54 10.9073 L1670.54 82.944 L1662.02 82.944 L1662.02 10.9073 Z" fill="#000000" fill-rule="evenodd" fill-opacity="1" /><path clip-path="url(#clip150)" d="M1687.48 62.4811 L1687.48 31.0924 L1696 31.0924 L1696 62.1571 Q1696 69.5181 1698.87 73.2218 Q1701.74 76.8792 1707.48 76.8792 Q1714.38 76.8792 1718.36 72.4811 Q1722.39 68.083 1722.39 60.4904 L1722.39 31.0924 L1730.91 31.0924 L1730.91 82.944 L1722.39 82.944 L1722.39 74.9811 Q1719.29 79.7033 1715.17 82.0181 Q1711.09 84.2866 1705.68 84.2866 Q1696.74 84.2866 1692.11 78.7311 Q1687.48 73.1755 1687.48 62.4811 M1708.92 29.8424 L1708.92 29.8424 Z" fill="#000000" fill-rule="evenodd" fill-opacity="1" /><path clip-path="url(#clip150)" d="M1788.82 41.0461 Q1792.02 35.3054 1796.46 32.5739 Q1800.91 29.8424 1806.92 29.8424 Q1815.03 29.8424 1819.42 35.5368 Q1823.82 41.185 1823.82 51.6479 L1823.82 82.944 L1815.26 82.944 L1815.26 51.9256 Q1815.26 44.472 1812.62 40.8609 Q1809.98 37.2498 1804.56 37.2498 Q1797.94 37.2498 1794.1 41.6479 Q1790.26 46.046 1790.26 53.6386 L1790.26 82.944 L1781.69 82.944 L1781.69 51.9256 Q1781.69 44.4257 1779.05 40.8609 Q1776.42 37.2498 1770.91 37.2498 Q1764.38 37.2498 1760.54 41.6942 Q1756.69 46.0923 1756.69 53.6386 L1756.69 82.944 L1748.13 82.944 L1748.13 31.0924 L1756.69 31.0924 L1756.69 39.1479 Q1759.61 34.3794 1763.68 32.1109 Q1767.76 29.8424 1773.36 29.8424 Q1779.01 29.8424 1782.94 32.7128 Q1786.93 35.5831 1788.82 41.0461 Z" fill="#000000" fill-rule="evenodd" fill-opacity="1" /><path clip-path="url(#clip150)" d="M1883.92 51.6479 L1883.92 82.944 L1875.4 82.944 L1875.4 51.9256 Q1875.4 44.5646 1872.53 40.9072 Q1869.66 37.2498 1863.92 37.2498 Q1857.02 37.2498 1853.04 41.6479 Q1849.05 46.046 1849.05 53.6386 L1849.05 82.944 L1840.49 82.944 L1840.49 31.0924 L1849.05 31.0924 L1849.05 39.1479 Q1852.11 34.472 1856.23 32.1572 Q1860.4 29.8424 1865.81 29.8424 Q1874.75 29.8424 1879.33 35.398 Q1883.92 40.9072 1883.92 51.6479 Z" fill="#000000" fill-rule="evenodd" fill-opacity="1" /></svg>
