<svg xmlns="http://www.w3.org/2000/svg" xmlns:xlink="http://www.w3.org/1999/xlink" width="600" height="300" viewBox="0 0 2400 1200"><defs><clipPath id="clip520"><rect width="2400" height="1200" x="0" y="0"/></clipPath></defs><path fill="#fff" fill-opacity="1" fill-rule="evenodd" d="M0 1200 L2400 1200 L2400 0 L0 0 Z" clip-path="url(#clip520)"/><defs><clipPath id="clip521"><rect width="1681" height="1200" x="480" y="0"/></clipPath></defs><defs><clipPath id="clip522"><rect width="2114" height="121" x="239" y="0"/></clipPath></defs><path fill="#fff" fill-opacity="1" fill-rule="evenodd" d="M239.492 1038.49 L1178.45 1038.49 L1178.45 221.872 L239.492 221.872 Z" clip-path="url(#clip520)"/><defs><clipPath id="clip523"><rect width="940" height="818" x="239" y="221"/></clipPath></defs><polyline style="stroke:#000;stroke-linecap:butt;stroke-linejoin:round;stroke-width:2;stroke-opacity:.1;fill:none" points="266.066 1038.49 266.066 221.872" clip-path="url(#clip523)"/><polyline style="stroke:#000;stroke-linecap:butt;stroke-linejoin:round;stroke-width:2;stroke-opacity:.1;fill:none" points="561.336 1038.49 561.336 221.872" clip-path="url(#clip523)"/><polyline style="stroke:#000;stroke-linecap:butt;stroke-linejoin:round;stroke-width:2;stroke-opacity:.1;fill:none" points="856.606 1038.49 856.606 221.872" clip-path="url(#clip523)"/><polyline style="stroke:#000;stroke-linecap:butt;stroke-linejoin:round;stroke-width:2;stroke-opacity:.1;fill:none" points="1151.88 1038.49 1151.88 221.872" clip-path="url(#clip523)"/><polyline style="stroke:#000;stroke-linecap:butt;stroke-linejoin:round;stroke-width:4;stroke-opacity:1;fill:none" points="239.492 1038.49 1178.45 1038.49" clip-path="url(#clip520)"/><polyline style="stroke:#000;stroke-linecap:butt;stroke-linejoin:round;stroke-width:4;stroke-opacity:1;fill:none" points="266.066 1038.49 266.066 1019.59" clip-path="url(#clip520)"/><polyline style="stroke:#000;stroke-linecap:butt;stroke-linejoin:round;stroke-width:4;stroke-opacity:1;fill:none" points="561.336 1038.49 561.336 1019.59" clip-path="url(#clip520)"/><polyline style="stroke:#000;stroke-linecap:butt;stroke-linejoin:round;stroke-width:4;stroke-opacity:1;fill:none" points="856.606 1038.49 856.606 1019.59" clip-path="url(#clip520)"/><polyline style="stroke:#000;stroke-linecap:butt;stroke-linejoin:round;stroke-width:4;stroke-opacity:1;fill:none" points="1151.88 1038.49 1151.88 1019.59" clip-path="url(#clip520)"/><path fill="#000" fill-opacity="1" fill-rule="evenodd" d="M231.059 1112.61 L238.698 1112.61 L238.698 1086.25 L230.387 1087.91 L230.387 1083.65 L238.651 1081.99 L243.327 1081.99 L243.327 1112.61 L250.966 1112.61 L250.966 1116.55 L231.059 1116.55 L231.059 1112.61 Z" clip-path="url(#clip520)"/><path fill="#000" fill-opacity="1" fill-rule="evenodd" d="M270.41 1085.07 Q266.799 1085.07 264.971 1088.63 Q263.165 1092.17 263.165 1099.3 Q263.165 1106.41 264.971 1109.97 Q266.799 1113.52 270.41 1113.52 Q274.045 1113.52 275.85 1109.97 Q277.679 1106.41 277.679 1099.3 Q277.679 1092.17 275.85 1088.63 Q274.045 1085.07 270.41 1085.07 M270.41 1081.36 Q276.22 1081.36 279.276 1085.97 Q282.355 1090.55 282.355 1099.3 Q282.355 1108.03 279.276 1112.64 Q276.22 1117.22 270.41 1117.22 Q264.6 1117.22 261.521 1112.64 Q258.466 1108.03 258.466 1099.3 Q258.466 1090.55 261.521 1085.97 Q264.6 1081.36 270.41 1081.36 Z" clip-path="url(#clip520)"/><path fill="#000" fill-opacity="1" fill-rule="evenodd" d="M292.379 1073.58 Q289.821 1073.58 288.317 1075.33 Q286.831 1077.08 286.831 1080.13 Q286.831 1083.16 288.317 1084.92 Q289.821 1086.67 292.379 1086.67 Q294.937 1086.67 296.423 1084.92 Q297.928 1083.16 297.928 1080.13 Q297.928 1077.08 296.423 1075.33 Q294.937 1073.58 292.379 1073.58 M299.921 1061.68 L299.921 1065.14 Q298.492 1064.46 297.025 1064.1 Q295.577 1063.75 294.147 1063.75 Q290.386 1063.75 288.392 1066.29 Q286.417 1068.82 286.135 1073.96 Q287.245 1072.32 288.919 1071.46 Q290.593 1070.57 292.605 1070.57 Q296.837 1070.57 299.282 1073.15 Q301.746 1075.71 301.746 1080.13 Q301.746 1084.45 299.188 1087.07 Q296.63 1089.68 292.379 1089.68 Q287.508 1089.68 284.931 1085.96 Q282.355 1082.22 282.355 1075.13 Q282.355 1068.47 285.514 1064.52 Q288.674 1060.55 293.997 1060.55 Q295.426 1060.55 296.874 1060.83 Q298.341 1061.11 299.921 1061.68 Z" clip-path="url(#clip520)"/><path fill="#000" fill-opacity="1" fill-rule="evenodd" d="M526.996 1112.61 L534.635 1112.61 L534.635 1086.25 L526.325 1087.91 L526.325 1083.65 L534.589 1081.99 L539.265 1081.99 L539.265 1112.61 L546.903 1112.61 L546.903 1116.55 L526.996 1116.55 L526.996 1112.61 Z" clip-path="url(#clip520)"/><path fill="#000" fill-opacity="1" fill-rule="evenodd" d="M566.348 1085.07 Q562.737 1085.07 560.908 1088.63 Q559.102 1092.17 559.102 1099.3 Q559.102 1106.41 560.908 1109.97 Q562.737 1113.52 566.348 1113.52 Q569.982 1113.52 571.788 1109.97 Q573.616 1106.41 573.616 1099.3 Q573.616 1092.17 571.788 1088.63 Q569.982 1085.07 566.348 1085.07 M566.348 1081.36 Q572.158 1081.36 575.213 1085.97 Q578.292 1090.55 578.292 1099.3 Q578.292 1108.03 575.213 1112.64 Q572.158 1117.22 566.348 1117.22 Q560.538 1117.22 557.459 1112.64 Q554.403 1108.03 554.403 1099.3 Q554.403 1090.55 557.459 1085.97 Q560.538 1081.36 566.348 1081.36 Z" clip-path="url(#clip520)"/><path fill="#000" fill-opacity="1" fill-rule="evenodd" d="M578.292 1061.06 L596.348 1061.06 L596.348 1062.67 L586.154 1089.14 L582.185 1089.14 L591.777 1064.25 L578.292 1064.25 L578.292 1061.06 Z" clip-path="url(#clip520)"/><path fill="#000" fill-opacity="1" fill-rule="evenodd" d="M821.664 1112.61 L829.303 1112.61 L829.303 1086.25 L820.993 1087.91 L820.993 1083.65 L829.257 1081.99 L833.932 1081.99 L833.932 1112.61 L841.571 1112.61 L841.571 1116.55 L821.664 1116.55 L821.664 1112.61 Z" clip-path="url(#clip520)"/><path fill="#000" fill-opacity="1" fill-rule="evenodd" d="M861.016 1085.07 Q857.405 1085.07 855.576 1088.63 Q853.77 1092.17 853.77 1099.3 Q853.77 1106.41 855.576 1109.97 Q857.405 1113.52 861.016 1113.52 Q864.65 1113.52 866.455 1109.97 Q868.284 1106.41 868.284 1099.3 Q868.284 1092.17 866.455 1088.63 Q864.65 1085.07 861.016 1085.07 M861.016 1081.36 Q866.826 1081.36 869.881 1085.97 Q872.96 1090.55 872.96 1099.3 Q872.96 1108.03 869.881 1112.64 Q866.826 1117.22 861.016 1117.22 Q855.205 1117.22 852.127 1112.64 Q849.071 1108.03 849.071 1099.3 Q849.071 1090.55 852.127 1085.97 Q855.205 1081.36 861.016 1081.36 Z" clip-path="url(#clip520)"/><path fill="#000" fill-opacity="1" fill-rule="evenodd" d="M882.59 1075.8 Q879.881 1075.8 878.32 1077.25 Q876.778 1078.7 876.778 1081.24 Q876.778 1083.78 878.32 1085.23 Q879.881 1086.67 882.59 1086.67 Q885.298 1086.67 886.859 1085.23 Q888.42 1083.76 888.42 1081.24 Q888.42 1078.7 886.859 1077.25 Q885.317 1075.8 882.59 1075.8 M878.79 1074.18 Q876.345 1073.58 874.972 1071.91 Q873.618 1070.24 873.618 1067.83 Q873.618 1064.46 876.007 1062.51 Q878.414 1060.55 882.59 1060.55 Q886.784 1060.55 889.172 1062.51 Q891.561 1064.46 891.561 1067.83 Q891.561 1070.24 890.188 1071.91 Q888.834 1073.58 886.408 1074.18 Q889.153 1074.82 890.677 1076.69 Q892.219 1078.55 892.219 1081.24 Q892.219 1085.32 889.718 1087.5 Q887.235 1089.68 882.59 1089.68 Q877.944 1089.68 875.443 1087.5 Q872.96 1085.32 872.96 1081.24 Q872.96 1078.55 874.502 1076.69 Q876.044 1074.82 878.79 1074.18 M877.399 1068.19 Q877.399 1070.37 878.753 1071.59 Q880.126 1072.81 882.59 1072.81 Q885.035 1072.81 886.408 1071.59 Q887.799 1070.37 887.799 1068.19 Q887.799 1066 886.408 1064.78 Q885.035 1063.56 882.59 1063.56 Q880.126 1063.56 878.753 1064.78 Q877.399 1066 877.399 1068.19 Z" clip-path="url(#clip520)"/><path fill="#000" fill-opacity="1" fill-rule="evenodd" d="M1116.88 1112.61 L1124.52 1112.61 L1124.52 1086.25 L1116.21 1087.91 L1116.21 1083.65 L1124.47 1081.99 L1129.15 1081.99 L1129.15 1112.61 L1136.78 1112.61 L1136.78 1116.55 L1116.88 1116.55 L1116.88 1112.61 Z" clip-path="url(#clip520)"/><path fill="#000" fill-opacity="1" fill-rule="evenodd" d="M1156.23 1085.07 Q1152.62 1085.07 1150.79 1088.63 Q1148.98 1092.17 1148.98 1099.3 Q1148.98 1106.41 1150.79 1109.97 Q1152.62 1113.52 1156.23 1113.52 Q1159.86 1113.52 1161.67 1109.97 Q1163.5 1106.41 1163.5 1099.3 Q1163.5 1092.17 1161.67 1088.63 Q1159.86 1085.07 1156.23 1085.07 M1156.23 1081.36 Q1162.04 1081.36 1165.09 1085.97 Q1168.17 1090.55 1168.17 1099.3 Q1168.17 1108.03 1165.09 1112.64 Q1162.04 1117.22 1156.23 1117.22 Q1150.42 1117.22 1147.34 1112.64 Q1144.28 1108.03 1144.28 1099.3 Q1144.28 1090.55 1147.34 1085.97 Q1150.42 1081.36 1156.23 1081.36 Z" clip-path="url(#clip520)"/><path fill="#000" fill-opacity="1" fill-rule="evenodd" d="M1169.98 1088.55 L1169.98 1085.09 Q1171.41 1085.77 1172.88 1086.13 Q1174.34 1086.49 1175.75 1086.49 Q1179.51 1086.49 1181.49 1083.96 Q1183.48 1081.43 1183.76 1076.27 Q1182.67 1077.89 1181 1078.76 Q1179.33 1079.62 1177.3 1079.62 Q1173.08 1079.62 1170.62 1077.08 Q1168.17 1074.52 1168.17 1070.1 Q1168.17 1065.78 1170.73 1063.16 Q1173.29 1060.55 1177.54 1060.55 Q1182.41 1060.55 1184.97 1064.29 Q1187.55 1068.02 1187.55 1075.13 Q1187.55 1081.76 1184.39 1085.73 Q1181.24 1089.68 1175.92 1089.68 Q1174.49 1089.68 1173.03 1089.4 Q1171.56 1089.12 1169.98 1088.55 M1177.54 1076.65 Q1180.1 1076.65 1181.58 1074.9 Q1183.09 1073.15 1183.09 1070.1 Q1183.09 1067.08 1181.58 1065.33 Q1180.1 1063.56 1177.54 1063.56 Q1174.98 1063.56 1173.48 1065.33 Q1171.99 1067.08 1171.99 1070.1 Q1171.99 1073.15 1173.48 1074.9 Q1174.98 1076.65 1177.54 1076.65 Z" clip-path="url(#clip520)"/><path fill="#000" fill-opacity="1" fill-rule="evenodd" d="M725.134 1194.53 Q725.134 1194.79 724.844 1195.79 Q724.554 1196.78 723.846 1198.33 Q723.169 1199.88 722.235 1201.29 Q721.301 1202.68 719.755 1203.71 Q718.242 1204.71 716.503 1204.71 Q714.184 1204.71 712.638 1203.16 Q711.092 1201.62 711.092 1199.3 Q711.092 1198.01 711.768 1196.24 Q716.052 1184.8 716.052 1180.87 Q716.052 1176.27 712.477 1176.27 Q710.706 1176.27 709.031 1176.95 Q707.388 1177.59 706.261 1178.49 Q705.134 1179.39 704.103 1180.65 Q703.105 1181.87 702.59 1182.71 Q702.107 1183.52 701.72 1184.32 L700.883 1187.61 Q700.69 1188.51 699.756 1192.02 L698.306 1197.98 Q697.276 1202.42 697.05 1202.84 Q696.728 1203.74 696.02 1204.22 Q695.311 1204.71 694.603 1204.71 Q693.798 1204.71 693.25 1204.22 Q692.703 1203.74 692.703 1202.9 Q692.703 1202.77 692.799 1202.29 Q692.896 1201.81 693.057 1201.13 Q693.218 1200.46 693.282 1200.07 L697.115 1184.84 Q697.823 1182.07 697.984 1181.2 Q698.178 1180.3 698.178 1179.3 Q698.178 1176.27 696.116 1176.27 Q694.442 1176.27 693.347 1178.27 Q692.252 1180.26 691.318 1184.13 Q691.028 1185.19 690.835 1185.42 Q690.674 1185.64 690.191 1185.64 Q689.385 1185.61 689.385 1184.97 Q689.385 1184.8 689.643 1183.74 Q689.901 1182.68 690.384 1181.16 Q690.899 1179.62 691.382 1178.59 Q691.801 1177.82 692.026 1177.46 Q692.284 1177.07 692.896 1176.33 Q693.54 1175.56 694.377 1175.21 Q695.247 1174.82 696.31 1174.82 Q698.693 1174.82 700.432 1176.37 Q702.171 1177.88 702.397 1180.55 Q706.68 1174.82 712.67 1174.82 Q716.213 1174.82 718.242 1176.69 Q720.271 1178.56 720.271 1181.87 Q720.271 1182.65 720.11 1183.64 Q719.981 1184.61 719.659 1185.83 Q719.369 1187.06 719.111 1187.99 Q718.854 1188.93 718.338 1190.44 Q717.823 1191.92 717.598 1192.57 Q717.372 1193.21 716.825 1194.72 Q716.309 1196.2 716.245 1196.37 Q715.053 1199.36 715.053 1201.07 Q715.053 1202.2 715.408 1202.71 Q715.794 1203.23 716.632 1203.23 Q718.886 1203.23 720.561 1201 Q722.268 1198.75 723.363 1195.08 Q723.62 1194.27 723.749 1194.08 Q723.91 1193.89 724.361 1193.89 Q725.134 1193.89 725.134 1194.53 Z" clip-path="url(#clip520)"/><polyline style="stroke:#000;stroke-linecap:butt;stroke-linejoin:round;stroke-width:2;stroke-opacity:.1;fill:none" points="239.492 921.853 1178.45 921.853" clip-path="url(#clip523)"/><polyline style="stroke:#000;stroke-linecap:butt;stroke-linejoin:round;stroke-width:2;stroke-opacity:.1;fill:none" points="239.492 748.752 1178.45 748.752" clip-path="url(#clip523)"/><polyline style="stroke:#000;stroke-linecap:butt;stroke-linejoin:round;stroke-width:2;stroke-opacity:.1;fill:none" points="239.492 575.651 1178.45 575.651" clip-path="url(#clip523)"/><polyline style="stroke:#000;stroke-linecap:butt;stroke-linejoin:round;stroke-width:2;stroke-opacity:.1;fill:none" points="239.492 402.551 1178.45 402.551" clip-path="url(#clip523)"/><polyline style="stroke:#000;stroke-linecap:butt;stroke-linejoin:round;stroke-width:2;stroke-opacity:.1;fill:none" points="239.492 229.45 1178.45 229.45" clip-path="url(#clip523)"/><polyline style="stroke:#000;stroke-linecap:butt;stroke-linejoin:round;stroke-width:4;stroke-opacity:1;fill:none" points="239.492 1038.49 239.492 221.872" clip-path="url(#clip520)"/><polyline style="stroke:#000;stroke-linecap:butt;stroke-linejoin:round;stroke-width:4;stroke-opacity:1;fill:none" points="239.492 921.853 258.39 921.853" clip-path="url(#clip520)"/><polyline style="stroke:#000;stroke-linecap:butt;stroke-linejoin:round;stroke-width:4;stroke-opacity:1;fill:none" points="239.492 748.752 258.39 748.752" clip-path="url(#clip520)"/><polyline style="stroke:#000;stroke-linecap:butt;stroke-linejoin:round;stroke-width:4;stroke-opacity:1;fill:none" points="239.492 575.651 258.39 575.651" clip-path="url(#clip520)"/><polyline style="stroke:#000;stroke-linecap:butt;stroke-linejoin:round;stroke-width:4;stroke-opacity:1;fill:none" points="239.492 402.551 258.39 402.551" clip-path="url(#clip520)"/><polyline style="stroke:#000;stroke-linecap:butt;stroke-linejoin:round;stroke-width:4;stroke-opacity:1;fill:none" points="239.492 229.45 258.39 229.45" clip-path="url(#clip520)"/><path fill="#000" fill-opacity="1" fill-rule="evenodd" d="M103.352 941.646 L110.991 941.646 L110.991 915.28 L102.681 916.947 L102.681 912.688 L110.945 911.021 L115.621 911.021 L115.621 941.646 L123.26 941.646 L123.26 945.581 L103.352 945.581 L103.352 941.646 Z" clip-path="url(#clip520)"/><path fill="#000" fill-opacity="1" fill-rule="evenodd" d="M142.704 914.1 Q139.093 914.1 137.264 917.664 Q135.459 921.206 135.459 928.336 Q135.459 935.442 137.264 939.007 Q139.093 942.549 142.704 942.549 Q146.338 942.549 148.144 939.007 Q149.972 935.442 149.972 928.336 Q149.972 921.206 148.144 917.664 Q146.338 914.1 142.704 914.1 M142.704 910.396 Q148.514 910.396 151.57 915.002 Q154.648 919.586 154.648 928.336 Q154.648 937.063 151.57 941.669 Q148.514 946.252 142.704 946.252 Q136.894 946.252 133.815 941.669 Q130.76 937.063 130.76 928.336 Q130.76 919.586 133.815 915.002 Q136.894 910.396 142.704 910.396 Z" clip-path="url(#clip520)"/><path fill="#000" fill-opacity="1" fill-rule="evenodd" d="M154.648 904.497 L178.76 904.497 L178.76 907.695 L154.648 907.695 L154.648 904.497 Z" clip-path="url(#clip520)"/><path fill="#000" fill-opacity="1" fill-rule="evenodd" d="M190.233 914.973 L203.492 914.973 L203.492 918.171 L185.662 918.171 L185.662 914.973 Q187.825 912.735 191.549 908.974 Q195.292 905.193 196.251 904.102 Q198.076 902.052 198.79 900.642 Q199.524 899.212 199.524 897.839 Q199.524 895.601 197.944 894.191 Q196.383 892.78 193.863 892.78 Q192.076 892.78 190.082 893.401 Q188.107 894.021 185.85 895.282 L185.85 891.445 Q188.145 890.523 190.139 890.053 Q192.132 889.583 193.787 889.583 Q198.151 889.583 200.746 891.765 Q203.342 893.946 203.342 897.595 Q203.342 899.325 202.683 900.886 Q202.044 902.429 200.332 904.535 Q199.862 905.08 197.342 907.695 Q194.822 910.29 190.233 914.973 Z" clip-path="url(#clip520)"/><path fill="#000" fill-opacity="1" fill-rule="evenodd" d="M103.051 768.545 L110.69 768.545 L110.69 742.179 L102.38 743.846 L102.38 739.587 L110.644 737.92 L115.32 737.92 L115.32 768.545 L122.959 768.545 L122.959 772.48 L103.051 772.48 L103.051 768.545 Z" clip-path="url(#clip520)"/><path fill="#000" fill-opacity="1" fill-rule="evenodd" d="M142.403 740.999 Q138.792 740.999 136.963 744.564 Q135.158 748.105 135.158 755.235 Q135.158 762.341 136.963 765.906 Q138.792 769.448 142.403 769.448 Q146.037 769.448 147.843 765.906 Q149.672 762.341 149.672 755.235 Q149.672 748.105 147.843 744.564 Q146.037 740.999 142.403 740.999 M142.403 737.295 Q148.213 737.295 151.269 741.902 Q154.347 746.485 154.347 755.235 Q154.347 763.962 151.269 768.568 Q148.213 773.151 142.403 773.151 Q136.593 773.151 133.514 768.568 Q130.459 763.962 130.459 755.235 Q130.459 746.485 133.514 741.902 Q136.593 737.295 142.403 737.295 Z" clip-path="url(#clip520)"/><path fill="#000" fill-opacity="1" fill-rule="evenodd" d="M154.347 731.396 L178.459 731.396 L178.459 734.594 L154.347 734.594 L154.347 731.396 Z" clip-path="url(#clip520)"/><path fill="#000" fill-opacity="1" fill-rule="evenodd" d="M187.317 741.872 L193.524 741.872 L193.524 720.45 L186.772 721.804 L186.772 718.344 L193.486 716.99 L197.286 716.99 L197.286 741.872 L203.492 741.872 L203.492 745.07 L187.317 745.07 L187.317 741.872 Z" clip-path="url(#clip520)"/><path fill="#000" fill-opacity="1" fill-rule="evenodd" d="M132.787 595.444 L140.425 595.444 L140.425 569.078 L132.115 570.745 L132.115 566.486 L140.379 564.819 L145.055 564.819 L145.055 595.444 L152.694 595.444 L152.694 599.379 L132.787 599.379 L132.787 595.444 Z" clip-path="url(#clip520)"/><path fill="#000" fill-opacity="1" fill-rule="evenodd" d="M172.138 567.898 Q168.527 567.898 166.698 571.463 Q164.893 575.004 164.893 582.134 Q164.893 589.24 166.698 592.805 Q168.527 596.347 172.138 596.347 Q175.772 596.347 177.578 592.805 Q179.407 589.24 179.407 582.134 Q179.407 575.004 177.578 571.463 Q175.772 567.898 172.138 567.898 M172.138 564.194 Q177.948 564.194 181.004 568.801 Q184.083 573.384 184.083 582.134 Q184.083 590.861 181.004 595.467 Q177.948 600.05 172.138 600.05 Q166.328 600.05 163.249 595.467 Q160.194 590.861 160.194 582.134 Q160.194 573.384 163.249 568.801 Q166.328 564.194 172.138 564.194 Z" clip-path="url(#clip520)"/><path fill="#000" fill-opacity="1" fill-rule="evenodd" d="M193.787 546.39 Q190.853 546.39 189.368 549.287 Q187.901 552.164 187.901 557.957 Q187.901 563.731 189.368 566.627 Q190.853 569.505 193.787 569.505 Q196.74 569.505 198.207 566.627 Q199.693 563.731 199.693 557.957 Q199.693 552.164 198.207 549.287 Q196.74 546.39 193.787 546.39 M193.787 543.381 Q198.508 543.381 200.991 547.124 Q203.492 550.848 203.492 557.957 Q203.492 565.047 200.991 568.79 Q198.508 572.514 193.787 572.514 Q189.067 572.514 186.565 568.79 Q184.083 565.047 184.083 557.957 Q184.083 550.848 186.565 547.124 Q189.067 543.381 193.787 543.381 Z" clip-path="url(#clip520)"/><path fill="#000" fill-opacity="1" fill-rule="evenodd" d="M135.476 422.343 L143.115 422.343 L143.115 395.977 L134.805 397.644 L134.805 393.385 L143.069 391.718 L147.744 391.718 L147.744 422.343 L155.383 422.343 L155.383 426.278 L135.476 426.278 L135.476 422.343 Z" clip-path="url(#clip520)"/><path fill="#000" fill-opacity="1" fill-rule="evenodd" d="M174.828 394.797 Q171.217 394.797 169.388 398.362 Q167.582 401.903 167.582 409.033 Q167.582 416.139 169.388 419.704 Q171.217 423.246 174.828 423.246 Q178.462 423.246 180.267 419.704 Q182.096 416.139 182.096 409.033 Q182.096 401.903 180.267 398.362 Q178.462 394.797 174.828 394.797 M174.828 391.093 Q180.638 391.093 183.693 395.7 Q186.772 400.283 186.772 409.033 Q186.772 417.76 183.693 422.366 Q180.638 426.949 174.828 426.949 Q169.018 426.949 165.939 422.366 Q162.883 417.76 162.883 409.033 Q162.883 400.283 165.939 395.7 Q169.018 391.093 174.828 391.093 Z" clip-path="url(#clip520)"/><path fill="#000" fill-opacity="1" fill-rule="evenodd" d="M187.317 395.67 L193.524 395.67 L193.524 374.248 L186.772 375.603 L186.772 372.142 L193.486 370.788 L197.286 370.788 L197.286 395.67 L203.492 395.67 L203.492 398.868 L187.317 398.868 L187.317 395.67 Z" clip-path="url(#clip520)"/><path fill="#000" fill-opacity="1" fill-rule="evenodd" d="M134.366 249.242 L142.005 249.242 L142.005 222.876 L133.695 224.543 L133.695 220.284 L141.959 218.617 L146.635 218.617 L146.635 249.242 L154.274 249.242 L154.274 253.177 L134.366 253.177 L134.366 249.242 Z" clip-path="url(#clip520)"/><path fill="#000" fill-opacity="1" fill-rule="evenodd" d="M173.718 221.696 Q170.107 221.696 168.278 225.261 Q166.473 228.802 166.473 235.932 Q166.473 243.038 168.278 246.603 Q170.107 250.145 173.718 250.145 Q177.352 250.145 179.158 246.603 Q180.987 243.038 180.987 235.932 Q180.987 228.802 179.158 225.261 Q177.352 221.696 173.718 221.696 M173.718 217.992 Q179.528 217.992 182.584 222.599 Q185.662 227.182 185.662 235.932 Q185.662 244.659 182.584 249.265 Q179.528 253.848 173.718 253.848 Q167.908 253.848 164.829 249.265 Q161.774 244.659 161.774 235.932 Q161.774 227.182 164.829 222.599 Q167.908 217.992 173.718 217.992 Z" clip-path="url(#clip520)"/><path fill="#000" fill-opacity="1" fill-rule="evenodd" d="M190.233 222.569 L203.492 222.569 L203.492 225.767 L185.662 225.767 L185.662 222.569 Q187.825 220.331 191.549 216.57 Q195.292 212.789 196.251 211.699 Q198.076 209.649 198.79 208.238 Q199.524 206.809 199.524 205.436 Q199.524 203.197 197.944 201.787 Q196.383 200.376 193.863 200.376 Q192.076 200.376 190.082 200.997 Q188.107 201.618 185.85 202.878 L185.85 199.041 Q188.145 198.119 190.139 197.649 Q192.132 197.179 193.787 197.179 Q198.151 197.179 200.746 199.361 Q203.342 201.542 203.342 205.191 Q203.342 206.921 202.683 208.482 Q202.044 210.025 200.332 212.131 Q199.862 212.677 197.342 215.291 Q194.822 217.886 190.233 222.569 Z" clip-path="url(#clip520)"/><path fill="#000" fill-opacity="1" fill-rule="evenodd" d="M30.2035 734.489 L28.7542 734.489 Q28.6254 731.461 26.4998 729.465 Q24.342 727.436 21.7011 726.759 Q19.0603 726.051 16.0007 725.986 L16.0007 724.344 L28.1423 724.344 L28.1423 714.908 L30.2035 714.908 L30.2035 724.344 L48.5286 724.344 Q55.6461 724.344 55.6461 719.899 Q55.6461 717.999 53.7138 716.743 Q51.7492 715.487 48.271 715.487 L44.6317 715.487 L44.6317 713.845 L48.3998 713.845 Q51.9747 713.845 54.6477 715.487 Q57.3208 717.13 57.3208 720.382 Q57.3208 721.574 56.9988 722.766 Q56.7089 723.925 55.936 725.471 Q55.1308 726.985 53.1985 727.951 Q51.2339 728.885 48.3998 728.885 L30.2035 728.885 L30.2035 734.489 Z" clip-path="url(#clip520)"/><path fill="#000" fill-opacity="1" fill-rule="evenodd" d="M56.5801 709.953 L54.5511 709.953 Q54.5511 706.443 54.1324 705.638 Q53.6816 704.833 51.556 704.833 L33.8106 704.833 Q31.3629 704.833 30.7832 705.67 Q30.2035 706.475 30.2035 709.696 L28.1423 709.696 L27.4338 700.485 L51.6204 700.485 Q53.5849 700.485 54.068 699.776 Q54.5511 699.068 54.5511 695.847 L56.5801 695.847 Q56.3869 702.578 56.3869 702.707 Q56.3869 703.609 56.5801 709.953 M15.9363 707.184 Q14.6159 707.184 13.5531 706.185 Q12.4581 705.155 12.4581 703.705 Q12.4581 702.256 13.4564 701.225 Q14.4226 700.195 15.9685 700.195 Q17.4822 700.195 18.4806 701.225 Q19.4467 702.256 19.4467 703.705 Q19.4467 705.219 18.3839 706.217 Q17.3212 707.184 15.9363 707.184 Z" clip-path="url(#clip520)"/><path fill="#000" fill-opacity="1" fill-rule="evenodd" d="M56.5801 691.339 L54.5511 691.339 Q54.5511 687.828 54.1324 687.023 Q53.6816 686.218 51.556 686.218 L33.875 686.218 Q31.4273 686.218 30.8154 687.088 Q30.2035 687.925 30.2035 691.339 L28.1423 691.339 L27.4338 682.064 L34.3581 682.064 Q27.4338 678.972 27.4338 672.305 Q27.4338 664.576 33.875 663.513 Q31.3629 662.386 29.3983 660.035 Q27.4338 657.651 27.4338 653.948 Q27.4338 648.988 29.8814 647.024 Q31.5239 645.574 33.3597 645.284 Q35.1954 644.995 39.9619 644.995 L52.5544 644.995 Q53.9392 644.93 54.2613 643.867 Q54.5511 642.805 54.5511 639.842 L56.5801 639.842 Q56.3869 646.573 56.3869 647.217 Q56.3869 647.732 56.5801 654.689 L54.5511 654.689 Q54.5511 651.178 54.1324 650.373 Q53.6816 649.536 51.556 649.536 L36.1938 649.536 Q32.8444 649.536 30.8798 650.566 Q28.8831 651.597 28.8831 654.431 Q28.8831 657.845 31.7494 660.582 Q34.6157 663.32 39.4466 663.32 L51.556 663.32 Q53.6816 663.32 54.1324 662.515 Q54.5511 661.677 54.5511 658.167 L56.5801 658.167 Q56.3869 664.898 56.3869 665.574 Q56.3869 666.089 56.5801 673.014 L54.5511 673.014 Q54.5511 669.503 54.1324 668.698 Q53.6816 667.861 51.556 667.861 L36.1938 667.861 Q32.8444 667.861 30.8798 668.891 Q28.8831 669.922 28.8831 672.756 Q28.8831 676.17 31.7494 678.907 Q34.6157 681.645 39.4466 681.645 L51.556 681.645 Q53.6816 681.645 54.1324 680.84 Q54.5511 680.002 54.5511 676.524 L56.5801 676.524 Q56.3869 683.255 56.3869 683.899 Q56.3869 684.415 56.5801 691.339 Z" clip-path="url(#clip520)"/><path fill="#000" fill-opacity="1" fill-rule="evenodd" d="M42.0553 635.896 Q35.8395 635.896 31.4273 631.902 Q27.0151 627.909 27.0151 622.176 Q27.0151 616.379 30.7832 613.384 Q34.5513 610.357 39.9619 610.357 Q40.9603 610.357 41.1535 610.614 Q41.3467 610.872 41.3467 611.999 L41.3467 630.421 Q48.0777 630.421 51.2339 628.424 Q55.6461 625.654 55.6461 620.985 Q55.6461 620.34 55.5173 619.568 Q55.3885 618.795 54.841 617.216 Q54.2613 615.638 52.7476 614.254 Q51.2339 612.869 48.8507 612.064 Q47.9167 611.87 47.9489 611.226 Q47.9489 610.357 48.7219 610.357 Q49.3016 610.357 50.622 611.001 Q51.9102 611.613 53.4561 612.804 Q55.002 613.996 56.1614 616.315 Q57.3208 618.601 57.3208 621.371 Q57.3208 627.168 52.9408 631.548 Q48.5286 635.896 42.0553 635.896 M39.9619 630.356 L39.9619 614.704 Q38.577 614.704 37.0311 614.962 Q35.4853 615.188 33.3597 615.896 Q31.2019 616.572 29.8492 618.183 Q28.4966 619.793 28.4966 622.176 Q28.4966 623.239 28.9475 624.398 Q29.3983 625.526 30.4933 626.91 Q31.5883 628.295 34.0682 629.261 Q36.548 630.228 39.9619 630.356 Z" clip-path="url(#clip520)"/><path fill="#000" fill-opacity="1" fill-rule="evenodd" d="M73.0695 580.754 L7.11189 580.754 L7.11189 570.802 L8.62557 570.802 L8.62557 576.341 L71.5558 576.341 L71.5558 570.802 L73.0695 570.802 L73.0695 580.754 Z" clip-path="url(#clip520)"/><path fill="#000" fill-opacity="1" fill-rule="evenodd" d="M55.7105 568.147 L47.015 568.147 Q46.2742 568.147 46.0166 568.115 Q45.7589 568.083 45.5657 567.89 Q45.3725 567.696 45.3725 567.31 Q45.3725 566.859 45.5657 566.698 Q45.7589 566.505 46.4997 566.376 Q51.0407 565.378 53.4561 563.252 Q55.8394 561.094 55.8394 557.197 Q55.8394 553.494 54.1969 551.626 Q52.5544 549.758 49.8491 549.758 Q45.0182 549.758 43.7944 556.618 Q42.9892 560.579 42.4739 562.221 Q41.9264 563.864 40.7348 565.313 Q38.416 568.147 35.131 568.147 Q31.846 568.147 29.4306 565.667 Q27.0151 563.155 27.0151 557.616 Q27.0151 553.912 28.8831 551.4 Q28.3033 550.66 27.8203 550.273 Q27.0151 549.404 27.0151 548.953 Q27.0151 548.437 27.3694 548.341 Q27.6914 548.244 28.6254 548.244 L35.2598 548.244 Q36.0005 548.244 36.2582 548.276 Q36.5158 548.309 36.7091 548.502 Q36.8701 548.695 36.8701 549.114 Q36.8701 549.854 36.2582 549.887 Q28.2711 550.402 28.2711 557.616 Q28.2711 561.513 29.7848 563.252 Q31.2663 564.991 33.2953 564.991 Q34.4225 564.991 35.292 564.476 Q36.1294 563.928 36.6447 563.252 Q37.1278 562.544 37.6108 561.255 Q38.0617 559.967 38.2228 559.194 Q38.3838 558.389 38.7058 556.875 Q39.7042 551.594 41.862 549.371 Q44.6317 546.602 48.1422 546.602 Q52.0391 546.602 54.6799 549.242 Q57.3208 551.883 57.3208 557.197 Q57.3208 561.481 54.4545 564.476 Q54.841 564.862 55.1952 565.152 Q55.5173 565.442 55.6461 565.571 Q55.7749 565.667 55.8716 565.7 Q55.936 565.732 56.0004 565.796 Q57.3208 567.117 57.3208 567.439 Q57.3208 567.954 56.9666 568.051 Q56.6445 568.147 55.7105 568.147 Z" clip-path="url(#clip520)"/><path fill="#000" fill-opacity="1" fill-rule="evenodd" d="M71.5558 544.021 L71.5558 538.482 L8.62557 538.482 L8.62557 544.021 L7.11189 544.021 L7.11189 534.07 L73.0695 534.07 L73.0695 544.021 L71.5558 544.021 Z" clip-path="url(#clip520)"/><path fill="#000" fill-opacity="1" fill-rule="evenodd" d="M482.339 200.443 Q477.772 195.665 477.772 188.849 Q477.772 181.998 482.269 177.079 Q486.766 172.125 493.371 172.125 Q497.763 172.125 501.066 174.233 Q504.368 176.306 504.368 179.855 Q504.368 181.436 503.42 182.349 Q502.506 183.227 501.066 183.227 Q499.555 183.227 498.642 182.314 Q497.763 181.365 497.763 179.925 Q497.763 179.292 497.974 178.66 Q498.185 178.028 498.958 177.36 Q499.766 176.693 501.136 176.587 Q498.571 173.952 493.582 173.952 Q493.512 173.952 493.442 173.952 Q489.788 173.952 486.766 177.395 Q483.745 180.838 483.745 188.708 Q483.745 192.819 484.729 195.84 Q485.747 198.827 487.399 200.373 Q489.05 201.918 490.666 202.656 Q492.282 203.359 493.863 203.359 Q500.925 203.359 503.314 195.805 Q503.525 195.103 504.228 195.103 Q505.176 195.103 505.176 195.805 Q505.176 196.157 504.895 197.07 Q504.614 197.984 503.736 199.424 Q502.858 200.864 501.593 202.129 Q500.363 203.359 498.15 204.272 Q495.971 205.186 493.231 205.186 Q486.907 205.186 482.339 200.443 Z" clip-path="url(#clip520)"/><path fill="#000" fill-opacity="1" fill-rule="evenodd" d="M508.702 204.378 L508.702 202.164 Q512.532 202.164 513.41 201.708 Q514.288 201.216 514.288 198.897 L514.288 161.48 Q514.288 158.809 513.34 158.142 Q512.426 157.474 508.702 157.474 L508.702 155.226 L519.031 154.453 L519.031 179.468 L519.102 179.468 Q520.261 176.868 522.861 174.725 Q525.461 172.582 529.466 172.582 Q534.877 172.582 537.02 175.252 Q538.601 177.044 538.917 179.046 Q539.268 181.049 539.268 186.249 L539.268 199.986 Q539.339 201.497 540.498 201.848 Q541.658 202.164 544.89 202.164 L544.89 204.378 Q537.547 204.167 536.809 204.167 Q536.247 204.167 528.693 204.378 L528.693 202.164 Q532.523 202.164 533.401 201.708 Q534.315 201.216 534.315 198.897 L534.315 182.138 Q534.315 178.484 533.19 176.341 Q532.066 174.163 528.974 174.163 Q525.25 174.163 522.264 177.29 Q519.277 180.417 519.277 185.687 L519.277 198.897 Q519.277 201.216 520.156 201.708 Q521.069 202.164 524.864 202.164 L524.864 204.378 Q517.521 204.167 516.818 204.167 Q516.256 204.167 508.702 204.378 Z" clip-path="url(#clip520)"/><path fill="#000" fill-opacity="1" fill-rule="evenodd" d="M545.928 175.603 L545.928 173.355 L556.504 172.582 L556.504 196.473 Q556.504 198.194 556.644 199.213 Q556.785 200.197 557.347 201.356 Q557.944 202.516 559.279 203.043 Q560.649 203.57 562.828 203.57 Q566.727 203.57 569.117 200.373 Q571.541 197.175 571.541 192.432 L571.541 179.609 Q571.541 176.938 570.592 176.271 Q569.644 175.603 565.919 175.603 L565.919 173.355 L576.495 172.582 L576.495 198.124 Q576.495 200.794 577.408 201.497 Q578.357 202.164 582.116 202.164 L582.116 204.378 L571.752 205.186 L571.752 198.686 Q568.73 205.151 562.476 205.186 Q559.314 205.186 557.136 204.378 Q554.993 203.57 553.904 202.586 Q552.815 201.567 552.217 199.635 Q551.655 197.702 551.585 196.508 Q551.515 195.313 551.515 192.995 L551.515 182.208 Q551.515 177.325 550.812 176.482 Q550.109 175.603 545.928 175.603 Z" clip-path="url(#clip520)"/><path fill="#000" fill-opacity="1" fill-rule="evenodd" d="M584.594 204.378 L584.594 202.164 Q588.424 202.164 589.302 201.708 Q590.181 201.216 590.181 198.897 L590.181 179.609 Q590.181 176.938 589.232 176.271 Q588.319 175.603 584.594 175.603 L584.594 173.355 L594.713 172.582 L594.713 180.136 Q598.086 172.582 605.358 172.582 Q610.769 172.582 612.912 175.252 Q614.493 177.044 614.809 179.046 Q615.161 181.049 615.161 186.249 L615.161 199.986 Q615.231 201.497 616.39 201.848 Q617.55 202.164 620.782 202.164 L620.782 204.378 Q613.439 204.167 612.701 204.167 Q612.139 204.167 604.586 204.378 L604.586 202.164 Q608.415 202.164 609.293 201.708 Q610.207 201.216 610.207 198.897 L610.207 182.138 Q610.207 178.484 609.083 176.341 Q607.958 174.163 604.867 174.163 Q601.142 174.163 598.156 177.29 Q595.17 180.417 595.17 185.687 L595.17 198.897 Q595.17 201.216 596.048 201.708 Q596.962 202.164 600.756 202.164 L600.756 204.378 Q593.413 204.167 592.71 204.167 Q592.148 204.167 584.594 204.378 Z" clip-path="url(#clip520)"/><path fill="#000" fill-opacity="1" fill-rule="evenodd" d="M625.853 204.378 L625.853 202.164 Q629.682 202.164 630.561 201.708 Q631.474 201.216 631.474 198.897 L631.474 161.48 Q631.474 158.809 630.525 158.142 Q629.612 157.474 625.853 157.474 L625.853 155.226 L636.217 154.453 L636.217 188.989 L646.371 180.206 Q647.952 178.836 647.952 177.395 Q647.952 175.744 645.879 175.603 L645.879 173.355 Q648.9 173.566 653.924 173.566 Q656.876 173.566 658.949 173.355 L658.949 175.603 Q654.416 175.814 649.884 179.468 Q648.865 180.276 646.441 182.384 Q644.052 184.457 644.052 184.668 Q644.052 184.738 644.122 184.914 Q644.228 185.089 644.368 185.23 Q644.509 185.371 644.509 185.441 L653.643 198.335 Q655.505 200.935 656.876 201.567 Q658.246 202.164 660.635 202.164 L660.635 204.378 Q657.543 204.167 654.346 204.167 Q652.624 204.167 646.581 204.378 L646.581 202.164 Q649.181 202.164 649.181 200.478 Q649.181 199.319 643.349 191.273 Q642.928 190.711 641.979 189.481 Q641.101 188.181 640.609 187.549 L636.006 191.484 L636.006 198.897 Q636.006 201.216 636.885 201.708 Q637.798 202.164 641.628 202.164 L641.628 204.378 Q637.306 204.167 633.723 204.167 Q632.985 204.167 625.853 204.378 Z" clip-path="url(#clip520)"/><path fill="#000" fill-opacity="1" fill-rule="evenodd" d="M664.627 203.429 L664.627 193.943 Q664.627 193.135 664.662 192.854 Q664.698 192.573 664.908 192.362 Q665.119 192.151 665.541 192.151 Q666.033 192.151 666.208 192.362 Q666.419 192.573 666.56 193.381 Q667.649 198.335 669.968 200.97 Q672.322 203.57 676.573 203.57 Q680.613 203.57 682.651 201.778 Q684.689 199.986 684.689 197.035 Q684.689 191.765 677.205 190.43 Q672.884 189.551 671.092 188.989 Q669.3 188.392 667.719 187.092 Q664.627 184.562 664.627 180.979 Q664.627 177.395 667.333 174.76 Q670.073 172.125 676.116 172.125 Q680.156 172.125 682.897 174.163 Q683.705 173.53 684.126 173.003 Q685.075 172.125 685.567 172.125 Q686.129 172.125 686.235 172.512 Q686.34 172.863 686.34 173.882 L686.34 181.119 Q686.34 181.927 686.305 182.208 Q686.27 182.49 686.059 182.7 Q685.848 182.876 685.391 182.876 Q684.583 182.876 684.548 182.208 Q683.986 173.495 676.116 173.495 Q671.865 173.495 669.968 175.147 Q668.07 176.763 668.07 178.976 Q668.07 180.206 668.633 181.154 Q669.23 182.068 669.968 182.63 Q670.741 183.157 672.146 183.684 Q673.551 184.176 674.394 184.352 Q675.273 184.527 676.924 184.879 Q682.686 185.968 685.11 188.322 Q688.132 191.343 688.132 195.173 Q688.132 199.424 685.251 202.305 Q682.37 205.186 676.573 205.186 Q671.9 205.186 668.633 202.059 Q668.211 202.481 667.895 202.867 Q667.579 203.218 667.438 203.359 Q667.333 203.5 667.297 203.605 Q667.262 203.675 667.192 203.745 Q665.752 205.186 665.4 205.186 Q664.838 205.186 664.733 204.799 Q664.627 204.448 664.627 203.429 Z" clip-path="url(#clip520)"/><path fill="#000" fill-opacity="1" fill-rule="evenodd" d="M690.946 204.378 L690.946 202.164 Q694.776 202.164 695.654 201.708 Q696.532 201.216 696.532 198.897 L696.532 179.538 Q696.532 176.868 695.619 176.236 Q694.741 175.603 691.227 175.603 L691.227 173.355 L701.276 172.582 L701.276 198.967 Q701.276 201.11 702.048 201.637 Q702.821 202.164 706.335 202.164 L706.335 204.378 Q698.992 204.167 698.851 204.167 Q697.868 204.167 690.946 204.378 M693.968 160.039 Q693.968 158.599 695.057 157.439 Q696.181 156.245 697.762 156.245 Q699.343 156.245 700.467 157.334 Q701.592 158.388 701.592 160.074 Q701.592 161.726 700.467 162.815 Q699.343 163.869 697.762 163.869 Q696.111 163.869 695.022 162.709 Q693.968 161.55 693.968 160.039 Z" clip-path="url(#clip520)"/><path fill="#000" fill-opacity="1" fill-rule="evenodd" d="M712.692 203.359 Q712.692 202.867 713.36 202.059 L733.421 174.936 L725.235 174.936 Q719.544 174.936 717.681 177.044 Q715.855 179.117 715.503 184.949 L713.711 184.949 L714.519 173.355 L737.532 173.355 Q738.34 173.355 738.656 173.39 Q738.972 173.425 739.183 173.671 Q739.394 173.882 739.394 174.303 Q739.394 174.725 738.762 175.533 L718.735 202.586 L727.238 202.586 Q733.211 202.586 735.213 200.092 Q737.251 197.597 737.743 190.922 L739.535 190.922 L738.305 204.378 L714.59 204.378 Q713.43 204.378 713.044 204.237 Q712.692 204.062 712.692 203.359 Z" clip-path="url(#clip520)"/><path fill="#000" fill-opacity="1" fill-rule="evenodd" d="M747.204 188.533 Q747.204 181.752 751.56 176.938 Q755.917 172.125 762.171 172.125 Q768.495 172.125 771.762 176.236 Q775.065 180.346 775.065 186.249 Q775.065 187.338 774.784 187.549 Q774.502 187.76 773.273 187.76 L753.176 187.76 Q753.176 195.103 755.355 198.546 Q758.376 203.359 763.47 203.359 Q764.173 203.359 765.016 203.218 Q765.86 203.078 767.581 202.481 Q769.303 201.848 770.813 200.197 Q772.324 198.546 773.202 195.946 Q773.413 194.927 774.116 194.962 Q775.065 194.962 775.065 195.805 Q775.065 196.438 774.362 197.878 Q773.694 199.283 772.394 200.97 Q771.094 202.656 768.565 203.921 Q766.07 205.186 763.049 205.186 Q756.725 205.186 751.947 200.408 Q747.204 195.594 747.204 188.533 M753.247 186.249 L770.322 186.249 Q770.322 184.738 770.04 183.052 Q769.795 181.365 769.022 179.046 Q768.284 176.693 766.527 175.217 Q764.77 173.741 762.171 173.741 Q761.011 173.741 759.746 174.233 Q758.517 174.725 757.006 175.92 Q755.495 177.114 754.441 179.819 Q753.387 182.525 753.247 186.249 Z" clip-path="url(#clip520)"/><path fill="#000" fill-opacity="1" fill-rule="evenodd" d="M799.921 203.289 Q798.796 202.164 798.796 200.583 Q798.796 199.002 799.921 197.878 Q801.045 196.754 802.626 196.754 Q804.207 196.754 805.331 197.878 Q806.455 199.002 806.455 200.583 Q806.455 202.164 805.331 203.289 Q804.207 204.378 802.626 204.378 Q801.045 204.378 799.921 203.289 M799.921 179.89 Q798.796 178.765 798.796 177.184 Q798.796 175.603 799.921 174.479 Q801.045 173.355 802.626 173.355 Q804.207 173.355 805.331 174.479 Q806.455 175.603 806.455 177.184 Q806.455 178.765 805.331 179.89 Q804.207 180.979 802.626 180.979 Q801.045 180.979 799.921 179.89 Z" clip-path="url(#clip520)"/><path fill="#000" fill-opacity="1" fill-rule="evenodd" d="M838.488 163.307 L838.488 161.058 Q847.131 161.058 851.593 156.456 Q852.823 156.456 853.033 156.737 Q853.244 157.018 853.244 158.318 L853.244 198.686 Q853.244 200.829 854.298 201.497 Q855.352 202.164 859.955 202.164 L862.238 202.164 L862.238 204.378 Q859.709 204.167 850.574 204.167 Q841.439 204.167 838.945 204.378 L838.945 202.164 L841.229 202.164 Q845.761 202.164 846.85 201.532 Q847.939 200.864 847.939 198.686 L847.939 161.409 Q844.18 163.307 838.488 163.307 Z" clip-path="url(#clip520)"/><path fill="#000" fill-opacity="1" fill-rule="evenodd" d="M874.121 181.365 Q874.121 170.79 876.791 165.028 Q880.515 156.456 889.299 156.456 Q891.161 156.456 893.093 156.983 Q895.061 157.474 897.52 159.407 Q900.014 161.339 901.525 164.501 Q904.406 170.614 904.406 181.365 Q904.406 191.87 901.736 197.597 Q897.836 205.959 889.228 205.959 Q885.996 205.959 882.694 204.308 Q879.426 202.656 877.353 198.686 Q874.121 192.749 874.121 181.365 M880.094 180.487 Q880.094 191.343 880.867 195.665 Q881.745 200.337 884.134 202.375 Q886.558 204.378 889.228 204.378 Q892.109 204.378 894.498 202.235 Q896.923 200.056 897.66 195.384 Q898.469 190.781 898.433 180.487 Q898.433 170.474 897.731 166.469 Q896.782 161.796 894.253 159.934 Q891.758 158.037 889.228 158.037 Q888.28 158.037 887.261 158.318 Q886.277 158.599 884.837 159.407 Q883.396 160.215 882.272 162.217 Q881.183 164.22 880.656 167.242 Q880.094 171.141 880.094 180.487 Z" clip-path="url(#clip520)"/><path fill="#000" fill-opacity="1" fill-rule="evenodd" d="M911.785 149.872 Q911.785 141.953 915.819 137.108 Q919.852 132.238 925.041 132.238 Q928.066 132.238 929.739 133.788 Q931.436 135.312 931.436 137.673 Q931.436 138.977 930.673 139.542 Q929.911 140.108 929.124 140.108 Q928.214 140.108 927.501 139.493 Q926.787 138.878 926.787 137.772 Q926.787 135.509 929.566 135.509 Q928.263 133.492 925.14 133.492 Q924.18 133.492 923.197 133.788 Q922.213 134.058 920.934 134.993 Q919.655 135.927 918.672 137.403 Q917.688 138.878 916.999 141.657 Q916.311 144.437 916.311 148.052 L916.311 149.257 Q918.376 144.264 922.606 144.289 Q926.837 144.289 929.763 147.511 Q932.69 150.733 932.69 155.504 Q932.69 160.398 929.64 163.644 Q926.591 166.89 922.311 166.89 Q920.393 166.89 918.647 166.079 Q916.925 165.292 915.302 163.472 Q913.704 161.652 912.744 158.16 Q911.785 154.667 911.785 149.872 M916.409 154.397 Q916.409 159.34 917.319 161.701 Q917.466 162.095 917.786 162.636 Q918.13 163.177 918.696 163.89 Q919.286 164.579 920.245 165.046 Q921.205 165.489 922.311 165.489 Q925.681 165.489 927.304 162.218 Q928.165 160.398 928.165 155.454 Q928.165 150.413 927.255 148.568 Q925.705 145.445 922.557 145.445 Q920.442 145.445 918.967 146.896 Q917.516 148.347 916.95 150.29 Q916.409 152.233 916.409 154.397 Z" clip-path="url(#clip520)"/><polyline style="stroke:#009af9;stroke-linecap:butt;stroke-linejoin:round;stroke-width:4;stroke-opacity:1;fill:none" points="266.066 803.093 561.336 682.456 856.606 500.944 1062.99 377.699 1151.88 322.579" clip-path="url(#clip523)"/><polyline style="stroke:#e26f46;stroke-linecap:butt;stroke-linejoin:round;stroke-width:4;stroke-opacity:1;fill:none" points="266.066 806.515 561.336 717.035 856.606 549.318 1062.99 412.07 1151.88 254.297" clip-path="url(#clip523)"/><polyline style="stroke:#3da44d;stroke-linecap:butt;stroke-linejoin:round;stroke-width:4;stroke-opacity:1;fill:none" points="266.066 1015.38 561.336 868.723 856.606 689.844 1062.99 571.339 1151.88 308.536" clip-path="url(#clip523)"/><path fill="#fff" fill-opacity="1" fill-rule="evenodd" d="M270.791 456.453 L693.034 456.453 L693.034 249.093 L270.791 249.093 Z" clip-path="url(#clip520)"/><polyline style="stroke:#000;stroke-linecap:butt;stroke-linejoin:round;stroke-width:4;stroke-opacity:1;fill:none" points="270.791 456.453 693.034 456.453 693.034 249.093 270.791 249.093 270.791 456.453" clip-path="url(#clip520)"/><polyline style="stroke:#009af9;stroke-linecap:butt;stroke-linejoin:round;stroke-width:4;stroke-opacity:1;fill:none" points="281.224 300.933 343.821 300.933" clip-path="url(#clip520)"/><path fill="#000" fill-opacity="1" fill-rule="evenodd" d="M358.93 287.495 L358.93 314.37 L364.578 314.37 Q371.73 314.37 375.041 311.129 Q378.374 307.889 378.374 300.898 Q378.374 293.954 375.041 290.736 Q371.73 287.495 364.578 287.495 L358.93 287.495 M354.254 283.653 L363.86 283.653 Q373.906 283.653 378.605 287.842 Q383.304 292.009 383.304 300.898 Q383.304 309.833 378.582 314.023 Q373.86 318.213 363.86 318.213 L354.254 318.213 L354.254 283.653 Z" clip-path="url(#clip520)"/><path fill="#000" fill-opacity="1" fill-rule="evenodd" d="M385.966 283.653 L415.202 283.653 L415.202 287.588 L402.934 287.588 L402.934 318.213 L398.235 318.213 L398.235 287.588 L385.966 287.588 L385.966 283.653 Z" clip-path="url(#clip520)"/><path fill="#000" fill-opacity="1" fill-rule="evenodd" d="M423.466 305.18 Q418.304 305.18 416.314 306.361 Q414.323 307.541 414.323 310.389 Q414.323 312.657 415.804 314 Q417.309 315.319 419.878 315.319 Q423.42 315.319 425.55 312.819 Q427.702 310.296 427.702 306.129 L427.702 305.18 L423.466 305.18 M431.962 303.421 L431.962 318.213 L427.702 318.213 L427.702 314.277 Q426.244 316.639 424.068 317.773 Q421.892 318.884 418.744 318.884 Q414.763 318.884 412.402 316.662 Q410.064 314.416 410.064 310.666 Q410.064 306.291 412.98 304.069 Q415.92 301.847 421.73 301.847 L427.702 301.847 L427.702 301.43 Q427.702 298.491 425.758 296.893 Q423.837 295.273 420.341 295.273 Q418.119 295.273 416.013 295.805 Q413.906 296.338 411.962 297.403 L411.962 293.467 Q414.3 292.565 416.499 292.125 Q418.698 291.662 420.781 291.662 Q426.406 291.662 429.184 294.579 Q431.962 297.495 431.962 303.421 Z" clip-path="url(#clip520)"/><path fill="#000" fill-opacity="1" fill-rule="evenodd" d="M459.346 305.273 Q459.346 300.574 457.401 297.912 Q455.48 295.227 452.1 295.227 Q448.721 295.227 446.776 297.912 Q444.855 300.574 444.855 305.273 Q444.855 309.972 446.776 312.657 Q448.721 315.319 452.1 315.319 Q455.48 315.319 457.401 312.657 Q459.346 309.972 459.346 305.273 M444.855 296.222 Q446.198 293.907 448.235 292.796 Q450.295 291.662 453.142 291.662 Q457.864 291.662 460.804 295.412 Q463.767 299.162 463.767 305.273 Q463.767 311.384 460.804 315.134 Q457.864 318.884 453.142 318.884 Q450.295 318.884 448.235 317.773 Q446.198 316.639 444.855 314.324 L444.855 318.213 L440.573 318.213 L440.573 282.194 L444.855 282.194 L444.855 296.222 Z" clip-path="url(#clip520)"/><path fill="#000" fill-opacity="1" fill-rule="evenodd" d="M470.827 282.194 L475.086 282.194 L475.086 318.213 L470.827 318.213 L470.827 282.194 Z" clip-path="url(#clip520)"/><path fill="#000" fill-opacity="1" fill-rule="evenodd" d="M506.174 304.185 L506.174 306.268 L486.591 306.268 Q486.869 310.666 489.23 312.981 Q491.614 315.273 495.85 315.273 Q498.304 315.273 500.595 314.671 Q502.91 314.069 505.179 312.865 L505.179 316.893 Q502.887 317.865 500.48 318.375 Q498.072 318.884 495.596 318.884 Q489.392 318.884 485.758 315.273 Q482.147 311.662 482.147 305.504 Q482.147 299.139 485.572 295.412 Q489.021 291.662 494.855 291.662 Q500.086 291.662 503.119 295.041 Q506.174 298.398 506.174 304.185 M501.915 302.935 Q501.869 299.44 499.947 297.356 Q498.049 295.273 494.901 295.273 Q491.336 295.273 489.184 297.287 Q487.054 299.301 486.73 302.958 L501.915 302.935 Z" clip-path="url(#clip520)"/><polyline style="stroke:#e26f46;stroke-linecap:butt;stroke-linejoin:round;stroke-width:4;stroke-opacity:1;fill:none" points="281.224 352.773 343.821 352.773" clip-path="url(#clip520)"/><path fill="#000" fill-opacity="1" fill-rule="evenodd" d="M358.93 339.335 L358.93 366.21 L364.578 366.21 Q371.73 366.21 375.041 362.969 Q378.374 359.729 378.374 352.738 Q378.374 345.794 375.041 342.576 Q371.73 339.335 364.578 339.335 L358.93 339.335 M354.254 335.493 L363.86 335.493 Q373.906 335.493 378.605 339.682 Q383.304 343.849 383.304 352.738 Q383.304 361.673 378.582 365.863 Q373.86 370.053 363.86 370.053 L354.254 370.053 L354.254 335.493 Z" clip-path="url(#clip520)"/><path fill="#000" fill-opacity="1" fill-rule="evenodd" d="M402.355 357.02 Q397.193 357.02 395.203 358.201 Q393.212 359.381 393.212 362.229 Q393.212 364.497 394.693 365.84 Q396.198 367.159 398.767 367.159 Q402.309 367.159 404.439 364.659 Q406.591 362.136 406.591 357.969 L406.591 357.02 L402.355 357.02 M410.851 355.261 L410.851 370.053 L406.591 370.053 L406.591 366.117 Q405.133 368.479 402.957 369.613 Q400.781 370.724 397.633 370.724 Q393.652 370.724 391.291 368.502 Q388.953 366.256 388.953 362.506 Q388.953 358.131 391.869 355.909 Q394.809 353.687 400.619 353.687 L406.591 353.687 L406.591 353.27 Q406.591 350.331 404.647 348.733 Q402.726 347.113 399.23 347.113 Q397.008 347.113 394.902 347.645 Q392.795 348.178 390.851 349.243 L390.851 345.307 Q393.189 344.405 395.388 343.965 Q397.587 343.502 399.67 343.502 Q405.295 343.502 408.073 346.419 Q410.851 349.335 410.851 355.261 Z" clip-path="url(#clip520)"/><path fill="#000" fill-opacity="1" fill-rule="evenodd" d="M436.151 344.891 L436.151 348.918 Q434.346 347.993 432.401 347.53 Q430.457 347.067 428.374 347.067 Q425.202 347.067 423.605 348.039 Q422.031 349.011 422.031 350.956 Q422.031 352.437 423.165 353.293 Q424.3 354.127 427.726 354.891 L429.184 355.215 Q433.721 356.187 435.619 357.969 Q437.54 359.729 437.54 362.9 Q437.54 366.511 434.67 368.617 Q431.823 370.724 426.823 370.724 Q424.739 370.724 422.471 370.307 Q420.226 369.914 417.726 369.104 L417.726 364.705 Q420.087 365.932 422.378 366.557 Q424.67 367.159 426.915 367.159 Q429.925 367.159 431.545 366.141 Q433.165 365.099 433.165 363.224 Q433.165 361.488 431.985 360.562 Q430.827 359.636 426.869 358.78 L425.388 358.432 Q421.429 357.599 419.67 355.886 Q417.911 354.15 417.911 351.141 Q417.911 347.483 420.503 345.493 Q423.096 343.502 427.864 343.502 Q430.225 343.502 432.309 343.849 Q434.392 344.196 436.151 344.891 Z" clip-path="url(#clip520)"/><path fill="#000" fill-opacity="1" fill-rule="evenodd" d="M444.161 334.034 L448.443 334.034 L448.443 355.307 L461.151 344.127 L466.591 344.127 L452.841 356.256 L467.17 370.053 L461.614 370.053 L448.443 357.391 L448.443 370.053 L444.161 370.053 L444.161 334.034 Z" clip-path="url(#clip520)"/><polyline style="stroke:#3da44d;stroke-linecap:butt;stroke-linejoin:round;stroke-width:4;stroke-opacity:1;fill:none" points="281.224 404.613 343.821 404.613" clip-path="url(#clip520)"/><path fill="#000" fill-opacity="1" fill-rule="evenodd" d="M358.93 391.175 L358.93 418.05 L364.578 418.05 Q371.73 418.05 375.041 414.809 Q378.374 411.569 378.374 404.578 Q378.374 397.634 375.041 394.416 Q371.73 391.175 364.578 391.175 L358.93 391.175 M354.254 387.333 L363.86 387.333 Q373.906 387.333 378.605 391.522 Q383.304 395.689 383.304 404.578 Q383.304 413.513 378.582 417.703 Q373.86 421.893 363.86 421.893 L354.254 421.893 L354.254 387.333 Z" clip-path="url(#clip520)"/><path fill="#000" fill-opacity="1" fill-rule="evenodd" d="M402.355 408.86 Q397.193 408.86 395.203 410.041 Q393.212 411.221 393.212 414.069 Q393.212 416.337 394.693 417.68 Q396.198 418.999 398.767 418.999 Q402.309 418.999 404.439 416.499 Q406.591 413.976 406.591 409.809 L406.591 408.86 L402.355 408.86 M410.851 407.101 L410.851 421.893 L406.591 421.893 L406.591 417.957 Q405.133 420.319 402.957 421.453 Q400.781 422.564 397.633 422.564 Q393.652 422.564 391.291 420.342 Q388.953 418.096 388.953 414.346 Q388.953 409.971 391.869 407.749 Q394.809 405.527 400.619 405.527 L406.591 405.527 L406.591 405.11 Q406.591 402.171 404.647 400.573 Q402.726 398.953 399.23 398.953 Q397.008 398.953 394.902 399.485 Q392.795 400.018 390.851 401.083 L390.851 397.147 Q393.189 396.245 395.388 395.805 Q397.587 395.342 399.67 395.342 Q405.295 395.342 408.073 398.259 Q410.851 401.175 410.851 407.101 Z" clip-path="url(#clip520)"/><path fill="#000" fill-opacity="1" fill-rule="evenodd" d="M423.837 388.606 L423.837 395.967 L432.61 395.967 L432.61 399.277 L423.837 399.277 L423.837 413.351 Q423.837 416.522 424.693 417.425 Q425.573 418.328 428.235 418.328 L432.61 418.328 L432.61 421.893 L428.235 421.893 Q423.304 421.893 421.429 420.064 Q419.554 418.212 419.554 413.351 L419.554 399.277 L416.429 399.277 L416.429 395.967 L419.554 395.967 L419.554 388.606 L423.837 388.606 Z" clip-path="url(#clip520)"/><path fill="#000" fill-opacity="1" fill-rule="evenodd" d="M449.994 408.86 Q444.832 408.86 442.841 410.041 Q440.85 411.221 440.85 414.069 Q440.85 416.337 442.332 417.68 Q443.837 418.999 446.406 418.999 Q449.948 418.999 452.077 416.499 Q454.23 413.976 454.23 409.809 L454.23 408.86 L449.994 408.86 M458.489 407.101 L458.489 421.893 L454.23 421.893 L454.23 417.957 Q452.772 420.319 450.596 421.453 Q448.42 422.564 445.272 422.564 Q441.29 422.564 438.929 420.342 Q436.591 418.096 436.591 414.346 Q436.591 409.971 439.508 407.749 Q442.448 405.527 448.258 405.527 L454.23 405.527 L454.23 405.11 Q454.23 402.171 452.286 400.573 Q450.364 398.953 446.869 398.953 Q444.647 398.953 442.54 399.485 Q440.434 400.018 438.489 401.083 L438.489 397.147 Q440.827 396.245 443.026 395.805 Q445.225 395.342 447.309 395.342 Q452.934 395.342 455.711 398.259 Q458.489 401.175 458.489 407.101 Z" clip-path="url(#clip520)"/><path fill="#000" fill-opacity="1" fill-rule="evenodd" d="M467.448 387.333 L487.309 387.333 L487.309 391.268 L472.123 391.268 L472.123 401.453 L485.827 401.453 L485.827 405.388 L472.123 405.388 L472.123 421.893 L467.448 421.893 L467.448 387.333 Z" clip-path="url(#clip520)"/><path fill="#000" fill-opacity="1" fill-rule="evenodd" d="M506.105 399.948 Q505.387 399.532 504.531 399.346 Q503.697 399.138 502.679 399.138 Q499.068 399.138 497.123 401.499 Q495.202 403.837 495.202 408.235 L495.202 421.893 L490.92 421.893 L490.92 395.967 L495.202 395.967 L495.202 399.995 Q496.545 397.634 498.697 396.499 Q500.85 395.342 503.929 395.342 Q504.369 395.342 504.901 395.411 Q505.433 395.458 506.082 395.573 L506.105 399.948 Z" clip-path="url(#clip520)"/><path fill="#000" fill-opacity="1" fill-rule="evenodd" d="M522.355 408.86 Q517.193 408.86 515.202 410.041 Q513.211 411.221 513.211 414.069 Q513.211 416.337 514.693 417.68 Q516.197 418.999 518.767 418.999 Q522.308 418.999 524.438 416.499 Q526.591 413.976 526.591 409.809 L526.591 408.86 L522.355 408.86 M530.85 407.101 L530.85 421.893 L526.591 421.893 L526.591 417.957 Q525.132 420.319 522.956 421.453 Q520.781 422.564 517.632 422.564 Q513.651 422.564 511.29 420.342 Q508.952 418.096 508.952 414.346 Q508.952 409.971 511.869 407.749 Q514.808 405.527 520.619 405.527 L526.591 405.527 L526.591 405.11 Q526.591 402.171 524.646 400.573 Q522.725 398.953 519.23 398.953 Q517.007 398.953 514.901 399.485 Q512.794 400.018 510.85 401.083 L510.85 397.147 Q513.188 396.245 515.387 395.805 Q517.586 395.342 519.669 395.342 Q525.294 395.342 528.072 398.259 Q530.85 401.175 530.85 407.101 Z" clip-path="url(#clip520)"/><path fill="#000" fill-opacity="1" fill-rule="evenodd" d="M559.808 400.944 Q561.405 398.073 563.628 396.708 Q565.85 395.342 568.859 395.342 Q572.91 395.342 575.109 398.189 Q577.308 401.013 577.308 406.245 L577.308 421.893 L573.026 421.893 L573.026 406.383 Q573.026 402.657 571.706 400.851 Q570.387 399.046 567.678 399.046 Q564.368 399.046 562.447 401.245 Q560.526 403.444 560.526 407.24 L560.526 421.893 L556.243 421.893 L556.243 406.383 Q556.243 402.633 554.924 400.851 Q553.604 399.046 550.85 399.046 Q547.586 399.046 545.665 401.268 Q543.743 403.467 543.743 407.24 L543.743 421.893 L539.461 421.893 L539.461 395.967 L543.743 395.967 L543.743 399.995 Q545.202 397.61 547.239 396.476 Q549.276 395.342 552.077 395.342 Q554.901 395.342 556.868 396.777 Q558.859 398.212 559.808 400.944 Z" clip-path="url(#clip520)"/><path fill="#000" fill-opacity="1" fill-rule="evenodd" d="M607.979 407.865 L607.979 409.948 L588.396 409.948 Q588.674 414.346 591.035 416.661 Q593.419 418.953 597.655 418.953 Q600.109 418.953 602.4 418.351 Q604.715 417.749 606.984 416.545 L606.984 420.573 Q604.692 421.545 602.285 422.055 Q599.877 422.564 597.401 422.564 Q591.197 422.564 587.563 418.953 Q583.952 415.342 583.952 409.184 Q583.952 402.819 587.377 399.092 Q590.826 395.342 596.66 395.342 Q601.891 395.342 604.924 398.721 Q607.979 402.078 607.979 407.865 M603.72 406.615 Q603.674 403.12 601.752 401.036 Q599.854 398.953 596.706 398.953 Q593.141 398.953 590.989 400.967 Q588.859 402.981 588.535 406.638 L603.72 406.615 Z" clip-path="url(#clip520)"/><path fill="#000" fill-opacity="1" fill-rule="evenodd" d="M631.498 396.731 L631.498 400.758 Q629.692 399.833 627.748 399.37 Q625.803 398.907 623.72 398.907 Q620.549 398.907 618.951 399.879 Q617.377 400.851 617.377 402.796 Q617.377 404.277 618.512 405.133 Q619.646 405.967 623.072 406.731 L624.53 407.055 Q629.067 408.027 630.965 409.809 Q632.886 411.569 632.886 414.74 Q632.886 418.351 630.016 420.457 Q627.169 422.564 622.169 422.564 Q620.086 422.564 617.817 422.147 Q615.572 421.754 613.072 420.944 L613.072 416.545 Q615.433 417.772 617.724 418.397 Q620.016 418.999 622.261 418.999 Q625.271 418.999 626.891 417.981 Q628.511 416.939 628.511 415.064 Q628.511 413.328 627.331 412.402 Q626.174 411.476 622.215 410.62 L620.734 410.272 Q616.775 409.439 615.016 407.726 Q613.257 405.99 613.257 402.981 Q613.257 399.323 615.849 397.333 Q618.442 395.342 623.211 395.342 Q625.572 395.342 627.655 395.689 Q629.738 396.036 631.498 396.731 Z" clip-path="url(#clip520)"/><path fill="#000" fill-opacity="1" fill-rule="evenodd" d="M640.271 416.013 L645.155 416.013 L645.155 421.893 L640.271 421.893 L640.271 416.013 Z" clip-path="url(#clip520)"/><path fill="#000" fill-opacity="1" fill-rule="evenodd" d="M654.738 395.967 L658.997 395.967 L658.997 422.356 Q658.997 427.309 657.099 429.531 Q655.224 431.754 651.034 431.754 L649.414 431.754 L649.414 428.143 L650.548 428.143 Q652.979 428.143 653.859 427.008 Q654.738 425.897 654.738 422.356 L654.738 395.967 M654.738 385.874 L658.997 385.874 L658.997 391.268 L654.738 391.268 L654.738 385.874 Z" clip-path="url(#clip520)"/><path fill="#000" fill-opacity="1" fill-rule="evenodd" d="M667.909 385.874 L672.169 385.874 L672.169 421.893 L667.909 421.893 L667.909 385.874 Z" clip-path="url(#clip520)"/><path fill="#fff" fill-opacity="1" fill-rule="evenodd" d="M1413.8 1038.49 L2352.76 1038.49 L2352.76 221.872 L1413.8 221.872 Z" clip-path="url(#clip520)"/><defs><clipPath id="clip524"><rect width="940" height="818" x="1413" y="221"/></clipPath></defs><polyline style="stroke:#000;stroke-linecap:butt;stroke-linejoin:round;stroke-width:2;stroke-opacity:.1;fill:none" points="1440.37 1038.49 1440.37 221.872" clip-path="url(#clip524)"/><polyline style="stroke:#000;stroke-linecap:butt;stroke-linejoin:round;stroke-width:2;stroke-opacity:.1;fill:none" points="1735.64 1038.49 1735.64 221.872" clip-path="url(#clip524)"/><polyline style="stroke:#000;stroke-linecap:butt;stroke-linejoin:round;stroke-width:2;stroke-opacity:.1;fill:none" points="2030.91 1038.49 2030.91 221.872" clip-path="url(#clip524)"/><polyline style="stroke:#000;stroke-linecap:butt;stroke-linejoin:round;stroke-width:2;stroke-opacity:.1;fill:none" points="2326.18 1038.49 2326.18 221.872" clip-path="url(#clip524)"/><polyline style="stroke:#000;stroke-linecap:butt;stroke-linejoin:round;stroke-width:4;stroke-opacity:1;fill:none" points="1413.8 1038.49 2352.76 1038.49" clip-path="url(#clip520)"/><polyline style="stroke:#000;stroke-linecap:butt;stroke-linejoin:round;stroke-width:4;stroke-opacity:1;fill:none" points="1440.37 1038.49 1440.37 1019.59" clip-path="url(#clip520)"/><polyline style="stroke:#000;stroke-linecap:butt;stroke-linejoin:round;stroke-width:4;stroke-opacity:1;fill:none" points="1735.64 1038.49 1735.64 1019.59" clip-path="url(#clip520)"/><polyline style="stroke:#000;stroke-linecap:butt;stroke-linejoin:round;stroke-width:4;stroke-opacity:1;fill:none" points="2030.91 1038.49 2030.91 1019.59" clip-path="url(#clip520)"/><polyline style="stroke:#000;stroke-linecap:butt;stroke-linejoin:round;stroke-width:4;stroke-opacity:1;fill:none" points="2326.18 1038.49 2326.18 1019.59" clip-path="url(#clip520)"/><path fill="#000" fill-opacity="1" fill-rule="evenodd" d="M1405.36 1112.61 L1413 1112.61 L1413 1086.25 L1404.69 1087.91 L1404.69 1083.65 L1412.96 1081.99 L1417.63 1081.99 L1417.63 1112.61 L1425.27 1112.61 L1425.27 1116.55 L1405.36 1116.55 L1405.36 1112.61 Z" clip-path="url(#clip520)"/><path fill="#000" fill-opacity="1" fill-rule="evenodd" d="M1444.72 1085.07 Q1441.11 1085.07 1439.28 1088.63 Q1437.47 1092.17 1437.47 1099.3 Q1437.47 1106.41 1439.28 1109.97 Q1441.11 1113.52 1444.72 1113.52 Q1448.35 1113.52 1450.16 1109.97 Q1451.98 1106.41 1451.98 1099.3 Q1451.98 1092.17 1450.16 1088.63 Q1448.35 1085.07 1444.72 1085.07 M1444.72 1081.36 Q1450.53 1081.36 1453.58 1085.97 Q1456.66 1090.55 1456.66 1099.3 Q1456.66 1108.03 1453.58 1112.64 Q1450.53 1117.22 1444.72 1117.22 Q1438.91 1117.22 1435.83 1112.64 Q1432.77 1108.03 1432.77 1099.3 Q1432.77 1090.55 1435.83 1085.97 Q1438.91 1081.36 1444.72 1081.36 Z" clip-path="url(#clip520)"/><path fill="#000" fill-opacity="1" fill-rule="evenodd" d="M1466.69 1073.58 Q1464.13 1073.58 1462.62 1075.33 Q1461.14 1077.08 1461.14 1080.13 Q1461.14 1083.16 1462.62 1084.92 Q1464.13 1086.67 1466.69 1086.67 Q1469.24 1086.67 1470.73 1084.92 Q1472.23 1083.16 1472.23 1080.13 Q1472.23 1077.08 1470.73 1075.33 Q1469.24 1073.58 1466.69 1073.58 M1474.23 1061.68 L1474.23 1065.14 Q1472.8 1064.46 1471.33 1064.1 Q1469.88 1063.75 1468.45 1063.75 Q1464.69 1063.75 1462.7 1066.29 Q1460.72 1068.82 1460.44 1073.96 Q1461.55 1072.32 1463.22 1071.46 Q1464.9 1070.57 1466.91 1070.57 Q1471.14 1070.57 1473.59 1073.15 Q1476.05 1075.71 1476.05 1080.13 Q1476.05 1084.45 1473.49 1087.07 Q1470.94 1089.68 1466.69 1089.68 Q1461.81 1089.68 1459.24 1085.96 Q1456.66 1082.22 1456.66 1075.13 Q1456.66 1068.47 1459.82 1064.52 Q1462.98 1060.55 1468.3 1060.55 Q1469.73 1060.55 1471.18 1060.83 Q1472.65 1061.11 1474.23 1061.68 Z" clip-path="url(#clip520)"/><path fill="#000" fill-opacity="1" fill-rule="evenodd" d="M1701.3 1112.61 L1708.94 1112.61 L1708.94 1086.25 L1700.63 1087.91 L1700.63 1083.65 L1708.89 1081.99 L1713.57 1081.99 L1713.57 1112.61 L1721.21 1112.61 L1721.21 1116.55 L1701.3 1116.55 L1701.3 1112.61 Z" clip-path="url(#clip520)"/><path fill="#000" fill-opacity="1" fill-rule="evenodd" d="M1740.65 1085.07 Q1737.04 1085.07 1735.21 1088.63 Q1733.41 1092.17 1733.41 1099.3 Q1733.41 1106.41 1735.21 1109.97 Q1737.04 1113.52 1740.65 1113.52 Q1744.29 1113.52 1746.09 1109.97 Q1747.92 1106.41 1747.92 1099.3 Q1747.92 1092.17 1746.09 1088.63 Q1744.29 1085.07 1740.65 1085.07 M1740.65 1081.36 Q1746.46 1081.36 1749.52 1085.97 Q1752.6 1090.55 1752.6 1099.3 Q1752.6 1108.03 1749.52 1112.64 Q1746.46 1117.22 1740.65 1117.22 Q1734.84 1117.22 1731.76 1112.64 Q1728.71 1108.03 1728.71 1099.3 Q1728.71 1090.55 1731.76 1085.97 Q1734.84 1081.36 1740.65 1081.36 Z" clip-path="url(#clip520)"/><path fill="#000" fill-opacity="1" fill-rule="evenodd" d="M1752.6 1061.06 L1770.65 1061.06 L1770.65 1062.67 L1760.46 1089.14 L1756.49 1089.14 L1766.08 1064.25 L1752.6 1064.25 L1752.6 1061.06 Z" clip-path="url(#clip520)"/><path fill="#000" fill-opacity="1" fill-rule="evenodd" d="M1995.97 1112.61 L2003.61 1112.61 L2003.61 1086.25 L1995.3 1087.91 L1995.3 1083.65 L2003.56 1081.99 L2008.24 1081.99 L2008.24 1112.61 L2015.88 1112.61 L2015.88 1116.55 L1995.97 1116.55 L1995.97 1112.61 Z" clip-path="url(#clip520)"/><path fill="#000" fill-opacity="1" fill-rule="evenodd" d="M2035.32 1085.07 Q2031.71 1085.07 2029.88 1088.63 Q2028.08 1092.17 2028.08 1099.3 Q2028.08 1106.41 2029.88 1109.97 Q2031.71 1113.52 2035.32 1113.52 Q2038.96 1113.52 2040.76 1109.97 Q2042.59 1106.41 2042.59 1099.3 Q2042.59 1092.17 2040.76 1088.63 Q2038.96 1085.07 2035.32 1085.07 M2035.32 1081.36 Q2041.13 1081.36 2044.19 1085.97 Q2047.27 1090.55 2047.27 1099.3 Q2047.27 1108.03 2044.19 1112.64 Q2041.13 1117.22 2035.32 1117.22 Q2029.51 1117.22 2026.43 1112.64 Q2023.38 1108.03 2023.38 1099.3 Q2023.38 1090.55 2026.43 1085.97 Q2029.51 1081.36 2035.32 1081.36 Z" clip-path="url(#clip520)"/><path fill="#000" fill-opacity="1" fill-rule="evenodd" d="M2056.9 1075.8 Q2054.19 1075.8 2052.63 1077.25 Q2051.08 1078.7 2051.08 1081.24 Q2051.08 1083.78 2052.63 1085.23 Q2054.19 1086.67 2056.9 1086.67 Q2059.6 1086.67 2061.16 1085.23 Q2062.73 1083.76 2062.73 1081.24 Q2062.73 1078.7 2061.16 1077.25 Q2059.62 1075.8 2056.9 1075.8 M2053.1 1074.18 Q2050.65 1073.58 2049.28 1071.91 Q2047.92 1070.24 2047.92 1067.83 Q2047.92 1064.46 2050.31 1062.51 Q2052.72 1060.55 2056.9 1060.55 Q2061.09 1060.55 2063.48 1062.51 Q2065.87 1064.46 2065.87 1067.83 Q2065.87 1070.24 2064.49 1071.91 Q2063.14 1073.58 2060.71 1074.18 Q2063.46 1074.82 2064.98 1076.69 Q2066.53 1078.55 2066.53 1081.24 Q2066.53 1085.32 2064.02 1087.5 Q2061.54 1089.68 2056.9 1089.68 Q2052.25 1089.68 2049.75 1087.5 Q2047.27 1085.32 2047.27 1081.24 Q2047.27 1078.55 2048.81 1076.69 Q2050.35 1074.82 2053.1 1074.18 M2051.7 1068.19 Q2051.7 1070.37 2053.06 1071.59 Q2054.43 1072.81 2056.9 1072.81 Q2059.34 1072.81 2060.71 1071.59 Q2062.11 1070.37 2062.11 1068.19 Q2062.11 1066 2060.71 1064.78 Q2059.34 1063.56 2056.9 1063.56 Q2054.43 1063.56 2053.06 1064.78 Q2051.7 1066 2051.7 1068.19 Z" clip-path="url(#clip520)"/><path fill="#000" fill-opacity="1" fill-rule="evenodd" d="M2291.18 1112.61 L2298.82 1112.61 L2298.82 1086.25 L2290.51 1087.91 L2290.51 1083.65 L2298.78 1081.99 L2303.45 1081.99 L2303.45 1112.61 L2311.09 1112.61 L2311.09 1116.55 L2291.18 1116.55 L2291.18 1112.61 Z" clip-path="url(#clip520)"/><path fill="#000" fill-opacity="1" fill-rule="evenodd" d="M2330.53 1085.07 Q2326.92 1085.07 2325.1 1088.63 Q2323.29 1092.17 2323.29 1099.3 Q2323.29 1106.41 2325.1 1109.97 Q2326.92 1113.52 2330.53 1113.52 Q2334.17 1113.52 2335.97 1109.97 Q2337.8 1106.41 2337.8 1099.3 Q2337.8 1092.17 2335.97 1088.63 Q2334.17 1085.07 2330.53 1085.07 M2330.53 1081.36 Q2336.35 1081.36 2339.4 1085.97 Q2342.48 1090.55 2342.48 1099.3 Q2342.48 1108.03 2339.4 1112.64 Q2336.35 1117.22 2330.53 1117.22 Q2324.72 1117.22 2321.65 1112.64 Q2318.59 1108.03 2318.59 1099.3 Q2318.59 1090.55 2321.65 1085.97 Q2324.72 1081.36 2330.53 1081.36 Z" clip-path="url(#clip520)"/><path fill="#000" fill-opacity="1" fill-rule="evenodd" d="M2344.28 1088.55 L2344.28 1085.09 Q2345.71 1085.77 2347.18 1086.13 Q2348.65 1086.49 2350.06 1086.49 Q2353.82 1086.49 2355.8 1083.96 Q2357.79 1081.43 2358.07 1076.27 Q2356.98 1077.89 2355.31 1078.76 Q2353.63 1079.62 2351.6 1079.62 Q2347.39 1079.62 2344.92 1077.08 Q2342.48 1074.52 2342.48 1070.1 Q2342.48 1065.78 2345.04 1063.16 Q2347.59 1060.55 2351.85 1060.55 Q2356.72 1060.55 2359.27 1064.29 Q2361.85 1068.02 2361.85 1075.13 Q2361.85 1081.76 2358.69 1085.73 Q2355.55 1089.68 2350.23 1089.68 Q2348.8 1089.68 2347.33 1089.4 Q2345.86 1089.12 2344.28 1088.55 M2351.85 1076.65 Q2354.4 1076.65 2355.89 1074.9 Q2357.39 1073.15 2357.39 1070.1 Q2357.39 1067.08 2355.89 1065.33 Q2354.4 1063.56 2351.85 1063.56 Q2349.29 1063.56 2347.78 1065.33 Q2346.3 1067.08 2346.3 1070.1 Q2346.3 1073.15 2347.78 1074.9 Q2349.29 1076.65 2351.85 1076.65 Z" clip-path="url(#clip520)"/><path fill="#000" fill-opacity="1" fill-rule="evenodd" d="M1899.44 1194.53 Q1899.44 1194.79 1899.15 1195.79 Q1898.86 1196.78 1898.15 1198.33 Q1897.48 1199.88 1896.54 1201.29 Q1895.61 1202.68 1894.06 1203.71 Q1892.55 1204.71 1890.81 1204.71 Q1888.49 1204.71 1886.94 1203.16 Q1885.4 1201.62 1885.4 1199.3 Q1885.4 1198.01 1886.07 1196.24 Q1890.36 1184.8 1890.36 1180.87 Q1890.36 1176.27 1886.78 1176.27 Q1885.01 1176.27 1883.34 1176.95 Q1881.69 1177.59 1880.57 1178.49 Q1879.44 1179.39 1878.41 1180.65 Q1877.41 1181.87 1876.9 1182.71 Q1876.41 1183.52 1876.03 1184.32 L1875.19 1187.61 Q1875 1188.51 1874.06 1192.02 L1872.61 1197.98 Q1871.58 1202.42 1871.36 1202.84 Q1871.03 1203.74 1870.33 1204.22 Q1869.62 1204.71 1868.91 1204.71 Q1868.1 1204.71 1867.56 1204.22 Q1867.01 1203.74 1867.01 1202.9 Q1867.01 1202.77 1867.11 1202.29 Q1867.2 1201.81 1867.36 1201.13 Q1867.52 1200.46 1867.59 1200.07 L1871.42 1184.84 Q1872.13 1182.07 1872.29 1181.2 Q1872.48 1180.3 1872.48 1179.3 Q1872.48 1176.27 1870.42 1176.27 Q1868.75 1176.27 1867.65 1178.27 Q1866.56 1180.26 1865.62 1184.13 Q1865.33 1185.19 1865.14 1185.42 Q1864.98 1185.64 1864.5 1185.64 Q1863.69 1185.61 1863.69 1184.97 Q1863.69 1184.8 1863.95 1183.74 Q1864.21 1182.68 1864.69 1181.16 Q1865.21 1179.62 1865.69 1178.59 Q1866.11 1177.82 1866.33 1177.46 Q1866.59 1177.07 1867.2 1176.33 Q1867.85 1175.56 1868.68 1175.21 Q1869.55 1174.82 1870.62 1174.82 Q1873 1174.82 1874.74 1176.37 Q1876.48 1177.88 1876.7 1180.55 Q1880.99 1174.82 1886.98 1174.82 Q1890.52 1174.82 1892.55 1176.69 Q1894.58 1178.56 1894.58 1181.87 Q1894.58 1182.65 1894.42 1183.64 Q1894.29 1184.61 1893.96 1185.83 Q1893.68 1187.06 1893.42 1187.99 Q1893.16 1188.93 1892.64 1190.44 Q1892.13 1191.92 1891.9 1192.57 Q1891.68 1193.21 1891.13 1194.72 Q1890.62 1196.2 1890.55 1196.37 Q1889.36 1199.36 1889.36 1201.07 Q1889.36 1202.2 1889.71 1202.71 Q1890.1 1203.23 1890.94 1203.23 Q1893.19 1203.23 1894.87 1201 Q1896.57 1198.75 1897.67 1195.08 Q1897.93 1194.27 1898.06 1194.08 Q1898.22 1193.89 1898.67 1193.89 Q1899.44 1193.89 1899.44 1194.53 Z" clip-path="url(#clip520)"/><polyline style="stroke:#000;stroke-linecap:butt;stroke-linejoin:round;stroke-width:2;stroke-opacity:.1;fill:none" points="1413.8 921.853 2352.76 921.853" clip-path="url(#clip524)"/><polyline style="stroke:#000;stroke-linecap:butt;stroke-linejoin:round;stroke-width:2;stroke-opacity:.1;fill:none" points="1413.8 748.752 2352.76 748.752" clip-path="url(#clip524)"/><polyline style="stroke:#000;stroke-linecap:butt;stroke-linejoin:round;stroke-width:2;stroke-opacity:.1;fill:none" points="1413.8 575.651 2352.76 575.651" clip-path="url(#clip524)"/><polyline style="stroke:#000;stroke-linecap:butt;stroke-linejoin:round;stroke-width:2;stroke-opacity:.1;fill:none" points="1413.8 402.551 2352.76 402.551" clip-path="url(#clip524)"/><polyline style="stroke:#000;stroke-linecap:butt;stroke-linejoin:round;stroke-width:2;stroke-opacity:.1;fill:none" points="1413.8 229.45 2352.76 229.45" clip-path="url(#clip524)"/><polyline style="stroke:#000;stroke-linecap:butt;stroke-linejoin:round;stroke-width:4;stroke-opacity:1;fill:none" points="1413.8 1038.49 1413.8 221.872" clip-path="url(#clip520)"/><polyline style="stroke:#000;stroke-linecap:butt;stroke-linejoin:round;stroke-width:4;stroke-opacity:1;fill:none" points="1413.8 921.853 1432.7 921.853" clip-path="url(#clip520)"/><polyline style="stroke:#000;stroke-linecap:butt;stroke-linejoin:round;stroke-width:4;stroke-opacity:1;fill:none" points="1413.8 748.752 1432.7 748.752" clip-path="url(#clip520)"/><polyline style="stroke:#000;stroke-linecap:butt;stroke-linejoin:round;stroke-width:4;stroke-opacity:1;fill:none" points="1413.8 575.651 1432.7 575.651" clip-path="url(#clip520)"/><polyline style="stroke:#000;stroke-linecap:butt;stroke-linejoin:round;stroke-width:4;stroke-opacity:1;fill:none" points="1413.8 402.551 1432.7 402.551" clip-path="url(#clip520)"/><polyline style="stroke:#000;stroke-linecap:butt;stroke-linejoin:round;stroke-width:4;stroke-opacity:1;fill:none" points="1413.8 229.45 1432.7 229.45" clip-path="url(#clip520)"/><path fill="#000" fill-opacity="1" fill-rule="evenodd" d="M1277.66 941.646 L1285.3 941.646 L1285.3 915.28 L1276.99 916.947 L1276.99 912.688 L1285.25 911.021 L1289.93 911.021 L1289.93 941.646 L1297.57 941.646 L1297.57 945.581 L1277.66 945.581 L1277.66 941.646 Z" clip-path="url(#clip520)"/><path fill="#000" fill-opacity="1" fill-rule="evenodd" d="M1317.01 914.1 Q1313.4 914.1 1311.57 917.664 Q1309.76 921.206 1309.76 928.336 Q1309.76 935.442 1311.57 939.007 Q1313.4 942.549 1317.01 942.549 Q1320.64 942.549 1322.45 939.007 Q1324.28 935.442 1324.28 928.336 Q1324.28 921.206 1322.45 917.664 Q1320.64 914.1 1317.01 914.1 M1317.01 910.396 Q1322.82 910.396 1325.88 915.002 Q1328.95 919.586 1328.95 928.336 Q1328.95 937.063 1325.88 941.669 Q1322.82 946.252 1317.01 946.252 Q1311.2 946.252 1308.12 941.669 Q1305.07 937.063 1305.07 928.336 Q1305.07 919.586 1308.12 915.002 Q1311.2 910.396 1317.01 910.396 Z" clip-path="url(#clip520)"/><path fill="#000" fill-opacity="1" fill-rule="evenodd" d="M1328.95 904.497 L1353.07 904.497 L1353.07 907.695 L1328.95 907.695 L1328.95 904.497 Z" clip-path="url(#clip520)"/><path fill="#000" fill-opacity="1" fill-rule="evenodd" d="M1364.54 914.973 L1377.8 914.973 L1377.8 918.171 L1359.97 918.171 L1359.97 914.973 Q1362.13 912.735 1365.86 908.974 Q1369.6 905.193 1370.56 904.102 Q1372.38 902.052 1373.1 900.642 Q1373.83 899.212 1373.83 897.839 Q1373.83 895.601 1372.25 894.191 Q1370.69 892.78 1368.17 892.78 Q1366.38 892.78 1364.39 893.401 Q1362.41 894.021 1360.16 895.282 L1360.16 891.445 Q1362.45 890.523 1364.44 890.053 Q1366.44 889.583 1368.09 889.583 Q1372.46 889.583 1375.05 891.765 Q1377.65 893.946 1377.65 897.595 Q1377.65 899.325 1376.99 900.886 Q1376.35 902.429 1374.64 904.535 Q1374.17 905.08 1371.65 907.695 Q1369.13 910.29 1364.54 914.973 Z" clip-path="url(#clip520)"/><path fill="#000" fill-opacity="1" fill-rule="evenodd" d="M1277.36 768.545 L1285 768.545 L1285 742.179 L1276.69 743.846 L1276.69 739.587 L1284.95 737.92 L1289.63 737.92 L1289.63 768.545 L1297.26 768.545 L1297.26 772.48 L1277.36 772.48 L1277.36 768.545 Z" clip-path="url(#clip520)"/><path fill="#000" fill-opacity="1" fill-rule="evenodd" d="M1316.71 740.999 Q1313.1 740.999 1311.27 744.564 Q1309.46 748.105 1309.46 755.235 Q1309.46 762.341 1311.27 765.906 Q1313.1 769.448 1316.71 769.448 Q1320.34 769.448 1322.15 765.906 Q1323.98 762.341 1323.98 755.235 Q1323.98 748.105 1322.15 744.564 Q1320.34 740.999 1316.71 740.999 M1316.71 737.295 Q1322.52 737.295 1325.57 741.902 Q1328.65 746.485 1328.65 755.235 Q1328.65 763.962 1325.57 768.568 Q1322.52 773.151 1316.71 773.151 Q1310.9 773.151 1307.82 768.568 Q1304.76 763.962 1304.76 755.235 Q1304.76 746.485 1307.82 741.902 Q1310.9 737.295 1316.71 737.295 Z" clip-path="url(#clip520)"/><path fill="#000" fill-opacity="1" fill-rule="evenodd" d="M1328.65 731.396 L1352.77 731.396 L1352.77 734.594 L1328.65 734.594 L1328.65 731.396 Z" clip-path="url(#clip520)"/><path fill="#000" fill-opacity="1" fill-rule="evenodd" d="M1361.62 741.872 L1367.83 741.872 L1367.83 720.45 L1361.08 721.804 L1361.08 718.344 L1367.79 716.99 L1371.59 716.99 L1371.59 741.872 L1377.8 741.872 L1377.8 745.07 L1361.62 745.07 L1361.62 741.872 Z" clip-path="url(#clip520)"/><path fill="#000" fill-opacity="1" fill-rule="evenodd" d="M1307.09 595.444 L1314.73 595.444 L1314.73 569.078 L1306.42 570.745 L1306.42 566.486 L1314.69 564.819 L1319.36 564.819 L1319.36 595.444 L1327 595.444 L1327 599.379 L1307.09 599.379 L1307.09 595.444 Z" clip-path="url(#clip520)"/><path fill="#000" fill-opacity="1" fill-rule="evenodd" d="M1346.44 567.898 Q1342.83 567.898 1341 571.463 Q1339.2 575.004 1339.2 582.134 Q1339.2 589.24 1341 592.805 Q1342.83 596.347 1346.44 596.347 Q1350.08 596.347 1351.88 592.805 Q1353.71 589.24 1353.71 582.134 Q1353.71 575.004 1351.88 571.463 Q1350.08 567.898 1346.44 567.898 M1346.44 564.194 Q1352.25 564.194 1355.31 568.801 Q1358.39 573.384 1358.39 582.134 Q1358.39 590.861 1355.31 595.467 Q1352.25 600.05 1346.44 600.05 Q1340.63 600.05 1337.56 595.467 Q1334.5 590.861 1334.5 582.134 Q1334.5 573.384 1337.56 568.801 Q1340.63 564.194 1346.44 564.194 Z" clip-path="url(#clip520)"/><path fill="#000" fill-opacity="1" fill-rule="evenodd" d="M1368.09 546.39 Q1365.16 546.39 1363.67 549.287 Q1362.21 552.164 1362.21 557.957 Q1362.21 563.731 1363.67 566.627 Q1365.16 569.505 1368.09 569.505 Q1371.05 569.505 1372.51 566.627 Q1374 563.731 1374 557.957 Q1374 552.164 1372.51 549.287 Q1371.05 546.39 1368.09 546.39 M1368.09 543.381 Q1372.81 543.381 1375.3 547.124 Q1377.8 550.848 1377.8 557.957 Q1377.8 565.047 1375.3 568.79 Q1372.81 572.514 1368.09 572.514 Q1363.37 572.514 1360.87 568.79 Q1358.39 565.047 1358.39 557.957 Q1358.39 550.848 1360.87 547.124 Q1363.37 543.381 1368.09 543.381 Z" clip-path="url(#clip520)"/><path fill="#000" fill-opacity="1" fill-rule="evenodd" d="M1309.78 422.343 L1317.42 422.343 L1317.42 395.977 L1309.11 397.644 L1309.11 393.385 L1317.37 391.718 L1322.05 391.718 L1322.05 422.343 L1329.69 422.343 L1329.69 426.278 L1309.78 426.278 L1309.78 422.343 Z" clip-path="url(#clip520)"/><path fill="#000" fill-opacity="1" fill-rule="evenodd" d="M1349.13 394.797 Q1345.52 394.797 1343.69 398.362 Q1341.89 401.903 1341.89 409.033 Q1341.89 416.139 1343.69 419.704 Q1345.52 423.246 1349.13 423.246 Q1352.77 423.246 1354.57 419.704 Q1356.4 416.139 1356.4 409.033 Q1356.4 401.903 1354.57 398.362 Q1352.77 394.797 1349.13 394.797 M1349.13 391.093 Q1354.94 391.093 1358 395.7 Q1361.08 400.283 1361.08 409.033 Q1361.08 417.76 1358 422.366 Q1354.94 426.949 1349.13 426.949 Q1343.32 426.949 1340.24 422.366 Q1337.19 417.76 1337.19 409.033 Q1337.19 400.283 1340.24 395.7 Q1343.32 391.093 1349.13 391.093 Z" clip-path="url(#clip520)"/><path fill="#000" fill-opacity="1" fill-rule="evenodd" d="M1361.62 395.67 L1367.83 395.67 L1367.83 374.248 L1361.08 375.603 L1361.08 372.142 L1367.79 370.788 L1371.59 370.788 L1371.59 395.67 L1377.8 395.67 L1377.8 398.868 L1361.62 398.868 L1361.62 395.67 Z" clip-path="url(#clip520)"/><path fill="#000" fill-opacity="1" fill-rule="evenodd" d="M1308.67 249.242 L1316.31 249.242 L1316.31 222.876 L1308 224.543 L1308 220.284 L1316.26 218.617 L1320.94 218.617 L1320.94 249.242 L1328.58 249.242 L1328.58 253.177 L1308.67 253.177 L1308.67 249.242 Z" clip-path="url(#clip520)"/><path fill="#000" fill-opacity="1" fill-rule="evenodd" d="M1348.02 221.696 Q1344.41 221.696 1342.58 225.261 Q1340.78 228.802 1340.78 235.932 Q1340.78 243.038 1342.58 246.603 Q1344.41 250.145 1348.02 250.145 Q1351.66 250.145 1353.46 246.603 Q1355.29 243.038 1355.29 235.932 Q1355.29 228.802 1353.46 225.261 Q1351.66 221.696 1348.02 221.696 M1348.02 217.992 Q1353.83 217.992 1356.89 222.599 Q1359.97 227.182 1359.97 235.932 Q1359.97 244.659 1356.89 249.265 Q1353.83 253.848 1348.02 253.848 Q1342.21 253.848 1339.14 249.265 Q1336.08 244.659 1336.08 235.932 Q1336.08 227.182 1339.14 222.599 Q1342.21 217.992 1348.02 217.992 Z" clip-path="url(#clip520)"/><path fill="#000" fill-opacity="1" fill-rule="evenodd" d="M1364.54 222.569 L1377.8 222.569 L1377.8 225.767 L1359.97 225.767 L1359.97 222.569 Q1362.13 220.331 1365.86 216.57 Q1369.6 212.789 1370.56 211.699 Q1372.38 209.649 1373.1 208.238 Q1373.83 206.809 1373.83 205.436 Q1373.83 203.197 1372.25 201.787 Q1370.69 200.376 1368.17 200.376 Q1366.38 200.376 1364.39 200.997 Q1362.41 201.618 1360.16 202.878 L1360.16 199.041 Q1362.45 198.119 1364.44 197.649 Q1366.44 197.179 1368.09 197.179 Q1372.46 197.179 1375.05 199.361 Q1377.65 201.542 1377.65 205.191 Q1377.65 206.921 1376.99 208.482 Q1376.35 210.025 1374.64 212.131 Q1374.17 212.677 1371.65 215.291 Q1369.13 217.886 1364.54 222.569 Z" clip-path="url(#clip520)"/><path fill="#000" fill-opacity="1" fill-rule="evenodd" d="M1656.31 200.611 Q1651.74 195.833 1651.74 189.017 Q1651.74 182.166 1656.24 177.247 Q1660.73 172.294 1667.34 172.294 Q1671.73 172.294 1675.03 174.402 Q1678.34 176.474 1678.34 180.023 Q1678.34 181.604 1677.39 182.517 Q1676.47 183.396 1675.03 183.396 Q1673.52 183.396 1672.61 182.482 Q1671.73 181.534 1671.73 180.093 Q1671.73 179.461 1671.94 178.828 Q1672.15 178.196 1672.92 177.528 Q1673.73 176.861 1675.1 176.756 Q1672.54 174.121 1667.55 174.121 Q1667.48 174.121 1667.41 174.121 Q1663.75 174.121 1660.73 177.564 Q1657.71 181.007 1657.71 188.877 Q1657.71 192.987 1658.7 196.009 Q1659.71 198.995 1661.37 200.541 Q1663.02 202.087 1664.63 202.825 Q1666.25 203.527 1667.83 203.527 Q1674.89 203.527 1677.28 195.974 Q1677.49 195.271 1678.19 195.271 Q1679.14 195.271 1679.14 195.974 Q1679.14 196.325 1678.86 197.238 Q1678.58 198.152 1677.7 199.592 Q1676.82 201.033 1675.56 202.298 Q1674.33 203.527 1672.12 204.441 Q1669.94 205.354 1667.2 205.354 Q1660.87 205.354 1656.31 200.611 Z" clip-path="url(#clip520)"/><path fill="#000" fill-opacity="1" fill-rule="evenodd" d="M1682.67 204.546 L1682.67 202.333 Q1686.5 202.333 1687.38 201.876 Q1688.26 201.384 1688.26 199.065 L1688.26 161.648 Q1688.26 158.978 1687.31 158.31 Q1686.39 157.643 1682.67 157.643 L1682.67 155.394 L1693 154.621 L1693 179.637 L1693.07 179.637 Q1694.23 177.037 1696.83 174.893 Q1699.43 172.75 1703.43 172.75 Q1708.84 172.75 1710.99 175.42 Q1712.57 177.212 1712.88 179.215 Q1713.24 181.218 1713.24 186.417 L1713.24 200.155 Q1713.31 201.665 1714.47 202.017 Q1715.62 202.333 1718.86 202.333 L1718.86 204.546 Q1711.51 204.335 1710.78 204.335 Q1710.21 204.335 1702.66 204.546 L1702.66 202.333 Q1706.49 202.333 1707.37 201.876 Q1708.28 201.384 1708.28 199.065 L1708.28 182.307 Q1708.28 178.653 1707.16 176.51 Q1706.03 174.331 1702.94 174.331 Q1699.22 174.331 1696.23 177.458 Q1693.24 180.585 1693.24 185.855 L1693.24 199.065 Q1693.24 201.384 1694.12 201.876 Q1695.04 202.333 1698.83 202.333 L1698.83 204.546 Q1691.49 204.335 1690.78 204.335 Q1690.22 204.335 1682.67 204.546 Z" clip-path="url(#clip520)"/><path fill="#000" fill-opacity="1" fill-rule="evenodd" d="M1719.9 175.772 L1719.9 173.523 L1730.47 172.75 L1730.47 196.641 Q1730.47 198.363 1730.61 199.382 Q1730.75 200.365 1731.31 201.525 Q1731.91 202.684 1733.25 203.211 Q1734.62 203.738 1736.79 203.738 Q1740.69 203.738 1743.08 200.541 Q1745.51 197.344 1745.51 192.601 L1745.51 179.777 Q1745.51 177.107 1744.56 176.439 Q1743.61 175.772 1739.89 175.772 L1739.89 173.523 L1750.46 172.75 L1750.46 198.292 Q1750.46 200.963 1751.38 201.665 Q1752.32 202.333 1756.08 202.333 L1756.08 204.546 L1745.72 205.354 L1745.72 198.855 Q1742.7 205.319 1736.44 205.354 Q1733.28 205.354 1731.1 204.546 Q1728.96 203.738 1727.87 202.754 Q1726.78 201.736 1726.18 199.803 Q1725.62 197.871 1725.55 196.676 Q1725.48 195.482 1725.48 193.163 L1725.48 182.377 Q1725.48 177.493 1724.78 176.65 Q1724.08 175.772 1719.9 175.772 Z" clip-path="url(#clip520)"/><path fill="#000" fill-opacity="1" fill-rule="evenodd" d="M1758.56 204.546 L1758.56 202.333 Q1762.39 202.333 1763.27 201.876 Q1764.15 201.384 1764.15 199.065 L1764.15 179.777 Q1764.15 177.107 1763.2 176.439 Q1762.29 175.772 1758.56 175.772 L1758.56 173.523 L1768.68 172.75 L1768.68 180.304 Q1772.05 172.75 1779.33 172.75 Q1784.74 172.75 1786.88 175.42 Q1788.46 177.212 1788.78 179.215 Q1789.13 181.218 1789.13 186.417 L1789.13 200.155 Q1789.2 201.665 1790.36 202.017 Q1791.52 202.333 1794.75 202.333 L1794.75 204.546 Q1787.41 204.335 1786.67 204.335 Q1786.11 204.335 1778.55 204.546 L1778.55 202.333 Q1782.38 202.333 1783.26 201.876 Q1784.17 201.384 1784.17 199.065 L1784.17 182.307 Q1784.17 178.653 1783.05 176.51 Q1781.93 174.331 1778.83 174.331 Q1775.11 174.331 1772.12 177.458 Q1769.14 180.585 1769.14 185.855 L1769.14 199.065 Q1769.14 201.384 1770.01 201.876 Q1770.93 202.333 1774.72 202.333 L1774.72 204.546 Q1767.38 204.335 1766.68 204.335 Q1766.12 204.335 1758.56 204.546 Z" clip-path="url(#clip520)"/><path fill="#000" fill-opacity="1" fill-rule="evenodd" d="M1799.82 204.546 L1799.82 202.333 Q1803.65 202.333 1804.53 201.876 Q1805.44 201.384 1805.44 199.065 L1805.44 161.648 Q1805.44 158.978 1804.49 158.31 Q1803.58 157.643 1799.82 157.643 L1799.82 155.394 L1810.18 154.621 L1810.18 189.158 L1820.34 180.374 Q1821.92 179.004 1821.92 177.564 Q1821.92 175.912 1819.85 175.772 L1819.85 173.523 Q1822.87 173.734 1827.89 173.734 Q1830.84 173.734 1832.92 173.523 L1832.92 175.772 Q1828.38 175.983 1823.85 179.637 Q1822.83 180.445 1820.41 182.553 Q1818.02 184.625 1818.02 184.836 Q1818.02 184.907 1818.09 185.082 Q1818.19 185.258 1818.33 185.398 Q1818.48 185.539 1818.48 185.609 L1827.61 198.503 Q1829.47 201.103 1830.84 201.736 Q1832.21 202.333 1834.6 202.333 L1834.6 204.546 Q1831.51 204.335 1828.31 204.335 Q1826.59 204.335 1820.55 204.546 L1820.55 202.333 Q1823.15 202.333 1823.15 200.646 Q1823.15 199.487 1817.32 191.441 Q1816.89 190.879 1815.95 189.65 Q1815.07 188.35 1814.58 187.717 L1809.97 191.652 L1809.97 199.065 Q1809.97 201.384 1810.85 201.876 Q1811.76 202.333 1815.59 202.333 L1815.59 204.546 Q1811.27 204.335 1807.69 204.335 Q1806.95 204.335 1799.82 204.546 Z" clip-path="url(#clip520)"/><path fill="#000" fill-opacity="1" fill-rule="evenodd" d="M1838.59 203.598 L1838.59 194.112 Q1838.59 193.304 1838.63 193.022 Q1838.66 192.741 1838.88 192.531 Q1839.09 192.32 1839.51 192.32 Q1840 192.32 1840.18 192.531 Q1840.39 192.741 1840.53 193.549 Q1841.62 198.503 1843.93 201.138 Q1846.29 203.738 1850.54 203.738 Q1854.58 203.738 1856.62 201.946 Q1858.66 200.155 1858.66 197.203 Q1858.66 191.933 1851.17 190.598 Q1846.85 189.72 1845.06 189.158 Q1843.27 188.56 1841.69 187.261 Q1838.59 184.731 1838.59 181.147 Q1838.59 177.564 1841.3 174.929 Q1844.04 172.294 1850.08 172.294 Q1854.12 172.294 1856.86 174.331 Q1857.67 173.699 1858.09 173.172 Q1859.04 172.294 1859.53 172.294 Q1860.1 172.294 1860.2 172.68 Q1860.31 173.031 1860.31 174.05 L1860.31 181.288 Q1860.31 182.096 1860.27 182.377 Q1860.24 182.658 1860.03 182.869 Q1859.81 183.044 1859.36 183.044 Q1858.55 183.044 1858.52 182.377 Q1857.95 173.664 1850.08 173.664 Q1845.83 173.664 1843.93 175.315 Q1842.04 176.931 1842.04 179.145 Q1842.04 180.374 1842.6 181.323 Q1843.2 182.236 1843.93 182.799 Q1844.71 183.326 1846.11 183.853 Q1847.52 184.344 1848.36 184.52 Q1849.24 184.696 1850.89 185.047 Q1856.65 186.136 1859.08 188.49 Q1862.1 191.512 1862.1 195.341 Q1862.1 199.592 1859.22 202.473 Q1856.34 205.354 1850.54 205.354 Q1845.87 205.354 1842.6 202.227 Q1842.18 202.649 1841.86 203.036 Q1841.55 203.387 1841.4 203.527 Q1841.3 203.668 1841.26 203.773 Q1841.23 203.844 1841.16 203.914 Q1839.72 205.354 1839.37 205.354 Q1838.81 205.354 1838.7 204.968 Q1838.59 204.617 1838.59 203.598 Z" clip-path="url(#clip520)"/><path fill="#000" fill-opacity="1" fill-rule="evenodd" d="M1864.91 204.546 L1864.91 202.333 Q1868.74 202.333 1869.62 201.876 Q1870.5 201.384 1870.5 199.065 L1870.5 179.707 Q1870.5 177.037 1869.59 176.404 Q1868.71 175.772 1865.19 175.772 L1865.19 173.523 L1875.24 172.75 L1875.24 199.136 Q1875.24 201.279 1876.02 201.806 Q1876.79 202.333 1880.3 202.333 L1880.3 204.546 Q1872.96 204.335 1872.82 204.335 Q1871.83 204.335 1864.91 204.546 M1867.93 160.208 Q1867.93 158.767 1869.02 157.608 Q1870.15 156.413 1871.73 156.413 Q1873.31 156.413 1874.43 157.502 Q1875.56 158.556 1875.56 160.243 Q1875.56 161.894 1874.43 162.983 Q1873.31 164.037 1871.73 164.037 Q1870.08 164.037 1868.99 162.878 Q1867.93 161.718 1867.93 160.208 Z" clip-path="url(#clip520)"/><path fill="#000" fill-opacity="1" fill-rule="evenodd" d="M1886.66 203.527 Q1886.66 203.036 1887.33 202.227 L1907.39 175.104 L1899.2 175.104 Q1893.51 175.104 1891.65 177.212 Q1889.82 179.285 1889.47 185.117 L1887.68 185.117 L1888.49 173.523 L1911.5 173.523 Q1912.31 173.523 1912.62 173.558 Q1912.94 173.594 1913.15 173.839 Q1913.36 174.05 1913.36 174.472 Q1913.36 174.893 1912.73 175.702 L1892.7 202.754 L1901.2 202.754 Q1907.18 202.754 1909.18 200.26 Q1911.22 197.765 1911.71 191.09 L1913.5 191.09 L1912.27 204.546 L1888.56 204.546 Q1887.4 204.546 1887.01 204.406 Q1886.66 204.23 1886.66 203.527 Z" clip-path="url(#clip520)"/><path fill="#000" fill-opacity="1" fill-rule="evenodd" d="M1921.17 188.701 Q1921.17 181.92 1925.53 177.107 Q1929.88 172.294 1936.14 172.294 Q1942.46 172.294 1945.73 176.404 Q1949.03 180.515 1949.03 186.417 Q1949.03 187.506 1948.75 187.717 Q1948.47 187.928 1947.24 187.928 L1927.14 187.928 Q1927.14 195.271 1929.32 198.714 Q1932.34 203.527 1937.44 203.527 Q1938.14 203.527 1938.98 203.387 Q1939.83 203.246 1941.55 202.649 Q1943.27 202.017 1944.78 200.365 Q1946.29 198.714 1947.17 196.114 Q1947.38 195.095 1948.08 195.13 Q1949.03 195.13 1949.03 195.974 Q1949.03 196.606 1948.33 198.047 Q1947.66 199.452 1946.36 201.138 Q1945.06 202.825 1942.53 204.09 Q1940.04 205.354 1937.02 205.354 Q1930.69 205.354 1925.91 200.576 Q1921.17 195.763 1921.17 188.701 M1927.21 186.417 L1944.29 186.417 Q1944.29 184.907 1944.01 183.22 Q1943.76 181.534 1942.99 179.215 Q1942.25 176.861 1940.49 175.385 Q1938.74 173.91 1936.14 173.91 Q1934.98 173.91 1933.71 174.402 Q1932.48 174.893 1930.97 176.088 Q1929.46 177.283 1928.41 179.988 Q1927.35 182.693 1927.21 186.417 Z" clip-path="url(#clip520)"/><path fill="#000" fill-opacity="1" fill-rule="evenodd" d="M1973.89 203.457 Q1972.76 202.333 1972.76 200.752 Q1972.76 199.171 1973.89 198.047 Q1975.01 196.922 1976.59 196.922 Q1978.17 196.922 1979.3 198.047 Q1980.42 199.171 1980.42 200.752 Q1980.42 202.333 1979.3 203.457 Q1978.17 204.546 1976.59 204.546 Q1975.01 204.546 1973.89 203.457 M1973.89 180.058 Q1972.76 178.934 1972.76 177.353 Q1972.76 175.772 1973.89 174.648 Q1975.01 173.523 1976.59 173.523 Q1978.17 173.523 1979.3 174.648 Q1980.42 175.772 1980.42 177.353 Q1980.42 178.934 1979.3 180.058 Q1978.17 181.147 1976.59 181.147 Q1975.01 181.147 1973.89 180.058 Z" clip-path="url(#clip520)"/><path fill="#000" fill-opacity="1" fill-rule="evenodd" d="M2012.46 163.475 L2012.46 161.226 Q2021.1 161.226 2025.56 156.624 Q2026.79 156.624 2027 156.905 Q2027.21 157.186 2027.21 158.486 L2027.21 198.855 Q2027.21 200.998 2028.27 201.665 Q2029.32 202.333 2033.92 202.333 L2036.21 202.333 L2036.21 204.546 Q2033.68 204.335 2024.54 204.335 Q2015.41 204.335 2012.91 204.546 L2012.91 202.333 L2015.2 202.333 Q2019.73 202.333 2020.82 201.7 Q2021.91 201.033 2021.91 198.855 L2021.91 161.578 Q2018.15 163.475 2012.46 163.475 Z" clip-path="url(#clip520)"/><path fill="#000" fill-opacity="1" fill-rule="evenodd" d="M2048.09 181.534 Q2048.09 170.958 2050.76 165.197 Q2054.48 156.624 2063.27 156.624 Q2065.13 156.624 2067.06 157.151 Q2069.03 157.643 2071.49 159.575 Q2073.98 161.508 2075.49 164.67 Q2078.37 170.783 2078.37 181.534 Q2078.37 192.039 2075.7 197.765 Q2071.8 206.127 2063.2 206.127 Q2059.96 206.127 2056.66 204.476 Q2053.39 202.825 2051.32 198.855 Q2048.09 192.917 2048.09 181.534 M2054.06 180.655 Q2054.06 191.512 2054.83 195.833 Q2055.71 200.506 2058.1 202.544 Q2060.53 204.546 2063.2 204.546 Q2066.08 204.546 2068.47 202.403 Q2070.89 200.225 2071.63 195.552 Q2072.44 190.95 2072.4 180.655 Q2072.4 170.642 2071.7 166.637 Q2070.75 161.964 2068.22 160.102 Q2065.72 158.205 2063.2 158.205 Q2062.25 158.205 2061.23 158.486 Q2060.24 158.767 2058.8 159.575 Q2057.36 160.383 2056.24 162.386 Q2055.15 164.388 2054.62 167.41 Q2054.06 171.31 2054.06 180.655 Z" clip-path="url(#clip520)"/><path fill="#000" fill-opacity="1" fill-rule="evenodd" d="M2085.75 142.413 L2087.4 132.059 L2088.65 132.059 Q2088.8 132.674 2089.05 132.944 Q2089.32 133.215 2090.74 133.436 Q2092.2 133.658 2095.12 133.658 L2107.35 133.658 Q2107.35 134.814 2106.9 135.428 L2100.09 144.995 Q2097.93 148.02 2096.97 153.603 Q2096.4 157.341 2096.43 161.867 L2096.43 164.424 Q2096.43 167.203 2094.09 167.203 Q2091.78 167.203 2091.78 164.424 Q2091.78 154.808 2097.98 145.487 Q2098.64 144.528 2101.07 141.11 Q2103.53 137.691 2103.63 137.543 L2093.2 137.543 Q2088.63 137.543 2088.26 137.839 Q2087.77 138.281 2087.01 142.413 L2085.75 142.413 Z" clip-path="url(#clip520)"/><polyline style="stroke:#009af9;stroke-linecap:butt;stroke-linejoin:round;stroke-width:4;stroke-opacity:1;fill:none" points="1440.37 804.703 1735.64 627.129 2030.91 500.721 2237.3 378.148 2326.18 323.17" clip-path="url(#clip524)"/><polyline style="stroke:#e26f46;stroke-linecap:butt;stroke-linejoin:round;stroke-width:4;stroke-opacity:1;fill:none" points="1440.37 824.263 1735.64 693.774 2030.91 556.688 2237.3 421.789 2326.18 244.984" clip-path="url(#clip524)"/><polyline style="stroke:#3da44d;stroke-linecap:butt;stroke-linejoin:round;stroke-width:4;stroke-opacity:1;fill:none" points="1440.37 1015.38 1735.64 868.723 2030.91 689.844 2237.3 571.339 2326.18 308.536" clip-path="url(#clip524)"/><path fill="#fff" fill-opacity="1" fill-rule="evenodd" d="M239.492 120 L2352.76 120 L2352.76 0 L239.492 0 Z" clip-path="url(#clip520)"/><path fill="#000" fill-opacity="1" fill-rule="evenodd" d="M786.983 10.9073 L786.983 17.9906 L778.835 17.9906 Q774.252 17.9906 772.446 19.8425 Q770.687 21.6943 770.687 26.5091 L770.687 31.0924 L784.715 31.0924 L784.715 37.7128 L770.687 37.7128 L770.687 82.944 L762.122 82.944 L762.122 37.7128 L753.974 37.7128 L753.974 31.0924 L762.122 31.0924 L762.122 27.4813 Q762.122 18.824 766.15 14.8888 Q770.178 10.9073 778.928 10.9073 L786.983 10.9073 Z" clip-path="url(#clip520)"/><path fill="#000" fill-opacity="1" fill-rule="evenodd" d="M794.113 31.0924 L802.631 31.0924 L802.631 82.944 L794.113 82.944 L794.113 31.0924 M794.113 10.9073 L802.631 10.9073 L802.631 21.6943 L794.113 21.6943 L794.113 10.9073 Z" clip-path="url(#clip520)"/><path fill="#000" fill-opacity="1" fill-rule="evenodd" d="M820.455 10.9073 L828.974 10.9073 L828.974 82.944 L820.455 82.944 L820.455 10.9073 Z" clip-path="url(#clip520)"/><path fill="#000" fill-opacity="1" fill-rule="evenodd" d="M855.224 16.3703 L855.224 31.0924 L872.77 31.0924 L872.77 37.7128 L855.224 37.7128 L855.224 65.8608 Q855.224 72.2033 856.937 74.0089 Q858.696 75.8144 864.02 75.8144 L872.77 75.8144 L872.77 82.944 L864.02 82.944 Q854.159 82.944 850.409 79.2866 Q846.659 75.5829 846.659 65.8608 L846.659 37.7128 L840.409 37.7128 L840.409 31.0924 L846.659 31.0924 L846.659 16.3703 L855.224 16.3703 Z" clip-path="url(#clip520)"/><path fill="#000" fill-opacity="1" fill-rule="evenodd" d="M928.325 54.8886 L928.325 59.0552 L889.159 59.0552 Q889.714 67.8515 894.436 72.4811 Q899.205 77.0644 907.677 77.0644 Q912.584 77.0644 917.168 75.8607 Q921.797 74.657 926.334 72.2496 L926.334 80.3051 Q921.751 82.2496 916.936 83.2681 Q912.121 84.2866 907.168 84.2866 Q894.76 84.2866 887.492 77.0644 Q880.27 69.8422 880.27 57.5275 Q880.27 44.7961 887.122 37.3424 Q894.02 29.8424 905.686 29.8424 Q916.149 29.8424 922.214 36.6017 Q928.325 43.3146 928.325 54.8886 M919.807 52.3886 Q919.714 45.3979 915.871 41.2313 Q912.075 37.0646 905.779 37.0646 Q898.649 37.0646 894.344 41.0924 Q890.085 45.1201 889.436 52.4349 L919.807 52.3886 Z" clip-path="url(#clip520)"/><path fill="#000" fill-opacity="1" fill-rule="evenodd" d="M972.353 39.0553 Q970.917 38.222 969.204 37.8516 Q967.538 37.435 965.501 37.435 Q958.279 37.435 954.39 42.1572 Q950.547 46.8331 950.547 55.6293 L950.547 82.944 L941.982 82.944 L941.982 31.0924 L950.547 31.0924 L950.547 39.1479 Q953.232 34.4257 957.538 32.1572 Q961.843 29.8424 968.001 29.8424 Q968.88 29.8424 969.945 29.9813 Q971.01 30.0739 972.306 30.3054 L972.353 39.0553 Z" clip-path="url(#clip520)"/><path fill="#000" fill-opacity="1" fill-rule="evenodd" d="M1031.89 10.9999 Q1025.69 21.648 1022.68 32.0646 Q1019.67 42.4813 1019.67 53.1756 Q1019.67 63.87 1022.68 74.3792 Q1025.73 84.8421 1031.89 95.4439 L1024.48 95.4439 Q1017.54 84.5644 1014.07 74.0552 Q1010.64 63.546 1010.64 53.1756 Q1010.64 42.8516 1014.07 32.3887 Q1017.49 21.9258 1024.48 10.9999 L1031.89 10.9999 Z" clip-path="url(#clip520)"/><path fill="#000" fill-opacity="1" fill-rule="evenodd" d="M1091.52 51.6479 L1091.52 82.944 L1083 82.944 L1083 51.9256 Q1083 44.5646 1080.13 40.9072 Q1077.26 37.2498 1071.52 37.2498 Q1064.62 37.2498 1060.64 41.6479 Q1056.66 46.046 1056.66 53.6386 L1056.66 82.944 L1048.09 82.944 L1048.09 10.9073 L1056.66 10.9073 L1056.66 39.1479 Q1059.71 34.472 1063.83 32.1572 Q1068 29.8424 1073.42 29.8424 Q1082.35 29.8424 1086.94 35.398 Q1091.52 40.9072 1091.52 51.6479 Z" clip-path="url(#clip520)"/><path fill="#000" fill-opacity="1" fill-rule="evenodd" d="M1132.07 56.8793 Q1121.75 56.8793 1117.77 59.2404 Q1113.79 61.6015 1113.79 67.2959 Q1113.79 71.8329 1116.75 74.5181 Q1119.76 77.157 1124.9 77.157 Q1131.98 77.157 1136.24 72.157 Q1140.55 67.1108 1140.55 58.7775 L1140.55 56.8793 L1132.07 56.8793 M1149.06 53.3608 L1149.06 82.944 L1140.55 82.944 L1140.55 75.0737 Q1137.63 79.7959 1133.28 82.0644 Q1128.93 84.2866 1122.63 84.2866 Q1114.67 84.2866 1109.94 79.8422 Q1105.27 75.3514 1105.27 67.8515 Q1105.27 59.1015 1111.1 54.6571 Q1116.98 50.2127 1128.6 50.2127 L1140.55 50.2127 L1140.55 49.3794 Q1140.55 43.4998 1136.66 40.3053 Q1132.81 37.0646 1125.82 37.0646 Q1121.38 37.0646 1117.17 38.1294 Q1112.95 39.1942 1109.06 41.3239 L1109.06 33.4535 Q1113.74 31.648 1118.14 30.7684 Q1122.54 29.8424 1126.7 29.8424 Q1137.95 29.8424 1143.51 35.6757 Q1149.06 41.509 1149.06 53.3608 Z" clip-path="url(#clip520)"/><path fill="#000" fill-opacity="1" fill-rule="evenodd" d="M1166.61 10.9073 L1175.13 10.9073 L1175.13 82.944 L1166.61 82.944 L1166.61 10.9073 Z" clip-path="url(#clip520)"/><path fill="#000" fill-opacity="1" fill-rule="evenodd" d="M1219.2 10.9073 L1219.2 17.9906 L1211.06 17.9906 Q1206.47 17.9906 1204.67 19.8425 Q1202.91 21.6943 1202.91 26.5091 L1202.91 31.0924 L1216.93 31.0924 L1216.93 37.7128 L1202.91 37.7128 L1202.91 82.944 L1194.34 82.944 L1194.34 37.7128 L1186.19 37.7128 L1186.19 31.0924 L1194.34 31.0924 L1194.34 27.4813 Q1194.34 18.824 1198.37 14.8888 Q1202.4 10.9073 1211.15 10.9073 L1219.2 10.9073 Z" clip-path="url(#clip520)"/><path fill="#000" fill-opacity="1" fill-rule="evenodd" d="M1276.56 37.0646 Q1269.71 37.0646 1265.73 42.435 Q1261.75 47.759 1261.75 57.0645 Q1261.75 66.37 1265.68 71.7404 Q1269.67 77.0644 1276.56 77.0644 Q1283.37 77.0644 1287.35 71.6941 Q1291.33 66.3237 1291.33 57.0645 Q1291.33 47.8516 1287.35 42.4813 Q1283.37 37.0646 1276.56 37.0646 M1276.56 29.8424 Q1287.68 29.8424 1294.02 37.0646 Q1300.36 44.2868 1300.36 57.0645 Q1300.36 69.7959 1294.02 77.0644 Q1287.68 84.2866 1276.56 84.2866 Q1265.41 84.2866 1259.06 77.0644 Q1252.77 69.7959 1252.77 57.0645 Q1252.77 44.2868 1259.06 37.0646 Q1265.41 29.8424 1276.56 29.8424 Z" clip-path="url(#clip520)"/><path fill="#000" fill-opacity="1" fill-rule="evenodd" d="M1340.73 10.9073 L1340.73 17.9906 L1332.58 17.9906 Q1328 17.9906 1326.19 19.8425 Q1324.43 21.6943 1324.43 26.5091 L1324.43 31.0924 L1338.46 31.0924 L1338.46 37.7128 L1324.43 37.7128 L1324.43 82.944 L1315.87 82.944 L1315.87 37.7128 L1307.72 37.7128 L1307.72 31.0924 L1315.87 31.0924 L1315.87 27.4813 Q1315.87 18.824 1319.9 14.8888 Q1323.92 10.9073 1332.67 10.9073 L1340.73 10.9073 Z" clip-path="url(#clip520)"/><path fill="#000" fill-opacity="1" fill-rule="evenodd" d="M1422.35 54.8886 L1422.35 59.0552 L1383.18 59.0552 Q1383.74 67.8515 1388.46 72.4811 Q1393.23 77.0644 1401.7 77.0644 Q1406.61 77.0644 1411.19 75.8607 Q1415.82 74.657 1420.36 72.2496 L1420.36 80.3051 Q1415.78 82.2496 1410.96 83.2681 Q1406.15 84.2866 1401.19 84.2866 Q1388.79 84.2866 1381.52 77.0644 Q1374.29 69.8422 1374.29 57.5275 Q1374.29 44.7961 1381.15 37.3424 Q1388.04 29.8424 1399.71 29.8424 Q1410.17 29.8424 1416.24 36.6017 Q1422.35 43.3146 1422.35 54.8886 M1413.83 52.3886 Q1413.74 45.3979 1409.9 41.2313 Q1406.1 37.0646 1399.8 37.0646 Q1392.67 37.0646 1388.37 41.0924 Q1384.11 45.1201 1383.46 52.4349 L1413.83 52.3886 Z" clip-path="url(#clip520)"/><path fill="#000" fill-opacity="1" fill-rule="evenodd" d="M1436.33 10.9073 L1444.85 10.9073 L1444.85 82.944 L1436.33 82.944 L1436.33 10.9073 Z" clip-path="url(#clip520)"/><path fill="#000" fill-opacity="1" fill-rule="evenodd" d="M1507.03 54.8886 L1507.03 59.0552 L1467.86 59.0552 Q1468.41 67.8515 1473.14 72.4811 Q1477.91 77.0644 1486.38 77.0644 Q1491.29 77.0644 1495.87 75.8607 Q1500.5 74.657 1505.03 72.2496 L1505.03 80.3051 Q1500.45 82.2496 1495.64 83.2681 Q1490.82 84.2866 1485.87 84.2866 Q1473.46 84.2866 1466.19 77.0644 Q1458.97 69.8422 1458.97 57.5275 Q1458.97 44.7961 1465.82 37.3424 Q1472.72 29.8424 1484.39 29.8424 Q1494.85 29.8424 1500.91 36.6017 Q1507.03 43.3146 1507.03 54.8886 M1498.51 52.3886 Q1498.41 45.3979 1494.57 41.2313 Q1490.78 37.0646 1484.48 37.0646 Q1477.35 37.0646 1473.04 41.0924 Q1468.79 45.1201 1468.14 52.4349 L1498.51 52.3886 Z" clip-path="url(#clip520)"/><path fill="#000" fill-opacity="1" fill-rule="evenodd" d="M1561.38 41.0461 Q1564.57 35.3054 1569.02 32.5739 Q1573.46 29.8424 1579.48 29.8424 Q1587.58 29.8424 1591.98 35.5368 Q1596.38 41.185 1596.38 51.6479 L1596.38 82.944 L1587.81 82.944 L1587.81 51.9256 Q1587.81 44.472 1585.17 40.8609 Q1582.53 37.2498 1577.12 37.2498 Q1570.5 37.2498 1566.65 41.6479 Q1562.81 46.046 1562.81 53.6386 L1562.81 82.944 L1554.25 82.944 L1554.25 51.9256 Q1554.25 44.4257 1551.61 40.8609 Q1548.97 37.2498 1543.46 37.2498 Q1536.93 37.2498 1533.09 41.6942 Q1529.25 46.0923 1529.25 53.6386 L1529.25 82.944 L1520.68 82.944 L1520.68 31.0924 L1529.25 31.0924 L1529.25 39.1479 Q1532.16 34.3794 1536.24 32.1109 Q1540.31 29.8424 1545.91 29.8424 Q1551.56 29.8424 1555.5 32.7128 Q1559.48 35.5831 1561.38 41.0461 Z" clip-path="url(#clip520)"/><path fill="#000" fill-opacity="1" fill-rule="evenodd" d="M1657.72 54.8886 L1657.72 59.0552 L1618.55 59.0552 Q1619.11 67.8515 1623.83 72.4811 Q1628.6 77.0644 1637.07 77.0644 Q1641.98 77.0644 1646.56 75.8607 Q1651.19 74.657 1655.73 72.2496 L1655.73 80.3051 Q1651.15 82.2496 1646.33 83.2681 Q1641.52 84.2866 1636.56 84.2866 Q1624.15 84.2866 1616.89 77.0644 Q1609.66 69.8422 1609.66 57.5275 Q1609.66 44.7961 1616.52 37.3424 Q1623.41 29.8424 1635.08 29.8424 Q1645.54 29.8424 1651.61 36.6017 Q1657.72 43.3146 1657.72 54.8886 M1649.2 52.3886 Q1649.11 45.3979 1645.27 41.2313 Q1641.47 37.0646 1635.17 37.0646 Q1628.04 37.0646 1623.74 41.0924 Q1619.48 45.1201 1618.83 52.4349 L1649.2 52.3886 Z" clip-path="url(#clip520)"/><path fill="#000" fill-opacity="1" fill-rule="evenodd" d="M1714.8 51.6479 L1714.8 82.944 L1706.28 82.944 L1706.28 51.9256 Q1706.28 44.5646 1703.41 40.9072 Q1700.54 37.2498 1694.8 37.2498 Q1687.9 37.2498 1683.92 41.6479 Q1679.94 46.046 1679.94 53.6386 L1679.94 82.944 L1671.38 82.944 L1671.38 31.0924 L1679.94 31.0924 L1679.94 39.1479 Q1683 34.472 1687.12 32.1572 Q1691.28 29.8424 1696.7 29.8424 Q1705.64 29.8424 1710.22 35.398 Q1714.8 40.9072 1714.8 51.6479 Z" clip-path="url(#clip520)"/><path fill="#000" fill-opacity="1" fill-rule="evenodd" d="M1740.22 16.3703 L1740.22 31.0924 L1757.77 31.0924 L1757.77 37.7128 L1740.22 37.7128 L1740.22 65.8608 Q1740.22 72.2033 1741.93 74.0089 Q1743.69 75.8144 1749.02 75.8144 L1757.77 75.8144 L1757.77 82.944 L1749.02 82.944 Q1739.15 82.944 1735.4 79.2866 Q1731.65 75.5829 1731.65 65.8608 L1731.65 37.7128 L1725.4 37.7128 L1725.4 31.0924 L1731.65 31.0924 L1731.65 16.3703 L1740.22 16.3703 Z" clip-path="url(#clip520)"/><path fill="#000" fill-opacity="1" fill-rule="evenodd" d="M1802.02 32.6202 L1802.02 40.6757 Q1798.41 38.8239 1794.52 37.8979 Q1790.64 36.972 1786.47 36.972 Q1780.13 36.972 1776.93 38.9165 Q1773.78 40.8609 1773.78 44.7498 Q1773.78 47.7127 1776.05 49.4257 Q1778.32 51.0923 1785.17 52.6201 L1788.09 53.2682 Q1797.16 55.2127 1800.96 58.7775 Q1804.8 62.296 1804.8 68.6385 Q1804.8 75.8607 1799.06 80.0736 Q1793.37 84.2866 1783.37 84.2866 Q1779.2 84.2866 1774.66 83.4533 Q1770.17 82.6662 1765.17 81.0459 L1765.17 72.2496 Q1769.89 74.7033 1774.48 75.9533 Q1779.06 77.157 1783.55 77.157 Q1789.57 77.157 1792.81 75.12 Q1796.05 73.0366 1796.05 69.2867 Q1796.05 65.8145 1793.69 63.9626 Q1791.38 62.1108 1783.46 60.3978 L1780.5 59.7034 Q1772.58 58.0367 1769.06 54.6108 Q1765.54 51.1386 1765.54 45.1201 Q1765.54 37.8054 1770.73 33.8239 Q1775.91 29.8424 1785.45 29.8424 Q1790.17 29.8424 1794.34 30.5369 Q1798.51 31.2313 1802.02 32.6202 Z" clip-path="url(#clip520)"/><path fill="#000" fill-opacity="1" fill-rule="evenodd" d="M1817.02 10.9999 L1824.43 10.9999 Q1831.38 21.9258 1834.8 32.3887 Q1838.27 42.8516 1838.27 53.1756 Q1838.27 63.546 1834.8 74.0552 Q1831.38 84.5644 1824.43 95.4439 L1817.02 95.4439 Q1823.18 84.8421 1826.19 74.3792 Q1829.25 63.87 1829.25 53.1756 Q1829.25 42.4813 1826.19 32.0646 Q1823.18 21.648 1817.02 10.9999 Z" clip-path="url(#clip520)"/></svg>