<svg xmlns="http://www.w3.org/2000/svg" width="2800" height="350pt" viewBox="0 0 2100 350"><path fill="#1a1a33" d="M0 0h2100v350H0z"/><path d="M-15.137 72.824L4.97 166.97l-22.848 81.344" fill="#389826" fill-opacity=".5"/><path d="M-6.965 83.313l7.848 54.949-14.39-67.38M5.75 171.586l5.203 31.223-26.883 45.964" fill="#cb3c33" fill-opacity=".5"/><path d="M-3.191-7.75L43.047 4.516l-57.563 56.62" fill="#389826" fill-opacity=".5"/><path d="M-12.063 351.664l-2.84-58.637 57.692 41.614" fill="#cb3c33" fill-opacity=".5"/><path d="M-5.512 81.777l-8.816-16.75 55.543.883" fill="#389826" fill-opacity=".5"/><path d="M44.074 6.313l1.89 57.671-59.562-.945" fill="#9558b2" fill-opacity=".5"/><path d="M44.082 333.105l-57.957-41.804 60.809-21.856" fill="#389826" fill-opacity=".5"/><path d="M-15.113 289.621l-2.778-32.406 62.032 11.11" fill="#cb3c33" fill-opacity=".5"/><path d="M11.977 205.02l34.128 61.625-63.52-11.375" fill="#9558b2" fill-opacity=".5"/><path d="M6.793 165.473l-11.352-79.47 53.922 57.712" fill="#389826" fill-opacity=".5"/><path d="M46.418 66.254l11.957 30.351L-2.328 82.81" fill="#9558b2" fill-opacity=".5"/><path d="M50.395 141.887L-3.047 84.695l61.879 14.067" fill="#cb3c33" fill-opacity=".5"/><path d="M12.855 202.047l-5.492-32.945 53.996 35.691" fill="#9558b2" fill-opacity=".5"/><path d="M50.309 145.477l13.168 58.316L7.98 167.109" fill="#4063d8" fill-opacity=".5"/><path d="M47.684 265.367l-33.93-61.265 49.953 2.828" fill="#389826" fill-opacity=".5"/><path d="M48.824 271.96l19.942 40.794-22.66 19.941" fill="#4063d8" fill-opacity=".5"/><path d="M60.563 96.7L49.237 67.95l28.746 21.78" fill="#389826" fill-opacity=".5"/><path d="M45.027 336.04l30.086 7.519-78.554 7.523" fill="#9558b2" fill-opacity=".5"/><path d="M69.55 314.727l9.884 27.851-32.344-8.086M70.285 311.3L50.18 270.18l41.12 20.105" fill="#389826" fill-opacity=".5"/><path d="M80.777 340.387l-9.625-27.125 20.125-20.125" fill="#9558b2" fill-opacity=".5"/><path d="M45.016 2.969L3.969-7.921l83.765.839" fill="#4063d8" fill-opacity=".5"/><path d="M79.957 88.71L50.379 66.306l50.191 4.48" fill="#9558b2" fill-opacity=".5"/><path d="M47.969 64.082l-1.88-57.324 54.509 62.023" fill="#cb3c33" fill-opacity=".5"/><path d="M95.105-6.762l6.625 73.801L46.852 4.59M60.594 100.164l40.086 44.746-48.473-1.863" fill="#389826" fill-opacity=".5"/><path d="M79.453 91.297l20.414 49.707L61.7 98.398" fill="#cb3c33" fill-opacity=".5"/><path d="M99.047 203.055l-32.16 1.836 34.918-55.133" fill="#389826" fill-opacity=".5"/><path d="M65.445 203.43l-13.183-58.38 48.965 1.884" fill="#cb3c33" fill-opacity=".5"/><path d="M65.559 207.742l50.296 40.805-66.43 18.031" fill="#9558b2" fill-opacity=".5"/><path d="M99.34 205.04l16.305 40.76-48.008-38.948M92.621 288.703L50.828 268.27l65.012-17.649M103.863 68.45L97.305-4.64l42.168 55.285M103.129 71.215l33.875 18.719-54.379-.891" fill="#cb3c33" fill-opacity=".5"/><path d="M103.227 143.914L81.5 91.024l57.613.945M140 52.617v36.688l-34.852-19.262" fill="#389826" fill-opacity=".5"/><path d="M103.89 148.105l36.391 31.723-39.187 22.395" fill="#9558b2" fill-opacity=".5"/><path d="M117.934 246.145l-16.684-41.708 38.93-22.246" fill="#389826" fill-opacity=".5"/><path d="M118.05 250.84l22.192 32.367-45.312 5.55" fill="#4063d8" fill-opacity=".5"/><path d="M141.195 281.055l-18.562-27.07 19.336 15.468" fill="#cb3c33" fill-opacity=".5"/><path d="M93.613 291.84l58.719 50.195-70.082.95" fill="#4063d8" fill-opacity=".5"/><path d="M141.219 285.102l12.164 55.199-58.004-49.586" fill="#389826" fill-opacity=".5"/><path d="M140.79 93.063l18.776 44.124-54.453 7.512" fill="#9558b2" fill-opacity=".5"/><path d="M141.645 178.363l-36.333-31.672 54.032-7.453" fill="#4063d8" fill-opacity=".5"/><path d="M140.84 49.14L98.133-6.851l69.277 4.747" fill="#389826" fill-opacity=".5"/><path d="M143.875 270.887l31.434 23.164-32.258-10.754" fill="#9558b2" fill-opacity=".5"/><path d="M155.414 340.234l-12.059-54.726 36.176 12.058" fill="#4063d8" fill-opacity=".5"/><path d="M142 89.469V52.422l46.305 16.672" fill="#9558b2" fill-opacity=".5"/><path d="M168.758-.363l20.703 67.746-47.047-16.938M142.574 181.395l52.23 25.64-75.023 39.887" fill="#cb3c33" fill-opacity=".5"/><path d="M142.875 267.621l-23.063-18.453 72.88-38.746" fill="#389826" fill-opacity=".5"/><path d="M180.637 295.492l-35.239-25.969 53.786-11.125" fill="#4063d8" fill-opacity=".5"/><path d="M196.191 209.45l3.743 46.75-54.23 11.218" fill="#9558b2" fill-opacity=".5"/><path d="M161.313 136.18l-18.82-44.227 61.163-1.879" fill="#389826" fill-opacity=".5"/><path d="M190.676 70.234l13.367 17.825-57.93 1.785" fill="#cb3c33" fill-opacity=".5"/><path d="M161.516 139.285l43.644 17.645-61.289 21.36" fill="#389826" fill-opacity=".5"/><path d="M196.297 205.54l-51.707-25.384 62.05-21.62M205.074 91.488l1.883 64.012-44.246-17.887" fill="#9558b2" fill-opacity=".5"/><path d="M181.145 298.773l27.02 33.543-51.243 9.317" fill="#389826" fill-opacity=".5"/><path d="M191.352 66.734L170.398-1.848l63.817 6.668" fill="#9558b2" fill-opacity=".5"/><path d="M218.621-17.828L233.848 2.77 173.844-3.5M206.11 87.477l-13.41-17.88 42.015-10.726" fill="#389826" fill-opacity=".5"/><path d="M235.113 7.035l1.856 49.195-43.625 11.137M208.965 155.727l-1.86-63.165 35.297 54.805" fill="#4063d8" fill-opacity=".5"/><path d="M237.969 58.445l20.02 21.84-49.141 7.281" fill="#cb3c33" fill-opacity=".5"/><path d="M243.57 145.488l-35.89-55.726 51.004-7.555" fill="#389826" fill-opacity=".5"/><path d="M201.39 258.453L258.653 296h-76.035" fill="#cb3c33" fill-opacity=".5"/><path d="M210.195 331.648L183.09 298h75.707" fill="#9558b2" fill-opacity=".5"/><path d="M254.172 334.941l-41.25-2.75 47.668-33" fill="#4063d8" fill-opacity=".5"/><path d="M208.723 158.379l52.625 21.613-62.965 25.371" fill="#cb3c33" fill-opacity=".5"/><path d="M243.54 149.145l17.964 28.75-50.309-20.665M261.285 295.336l-57.207-37.512 64.711-3.754" fill="#389826" fill-opacity=".5"/><path d="M201.918 255.945l-3.762-47.035 68.672 43.274" fill="#cb3c33" fill-opacity=".5"/><path d="M263.113 181.434l5.727 69.652-69.652-43.89" fill="#4063d8" fill-opacity=".5"/><path d="M270.824 250.832l-5.41-65.855 24.356 47.812" fill="#cb3c33" fill-opacity=".5"/><path d="M260.707 82.352l30.578 12.046-45.406 50.043" fill="#4063d8" fill-opacity=".5"/><path d="M236.457 2.938l-15.156-20.504 73.996 13.37" fill="#9558b2" fill-opacity=".5"/><path d="M238.914 54.746l-1.879-49.863 62.094-7.528" fill="#cb3c33" fill-opacity=".5"/><path d="M262.824 298.074l42.23 3.672-48.656 32.133" fill="#9558b2" fill-opacity=".5"/><path d="M270.59 255.355l35.187 44.45-42.597-3.707" fill="#cb3c33" fill-opacity=".5"/><path d="M290.445 234.91l15.461 61.832-34.554-43.648" fill="#4063d8" fill-opacity=".5"/><path d="M291.36 231.504l-24.5-48.09 44.46 33.57" fill="#9558b2" fill-opacity=".5"/><path d="M264.293 178.582l-18.547-29.676 66.77-3.71" fill="#cb3c33" fill-opacity=".5"/><path d="M292.723 95.793l21.754 47.289-68.098 3.785M312.078 215.05l-46.371-35.015 49.211-34.07" fill="#389826" fill-opacity=".5"/><path d="M260.145 79.68L239.91 57.605l75.418-16.554" fill="#9558b2" fill-opacity=".5"/><path d="M301.637-2.273l16.976 40.554-77.336 16.977" fill="#389826" fill-opacity=".5"/><path d="M292.508 92.73l-30.41-11.98 55.293-38.703" fill="#cb3c33" fill-opacity=".5"/><path d="M154.941 344l120.793 16.105-174.968-15.37" fill="#389826" fill-opacity=".5"/><path d="M209.945 334.027l97.043 28.23-145.562-19.41" fill="#4063d8" fill-opacity=".5"/><path d="M254.754 336.984l51.484 22.97-87.125-25.345" fill="#9558b2" fill-opacity=".5"/><path d="M307.293 302.664l11.371 60.645-61.59-27.48" fill="#389826" fill-opacity=".5"/><path d="M320.254 37.016L304.172-1.406l30.379 19.66M308.535 299.016l-15.93-63.715 46.848 31.855" fill="#cb3c33" fill-opacity=".5"/><path d="M312.676 218.473l25.379 45.316-45.317-30.816M316.137 141.906L294.62 95.13l48.649 3.742" fill="#4063d8" fill-opacity=".5"/><path d="M319.934 41.406l23.503 55.469-48.89-3.758" fill="#389826" fill-opacity=".5"/><path d="M320.48 362.14l-11.23-59.898 41.18 7.488" fill="#cb3c33" fill-opacity=".5"/><path d="M340.48 268.969l10.157 38.765-40.614-7.382" fill="#9558b2" fill-opacity=".5"/><path d="M316.93 145.738l38.511 23.485-41.328 45.086" fill="#cb3c33" fill-opacity=".5"/><path d="M340.684 264.387L314.426 217.5l44.074-17.813" fill="#9558b2" fill-opacity=".5"/><path d="M356.234 171.316l2.696 26.04-42.203 17.058" fill="#4063d8" fill-opacity=".5"/><path d="M336.266 19.305l24.586 14.047-38.637 4.39" fill="#389826" fill-opacity=".5"/><path d="M344.836 95.047L321.44 39.844l41.168-4.68" fill="#cb3c33" fill-opacity=".5"/><path d="M352.02 310.98l13.628 22.711-42.703 28.168M352.46 306.813l-10.14-38.715 38.72 2.765" fill="#389826" fill-opacity=".5"/><path d="M360.07 201.508l21.528 67.39-39.309-2.808" fill="#4063d8" fill-opacity=".5"/><path d="M345.203 99.55l37.55 34.735-64.773 8.45" fill="#9558b2" fill-opacity=".5"/><path d="M356.781 167.695l-37.836-23.07 63.672-8.305" fill="#389826" fill-opacity=".5"/><path d="M363.645 32.645l-25.567-14.61 50.223-26.48" fill="#cb3c33" fill-opacity=".5"/><path d="M336.05 16.844L305.024-3.234l81.22-6.387M364.21 36.805l34.974 74.672L346.25 97.3" fill="#389826" fill-opacity=".5"/><path d="M384.852 133.5l-36.204-33.488 50.688 13.578M367.043 335.168l32.828 18.238-75.683 10.031" fill="#cb3c33" fill-opacity=".5"/><path d="M367.273 332.508l-13.691-22.813 57.496-11.863" fill="#9558b2" fill-opacity=".5"/><path d="M383.152 271.414l29.582 24.031-58.234 12.02" fill="#cb3c33" fill-opacity=".5"/><path d="M402.297 352.465l-33.5-18.61 44.668-35.363" fill="#389826" fill-opacity=".5"/><path d="M360.887 196.844l-2.73-26.395 53.702 18.203" fill="#cb3c33" fill-opacity=".5"/><path d="M384.852 136.75l28.964 50.453-55.125-18.683" fill="#9558b2" fill-opacity=".5"/><path d="M383.113 267.07l-21.808-68.265 53.097-8.535M390.984-9.027L415.266 33h-49.5" fill="#389826" fill-opacity=".5"/><path d="M400.621 109.832L365.574 35h50.203" fill="#cb3c33" fill-opacity=".5"/><path d="M414.59 294.379l-29.336-23.836 43.09-9.168" fill="#389826" fill-opacity=".5"/><path d="M415.664 192.473l13.164 66.754-44.191 9.402" fill="#cb3c33" fill-opacity=".5"/><path d="M401.191 114.438l27.73 22.363-42.042-2.684" fill="#9558b2" fill-opacity=".5"/><path d="M415.73 186.52l-28.937-50.403 43.871 2.801" fill="#389826" fill-opacity=".5"/><path d="M415.234 299.797l15.477 45.52-26.399 7.285M430.152 262.234l15.29 26.082-28.782 6.297" fill="#cb3c33" fill-opacity=".5"/><path d="M431.879 342.535l-15.57-45.797 29.308-6.41" fill="#389826" fill-opacity=".5"/><path d="M417.645 35.848l34.832 29.183-49.891 45.184" fill="#4063d8" fill-opacity=".5"/><path d="M417.2 32.348L392.69-10.07l67.868-2.828" fill="#9558b2" fill-opacity=".5"/><path d="M431.79 136.543l-28.72-23.16 57.438-18.528" fill="#cb3c33" fill-opacity=".5"/><path d="M453.523 66.781l8.22 25.574-56.626 18.266" fill="#389826" fill-opacity=".5"/><path d="M430.434 257.035l-13.211-67.012 48.132.946" fill="#4063d8" fill-opacity=".5"/><path d="M432.332 140.285l32.766 48.676-47.743-.934" fill="#cb3c33" fill-opacity=".5"/><path d="M462.84 94.996l17.648 37.149-46.441 4.644" fill="#9558b2" fill-opacity=".5"/><path d="M466.594 187.61l-32.832-48.782 46.906-4.691" fill="#389826" fill-opacity=".5"/><path d="M463.063-12.621l21.05 18.309-63.156 25.625M454.086 63.766l-33.672-28.207 62.793 10.007" fill="#cb3c33" fill-opacity=".5"/><path d="M485 7.484v36.344l-64.3-10.25" fill="#4063d8" fill-opacity=".5"/><path d="M463.184 90.305l-7.993-24.871 28.418-17.762" fill="#9558b2" fill-opacity=".5"/><path d="M447.313 287.555l-15.602-26.61 55.98-1.836" fill="#4063d8" fill-opacity=".5"/><path d="M466.816 192.484l22.786 64.563-57.914 1.898M447.543 290.86l47.277 43.495-61.457 10.399M482.223 131.133L464.93 94.734l36.402 12.743" fill="#cb3c33" fill-opacity=".5"/><path d="M485.742 47.848l15.79 57.578-37.15-13" fill="#389826" fill-opacity=".5"/><path d="M490.477 259.594l17.882 53.648-59.296-24.472" fill="#cb3c33" fill-opacity=".5"/><path d="M496.805 333.465l-44.993-41.399 56.692 23.399" fill="#389826" fill-opacity=".5"/><path d="M482.277 135.871l28.036 57.934-42.051-4.672" fill="#9558b2" fill-opacity=".5"/><path d="M490.973 254.918l-22.5-63.75 42.187 4.687" fill="#389826" fill-opacity=".5"/><path d="M432.11 347.008l73.316 3.629-94.363 2.175" fill="#9558b2" fill-opacity=".5"/><path d="M496.871 336.035l30.824 13.7-86.48-4.282" fill="#389826" fill-opacity=".5"/><path d="M509.992 316.848l20.375 31.886-31.89-14.171M503.027 108.555l31.172 35.757-50.422-11.921" fill="#4063d8" fill-opacity=".5"/><path d="M512.023 192.754l-28.207-58.297 51.715 12.223M512.5 196.656l24.93 19.39-44.317 38.774" fill="#cb3c33" fill-opacity=".5"/><path d="M536.113 149.941l1.828 63.97-24.675-19.192M510.156 312.305l-17.812-53.438 45-4.687" fill="#4063d8" fill-opacity=".5"/><path d="M538 218.203v33.895l-43.973 4.582M536.219 143.586l-31.2-35.793 34.872-3.672" fill="#389826" fill-opacity=".5"/><path d="M503.738 105.918L488.02 48.582l50.859 53.637" fill="#cb3c33" fill-opacity=".5"/><path d="M486.195 4.848l-20.629-17.942 72.657-2.691" fill="#389826" fill-opacity=".5"/><path d="M487 42.469V6.679l53.223-21.105" fill="#cb3c33" fill-opacity=".5"/><path d="M532.793 348.82l-21.18-33.152 37.758-8.285" fill="#389826" fill-opacity=".5"/><path d="M538.668 256.066l11.133 49.172-38.035 8.352M540.824 101.36L488.63 46.32l79.715 9.489" fill="#9558b2" fill-opacity=".5"/><path d="M543.613-15.125l24.895 68.941-80.43-9.574" fill="#4063d8" fill-opacity=".5"/><path d="M551.383 303.16l-11.219-49.543 47.676-18.695" fill="#cb3c33" fill-opacity=".5"/><path d="M540 251.535v-34.148l47.066 15.691M570.504 53.445l-23.66-65.515 43.68 51.867" fill="#9558b2" fill-opacity=".5"/><path d="M541.883 104.324l47.43 14.88-51.153 25.112" fill="#cb3c33" fill-opacity=".5"/><path d="M569.75 57.348l20.66 60.105-47.894-15.027" fill="#389826" fill-opacity=".5"/><path d="M591 41.89v71.126l-19.805-57.621" fill="#cb3c33" fill-opacity=".5"/><path d="M589.293 231.71l-45.773-15.257 51.156-6.281" fill="#4063d8" fill-opacity=".5"/><path d="M539.969 214.875l-1.895-66.266 55.852 59.637M591.242 37.547l-44.816-53.219 49.484 6.535" fill="#cb3c33" fill-opacity=".5"/><path d="M591.473 120.375l7.109 17.777-56 6.223" fill="#9558b2" fill-opacity=".5"/><path d="M595.133 206.613l-56.04-59.84 59.84-6.648" fill="#389826" fill-opacity=".5"/><path d="M551.316 307.898l47.051 54.582-63.988-12.234" fill="#9558b2" fill-opacity=".5"/><path d="M589.676 235.73l19.984 77.083-57.097-7.614" fill="#389826" fill-opacity=".5"/><path d="M600.422 361.797l-46.95-54.457 56.337 7.512M600.895 140.867l32.628 23.309-36.359 41.953" fill="#4063d8" fill-opacity=".5"/><path d="M634.172 162.18l-32.578-23.27 38.164-34.441" fill="#389826" fill-opacity=".5"/><path d="M600.395 137.297l-7.079-17.695 43.352-15.04" fill="#cb3c33" fill-opacity=".5"/><path d="M593 117.594V42.879l46.344 58.637" fill="#4063d8" fill-opacity=".5"/><path d="M596.629 210.605l44.027 28.754-49.418-7.191" fill="#cb3c33" fill-opacity=".5"/><path d="M611.27 311.055l-19.922-76.848 52.18 7.59" fill="#9558b2" fill-opacity=".5"/><path d="M611.555 316.32l34.48 43.805-43.8 2.793" fill="#cb3c33" fill-opacity=".5"/><path d="M597.805-8l50.675 43.168-55.367 3.754" fill="#4063d8" fill-opacity=".5"/><path d="M640.355 99.574l-46.394-58.703 55.863-3.789" fill="#cb3c33" fill-opacity=".5"/><path d="M635.04 165.484l23.1 24.024L599 207.066" fill="#9558b2" fill-opacity=".5"/><path d="M644.422 239.426l-46.067-30.082 60.168-17.864" fill="#389826" fill-opacity=".5"/><path d="M650.625 34.367l-49.152-41.87 59.164 19.112" fill="#cb3c33" fill-opacity=".5"/><path d="M644.773 243.852l20.872 73.05-53.125-3.797" fill="#4063d8" fill-opacity=".5"/><path d="M647.758 359.074l-34.574-43.914 52.328 3.735" fill="#389826" fill-opacity=".5"/><path d="M660.094 193.223l21.261 59.156-35.125-12.016" fill="#cb3c33" fill-opacity=".5"/><path d="M666.938 314.133l-20.45-71.567 35.32 12.082" fill="#389826" fill-opacity=".5"/><path d="M641.91 102.957l39.988-1.86-45.566 59.516" fill="#cb3c33" fill-opacity=".5"/><path d="M651.527 39.203l30.871 59.871-40.226 1.871" fill="#389826" fill-opacity=".5"/><path d="M662.008 9.953L606.176-8.086 692.93.504" fill="#4063d8" fill-opacity=".5"/><path d="M662.242 12.93l36.172 46.12-46.117-23.51" fill="#389826" fill-opacity=".5"/><path d="M697.082 1.324l3.711 57.52-37.106-47.313M683.96 97.746l-30.648-59.445 47.368 24.148" fill="#cb3c33" fill-opacity=".5"/><path d="M659.992 188.55l-23.195-24.12 68.656-24.125" fill="#4063d8" fill-opacity=".5"/><path d="M683.938 101.727l23.523 35.753-69.629 24.465M683.102 251.32l-21.762-60.543 52.976-9.46" fill="#389826" fill-opacity=".5"/><path d="M708.344 140.152l6.508 39.036-52.047 9.296M667.52 319.3l46.593 19.571-64.3 20.5M683.36 256.688l34.894 62.246-49.984-1.887" fill="#cb3c33" fill-opacity=".5"/><path d="M716.21 337.586l-43.753-18.379 46.379 1.75" fill="#4063d8" fill-opacity=".5"/><path d="M716.156 182.105l19.504 30.657-50.156 38.082" fill="#cb3c33" fill-opacity=".5"/><path d="M702.336 63.625l37.148 32.504-53.863 2.785" fill="#389826" fill-opacity=".5"/><path d="M709.082 136.305l-23.289-35.395 54.027-2.797" fill="#9558b2" fill-opacity=".5"/><path d="M736.477 214.652l6.265 19.692-54.597 17.008" fill="#389826" fill-opacity=".5"/><path d="M741.102 94.883l-37.45-32.766 40.254-26.215" fill="#4063d8" fill-opacity=".5"/><path d="M702.887 60.23l-3.754-58.175 44.101 31.902" fill="#389826" fill-opacity=".5"/><path d="M744.223 32.203L700.336.457l49.488-12.14" fill="#9558b2" fill-opacity=".5"/><path d="M716.629 177.695l-6.477-38.87 45.348-7.403" fill="#389826" fill-opacity=".5"/><path d="M741.79 98.855l14.726 30.375-45.098 7.364" fill="#cb3c33" fill-opacity=".5"/><path d="M720.316 318.52l-35.011-62.454 75.699 32.172" fill="#389826" fill-opacity=".5"/><path d="M743.383 236.238l17.906 49.946-75.39-32.04" fill="#4063d8" fill-opacity=".5"/><path d="M716.988 340.055l41.766 14.215-103.074 5.332" fill="#389826" fill-opacity=".5"/><path d="M720.719 321.852l38.152 30.347-40.754-13.875" fill="#cb3c33" fill-opacity=".5"/><path d="M762.027 289.969l.942 62.933-41.328-32.875" fill="#9558b2" fill-opacity=".5"/><path d="M763.32 285.926l-17.449-48.672 37.652 22.039" fill="#389826" fill-opacity=".5"/><path d="M764.96 352.273l-.92-61.703 27.628 29.47" fill="#cb3c33" fill-opacity=".5"/><path d="M784.324 261.543l7.281 55.508-27.296-29.117M745.922 35.633l49.101 26.437-51.933 33.051" fill="#9558b2" fill-opacity=".5"/><path d="M737.36 211.703l-19.524-30.68 79.023.93" fill="#4063d8" fill-opacity=".5"/><path d="M758 131.555l40.828 48.418-80.703-.95M784.3 257.434l-38.644-22.625 53.727-50.899" fill="#cb3c33" fill-opacity=".5"/><path d="M744.469 233.176l-6.258-19.664 57.21-28.606" fill="#9558b2" fill-opacity=".5"/><path d="M792.398 322.293l7.344 40.371-33.953-8.258" fill="#4063d8" fill-opacity=".5"/><path d="M800.941 179.379l-35.918-42.598 42.602 33.41M751.844-11.723L811.949 5.18l-65.738 27.238" fill="#389826" fill-opacity=".5"/><path d="M796.41 60.547l-49.082-26.43 66.07-27.37" fill="#cb3c33" fill-opacity=".5"/><path d="M758.332 128.395l-14.879-30.688 67.89-14.883" fill="#9558b2" fill-opacity=".5"/><path d="M796.84 63.285l16.215 17.117-65.758 14.414" fill="#389826" fill-opacity=".5"/><path d="M808.129 168.047l-48.555-38.082 54.266-46.653" fill="#4063d8" fill-opacity=".5"/><path d="M801.773 362.656l-7.32-40.254 37.508 29.274M815.777 84.313l35.84 61.304-41.496 22.633" fill="#cb3c33" fill-opacity=".5"/><path d="M841.145 84.91l9.894 55.75-34.172-58.445M809.352 171.215l47.906 18.996-54.512-9.91" fill="#9558b2" fill-opacity=".5"/><path d="M852.395 147.469l13.058 43.844-54.101-21.458" fill="#389826" fill-opacity=".5"/><path d="M815.191 4.016L777.45-6.602l69.59 14.157M801.629 182.906l65.223 58.508-80.567 16.305" fill="#9558b2" fill-opacity=".5"/><path d="M866.035 193.84l1.867 45.832-63.601-57.055" fill="#cb3c33" fill-opacity=".5"/><path d="M833.93 350.676l-38.117-29.75 70.652-1.86" fill="#389826" fill-opacity=".5"/><path d="M793.875 318.977l-7.586-57.852 79.66 55.953" fill="#4063d8" fill-opacity=".5"/><path d="M868 243.223v72.851l-80.523-56.554M815.508 6.707l52.144 42.664-69.207 11.379" fill="#389826" fill-opacity=".5"/><path d="M841.574 82.945l-23.383-2.597 47.625-26.844" fill="#4063d8" fill-opacity=".5"/><path d="M815.188 79.746L799.023 62.68l65.563-10.778M868.023 11.898l.922 35.946L818.25 6.367" fill="#cb3c33" fill-opacity=".5"/><path d="M869.816 51.797l8.782 16.683-33.368 13.168M869.813 237.387l-1.743-42.649 15.668 8.703" fill="#389826" fill-opacity=".5"/><path d="M868.727 319.66l20.488 40.047-53.082-8.383" fill="#cb3c33" fill-opacity=".5"/><path d="M884.258 201.445l-15.715-8.734 21.824-26.191" fill="#9558b2" fill-opacity=".5"/><path d="M867.426 190.926l-12.852-43.149 35.805 15.606" fill="#cb3c33" fill-opacity=".5"/><path d="M890.441 357.71l-19.836-38.769 25.243-.898" fill="#389826" fill-opacity=".5"/><path d="M870 316.965v-69.426l25.578 68.512" fill="#cb3c33" fill-opacity=".5"/><path d="M853.691 144.176l-10.39-58.567 55.734 22.672" fill="#4063d8" fill-opacity=".5"/><path d="M879.54 70.258l19.26 35.77-54.112-22.012" fill="#cb3c33" fill-opacity=".5"/><path d="M891.223 161.57l-36.297-15.82 44.672-35.363M880.031 66.914l-8.773-16.672 35.097-29.832" fill="#9558b2" fill-opacity=".5"/><path d="M870.945 47.883l-.914-35.75 37.582 4.582" fill="#389826" fill-opacity=".5"/><path d="M885.41 204.637l32.328 26.789-47.11 9.234" fill="#cb3c33" fill-opacity=".5"/><path d="M896.848 313.734l-26.5-70.98 48.265-9.465" fill="#389826" fill-opacity=".5"/><path d="M909.98 14.992l-22.183-2.707 35.71.54" fill="#cb3c33" fill-opacity=".5"/><path d="M869.11 10L781.058-7.906l137.296 18.652" fill="#4063d8" fill-opacity=".5"/><path d="M920.008 235.797l17.785 64.594-39.316 14.976M897.816 318.414l45.614 18.617-51.2 22.34" fill="#cb3c33" fill-opacity=".5"/><path d="M938.246 302.36l6.418 33.015-44.937-18.344" fill="#4063d8" fill-opacity=".5"/><path d="M892.719 164.688l56.926 38.261-63.457-.933" fill="#389826" fill-opacity=".5"/><path d="M919.992 230.695l-32.168-26.652 62.496.918" fill="#4063d8" fill-opacity=".5"/><path d="M901.352 106.543l-19.664-36.52 71.164.934" fill="#389826" fill-opacity=".5"/><path d="M910.164 17.738l43.645 51.235-72.106-.95" fill="#cb3c33" fill-opacity=".5"/><path d="M934.34 13.117l18.84 52.028-41.266-48.438" fill="#389826" fill-opacity=".5"/><path d="M901.766 109.512l53.8 27.37-62.296 24.544" fill="#cb3c33" fill-opacity=".5"/><path d="M952.129 202.21l-57.992-38.98 62.746-24.714" fill="#9558b2" fill-opacity=".5"/><path d="M939.438 298.82l-17.762-64.5 44.87 29.914" fill="#4063d8" fill-opacity=".5"/><path d="M952.422 205.805l13.98 55.93-44.742-29.833M955.465 71.586l12.144 37.371-63.53-1.867" fill="#cb3c33" fill-opacity=".5"/><path d="M957.484 135.617l-52.058-26.488 62.105 1.828" fill="#389826" fill-opacity=".5"/><path d="M956.59 68.688l-19.285-53.262 46.832 42.242" fill="#4063d8" fill-opacity=".5"/><path d="M985.21 55.941l-47.706-43.03 52.383-1.872" fill="#389826" fill-opacity=".5"/><path d="M969.469 108.207l-11.852-36.46 35.551 14.581" fill="#9558b2" fill-opacity=".5"/><path d="M985.375 59.328l8.016 24.93-34.727-14.246" fill="#389826" fill-opacity=".5"/><path d="M946.77 335.723l-6.473-33.286 58.25 17.567" fill="#cb3c33" fill-opacity=".5"/><path d="M967.895 265.754l31.898 52.535-59.102-17.824M968.672 262.563l-13.977-55.91 48.453 39.136" fill="#9558b2" fill-opacity=".5"/><path d="M1001.137 316.648l-31.711-52.23 34.508-16.785" fill="#389826" fill-opacity=".5"/><path d="M969.488 111.45l35.282 20.804-45.23 3.621" fill="#cb3c33" fill-opacity=".5"/><path d="M994.473 87.848l11.902 43.035-35.707-21.063M958.934 137.93l46.89-3.754-51.578 66.586M946.035 338.074l65.992 23.832-116.402-1.832" fill="#389826" fill-opacity=".5"/><path d="M1001.39 321.23l14.919 40.098-67.137-24.246" fill="#9558b2" fill-opacity=".5"/><path d="M1004.543 244.344l-48.66-39.301 62.695.937" fill="#4063d8" fill-opacity=".5"/><path d="M1007.39 135.422l11.426 68.558-63.8-.949" fill="#cb3c33" fill-opacity=".5"/><path d="M1020.105 207.625l15.415 33.55-29.016 3.63M1018.508 361.492l-14.363-38.597 34.109 26.03" fill="#389826" fill-opacity=".5"/><path d="M1008.645 131.574l-12.028-43.48 46.258 26.828" fill="#9558b2" fill-opacity=".5"/><path d="M991.86 11.398l51.535 19.676-56.22 25.301M1044.02 113.277l-47.438-27.515 48.387-52.18" fill="#cb3c33" fill-opacity=".5"/><path d="M995.43 84.066l-8.203-25.52 54.687-24.612" fill="#9558b2" fill-opacity=".5"/><path d="M1005.867 249.32l40.434 65.825-43.254 3.761" fill="#cb3c33" fill-opacity=".5"/><path d="M1036.156 243.113l10.137 68.196-39.629-64.508M1039.39 347.277l-34.73-26.504 42.04-3.656" fill="#9558b2" fill-opacity=".5"/><path d="M1045.46 29.723l-50.19-19.164 61.14-6.387" fill="#389826" fill-opacity=".5"/><path d="M1037.36 240.387l-15.47-33.668 39.126 13.648" fill="#cb3c33" fill-opacity=".5"/><path d="M1020.707 203.148l-11.363-68.168 54.914 33.137" fill="#9558b2" fill-opacity=".5"/><path d="M1044.469 116.371l19.508 49.242-53.883-32.52" fill="#389826" fill-opacity=".5"/><path d="M1062.078 218.621l-40.047-13.973 42.84-34.457" fill="#4063d8" fill-opacity=".5"/><path d="M1066.902 169.75l16.77 10.594-19.418 35.304M1048.586 313.14l-10.395-69.913 48.188 8.503" fill="#cb3c33" fill-opacity=".5"/><path d="M1062.863 221.426l22.684 28.125-46.274-8.164" fill="#9558b2" fill-opacity=".5"/><path d="M1084.152 183.617l2.72 64.39-22.673-28.112M1046.969 33.527l44.515 48.301-45.46 31.254" fill="#389826" fill-opacity=".5"/><path d="M1048.777 317.047l48.364 2.734-55.664 27.38" fill="#cb3c33" fill-opacity=".5"/><path d="M1087.5 253.719l12.277 64.21-50.047-2.831" fill="#389826" fill-opacity=".5"/><path d="M1058.434 4.531l43.898 31.098-54.875-5.488" fill="#cb3c33" fill-opacity=".5"/><path d="M1092.531 80.016l-44.011-47.758 56.187 5.617" fill="#9558b2" fill-opacity=".5"/><path d="M990.867 9.004l-40.594 1.45 125.414-21.024" fill="#cb3c33" fill-opacity=".5"/><path d="M934.984 10.988L764.66-12.152l330.465-3.703" fill="#389826" fill-opacity=".5"/><path d="M1057.758 2.02l-50.672 5.292 88.484-20.417" fill="#9558b2" fill-opacity=".5"/><path d="M1105.07 35.113l-44.992-31.867 46.867-18.746" fill="#389826" fill-opacity=".5"/><path d="M1084.645 178.594l-16.832-10.633 37.203-25.684" fill="#4063d8" fill-opacity=".5"/><path d="M1066.465 166.46l-19.7-49.718 59.102 22.516" fill="#cb3c33" fill-opacity=".5"/><path d="M1092.395 83.629l14.144 53.742-59.402-22.629" fill="#9558b2" fill-opacity=".5"/><path d="M1100.355 320.434l11.258 41.28-68.492-13.132" fill="#389826" fill-opacity=".5"/><path d="M1108.902-14.34l21.735 26.262-23.547 22.64" fill="#cb3c33" fill-opacity=".5"/><path d="M1106.438 39.082l33.492 40-45.582 1.863" fill="#389826" fill-opacity=".5"/><path d="M1108.348 136.395l-14.063-53.446 45.942-1.875" fill="#cb3c33" fill-opacity=".5"/><path d="M1113.563 361.27l-11.102-40.715 43.488 14.804" fill="#4063d8" fill-opacity=".5"/><path d="M1101.75 317.605l-12.266-64.164 57.559 45.29" fill="#9558b2" fill-opacity=".5"/><path d="M1146.043 256.922l1.855 39.941-56.656-44.586M1147.04 333.617l-43.212-14.71 44.129-18.387" fill="#cb3c33" fill-opacity=".5"/><path d="M1131.672 13.703l16.473 36.606-40.27-13.727" fill="#9558b2" fill-opacity=".5"/><path d="M1141.555 77.914l-32.493-38.812 39.715 13.539M1108.363 140.398l39.047 24.172-60.433 13.946" fill="#cb3c33" fill-opacity=".5"/><path d="M1141.297 83.219l7.52 79.87-39.465-24.429M1146.113 254.922l-55.863-4.734 63.441-62.493" fill="#389826" fill-opacity=".5"/><path d="M1088.902 248.707l-2.855-67.629 66.676 4.762" fill="#4063d8" fill-opacity=".5"/><path d="M1149.27 166.195l4.425 17.707-61.98-4.425" fill="#9558b2" fill-opacity=".5"/><path d="M1149.898 296.79l-1.828-39.31 31.078 11.883M1149.957 300.555l30.879 14.53-31.785 18.165" fill="#389826" fill-opacity=".5"/><path d="M1180.094 271.219l1.836 42.172-31.172-14.668" fill="#cb3c33" fill-opacity=".5"/><path d="M1132.3 10.797l-22.03-26.625 73.44 5.508" fill="#9558b2" fill-opacity=".5"/><path d="M1150.129 49.852l-16.793-37.32 52.246-21.458M1148.086 336.21l40.406 23.88-72.547 1.836" fill="#389826" fill-opacity=".5"/><path d="M1182.285 316.559l8.305 42.445-40.602-23.988" fill="#cb3c33" fill-opacity=".5"/><path d="M1155.895 185.98l41.117-.933-48.59 67.277" fill="#9558b2" fill-opacity=".5"/><path d="M1180.266 267.648l-31.692-12.117 48.469-67.113" fill="#cb3c33" fill-opacity=".5"/><path d="M1155.777 183.98l-4.34-17.351 42.512 16.484M1150.578 53.617l47.442 32.844-54.739-7.3" fill="#389826" fill-opacity=".5"/><path d="M1150.734 162.125l-7.62-80.969 57.156 7.621" fill="#cb3c33" fill-opacity=".5"/><path d="M1198.203 182.617l-44.86-17.394 49.438-11.903" fill="#4063d8" fill-opacity=".5"/><path d="M1201.098 91.125l1.879 60.094-50.707 12.207" fill="#9558b2" fill-opacity=".5"/><path d="M1187.633-8.453l17.035 65.305-53-5.68" fill="#cb3c33" fill-opacity=".5"/><path d="M1201.227 86.246l-47.43-32.832 51.078 5.473M1206.3 55.195l-17.03-65.285 52.039-3.785" fill="#9558b2" fill-opacity=".5"/><path d="M1204.938 149.996l-1.883-60.223 45.168 26.348" fill="#389826" fill-opacity=".5"/><path d="M1206.672 60.54l39.5 52.07-43.094-25.137" fill="#4063d8" fill-opacity=".5"/><path d="M1204.863 152.965l43.489-1.813-48.02 30.805" fill="#9558b2" fill-opacity=".5"/><path d="M1249.113 117.965l1.828 31.078-43.875 1.828" fill="#cb3c33" fill-opacity=".5"/><path d="M1192.629 359.004l-8.453-43.195 64.789-11.266" fill="#389826" fill-opacity=".5"/><path d="M1183.95 313.82l-1.88-43.199 66.676 31.93" fill="#9558b2" fill-opacity=".5"/><path d="M1251.152 151.73l3.735 41.06-53.192-9.333" fill="#389826" fill-opacity=".5"/><path d="M1242.754-12.3l14.035 47.726-48.66 20.59" fill="#4063d8" fill-opacity=".5"/><path d="M1249.258 113.367l-41.684-54.945 49.262-20.844M1199.563 186.176l61.472 71.078-78.762 10.566" fill="#389826" fill-opacity=".5"/><path d="M1255.086 194.855l6.57 60.063-60.062-69.45M1251.32 301.566l-66.867-32.02 77.227-10.358M1251.45 304.922l10.323 41.3-66.64 13.141" fill="#cb3c33" fill-opacity=".5"/><path d="M1256.906 192.938l-3.62-39.833 31.687 38.024" fill="#9558b2" fill-opacity=".5"/><path d="M1263.527 253.625l-6.418-58.695 28.43-1.832M1263.672 345.566l-9.918-39.668 32.457 28.852" fill="#4063d8" fill-opacity=".5"/><path d="M1252.89 148.117l-1.828-31.07 42.036 1.828" fill="#9558b2" fill-opacity=".5"/><path d="M1258.633 39.738l35.77 77.192-43.301-1.883" fill="#4063d8" fill-opacity=".5"/><path d="M1293.023 36.027l1.86 77.188-35.336-76.258" fill="#9558b2" fill-opacity=".5"/><path d="M1286.59 196.059l8.277 56.101-30.351 4.598M1293.117 34.023l-31.418.875 34.04-20.945" fill="#389826" fill-opacity=".5"/><path d="M1258.59 34.46l-13.98-47.538 50.335 25.168M1286.516 189.855l-32.743-39.292 45.836-12.16" fill="#cb3c33" fill-opacity=".5"/><path d="M1295.406 119.668l4.371 16.621-42.859 11.371M1263.445 260.39l38.172 54.934-48.414-13.035" fill="#389826" fill-opacity=".5"/><path d="M1295.137 254.14l7.367 58.954-37.766-54.344M1287.918 333.59l-32.086-28.524 46.344 12.48" fill="#cb3c33" fill-opacity=".5"/><path d="M1301.809 137.879l32.73-5.457-45.46 55.465" fill="#389826" fill-opacity=".5"/><path d="M1301.734 135.863l-4.304-16.36 35.304 11.192" fill="#cb3c33" fill-opacity=".5"/><path d="M1336.363 129.75l-37.515-11.895 48.496-21.046" fill="#9558b2" fill-opacity=".5"/><path d="M1296.965 116.492l-1.902-78.851 52.253 57M1297.762 13.887l47.988 38.21-50.652-17.773" fill="#cb3c33" fill-opacity=".5"/><path d="M1348.121 92.563l-50.687-55.297 52.53 18.43" fill="#4063d8" fill-opacity=".5"/><path d="M1262.996 348.02l76.738 15.695-138.652-3.488" fill="#389826" fill-opacity=".5"/><path d="M1288 336.11l55.164 26.265-77.05-15.758" fill="#cb3c33" fill-opacity=".5"/><path d="M1304.035 318.465l42.313 43.21-56.715-27.007" fill="#9558b2" fill-opacity=".5"/><path d="M1350.238 53.117l-50.851-40.496 57.445-9.418" fill="#389826" fill-opacity=".5"/><path d="M1296.852 251.914l-8.508-57.648 68.992 51.98" fill="#cb3c33" fill-opacity=".5"/><path d="M1350.36 362.918l-44.598-45.547 56.933-22.773" fill="#389826" fill-opacity=".5"/><path d="M1304.832 315.59l-7.586-60.7 64.488 37.938" fill="#4063d8" fill-opacity=".5"/><path d="M1359.09 248.09l3.746 43.066-63.66-37.449M1336.781 132.844l28.614 59.136-76.305-.953" fill="#9558b2" fill-opacity=".5"/><path d="M1359.23 245.168l-69.19-52.129 75.823.945" fill="#389826" fill-opacity=".5"/><path d="M1357.586 1.055l-49.574 8.129 71.52-25.196" fill="#4063d8" fill-opacity=".5"/><path d="M1297.066 10.914l-50.054-25.027 131.629-3.707" fill="#389826" fill-opacity=".5"/><path d="M1364.43 296.254l23.25 49.289-35.34 17.668" fill="#cb3c33" fill-opacity=".5"/><path d="M1351.898 57.047l43.399 36.008-45.246.922" fill="#9558b2" fill-opacity=".5"/><path d="M1349.39 96.988l45.446 52.864-56.574-19.477" fill="#389826" fill-opacity=".5"/><path d="M1397 95.02v54.28l-45.86-53.343" fill="#4063d8" fill-opacity=".5"/><path d="M1367.188 191.094l-28.243-58.367 57.426 19.77" fill="#cb3c33" fill-opacity=".5"/><path d="M1364.797 290.617l-3.711-42.683 44.535-2.782" fill="#389826" fill-opacity=".5"/><path d="M1367.691 195.453l38.32 47.668-44.863 2.805M1358.777 3.746l50.852 34.844-57.441 15.066" fill="#9558b2" fill-opacity=".5"/><path d="M1384.625-17.441l24.926 53.55-49.856-34.16" fill="#cb3c33" fill-opacity=".5"/><path d="M1397.422 92.219l-44.285-36.746 57.476-15.075M1389.207 344.094l-23.289-49.371 48.441 16.765" fill="#389826" fill-opacity=".5"/><path d="M1407.27 246.313l7.546 63.218-49.066-16.984" fill="#cb3c33" fill-opacity=".5"/><path d="M1397.969 153.7l19.343 27.636-47.898 10.133" fill="#389826" fill-opacity=".5"/><path d="M1407.398 241.656l-38.597-48.015 48.957-10.356" fill="#4063d8" fill-opacity=".5"/><path d="M1418.73 179.871l-19.101-27.285 32.746-9.098" fill="#cb3c33" fill-opacity=".5"/><path d="M1399 150.684V97l33.32 44.43M1389.105 347.066l48.442 13.211-81.91 3.524" fill="#389826" fill-opacity=".5"/><path d="M1415.867 312.809l26.094 46.597-51.258-13.976" fill="#4063d8" fill-opacity=".5"/><path d="M1419.781 183.316l24.617 8.204-34.644 48.316" fill="#9558b2" fill-opacity=".5"/><path d="M1433.8 145.383l10.798 44.097-24.297-8.101" fill="#389826" fill-opacity=".5"/><path d="M1412.492 41.117l38.547 45.125-51.707 6.582" fill="#9558b2" fill-opacity=".5"/><path d="M1444.156 38.055l7.293 45.593-37.387-43.773" fill="#389826" fill-opacity=".5"/><path d="M1433.668 139.895l-33.836-45.122 51.695-6.578M1444.14 36.05l-30.066 1.821 38.27-51.937" fill="#cb3c33" fill-opacity=".5"/><path d="M1412.195 37.05l-25.617-55.027 65.465.95" fill="#389826" fill-opacity=".5"/><path d="M1443.871 358.727l-26.281-46.934 48.808-6.57" fill="#9558b2" fill-opacity=".5"/><path d="M1467.02 303.121l-48.07 6.473 48.995-46.223" fill="#4063d8" fill-opacity=".5"/><path d="M1416.758 308.91l-7.586-63.547 57.855 16.125" fill="#389826" fill-opacity=".5"/><path d="M1445.664 193.184l21.8 66.351-57.82-16.113M1453.672 84.871l-7.399-46.242 36.993 15.723" fill="#cb3c33" fill-opacity=".5"/><path d="M1454.824-16.852l34.16 5.54-42.468 45.234" fill="#389826" fill-opacity=".5"/><path d="M1484.129 52.543l-37.418-15.902 43.031-45.84M1469.555 259.492l-20.938-63.73 41.88 50.984" fill="#9558b2" fill-opacity=".5"/><path d="M1468.48 305.438l21.829 12.734-43.66 39.113" fill="#4063d8" fill-opacity=".5"/><path d="M1469.887 265.871l20.093 49.793-20.968-12.23" fill="#cb3c33" fill-opacity=".5"/><path d="M1491 248.781v64.067l-20.754-51.434" fill="#389826" fill-opacity=".5"/><path d="M1446.559 189.074l-11.297-46.129 62.133-2.824" fill="#9558b2" fill-opacity=".5"/><path d="M1453.395 88.926l44.44 49.172-62.41 2.836M1491.434 244.734l-42.883-52.203 51.273 10.254" fill="#389826" fill-opacity=".5"/><path d="M1499.035 141.316l.945 59.461-51.91-10.382" fill="#4063d8" fill-opacity=".5"/><path d="M1491.742 319.574l15.707 27.715-60.054 12.012" fill="#cb3c33" fill-opacity=".5"/><path d="M1484.77 55.676l30.98 57.265-61.023-26.285" fill="#389826" fill-opacity=".5"/><path d="M1499.93 137.43l-43.11-47.696 59.618 25.68" fill="#cb3c33" fill-opacity=".5"/><path d="M1501.95 198.914l-.923-58.14 29.532 17.535" fill="#389826" fill-opacity=".5"/><path d="M1517.645 117.14l12.582 38.645-28.758-17.078M1508.832 345.68l-15.543-27.438 38.406-31.09" fill="#9558b2" fill-opacity=".5"/><path d="M1493 315.902v-66.687l39.45 34.754" fill="#cb3c33" fill-opacity=".5"/><path d="M1508.77 349.066l24.738 17.668-82.16-6.183" fill="#4063d8" fill-opacity=".5"/><path d="M1533.172 288.863l2.758 77.14-25.715-18.362" fill="#389826" fill-opacity=".5"/><path d="M1518.117 113.117l-30.441-56.273 48.89 30.441" fill="#9558b2" fill-opacity=".5"/><path d="M1531.422 152.988l-12.317-37.816 17.59-24.629" fill="#389826" fill-opacity=".5"/><path d="M1491.852-10.332l51.152 30.312-56.836 32.207" fill="#4063d8" fill-opacity=".5"/><path d="M1531.977 159.77l18.421 27.632-46.976 12.895M1537.73 85.652l-48.304-30.074 63.797 8.203" fill="#cb3c33" fill-opacity=".5"/><path d="M1544.328 21.531l9.371 40.293-65.597-8.433" fill="#389826" fill-opacity=".5"/><path d="M1501.691 203.648l63.032 41.395-71.5.941" fill="#cb3c33" fill-opacity=".5"/><path d="M1551.3 189.23l15.032 54.477-62.934-41.328" fill="#389826" fill-opacity=".5"/><path d="M1533.918 282.594l-39.309-34.63 71.13-.933M1568.145 242.766l-14.813-53.692 34.254 1.852" fill="#4063d8" fill-opacity=".5"/><path d="M1588.555 194.035l6.324 45.184-25.3 5.422" fill="#389826" fill-opacity=".5"/><path d="M1555.668 61.453l-9.32-40.07 54.05 13.976" fill="#9558b2" fill-opacity=".5"/><path d="M1537.934 366.14l-2.875-80.535 70.945 33.56" fill="#cb3c33" fill-opacity=".5"/><path d="M1567.8 247.719l37.845 69.058-70.008-33.109" fill="#9558b2" fill-opacity=".5"/><path d="M1595.172 241.2l10.992 72.366-36.64-66.87" fill="#4063d8" fill-opacity=".5"/><path d="M1538.809 89.309l67.746 71.562-73.473-3.816" fill="#cb3c33" fill-opacity=".5"/><path d="M1588.504 188.973l-32.387-1.75 49.895-22.762" fill="#389826" fill-opacity=".5"/><path d="M1552.36 186.738l-18.422-27.636 70.93 3.683" fill="#4063d8" fill-opacity=".5"/><path d="M1607.172 320.79l4.723 48.179-71.801-1.887M1555.297 64.309l55.687 31.039-71.207-9.13" fill="#389826" fill-opacity=".5"/><path d="M1608.238 159.738l-67.586-71.39 74.25 9.52" fill="#9558b2" fill-opacity=".5"/><path d="M1602.305 36.563l12.265 58.496-57.55-32.079" fill="#cb3c33" fill-opacity=".5"/><path d="M1602.555 33.852l-52.512-13.582 67.906-9.957" fill="#389826" fill-opacity=".5"/><path d="M1545.207 18.96l-49.145-29.124 117.399 19.113" fill="#cb3c33" fill-opacity=".5"/><path d="M1608.7 316.938l-11.153-73.418 38.101 47.394" fill="#389826" fill-opacity=".5"/><path d="M1596.875 239.035l-6.504-46.465 53.895 48.32" fill="#9558b2" fill-opacity=".5"/><path d="M1636.445 288.715l-38.289-47.63 47.63 1.868" fill="#cb3c33" fill-opacity=".5"/><path d="M1616.414 94.098L1604.23 36h43.106" fill="#389826" fill-opacity=".5"/><path d="M1620.2 10.523L1646.386 34h-41.54" fill="#4063d8" fill-opacity=".5"/><path d="M1616.727 99.574l38.546 49.828-45.125 11.282" fill="#389826" fill-opacity=".5"/><path d="M1648.473 38.121l8.375 53.984-39.09 3.723" fill="#9558b2" fill-opacity=".5"/><path d="M1656.05 147.137l-38.148-49.313 39.078-3.722" fill="#4063d8" fill-opacity=".5"/><path d="M1609.258 163.36l49.773 32.261-68.207-6.453" fill="#cb3c33" fill-opacity=".5"/><path d="M1646.559 240.262l-54.633-48.98 69.703 6.593" fill="#389826" fill-opacity=".5"/><path d="M1656.152 151.242l5.582 43.746-50.261-32.574" fill="#4063d8" fill-opacity=".5"/><path d="M1648.871 33.543l-26.055-23.36 42.227 2.696" fill="#389826" fill-opacity=".5"/><path d="M1613.871 368.656l-4.695-47.926 58.258 30.07" fill="#cb3c33" fill-opacity=".5"/><path d="M1636.754 292.629l30.789 55.976-57.844-29.855" fill="#9558b2" fill-opacity=".5"/><path d="M1647.758 243.297l34.152 11.078-43.383 34.152" fill="#389826" fill-opacity=".5"/><path d="M1663.016 199.938l19.336 52.476-34.067-11.047M1658.977 94.246l37.187 8.367-38.117 44.621" fill="#cb3c33" fill-opacity=".5"/><path d="M1697.64 103.96l9.09 25.462-46.375 18.187" fill="#9558b2" fill-opacity=".5"/><path d="M1670.21 349.305l-31.253-56.825 69.137 16.102" fill="#389826" fill-opacity=".5"/><path d="M1683.64 255.555l24.551 50.996-68.937-16.051" fill="#4063d8" fill-opacity=".5"/><path d="M1687.457 355.766l-15.668-5.223 34.816-37.426" fill="#cb3c33" fill-opacity=".5"/><path d="M1666.766 10.984l-40.121-2.562 77.68-18.777" fill="#9558b2" fill-opacity=".5"/><path d="M1619.96 7.98l-116.929-19.035 199.414-.906M1684.125 251.445l-19.723-53.527 46.957-2.816" fill="#389826" fill-opacity=".5"/><path d="M1663.875 195.945l-5.574-43.652 52.012 40.867" fill="#cb3c33" fill-opacity=".5"/><path d="M1707.11 131.426l4.714 60.379-52.832-41.512" fill="#4063d8" fill-opacity=".5"/><path d="M1697.387 100.836l-36.926-8.309 55.39-37.847" fill="#389826" fill-opacity=".5"/><path d="M1658.746 91.281l-8.527-54.949 65.37 16.105" fill="#cb3c33" fill-opacity=".5"/><path d="M1667.172 13.406l46.55 36.512-62.98-15.52" fill="#4063d8" fill-opacity=".5"/><path d="M1710.168-11.379l6.582 61.129-47.96-37.617" fill="#cb3c33" fill-opacity=".5"/><path d="M1709.895 310.68l19.55 54.933-40.035-9.312" fill="#389826" fill-opacity=".5"/><path d="M1708.59 128.68l-8.938-25.028 37.543 13.407" fill="#4063d8" fill-opacity=".5"/><path d="M1718.52 53.398l22.675 11.79-40.82 33.562" fill="#9558b2" fill-opacity=".5"/><path d="M1739.078 115.61L1700 101.651l41.871-34.43" fill="#cb3c33" fill-opacity=".5"/><path d="M1731.105 364.316l-19.675-55.285 44.039.938M1713.832 191.816l-4.719-60.418 50.977 16.047" fill="#9558b2" fill-opacity=".5"/><path d="M1739.656 118.219l19.73 26.91-48.437-15.25M1761.11 149.242l2.824 57.434-48.961-13.18M1742.531 63.629l-22.68-11.793 43.544-33.566" fill="#cb3c33" fill-opacity=".5"/><path d="M1718.805 50.117l-6.614-61.387 51.946 26.442" fill="#4063d8" fill-opacity=".5"/><path d="M1756.137 307.98l-44.133-.937 54.46-70.426" fill="#389826" fill-opacity=".5"/><path d="M1710.2 306.11l-24.766-51.438 80.011-20.004" fill="#9558b2" fill-opacity=".5"/><path d="M1713.387 195.5l52.261 37.059-79.82 19.953" fill="#4063d8" fill-opacity=".5"/><path d="M1764.086 208.79l2.652 22.089-48.597-34.461" fill="#389826" fill-opacity=".5"/><path d="M1765.715 202.145l-2.625-53.305 15.73 9.613M1743.918 66.418l54.574 20.7-57.394 28.23" fill="#9558b2" fill-opacity=".5"/><path d="M1761.95 145.242l-20.438-27.87 56.672-27.872" fill="#389826" fill-opacity=".5"/><path d="M1779.41 156.469l-16.012-9.785 34.692-53.371" fill="#4063d8" fill-opacity=".5"/><path d="M1766.324 16.688l36.606 34.726-58.192 12.2" fill="#389826" fill-opacity=".5"/><path d="M1800.152 85.61l-53.601-20.333 57.297-12.015" fill="#cb3c33" fill-opacity=".5"/><path d="M1757.36 310.648l47.433 41.743-72.102 13.28" fill="#4063d8" fill-opacity=".5"/><path d="M1768.758 230.934l-2.664-22.2 38.191-10.66" fill="#cb3c33" fill-opacity=".5"/><path d="M1780.383 160.203l25.953 35.223-39.856 11.125" fill="#389826" fill-opacity=".5"/><path d="M1768.738 234.89l40.645 33.083-51.043 38.754" fill="#cb3c33" fill-opacity=".5"/><path d="M1807.09 198.203l2.82 67.617-40.387-32.867M1806.234 350.996l-45.754-40.266 49.415 10.067" fill="#9558b2" fill-opacity=".5"/><path d="M1810 270.016v48.761l-50.637-10.316" fill="#389826" fill-opacity=".5"/><path d="M1766.117 13.938L1717.06-11.04l90.98 14.273" fill="#cb3c33" fill-opacity=".5"/><path d="M1804.316 49.973l-36.312-34.453 43.762-11.172" fill="#4063d8" fill-opacity=".5"/><path d="M1811.906 265.773l-2.793-67.097 34.48 37.277" fill="#389826" fill-opacity=".5"/><path d="M1813.844 4.043l36.824 1.84-44.191 43.27" fill="#cb3c33" fill-opacity=".5"/><path d="M1844.55 234.04l-33.886-36.634 43.043 6.414" fill="#4063d8" fill-opacity=".5"/><path d="M1801.46 88.96l52.524 56.345-72.578 11.46M1854.02 201.844l-43.957-6.547 44.894-46.766" fill="#389826" fill-opacity=".5"/><path d="M1808.102 194.45l-26.32-35.72 71.437-11.277" fill="#cb3c33" fill-opacity=".5"/><path d="M1805.887 53.035l47.672 1.832-51.336 30.254" fill="#4063d8" fill-opacity=".5"/><path d="M1852.176 7.207l3.734 45.75-48.55-1.867" fill="#389826" fill-opacity=".5"/><path d="M1812 317.95v-48.544l42.941 14.938" fill="#9558b2" fill-opacity=".5"/><path d="M1844.445 237.898l11.137 44.551-42.695-14.851" fill="#cb3c33" fill-opacity=".5"/><path d="M1811.855 321.246l43.918 10.977-47.578 19.214" fill="#389826" fill-opacity=".5"/><path d="M1856.082 285.988l1.863 44.719-44.718-11.18M1855.29 143.773l-51.712-55.476 58.293 6.582" fill="#cb3c33" fill-opacity=".5"/><path d="M1856.23 55.613l5.586 37.246-57.73-6.515" fill="#9558b2" fill-opacity=".5"/><path d="M1863.71 96.207l15.981 16.863-22.191 29.297M1859.91 329.852l-1.816-43.649 26.37 21.824" fill="#389826" fill-opacity=".5"/><path d="M1856.945 149.191l28.496 42.286-29.418 10.113" fill="#4063d8" fill-opacity=".5"/><path d="M1880.5 111.016l-16.113-17.008 28.644-29.54" fill="#cb3c33" fill-opacity=".5"/><path d="M1863.688 91.852l-5.493-36.614 34.785 6.407M1852.91 3.996l-26.207-1.312 54.379-5.243" fill="#389826" fill-opacity=".5"/><path d="M1813.031 1.992l-84.312-13.226 152.918 6.613" fill="#9558b2" fill-opacity=".5"/><path d="M1894.02 59.8l-35.352-6.51 36.281-54.884" fill="#cb3c33" fill-opacity=".5"/><path d="M1857.762 51.035l-3.696-45.258 39.715-9.234" fill="#9558b2" fill-opacity=".5"/><path d="M1858.777 333.168l37.09 35.238-85.308-15.765" fill="#4063d8" fill-opacity=".5"/><path d="M1885.375 309.895l11.988 57.171-36.886-35.043" fill="#cb3c33" fill-opacity=".5"/><path d="M1880.715 115.035l20.41 52.883-43.605-22.266" fill="#4063d8" fill-opacity=".5"/><path d="M1887.031 190.258l-28.039-41.606 42.512 21.707" fill="#9558b2" fill-opacity=".5"/><path d="M1855.582 204.523l47.031 28.586-56.25 1.844" fill="#cb3c33" fill-opacity=".5"/><path d="M1886.465 193.242l17.293 38.223-46.418-28.211" fill="#389826" fill-opacity=".5"/><path d="M1885.441 306.238l-26.964-22.316 45.558-46.488" fill="#9558b2" fill-opacity=".5"/><path d="M1857.535 282.023l-11.265-45.066 57.27-1.875M1903.422 168.316l-20.406-52.87 47.304 29.683" fill="#389826" fill-opacity=".5"/><path d="M1906.637 235.473l27.789 14.82-46.313 53.727" fill="#cb3c33" fill-opacity=".5"/><path d="M1896.977-3.379l40.343 20.645-41.28 41.28" fill="#389826" fill-opacity=".5"/><path d="M1938.441 18.973l9.305 39.074-50.238 1.86" fill="#9558b2" fill-opacity=".5"/><path d="M1903.418 171.129l40.676 9.726-54.824 9.727" fill="#389826" fill-opacity=".5"/><path d="M1906.242 232.113l-17.8-39.351 58.09-10.309" fill="#cb3c33" fill-opacity=".5"/><path d="M1935.27 248.477l-27.73-14.79 39.745-48.988" fill="#9558b2" fill-opacity=".5"/><path d="M1931.656 146.617l15.551 32.926-42.074-10.063" fill="#cb3c33" fill-opacity=".5"/><path d="M1895.602 62.617l52.863 35.871-66.082 13.215" fill="#4063d8" fill-opacity=".5"/><path d="M1948.05 60.035l1.852 37.012-51.816-35.16" fill="#cb3c33" fill-opacity=".5"/><path d="M1931.527 143.523l-47.867-30.035 65.703-13.14" fill="#9558b2" fill-opacity=".5"/><path d="M1935.79 251.777l18.757 36.582-65.656 17.82" fill="#4063d8" fill-opacity=".5"/><path d="M1899.77 368.805l-12.332-58.813 76.84 44.586" fill="#389826" fill-opacity=".5"/><path d="M1955.195 290.254l10.47 62.816-77.09-44.734" fill="#cb3c33" fill-opacity=".5"/><path d="M1949.613 183.148l30.887 33.696-43.055 30.89" fill="#389826" fill-opacity=".5"/><path d="M1939.102 15.93l-37.903-19.395 77.57 7.934" fill="#9558b2" fill-opacity=".5"/><path d="M1949.426 56.469l-9.23-38.774 41.538-12" fill="#cb3c33" fill-opacity=".5"/><path d="M1951.953 98.047l-1.82-36.406 36.41 38.23M1949.398 179.504l-15.77-33.399 58.446 3.711" fill="#4063d8" fill-opacity=".5"/><path d="M1951.313 100.867l41.343 46.98-59.199-3.757" fill="#cb3c33" fill-opacity=".5"/><path d="M1988.113 101.953l5.492 43.95-40.285-45.778M1981.39 214.855l-30.878-33.687 43.047-29.945M1956.328 287.45l-18.601-36.274 56.738 5.578" fill="#9558b2" fill-opacity=".5"/><path d="M1981.531 218.566l13.953 36.282-56.742-5.582" fill="#4063d8" fill-opacity=".5"/><path d="M1995.164 351.082l-26.02 2.691 34.993-47.554" fill="#cb3c33" fill-opacity=".5"/><path d="M1967.598 352.5l-10.36-62.145 47.082 12.243" fill="#389826" fill-opacity=".5"/><path d="M1996.336 257.816l8.379 42.817-46.54-12.102M1984.219 5.52l29.898 26.16-62.601 25.226" fill="#4063d8" fill-opacity=".5"/><path d="M1988.64 99.172l-37.902-39.793 63.485-25.586" fill="#9558b2" fill-opacity=".5"/><path d="M1995.82 150.035l43.028 1.871-55.188 61.739" fill="#cb3c33" fill-opacity=".5"/><path d="M1995.887 148.04l-5.543-44.36 48.054 46.207" fill="#389826" fill-opacity=".5"/><path d="M2016.047 34.625l24.527 56.602-50 8.492" fill="#cb3c33" fill-opacity=".5"/><path d="M2040.04 148.688l-48.919-47.036 49.86-8.465" fill="#9558b2" fill-opacity=".5"/><path d="M1984 2.996l-63.586-6.504 107.664 2.168" fill="#389826" fill-opacity=".5"/><path d="M2015.895 30.582L1986.398 4.77l56.23-5.532" fill="#cb3c33" fill-opacity=".5"/><path d="M2041.902 89.258l-23.89-55.137 36.754 18.379" fill="#389826" fill-opacity=".5"/><path d="M2044.43.21l10.18 49.977-37.02-18.511" fill="#4063d8" fill-opacity=".5"/><path d="M2006.676 300.25l-8.442-43.152 60.036 4.691" fill="#9558b2" fill-opacity=".5"/><path d="M2006.781 303.203l58.266 13.156-67.664 33.832" fill="#389826" fill-opacity=".5"/><path d="M2060.223 262.824l6.605 51.887-58.488-13.207" fill="#4063d8" fill-opacity=".5"/><path d="M2060.16 259.93l-60.297-4.711 68.774-48.047" fill="#389826" fill-opacity=".5"/><path d="M1997.477 254.45l-14.09-36.63 82.648-11.27" fill="#cb3c33" fill-opacity=".5"/><path d="M2040.793 152.73l27.645 51.473-83.883 11.438M2067.063 317.586l1.886 48.18-69.906-14.168M2042.969 93.758l35.375 21.41-36.305 33.512" fill="#4063d8" fill-opacity=".5"/><path d="M2056.04 54.914l21.991 57.727-34.82-21.075M2056.496 49.43L2046.328-.488l35.125 12.015" fill="#cb3c33" fill-opacity=".5"/><path d="M2068.633 313.05l-6.473-50.847 34.207 5.547" fill="#389826" fill-opacity=".5"/><path d="M2070.836 206.09l27.32 2.73-35.511 48.262" fill="#9558b2" fill-opacity=".5"/><path d="M2097.04 265.832l-34.267-5.559 36.118-49.078" fill="#cb3c33" fill-opacity=".5"/><path d="M2079.797 111.656l-22.54-59.16 42.259-20.656" fill="#9558b2" fill-opacity=".5"/><path d="M2083.14 12.602l16.196 17.097-40.488 19.797" fill="#389826" fill-opacity=".5"/><path d="M2070.14 203.148l-27.3-50.84 58.367 9.415" fill="#9558b2" fill-opacity=".5"/><path d="M2079.7 116.637l21.534 43.066-58.046-9.363" fill="#cb3c33" fill-opacity=".5"/><path d="M2099.066 206.902l-27.203-2.722 29.926-39.899M2100.117 37.738l1.817 118.89-20.875-41.745" fill="#4063d8" fill-opacity=".5"/><path d="M2097.43 269.844l6.422 41.273-33.938 3.672" fill="#cb3c33" fill-opacity=".5"/><path d="M2100.172 232.418l2.926 60.852-4.094-26.329" fill="#4063d8" fill-opacity=".5"/><path d="M2070.926 365.129l-1.856-47.402 39.04 21.378" fill="#389826" fill-opacity=".5"/><path d="M2104.188 313.094l4.445 24.02-37.36-20.462" fill="#9558b2" fill-opacity=".5"/></svg>