<?xml version="1.0" encoding="UTF-8" standalone="no"?>
<!-- Created with Inkscape (http://www.inkscape.org/) -->

<svg
   xmlns:dc="http://purl.org/dc/elements/1.1/"
   xmlns:cc="http://creativecommons.org/ns#"
   xmlns:rdf="http://www.w3.org/1999/02/22-rdf-syntax-ns#"
   xmlns:svg="http://www.w3.org/2000/svg"
   xmlns="http://www.w3.org/2000/svg"
   xmlns:sodipodi="http://sodipodi.sourceforge.net/DTD/sodipodi-0.dtd"
   xmlns:inkscape="http://www.inkscape.org/namespaces/inkscape"
   width="85.467247mm"
   height="42.609676mm"
   viewBox="0 0 85.467247 42.609676"
   version="1.1"
   id="svg8"
   inkscape:version="0.92.0 r"
   sodipodi:docname="julia-gsoc-logo.svg">
  <defs
     id="defs2">
    <inkscape:perspective
       sodipodi:type="inkscape:persp3d"
       inkscape:vp_x="0 : 148.49999 : 1"
       inkscape:vp_y="0 : 999.99995 : 0"
       inkscape:vp_z="210 : 148.49999 : 1"
       inkscape:persp3d-origin="105 : 98.999995 : 1"
       id="perspective101" />
  </defs>
  <sodipodi:namedview
     id="base"
     pagecolor="#ffffff"
     bordercolor="#666666"
     borderopacity="1.0"
     inkscape:pageopacity="0.0"
     inkscape:pageshadow="2"
     inkscape:zoom="1.979899"
     inkscape:cx="66.07104"
     inkscape:cy="103.15703"
     inkscape:document-units="mm"
     inkscape:current-layer="layer1"
     showgrid="false"
     fit-margin-top="0"
     fit-margin-left="0"
     fit-margin-right="0"
     fit-margin-bottom="0"
     inkscape:window-width="2560"
     inkscape:window-height="1317"
     inkscape:window-x="0"
     inkscape:window-y="49"
     inkscape:window-maximized="1" />
  <metadata
     id="metadata5">
    <rdf:RDF>
      <cc:Work
         rdf:about="">
        <dc:format>image/svg+xml</dc:format>
        <dc:type
           rdf:resource="http://purl.org/dc/dcmitype/StillImage" />
        <dc:title></dc:title>
      </cc:Work>
    </rdf:RDF>
  </metadata>
  <g
     inkscape:label="Layer 1"
     inkscape:groupmode="layer"
     id="layer1"
     transform="translate(-77.129291,-129.16574)">
    <g
       id="g69"
       transform="matrix(2.5923014,0,0,2.5923014,-244.44624,-228.30929)">
      <circle
         id="circle23"
         r="2.8699942"
         cy="149.28073"
         cx="146.40956"
         style="fill:#d66661;stroke:#c93d39;stroke-width:0.52181715" />
      <circle
         id="circle25"
         r="2.8699942"
         cy="142.9537"
         cx="150.12752"
         style="fill:#6bab5b;stroke:#3b972e;stroke-width:0.52181715" />
      <circle
         id="circle27"
         r="2.8699942"
         cy="149.23724"
         cx="153.88895"
         style="fill:#aa7dc0;stroke:#945bb0;stroke-width:0.52181715" />
    </g>
    <g
       id="g93">
      <g
         transform="matrix(0.24251381,0,0,0.24251381,75.140678,127.22563)"
         id="g77">
        <path
           style="fill:#fbbc05"
           inkscape:connector-curvature="0"
           class="st0"
           d="M 158.1,33.7 H 121.7 L 96,8 70.3,33.7 H 33.9 V 70.1 L 8.2,95.9 33.9,121.6 V 158 H 70.3 L 96,183.7 121.7,158 h 36.4 V 121.6 L 183.8,95.9 158.1,70.2 Z m 0.6,62.2 c 0,34.6 -28.1,62.7 -62.7,62.7 -34.6,0 -62.7,-28.1 -62.7,-62.7 0,-34.6 28.1,-62.7 62.7,-62.7 34.6,0 62.7,28.1 62.7,62.7 z"
           id="path73" />
        <path
           style="fill:#fbbc05"
           inkscape:connector-curvature="0"
           class="st0"
           d="m 96,41.2 c -30.2,0 -54.7,24.5 -54.7,54.7 0,30.2 24.5,54.7 54.7,54.7 30.2,0 54.7,-24.5 54.7,-54.7 C 150.7,65.7 126.2,41.2 96,41.2 Z M 79.9,75.6 v 9 l -14.5,11.3 14.5,11.3 v 9 l -1,-0.7 L 57.4,98.7 56,97.6 v -3.4 l 1.4,-1.1 21.5,-16.7 z m 25.8,-5.2 -11.9,52.6 -0.1,0.4 h -7.4 l 0.4,-2 11.9,-52.5 0.1,-0.4 h 7.4 z m 30.3,27.2 -1.4,1.1 -21.6,16.7 -1,0.7 v -9 L 126.5,95.8 112,84.5 v -9 0 l 1,0.7 21.5,16.8 1.4,1.1 v 3.5 z"
           id="path75" />
      </g>
    </g>
  </g>
  <style
     id="style71"
     type="text/css">
	.st0{fill:#FBBC05;}
</style>
</svg>
