<svg xmlns="http://www.w3.org/2000/svg" xmlns:xlink="http://www.w3.org/1999/xlink" width="600" height="400" viewBox="0 0 2400 1600"><defs><clipPath id="clip520"><rect width="2400" height="1600" x="0" y="0"/></clipPath></defs><path fill="#fff" fill-opacity="1" fill-rule="evenodd" d="M0 1600 L2400 1600 L2400 0 L0 0 Z" clip-path="url(#clip520)"/><defs><clipPath id="clip521"><rect width="1681" height="1600" x="480" y="0"/></clipPath></defs><path fill="#fff" fill-opacity="1" fill-rule="evenodd" d="M193.936 1486.45 L2352.76 1486.45 L2352.76 47.2441 L193.936 47.2441 Z" clip-path="url(#clip520)"/><defs><clipPath id="clip522"><rect width="2160" height="1440" x="193" y="47"/></clipPath></defs><polyline style="stroke:#000;stroke-linecap:butt;stroke-linejoin:round;stroke-width:2;stroke-opacity:.1;fill:none" points="255.035 1486.45 255.035 47.244" clip-path="url(#clip522)"/><polyline style="stroke:#000;stroke-linecap:butt;stroke-linejoin:round;stroke-width:2;stroke-opacity:.1;fill:none" points="764.19 1486.45 764.19 47.244" clip-path="url(#clip522)"/><polyline style="stroke:#000;stroke-linecap:butt;stroke-linejoin:round;stroke-width:2;stroke-opacity:.1;fill:none" points="1273.35 1486.45 1273.35 47.244" clip-path="url(#clip522)"/><polyline style="stroke:#000;stroke-linecap:butt;stroke-linejoin:round;stroke-width:2;stroke-opacity:.1;fill:none" points="1782.5 1486.45 1782.5 47.244" clip-path="url(#clip522)"/><polyline style="stroke:#000;stroke-linecap:butt;stroke-linejoin:round;stroke-width:2;stroke-opacity:.1;fill:none" points="2291.66 1486.45 2291.66 47.244" clip-path="url(#clip522)"/><polyline style="stroke:#000;stroke-linecap:butt;stroke-linejoin:round;stroke-width:4;stroke-opacity:1;fill:none" points="193.936 1486.45 2352.76 1486.45" clip-path="url(#clip520)"/><polyline style="stroke:#000;stroke-linecap:butt;stroke-linejoin:round;stroke-width:4;stroke-opacity:1;fill:none" points="255.035 1486.45 255.035 1467.55" clip-path="url(#clip520)"/><polyline style="stroke:#000;stroke-linecap:butt;stroke-linejoin:round;stroke-width:4;stroke-opacity:1;fill:none" points="764.19 1486.45 764.19 1467.55" clip-path="url(#clip520)"/><polyline style="stroke:#000;stroke-linecap:butt;stroke-linejoin:round;stroke-width:4;stroke-opacity:1;fill:none" points="1273.35 1486.45 1273.35 1467.55" clip-path="url(#clip520)"/><polyline style="stroke:#000;stroke-linecap:butt;stroke-linejoin:round;stroke-width:4;stroke-opacity:1;fill:none" points="1782.5 1486.45 1782.5 1467.55" clip-path="url(#clip520)"/><polyline style="stroke:#000;stroke-linecap:butt;stroke-linejoin:round;stroke-width:4;stroke-opacity:1;fill:none" points="2291.66 1486.45 2291.66 1467.55" clip-path="url(#clip520)"/><path fill="#000" fill-opacity="1" fill-rule="evenodd" d="M217.338 1515.64 Q213.727 1515.64 211.898 1519.2 Q210.093 1522.75 210.093 1529.87 Q210.093 1536.98 211.898 1540.55 Q213.727 1544.09 217.338 1544.09 Q220.972 1544.09 222.778 1540.55 Q224.607 1536.98 224.607 1529.87 Q224.607 1522.75 222.778 1519.2 Q220.972 1515.64 217.338 1515.64 M217.338 1511.93 Q223.148 1511.93 226.204 1516.54 Q229.282 1521.12 229.282 1529.87 Q229.282 1538.6 226.204 1543.21 Q223.148 1547.79 217.338 1547.79 Q211.528 1547.79 208.449 1543.21 Q205.394 1538.6 205.394 1529.87 Q205.394 1521.12 208.449 1516.54 Q211.528 1511.93 217.338 1511.93 Z" clip-path="url(#clip520)"/><path fill="#000" fill-opacity="1" fill-rule="evenodd" d="M237.5 1541.24 L242.384 1541.24 L242.384 1547.12 L237.5 1547.12 L237.5 1541.24 Z" clip-path="url(#clip520)"/><path fill="#000" fill-opacity="1" fill-rule="evenodd" d="M262.569 1515.64 Q258.958 1515.64 257.13 1519.2 Q255.324 1522.75 255.324 1529.87 Q255.324 1536.98 257.13 1540.55 Q258.958 1544.09 262.569 1544.09 Q266.204 1544.09 268.009 1540.55 Q269.838 1536.98 269.838 1529.87 Q269.838 1522.75 268.009 1519.2 Q266.204 1515.64 262.569 1515.64 M262.569 1511.93 Q268.38 1511.93 271.435 1516.54 Q274.514 1521.12 274.514 1529.87 Q274.514 1538.6 271.435 1543.21 Q268.38 1547.79 262.569 1547.79 Q256.759 1547.79 253.681 1543.21 Q250.625 1538.6 250.625 1529.87 Q250.625 1521.12 253.681 1516.54 Q256.759 1511.93 262.569 1511.93 Z" clip-path="url(#clip520)"/><path fill="#000" fill-opacity="1" fill-rule="evenodd" d="M292.731 1515.64 Q289.12 1515.64 287.291 1519.2 Q285.486 1522.75 285.486 1529.87 Q285.486 1536.98 287.291 1540.55 Q289.12 1544.09 292.731 1544.09 Q296.365 1544.09 298.171 1540.55 Q300 1536.98 300 1529.87 Q300 1522.75 298.171 1519.2 Q296.365 1515.64 292.731 1515.64 M292.731 1511.93 Q298.541 1511.93 301.597 1516.54 Q304.676 1521.12 304.676 1529.87 Q304.676 1538.6 301.597 1543.21 Q298.541 1547.79 292.731 1547.79 Q286.921 1547.79 283.842 1543.21 Q280.787 1538.6 280.787 1529.87 Q280.787 1521.12 283.842 1516.54 Q286.921 1511.93 292.731 1511.93 Z" clip-path="url(#clip520)"/><path fill="#000" fill-opacity="1" fill-rule="evenodd" d="M726.991 1515.64 Q723.38 1515.64 721.552 1519.2 Q719.746 1522.75 719.746 1529.87 Q719.746 1536.98 721.552 1540.55 Q723.38 1544.09 726.991 1544.09 Q730.626 1544.09 732.431 1540.55 Q734.26 1536.98 734.26 1529.87 Q734.26 1522.75 732.431 1519.2 Q730.626 1515.64 726.991 1515.64 M726.991 1511.93 Q732.802 1511.93 735.857 1516.54 Q738.936 1521.12 738.936 1529.87 Q738.936 1538.6 735.857 1543.21 Q732.802 1547.79 726.991 1547.79 Q721.181 1547.79 718.103 1543.21 Q715.047 1538.6 715.047 1529.87 Q715.047 1521.12 718.103 1516.54 Q721.181 1511.93 726.991 1511.93 Z" clip-path="url(#clip520)"/><path fill="#000" fill-opacity="1" fill-rule="evenodd" d="M747.153 1541.24 L752.038 1541.24 L752.038 1547.12 L747.153 1547.12 L747.153 1541.24 Z" clip-path="url(#clip520)"/><path fill="#000" fill-opacity="1" fill-rule="evenodd" d="M766.25 1543.18 L782.57 1543.18 L782.57 1547.12 L760.626 1547.12 L760.626 1543.18 Q763.288 1540.43 767.871 1535.8 Q772.477 1531.15 773.658 1529.81 Q775.903 1527.28 776.783 1525.55 Q777.686 1523.79 777.686 1522.1 Q777.686 1519.34 775.741 1517.61 Q773.82 1515.87 770.718 1515.87 Q768.519 1515.87 766.065 1516.63 Q763.635 1517.4 760.857 1518.95 L760.857 1514.23 Q763.681 1513.09 766.135 1512.51 Q768.588 1511.93 770.625 1511.93 Q775.996 1511.93 779.19 1514.62 Q782.385 1517.31 782.385 1521.8 Q782.385 1523.93 781.574 1525.85 Q780.787 1527.74 778.681 1530.34 Q778.102 1531.01 775 1534.23 Q771.899 1537.42 766.25 1543.18 Z" clip-path="url(#clip520)"/><path fill="#000" fill-opacity="1" fill-rule="evenodd" d="M792.431 1512.56 L810.787 1512.56 L810.787 1516.5 L796.713 1516.5 L796.713 1524.97 Q797.732 1524.62 798.75 1524.46 Q799.769 1524.27 800.787 1524.27 Q806.574 1524.27 809.954 1527.44 Q813.334 1530.62 813.334 1536.03 Q813.334 1541.61 809.861 1544.71 Q806.389 1547.79 800.07 1547.79 Q797.894 1547.79 795.625 1547.42 Q793.38 1547.05 790.973 1546.31 L790.973 1541.61 Q793.056 1542.74 795.278 1543.3 Q797.5 1543.86 799.977 1543.86 Q803.982 1543.86 806.32 1541.75 Q808.658 1539.64 808.658 1536.03 Q808.658 1532.42 806.32 1530.31 Q803.982 1528.21 799.977 1528.21 Q798.102 1528.21 796.227 1528.62 Q794.375 1529.04 792.431 1529.92 L792.431 1512.56 Z" clip-path="url(#clip520)"/><path fill="#000" fill-opacity="1" fill-rule="evenodd" d="M1235.65 1515.64 Q1232.04 1515.64 1230.21 1519.2 Q1228.4 1522.75 1228.4 1529.87 Q1228.4 1536.98 1230.21 1540.55 Q1232.04 1544.09 1235.65 1544.09 Q1239.28 1544.09 1241.09 1540.55 Q1242.92 1536.98 1242.92 1529.87 Q1242.92 1522.75 1241.09 1519.2 Q1239.28 1515.64 1235.65 1515.64 M1235.65 1511.93 Q1241.46 1511.93 1244.52 1516.54 Q1247.59 1521.12 1247.59 1529.87 Q1247.59 1538.6 1244.52 1543.21 Q1241.46 1547.79 1235.65 1547.79 Q1229.84 1547.79 1226.76 1543.21 Q1223.71 1538.6 1223.71 1529.87 Q1223.71 1521.12 1226.76 1516.54 Q1229.84 1511.93 1235.65 1511.93 Z" clip-path="url(#clip520)"/><path fill="#000" fill-opacity="1" fill-rule="evenodd" d="M1255.81 1541.24 L1260.7 1541.24 L1260.7 1547.12 L1255.81 1547.12 L1255.81 1541.24 Z" clip-path="url(#clip520)"/><path fill="#000" fill-opacity="1" fill-rule="evenodd" d="M1270.93 1512.56 L1289.28 1512.56 L1289.28 1516.5 L1275.21 1516.5 L1275.21 1524.97 Q1276.23 1524.62 1277.25 1524.46 Q1278.26 1524.27 1279.28 1524.27 Q1285.07 1524.27 1288.45 1527.44 Q1291.83 1530.62 1291.83 1536.03 Q1291.83 1541.61 1288.36 1544.71 Q1284.89 1547.79 1278.57 1547.79 Q1276.39 1547.79 1274.12 1547.42 Q1271.88 1547.05 1269.47 1546.31 L1269.47 1541.61 Q1271.55 1542.74 1273.77 1543.3 Q1276 1543.86 1278.47 1543.86 Q1282.48 1543.86 1284.82 1541.75 Q1287.15 1539.64 1287.15 1536.03 Q1287.15 1532.42 1284.82 1530.31 Q1282.48 1528.21 1278.47 1528.21 Q1276.6 1528.21 1274.72 1528.62 Q1272.87 1529.04 1270.93 1529.92 L1270.93 1512.56 Z" clip-path="url(#clip520)"/><path fill="#000" fill-opacity="1" fill-rule="evenodd" d="M1311.04 1515.64 Q1307.43 1515.64 1305.6 1519.2 Q1303.8 1522.75 1303.8 1529.87 Q1303.8 1536.98 1305.6 1540.55 Q1307.43 1544.09 1311.04 1544.09 Q1314.68 1544.09 1316.48 1540.55 Q1318.31 1536.98 1318.31 1529.87 Q1318.31 1522.75 1316.48 1519.2 Q1314.68 1515.64 1311.04 1515.64 M1311.04 1511.93 Q1316.85 1511.93 1319.91 1516.54 Q1322.99 1521.12 1322.99 1529.87 Q1322.99 1538.6 1319.91 1543.21 Q1316.85 1547.79 1311.04 1547.79 Q1305.23 1547.79 1302.15 1543.21 Q1299.1 1538.6 1299.1 1529.87 Q1299.1 1521.12 1302.15 1516.54 Q1305.23 1511.93 1311.04 1511.93 Z" clip-path="url(#clip520)"/><path fill="#000" fill-opacity="1" fill-rule="evenodd" d="M1745.3 1515.64 Q1741.69 1515.64 1739.86 1519.2 Q1738.06 1522.75 1738.06 1529.87 Q1738.06 1536.98 1739.86 1540.55 Q1741.69 1544.09 1745.3 1544.09 Q1748.94 1544.09 1750.74 1540.55 Q1752.57 1536.98 1752.57 1529.87 Q1752.57 1522.75 1750.74 1519.2 Q1748.94 1515.64 1745.3 1515.64 M1745.3 1511.93 Q1751.11 1511.93 1754.17 1516.54 Q1757.25 1521.12 1757.25 1529.87 Q1757.25 1538.6 1754.17 1543.21 Q1751.11 1547.79 1745.3 1547.79 Q1739.49 1547.79 1736.41 1543.21 Q1733.36 1538.6 1733.36 1529.87 Q1733.36 1521.12 1736.41 1516.54 Q1739.49 1511.93 1745.3 1511.93 Z" clip-path="url(#clip520)"/><path fill="#000" fill-opacity="1" fill-rule="evenodd" d="M1765.46 1541.24 L1770.35 1541.24 L1770.35 1547.12 L1765.46 1547.12 L1765.46 1541.24 Z" clip-path="url(#clip520)"/><path fill="#000" fill-opacity="1" fill-rule="evenodd" d="M1779.35 1512.56 L1801.58 1512.56 L1801.58 1514.55 L1789.03 1547.12 L1784.15 1547.12 L1795.95 1516.5 L1779.35 1516.5 L1779.35 1512.56 Z" clip-path="url(#clip520)"/><path fill="#000" fill-opacity="1" fill-rule="evenodd" d="M1810.74 1512.56 L1829.1 1512.56 L1829.1 1516.5 L1815.02 1516.5 L1815.02 1524.97 Q1816.04 1524.62 1817.06 1524.46 Q1818.08 1524.27 1819.1 1524.27 Q1824.89 1524.27 1828.27 1527.44 Q1831.64 1530.62 1831.64 1536.03 Q1831.64 1541.61 1828.17 1544.71 Q1824.7 1547.79 1818.38 1547.79 Q1816.21 1547.79 1813.94 1547.42 Q1811.69 1547.05 1809.28 1546.31 L1809.28 1541.61 Q1811.37 1542.74 1813.59 1543.3 Q1815.81 1543.86 1818.29 1543.86 Q1822.29 1543.86 1824.63 1541.75 Q1826.97 1539.64 1826.97 1536.03 Q1826.97 1532.42 1824.63 1530.31 Q1822.29 1528.21 1818.29 1528.21 Q1816.41 1528.21 1814.54 1528.62 Q1812.69 1529.04 1810.74 1529.92 L1810.74 1512.56 Z" clip-path="url(#clip520)"/><path fill="#000" fill-opacity="1" fill-rule="evenodd" d="M2243.73 1543.18 L2251.37 1543.18 L2251.37 1516.82 L2243.06 1518.49 L2243.06 1514.23 L2251.32 1512.56 L2256 1512.56 L2256 1543.18 L2263.64 1543.18 L2263.64 1547.12 L2243.73 1547.12 L2243.73 1543.18 Z" clip-path="url(#clip520)"/><path fill="#000" fill-opacity="1" fill-rule="evenodd" d="M2273.08 1541.24 L2277.97 1541.24 L2277.97 1547.12 L2273.08 1547.12 L2273.08 1541.24 Z" clip-path="url(#clip520)"/><path fill="#000" fill-opacity="1" fill-rule="evenodd" d="M2298.15 1515.64 Q2294.54 1515.64 2292.71 1519.2 Q2290.9 1522.75 2290.9 1529.87 Q2290.9 1536.98 2292.71 1540.55 Q2294.54 1544.09 2298.15 1544.09 Q2301.78 1544.09 2303.59 1540.55 Q2305.42 1536.98 2305.42 1529.87 Q2305.42 1522.75 2303.59 1519.2 Q2301.78 1515.64 2298.15 1515.64 M2298.15 1511.93 Q2303.96 1511.93 2307.02 1516.54 Q2310.09 1521.12 2310.09 1529.87 Q2310.09 1538.6 2307.02 1543.21 Q2303.96 1547.79 2298.15 1547.79 Q2292.34 1547.79 2289.26 1543.21 Q2286.21 1538.6 2286.21 1529.87 Q2286.21 1521.12 2289.26 1516.54 Q2292.34 1511.93 2298.15 1511.93 Z" clip-path="url(#clip520)"/><path fill="#000" fill-opacity="1" fill-rule="evenodd" d="M2328.31 1515.64 Q2324.7 1515.64 2322.87 1519.2 Q2321.07 1522.75 2321.07 1529.87 Q2321.07 1536.98 2322.87 1540.55 Q2324.7 1544.09 2328.31 1544.09 Q2331.95 1544.09 2333.75 1540.55 Q2335.58 1536.98 2335.58 1529.87 Q2335.58 1522.75 2333.75 1519.2 Q2331.95 1515.64 2328.31 1515.64 M2328.31 1511.93 Q2334.12 1511.93 2337.18 1516.54 Q2340.26 1521.12 2340.26 1529.87 Q2340.26 1538.6 2337.18 1543.21 Q2334.12 1547.79 2328.31 1547.79 Q2322.5 1547.79 2319.42 1543.21 Q2316.37 1538.6 2316.37 1529.87 Q2316.37 1521.12 2319.42 1516.54 Q2322.5 1511.93 2328.31 1511.93 Z" clip-path="url(#clip520)"/><polyline style="stroke:#000;stroke-linecap:butt;stroke-linejoin:round;stroke-width:2;stroke-opacity:.1;fill:none" points="193.936 1280.85 2352.76 1280.85" clip-path="url(#clip522)"/><polyline style="stroke:#000;stroke-linecap:butt;stroke-linejoin:round;stroke-width:2;stroke-opacity:.1;fill:none" points="193.936 1023.85 2352.76 1023.85" clip-path="url(#clip522)"/><polyline style="stroke:#000;stroke-linecap:butt;stroke-linejoin:round;stroke-width:2;stroke-opacity:.1;fill:none" points="193.936 766.846 2352.76 766.846" clip-path="url(#clip522)"/><polyline style="stroke:#000;stroke-linecap:butt;stroke-linejoin:round;stroke-width:2;stroke-opacity:.1;fill:none" points="193.936 509.845 2352.76 509.845" clip-path="url(#clip522)"/><polyline style="stroke:#000;stroke-linecap:butt;stroke-linejoin:round;stroke-width:2;stroke-opacity:.1;fill:none" points="193.936 252.845 2352.76 252.845" clip-path="url(#clip522)"/><polyline style="stroke:#000;stroke-linecap:butt;stroke-linejoin:round;stroke-width:4;stroke-opacity:1;fill:none" points="193.936 1486.45 193.936 47.244" clip-path="url(#clip520)"/><polyline style="stroke:#000;stroke-linecap:butt;stroke-linejoin:round;stroke-width:4;stroke-opacity:1;fill:none" points="193.936 1280.85 212.834 1280.85" clip-path="url(#clip520)"/><polyline style="stroke:#000;stroke-linecap:butt;stroke-linejoin:round;stroke-width:4;stroke-opacity:1;fill:none" points="193.936 1023.85 212.834 1023.85" clip-path="url(#clip520)"/><polyline style="stroke:#000;stroke-linecap:butt;stroke-linejoin:round;stroke-width:4;stroke-opacity:1;fill:none" points="193.936 766.846 212.834 766.846" clip-path="url(#clip520)"/><polyline style="stroke:#000;stroke-linecap:butt;stroke-linejoin:round;stroke-width:4;stroke-opacity:1;fill:none" points="193.936 509.845 212.834 509.845" clip-path="url(#clip520)"/><polyline style="stroke:#000;stroke-linecap:butt;stroke-linejoin:round;stroke-width:4;stroke-opacity:1;fill:none" points="193.936 252.845 212.834 252.845" clip-path="url(#clip520)"/><path fill="#000" fill-opacity="1" fill-rule="evenodd" d="M50.9921 1281.3 L80.6679 1281.3 L80.6679 1285.23 L50.9921 1285.23 L50.9921 1281.3 Z" clip-path="url(#clip520)"/><path fill="#000" fill-opacity="1" fill-rule="evenodd" d="M91.5706 1294.19 L99.2095 1294.19 L99.2095 1267.83 L90.8993 1269.49 L90.8993 1265.23 L99.1632 1263.57 L103.839 1263.57 L103.839 1294.19 L111.478 1294.19 L111.478 1298.13 L91.5706 1298.13 L91.5706 1294.19 Z" clip-path="url(#clip520)"/><path fill="#000" fill-opacity="1" fill-rule="evenodd" d="M120.922 1292.25 L125.807 1292.25 L125.807 1298.13 L120.922 1298.13 L120.922 1292.25 Z" clip-path="url(#clip520)"/><path fill="#000" fill-opacity="1" fill-rule="evenodd" d="M145.992 1266.65 Q142.381 1266.65 140.552 1270.21 Q138.746 1273.75 138.746 1280.88 Q138.746 1287.99 140.552 1291.55 Q142.381 1295.09 145.992 1295.09 Q149.626 1295.09 151.431 1291.55 Q153.26 1287.99 153.26 1280.88 Q153.26 1273.75 151.431 1270.21 Q149.626 1266.65 145.992 1266.65 M145.992 1262.94 Q151.802 1262.94 154.857 1267.55 Q157.936 1272.13 157.936 1280.88 Q157.936 1289.61 154.857 1294.22 Q151.802 1298.8 145.992 1298.8 Q140.181 1298.8 137.103 1294.22 Q134.047 1289.61 134.047 1280.88 Q134.047 1272.13 137.103 1267.55 Q140.181 1262.94 145.992 1262.94 Z" clip-path="url(#clip520)"/><path fill="#000" fill-opacity="1" fill-rule="evenodd" d="M51.9875 1024.3 L81.6633 1024.3 L81.6633 1028.23 L51.9875 1028.23 L51.9875 1024.3 Z" clip-path="url(#clip520)"/><path fill="#000" fill-opacity="1" fill-rule="evenodd" d="M101.756 1009.65 Q98.1447 1009.65 96.316 1013.21 Q94.5104 1016.75 94.5104 1023.88 Q94.5104 1030.99 96.316 1034.55 Q98.1447 1038.09 101.756 1038.09 Q105.39 1038.09 107.196 1034.55 Q109.024 1030.99 109.024 1023.88 Q109.024 1016.75 107.196 1013.21 Q105.39 1009.65 101.756 1009.65 M101.756 1005.94 Q107.566 1005.94 110.621 1010.55 Q113.7 1015.13 113.7 1023.88 Q113.7 1032.61 110.621 1037.21 Q107.566 1041.8 101.756 1041.8 Q95.9456 1041.8 92.8669 1037.21 Q89.8114 1032.61 89.8114 1023.88 Q89.8114 1015.13 92.8669 1010.55 Q95.9456 1005.94 101.756 1005.94 Z" clip-path="url(#clip520)"/><path fill="#000" fill-opacity="1" fill-rule="evenodd" d="M121.918 1035.25 L126.802 1035.25 L126.802 1041.13 L121.918 1041.13 L121.918 1035.25 Z" clip-path="url(#clip520)"/><path fill="#000" fill-opacity="1" fill-rule="evenodd" d="M137.033 1006.57 L155.39 1006.57 L155.39 1010.5 L141.316 1010.5 L141.316 1018.97 Q142.334 1018.63 143.353 1018.46 Q144.371 1018.28 145.39 1018.28 Q151.177 1018.28 154.556 1021.45 Q157.936 1024.62 157.936 1030.04 Q157.936 1035.62 154.464 1038.72 Q150.992 1041.8 144.672 1041.8 Q142.496 1041.8 140.228 1041.43 Q137.982 1041.06 135.575 1040.32 L135.575 1035.62 Q137.658 1036.75 139.881 1037.31 Q142.103 1037.86 144.58 1037.86 Q148.584 1037.86 150.922 1035.76 Q153.26 1033.65 153.26 1030.04 Q153.26 1026.43 150.922 1024.32 Q148.584 1022.21 144.58 1022.21 Q142.705 1022.21 140.83 1022.63 Q138.978 1023.05 137.033 1023.93 L137.033 1006.57 Z" clip-path="url(#clip520)"/><path fill="#000" fill-opacity="1" fill-rule="evenodd" d="M100.76 752.645 Q97.1493 752.645 95.3206 756.209 Q93.515 759.751 93.515 766.881 Q93.515 773.987 95.3206 777.552 Q97.1493 781.094 100.76 781.094 Q104.395 781.094 106.2 777.552 Q108.029 773.987 108.029 766.881 Q108.029 759.751 106.2 756.209 Q104.395 752.645 100.76 752.645 M100.76 748.941 Q106.571 748.941 109.626 753.547 Q112.705 758.131 112.705 766.881 Q112.705 775.608 109.626 780.214 Q106.571 784.797 100.76 784.797 Q94.9502 784.797 91.8715 780.214 Q88.816 775.608 88.816 766.881 Q88.816 758.131 91.8715 753.547 Q94.9502 748.941 100.76 748.941 Z" clip-path="url(#clip520)"/><path fill="#000" fill-opacity="1" fill-rule="evenodd" d="M120.922 778.246 L125.807 778.246 L125.807 784.126 L120.922 784.126 L120.922 778.246 Z" clip-path="url(#clip520)"/><path fill="#000" fill-opacity="1" fill-rule="evenodd" d="M145.992 752.645 Q142.381 752.645 140.552 756.209 Q138.746 759.751 138.746 766.881 Q138.746 773.987 140.552 777.552 Q142.381 781.094 145.992 781.094 Q149.626 781.094 151.431 777.552 Q153.26 773.987 153.26 766.881 Q153.26 759.751 151.431 756.209 Q149.626 752.645 145.992 752.645 M145.992 748.941 Q151.802 748.941 154.857 753.547 Q157.936 758.131 157.936 766.881 Q157.936 775.608 154.857 780.214 Q151.802 784.797 145.992 784.797 Q140.181 784.797 137.103 780.214 Q134.047 775.608 134.047 766.881 Q134.047 758.131 137.103 753.547 Q140.181 748.941 145.992 748.941 Z" clip-path="url(#clip520)"/><path fill="#000" fill-opacity="1" fill-rule="evenodd" d="M101.756 495.644 Q98.1447 495.644 96.316 499.209 Q94.5104 502.75 94.5104 509.88 Q94.5104 516.986 96.316 520.551 Q98.1447 524.093 101.756 524.093 Q105.39 524.093 107.196 520.551 Q109.024 516.986 109.024 509.88 Q109.024 502.75 107.196 499.209 Q105.39 495.644 101.756 495.644 M101.756 491.94 Q107.566 491.94 110.621 496.547 Q113.7 501.13 113.7 509.88 Q113.7 518.607 110.621 523.213 Q107.566 527.797 101.756 527.797 Q95.9456 527.797 92.8669 523.213 Q89.8114 518.607 89.8114 509.88 Q89.8114 501.13 92.8669 496.547 Q95.9456 491.94 101.756 491.94 Z" clip-path="url(#clip520)"/><path fill="#000" fill-opacity="1" fill-rule="evenodd" d="M121.918 521.246 L126.802 521.246 L126.802 527.125 L121.918 527.125 L121.918 521.246 Z" clip-path="url(#clip520)"/><path fill="#000" fill-opacity="1" fill-rule="evenodd" d="M137.033 492.565 L155.39 492.565 L155.39 496.5 L141.316 496.5 L141.316 504.973 Q142.334 504.625 143.353 504.463 Q144.371 504.278 145.39 504.278 Q151.177 504.278 154.556 507.449 Q157.936 510.621 157.936 516.037 Q157.936 521.616 154.464 524.718 Q150.992 527.797 144.672 527.797 Q142.496 527.797 140.228 527.426 Q137.982 527.056 135.575 526.315 L135.575 521.616 Q137.658 522.75 139.881 523.306 Q142.103 523.861 144.58 523.861 Q148.584 523.861 150.922 521.755 Q153.26 519.648 153.26 516.037 Q153.26 512.426 150.922 510.32 Q148.584 508.213 144.58 508.213 Q142.705 508.213 140.83 508.63 Q138.978 509.047 137.033 509.926 L137.033 492.565 Z" clip-path="url(#clip520)"/><path fill="#000" fill-opacity="1" fill-rule="evenodd" d="M91.5706 266.189 L99.2095 266.189 L99.2095 239.824 L90.8993 241.491 L90.8993 237.231 L99.1632 235.565 L103.839 235.565 L103.839 266.189 L111.478 266.189 L111.478 270.125 L91.5706 270.125 L91.5706 266.189 Z" clip-path="url(#clip520)"/><path fill="#000" fill-opacity="1" fill-rule="evenodd" d="M120.922 264.245 L125.807 264.245 L125.807 270.125 L120.922 270.125 L120.922 264.245 Z" clip-path="url(#clip520)"/><path fill="#000" fill-opacity="1" fill-rule="evenodd" d="M145.992 238.643 Q142.381 238.643 140.552 242.208 Q138.746 245.75 138.746 252.879 Q138.746 259.986 140.552 263.551 Q142.381 267.092 145.992 267.092 Q149.626 267.092 151.431 263.551 Q153.26 259.986 153.26 252.879 Q153.26 245.75 151.431 242.208 Q149.626 238.643 145.992 238.643 M145.992 234.94 Q151.802 234.94 154.857 239.546 Q157.936 244.129 157.936 252.879 Q157.936 261.606 154.857 266.213 Q151.802 270.796 145.992 270.796 Q140.181 270.796 137.103 266.213 Q134.047 261.606 134.047 252.879 Q134.047 244.129 137.103 239.546 Q140.181 234.94 145.992 234.94 Z" clip-path="url(#clip520)"/><circle cx="255.035" cy="664.046" r="14" fill="#009af9" fill-opacity="1" fill-rule="evenodd" stroke="#000" stroke-opacity="1" stroke-width="3.2" clip-path="url(#clip522)"/><circle cx="662.359" cy="658.906" r="14" fill="#009af9" fill-opacity="1" fill-rule="evenodd" stroke="#000" stroke-opacity="1" stroke-width="3.2" clip-path="url(#clip522)"/><circle cx="1069.68" cy="648.626" r="14" fill="#009af9" fill-opacity="1" fill-rule="evenodd" stroke="#000" stroke-opacity="1" stroke-width="3.2" clip-path="url(#clip522)"/><circle cx="1477.01" cy="561.245" r="14" fill="#009af9" fill-opacity="1" fill-rule="evenodd" stroke="#000" stroke-opacity="1" stroke-width="3.2" clip-path="url(#clip522)"/><circle cx="1884.33" cy="314.525" r="14" fill="#009af9" fill-opacity="1" fill-rule="evenodd" stroke="#000" stroke-opacity="1" stroke-width="3.2" clip-path="url(#clip522)"/><circle cx="2291.66" cy="252.845" r="14" fill="#009af9" fill-opacity="1" fill-rule="evenodd" stroke="#000" stroke-opacity="1" stroke-width="3.2" clip-path="url(#clip522)"/><polyline style="stroke:#e5aa99;stroke-linecap:butt;stroke-linejoin:round;stroke-width:4;stroke-opacity:1;fill:none" points="255.035 818.246 275.401 814.328 295.767 810.293 316.133 806.147 336.5 801.899 356.866 797.557 377.232 793.129 397.598 788.625 417.964 784.051 438.331 779.419 458.697 774.736 479.063 770.013 499.429 765.258 519.796 760.484 540.162 755.7 560.528 750.918 580.894 746.148 601.261 741.402 621.627 736.69 641.993 732.022 662.359 727.411 682.725 722.866 703.092 718.398 723.458 714.017 743.824 709.734 764.19 705.558 784.557 701.5 804.923 697.567 825.289 693.771 845.655 690.119 866.021 686.621 886.388 683.221 906.754 679.857 927.12 676.524 947.486 673.218 967.853 669.935 988.219 666.674 1008.59 663.436 1028.95 660.222 1049.32 657.035 1069.68 653.878 1090.05 650.758 1110.42 647.682 1130.78 644.659 1151.15 641.699 1171.51 638.814 1191.88 636.017 1212.25 633.322 1232.61 630.746 1252.98 628.306 1273.35 626.021 1293.71 623.678 1314.08 621.076 1334.44 618.255 1354.81 615.261 1375.18 612.146 1395.54 608.968 1415.91 605.79 1436.28 602.681 1456.64 599.716 1477.01 596.971 1497.37 594.529 1517.74 592.477 1538.11 590.902 1558.47 589.898 1578.84 589.557 1599.21 589.974 1619.57 591.248 1639.94 593.474 1660.3 596.75 1680.67 601.172 1701.04 607.146 1721.4 614.966 1741.77 624.557 1762.14 635.831 1782.5 648.694 1802.87 663.045 1823.23 678.775 1843.6 695.766 1863.97 713.898 1884.33 733.044 1904.7 753.071 1925.07 773.845 1945.43 795.226 1965.8 817.074 1986.16 839.246 2006.53 861.598 2026.9 883.987 2047.26 906.27 2067.63 928.304 2087.99 949.951 2108.36 971.219 2128.73 992.18 2149.09 1012.79 2169.46 1033.01 2189.83 1052.78 2210.19 1072.08 2230.56 1090.85 2250.92 1109.07 2271.29 1126.67 2291.66 1143.64" clip-path="url(#clip522)"/><polyline style="stroke:#db6d52;stroke-linecap:butt;stroke-linejoin:round;stroke-width:4;stroke-opacity:1;fill:none" points="255.035 855.874 275.401 853.713 295.767 851.363 316.133 848.829 336.5 846.115 356.866 843.224 377.232 840.163 397.598 836.937 417.964 833.551 438.331 830.011 458.697 826.324 479.063 822.494 499.429 818.527 519.796 814.432 540.162 810.216 560.528 805.89 580.894 801.462 601.261 796.942 621.627 792.341 641.993 787.668 662.359 782.934 682.725 778.149 703.092 773.323 723.458 768.469 743.824 763.596 764.19 758.716 784.557 753.839 804.923 748.977 825.289 744.14 845.655 739.34 866.021 734.588 886.388 729.866 906.754 725.145 927.12 720.415 947.486 715.667 967.853 710.894 988.219 706.089 1008.59 701.244 1028.95 696.356 1049.32 691.421 1069.68 686.436 1090.05 681.399 1110.42 676.311 1130.78 671.174 1151.15 665.99 1171.51 660.764 1191.88 655.502 1212.25 650.212 1232.61 644.903 1252.98 639.587 1273.35 634.275 1293.71 628.759 1314.08 622.819 1334.44 616.457 1354.81 609.683 1375.18 602.514 1395.54 594.973 1415.91 587.092 1436.28 578.908 1456.64 570.467 1477.01 561.82 1497.37 553.027 1517.74 544.151 1538.11 535.264 1558.47 526.444 1578.84 517.773 1599.21 509.338 1619.57 501.234 1639.94 493.556 1660.3 486.407 1680.67 479.891 1701.04 474.684 1721.4 471.395 1741.77 470.028 1762.14 470.571 1782.5 473.004 1802.87 477.295 1823.23 483.402 1843.6 491.272 1863.97 500.844 1884.33 512.044 1904.7 524.793 1925.07 539.002 1945.43 554.572 1965.8 571.401 1986.16 589.375 2006.53 608.378 2026.9 628.287 2047.26 648.974 2067.63 670.306 2087.99 692.148 2108.36 714.324 2128.73 736.72 2149.09 759.291 2169.46 781.993 2189.83 804.779 2210.19 827.603 2230.56 850.419 2250.92 873.18 2271.29 895.84 2291.66 918.351" clip-path="url(#clip522)"/><polyline style="stroke:#c93117;stroke-linecap:butt;stroke-linejoin:round;stroke-width:4;stroke-opacity:1;fill:none" points="255.035 869.646 275.401 869.821 295.767 869.787 316.133 869.544 336.5 869.09 356.866 868.426 377.232 867.552 397.598 866.468 417.964 865.176 438.331 863.678 458.697 861.974 479.063 860.064 499.429 857.948 519.796 855.629 540.162 853.111 560.528 850.4 580.894 847.5 601.261 844.419 621.627 841.161 641.993 837.734 662.359 834.146 682.725 830.403 703.092 826.513 723.458 822.485 743.824 818.329 764.19 814.051 784.557 809.663 804.923 805.174 825.289 800.593 845.655 795.931 866.021 791.199 886.388 786.42 906.754 781.607 927.12 776.747 947.486 771.831 967.853 766.846 988.219 761.783 1008.59 756.63 1028.95 751.378 1049.32 746.018 1069.68 740.539 1090.05 734.936 1110.42 729.2 1130.78 723.325 1151.15 717.306 1171.51 711.139 1191.88 704.822 1212.25 698.354 1232.61 691.735 1252.98 684.966 1273.35 678.051 1293.71 670.84 1314.08 663.153 1334.44 654.956 1354.81 646.217 1375.18 636.915 1395.54 627.032 1415.91 616.559 1436.28 605.493 1456.64 593.838 1477.01 581.606 1497.37 568.817 1517.74 555.496 1538.11 541.678 1558.47 527.406 1578.84 512.728 1599.21 497.701 1619.57 482.39 1639.94 466.866 1660.3 451.207 1680.67 435.499 1701.04 420.506 1721.4 406.99 1741.77 395.031 1762.14 384.698 1782.5 376.049 1802.87 369.13 1823.23 363.978 1843.6 360.618 1863.97 359.064 1884.33 359.319 1904.7 361.373 1925.07 365.209 1945.43 370.797 1965.8 378.096 1986.16 387.057 2006.53 397.619 2026.9 409.714 2047.26 423.261 2067.63 438.175 2087.99 454.36 2108.36 471.502 2128.73 489.331 2149.09 507.815 2169.46 526.92 2189.83 546.609 2210.19 566.845 2230.56 587.59 2250.92 608.803 2271.29 630.444 2291.66 652.47" clip-path="url(#clip522)"/><polyline style="stroke:#d86246;stroke-linecap:butt;stroke-linejoin:round;stroke-width:4;stroke-opacity:1;fill:none" points="255.035 855.874 275.401 858.337 295.767 860.628 316.133 862.74 336.5 864.669 356.866 866.409 377.232 867.956 397.598 869.306 417.964 870.455 438.331 871.399 458.697 872.135 479.063 872.657 499.429 872.958 519.796 873.037 540.162 872.891 560.528 872.522 580.894 871.928 601.261 871.11 621.627 870.069 641.993 868.806 662.359 867.325 682.725 865.627 703.092 863.715 723.458 861.593 743.824 859.266 764.19 856.739 784.557 854.015 804.923 851.101 825.289 848.004 845.655 844.729 866.021 841.284 886.388 837.729 906.754 834.113 927.12 830.426 947.486 826.658 967.853 822.798 988.219 818.833 1008.59 814.753 1028.95 810.545 1049.32 806.195 1069.68 801.692 1090.05 797.023 1110.42 792.175 1130.78 787.137 1151.15 781.895 1171.51 776.441 1191.88 770.762 1212.25 764.848 1232.61 758.692 1252.98 752.285 1273.35 745.62 1293.71 738.646 1314.08 731.273 1334.44 723.435 1354.81 715.073 1375.18 706.131 1395.54 696.554 1415.91 686.296 1436.28 675.312 1456.64 663.567 1477.01 651.027 1497.37 637.668 1517.74 623.472 1538.11 608.426 1558.47 592.525 1578.84 575.773 1599.21 558.181 1619.57 539.766 1639.94 520.555 1660.3 500.582 1680.67 479.891 1701.04 459.129 1721.4 439.008 1741.77 419.662 1762.14 401.221 1782.5 383.807 1802.87 367.532 1823.23 352.502 1843.6 338.813 1863.97 326.55 1884.33 315.79 1904.7 306.599 1925.07 299.035 1945.43 293.143 1965.8 288.958 1986.16 286.504 2006.53 285.795 2026.9 286.833 2047.26 289.612 2067.63 294.112 2087.99 300.303 2108.36 307.817 2128.73 316.303 2149.09 325.747 2169.46 336.135 2189.83 347.452 2210.19 359.677 2230.56 372.792 2250.92 386.773 2271.29 401.596 2291.66 417.236" clip-path="url(#clip522)"/><polyline style="stroke:#e49f8c;stroke-linecap:butt;stroke-linejoin:round;stroke-width:4;stroke-opacity:1;fill:none" points="255.035 818.246 275.401 822.338 295.767 826.34 316.133 830.242 336.5 834.037 356.866 837.715 377.232 841.268 397.598 844.69 417.964 847.971 438.331 851.105 458.697 854.084 479.063 856.898 499.429 859.536 519.796 861.991 540.162 864.257 560.528 866.328 580.894 868.198 601.261 869.863 621.627 871.318 641.993 872.558 662.359 873.581 682.725 874.382 703.092 874.961 723.458 875.314 743.824 875.44 764.19 875.339 784.557 875.01 804.923 874.453 825.289 873.668 845.655 872.658 866.021 871.424 886.388 870.045 906.754 868.595 927.12 867.069 947.486 865.459 967.853 863.757 988.219 861.954 1008.59 860.04 1028.95 858.002 1049.32 855.829 1069.68 853.508 1090.05 851.024 1110.42 848.364 1130.78 845.512 1151.15 842.453 1171.51 839.171 1191.88 835.652 1212.25 831.878 1232.61 827.834 1252.98 823.506 1273.35 818.876 1293.71 814.008 1314.08 808.924 1334.44 803.547 1354.81 797.802 1375.18 791.615 1395.54 784.911 1415.91 777.615 1436.28 769.658 1456.64 760.969 1477.01 751.481 1497.37 741.133 1517.74 729.865 1538.11 717.622 1558.47 704.354 1578.84 690.017 1599.21 674.572 1619.57 657.988 1639.94 640.237 1660.3 621.303 1680.67 601.172 1701.04 580.206 1721.4 558.869 1741.77 537.321 1762.14 515.713 1782.5 494.2 1802.87 472.931 1823.23 452.05 1843.6 431.698 1863.97 412.012 1884.33 393.121 1904.7 375.148 1925.07 358.21 1945.43 342.417 1965.8 327.868 1986.16 314.657 2006.53 302.867 2026.9 292.572 2047.26 283.837 2067.63 276.717 2087.99 271.256 2108.36 267.129 2128.73 263.997 2149.09 261.87 2169.46 260.759 2189.83 260.671 2210.19 261.61 2230.56 263.581 2250.92 266.583 2271.29 270.618 2291.66 275.68" clip-path="url(#clip522)"/><polyline style="stroke:#ddd1d5;stroke-linecap:butt;stroke-linejoin:round;stroke-width:4;stroke-opacity:1;fill:none" points="255.035 766.846 275.401 771.471 295.767 776.111 316.133 780.757 336.5 785.401 356.866 790.031 377.232 794.639 397.598 799.215 417.964 803.75 438.331 808.234 458.697 812.657 479.063 817.009 499.429 821.277 519.796 825.451 540.162 829.521 560.528 833.478 580.894 837.312 601.261 841.013 621.627 844.574 641.993 847.984 662.359 851.237 682.725 854.324 703.092 857.238 723.458 859.971 743.824 862.517 764.19 864.869 784.557 867.022 804.923 868.971 825.289 870.71 845.655 872.235 866.021 873.542 886.388 874.709 906.754 875.814 927.12 876.857 947.486 877.837 967.853 878.749 988.219 879.591 1008.59 880.355 1028.95 881.034 1049.32 881.62 1069.68 882.102 1090.05 882.47 1110.42 882.71 1130.78 882.808 1151.15 882.751 1171.51 882.522 1191.88 882.105 1212.25 881.482 1232.61 880.635 1252.98 879.544 1273.35 878.191 1293.71 876.734 1314.08 875.3 1334.44 873.824 1354.81 872.236 1375.18 870.463 1395.54 868.427 1415.91 866.049 1436.28 863.25 1456.64 859.945 1477.01 856.053 1497.37 851.488 1517.74 846.167 1538.11 840.007 1558.47 832.927 1578.84 824.847 1599.21 815.689 1619.57 805.378 1639.94 793.845 1660.3 781.021 1680.67 766.846 1701.04 751.292 1721.4 734.458 1741.77 716.48 1762.14 697.496 1782.5 677.649 1802.87 657.083 1823.23 635.946 1843.6 614.386 1863.97 592.552 1884.33 570.591 1904.7 548.652 1925.07 526.879 1945.43 505.416 1965.8 484.403 1986.16 463.975 2006.53 444.262 2026.9 425.392 2047.26 407.484 2067.63 390.652 2087.99 375.001 2108.36 360.34 2128.73 346.429 2149.09 333.302 2169.46 320.989 2189.83 309.519 2210.19 298.92 2230.56 289.219 2250.92 280.439 2271.29 272.603 2291.66 265.732" clip-path="url(#clip522)"/><polyline style="stroke:#afb1e4;stroke-linecap:butt;stroke-linejoin:round;stroke-width:4;stroke-opacity:1;fill:none" points="255.035 715.446 275.401 719.364 295.767 723.399 316.133 727.545 336.5 731.793 356.866 736.135 377.232 740.563 397.598 745.067 417.964 749.641 438.331 754.273 458.697 758.956 479.063 763.679 499.429 768.434 519.796 773.208 540.162 777.992 560.528 782.774 580.894 787.544 601.261 792.29 621.627 797.002 641.993 801.67 662.359 806.281 682.725 810.826 703.092 815.294 723.458 819.675 743.824 823.958 764.19 828.134 784.557 832.192 804.923 836.125 825.289 839.921 845.655 843.573 866.021 847.071 886.388 850.471 906.754 853.835 927.12 857.168 947.486 860.474 967.853 863.757 988.219 867.018 1008.59 870.256 1028.95 873.47 1049.32 876.657 1069.68 879.814 1090.05 882.934 1110.42 886.01 1130.78 889.033 1151.15 891.993 1171.51 894.878 1191.88 897.675 1212.25 900.37 1232.61 902.946 1252.98 905.386 1273.35 907.671 1293.71 910.014 1314.08 912.616 1334.44 915.437 1354.81 918.431 1375.18 921.546 1395.54 924.724 1415.91 927.902 1436.28 931.011 1456.64 933.976 1477.01 936.721 1497.37 939.163 1517.74 941.215 1538.11 942.79 1558.47 943.794 1578.84 944.135 1599.21 943.718 1619.57 942.444 1639.94 940.218 1660.3 936.942 1680.67 932.52 1701.04 926.546 1721.4 918.725 1741.77 909.135 1762.14 897.861 1782.5 884.998 1802.87 870.647 1823.23 854.917 1843.6 837.926 1863.97 819.794 1884.33 800.648 1904.7 780.621 1925.07 759.847 1945.43 738.466 1965.8 716.618 1986.16 694.446 2006.53 672.094 2026.9 649.705 2047.26 627.422 2067.63 605.388 2087.99 583.741 2108.36 562.473 2128.73 541.512 2149.09 520.901 2169.46 500.685 2189.83 480.908 2210.19 461.611 2230.56 442.837 2250.92 424.627 2271.29 407.02 2291.66 390.056" clip-path="url(#clip522)"/><polyline style="stroke:#7284e5;stroke-linecap:butt;stroke-linejoin:round;stroke-width:4;stroke-opacity:1;fill:none" points="255.035 677.818 275.401 679.979 295.767 682.329 316.133 684.863 336.5 687.577 356.866 690.468 377.232 693.529 397.598 696.755 417.964 700.141 438.331 703.681 458.697 707.368 479.063 711.198 499.429 715.165 519.796 719.26 540.162 723.476 560.528 727.802 580.894 732.23 601.261 736.75 621.627 741.351 641.993 746.024 662.359 750.758 682.725 755.543 703.092 760.369 723.458 765.223 743.824 770.096 764.19 774.976 784.557 779.853 804.923 784.715 825.289 789.552 845.655 794.352 866.021 799.104 886.388 803.826 906.754 808.547 927.12 813.277 947.486 818.024 967.853 822.798 988.219 827.603 1008.59 832.448 1028.95 837.336 1049.32 842.271 1069.68 847.256 1090.05 852.293 1110.42 857.38 1130.78 862.518 1151.15 867.702 1171.51 872.928 1191.88 878.19 1212.25 883.48 1232.61 888.789 1252.98 894.105 1273.35 899.417 1293.71 904.933 1314.08 910.873 1334.44 917.235 1354.81 924.009 1375.18 931.178 1395.54 938.719 1415.91 946.6 1436.28 954.784 1456.64 963.225 1477.01 971.872 1497.37 980.665 1517.74 989.541 1538.11 998.428 1558.47 1007.25 1578.84 1015.92 1599.21 1024.35 1619.57 1032.46 1639.94 1040.14 1660.3 1047.29 1680.67 1053.8 1701.04 1059.01 1721.4 1062.3 1741.77 1063.66 1762.14 1063.12 1782.5 1060.69 1802.87 1056.4 1823.23 1050.29 1843.6 1042.42 1863.97 1032.85 1884.33 1021.65 1904.7 1008.9 1925.07 994.69 1945.43 979.12 1965.8 962.291 1986.16 944.317 2006.53 925.314 2026.9 905.405 2047.26 884.718 2067.63 863.386 2087.99 841.544 2108.36 819.368 2128.73 796.972 2149.09 774.401 2169.46 751.699 2189.83 728.913 2210.19 706.089 2230.56 683.273 2250.92 660.512 2271.29 637.852 2291.66 615.341" clip-path="url(#clip522)"/><polyline style="stroke:#1963e4;stroke-linecap:butt;stroke-linejoin:round;stroke-width:4;stroke-opacity:1;fill:none" points="255.035 664.046 275.401 663.871 295.767 663.905 316.133 664.148 336.5 664.602 356.866 665.266 377.232 666.14 397.598 667.224 417.964 668.516 438.331 670.014 458.697 671.718 479.063 673.628 499.429 675.744 519.796 678.063 540.162 680.581 560.528 683.292 580.894 686.192 601.261 689.273 621.627 692.531 641.993 695.958 662.359 699.546 682.725 703.289 703.092 707.179 723.458 711.207 743.824 715.363 764.19 719.641 784.557 724.029 804.923 728.518 825.289 733.099 845.655 737.76 866.021 742.493 886.388 747.272 906.754 752.085 927.12 756.945 947.486 761.861 967.853 766.846 988.219 771.909 1008.59 777.062 1028.95 782.314 1049.32 787.674 1069.68 793.152 1090.05 798.756 1110.42 804.492 1130.78 810.367 1151.15 816.386 1171.51 822.553 1191.88 828.87 1212.25 835.338 1232.61 841.957 1252.98 848.726 1273.35 855.641 1293.71 862.852 1314.08 870.539 1334.44 878.736 1354.81 887.475 1375.18 896.777 1395.54 906.66 1415.91 917.133 1436.28 928.199 1456.64 939.854 1477.01 952.086 1497.37 964.875 1517.74 978.196 1538.11 992.014 1558.47 1006.29 1578.84 1020.96 1599.21 1035.99 1619.57 1051.3 1639.94 1066.83 1660.3 1082.49 1680.67 1098.19 1701.04 1113.19 1721.4 1126.7 1741.77 1138.66 1762.14 1148.99 1782.5 1157.64 1802.87 1164.56 1823.23 1169.71 1843.6 1173.07 1863.97 1174.63 1884.33 1174.37 1904.7 1172.32 1925.07 1168.48 1945.43 1162.89 1965.8 1155.6 1986.16 1146.63 2006.53 1136.07 2026.9 1123.98 2047.26 1110.43 2067.63 1095.52 2087.99 1079.33 2108.36 1062.19 2128.73 1044.36 2149.09 1025.88 2169.46 1006.77 2189.83 987.083 2210.19 966.847 2230.56 946.102 2250.92 924.889 2271.29 903.248 2291.66 881.222" clip-path="url(#clip522)"/><polyline style="stroke:#6f82e5;stroke-linecap:butt;stroke-linejoin:round;stroke-width:4;stroke-opacity:1;fill:none" points="255.035 677.818 275.401 675.355 295.767 673.064 316.133 670.952 336.5 669.023 356.866 667.283 377.232 665.736 397.598 664.386 417.964 663.237 438.331 662.293 458.697 661.557 479.063 661.035 499.429 660.734 519.796 660.655 540.162 660.801 560.528 661.17 580.894 661.764 601.261 662.582 621.627 663.623 641.993 664.886 662.359 666.367 682.725 668.065 703.092 669.977 723.458 672.099 743.824 674.426 764.19 676.953 784.557 679.677 804.923 682.591 825.289 685.688 845.655 688.963 866.021 692.408 886.388 695.963 906.754 699.579 927.12 703.266 947.486 707.034 967.853 710.894 988.219 714.859 1008.59 718.939 1028.95 723.147 1049.32 727.497 1069.68 732 1090.05 736.669 1110.42 741.517 1130.78 746.555 1151.15 751.796 1171.51 757.251 1191.88 762.93 1212.25 768.844 1232.61 775 1252.98 781.407 1273.35 788.072 1293.71 795.046 1314.08 802.419 1334.44 810.257 1354.81 818.618 1375.18 827.561 1395.54 837.138 1415.91 847.396 1436.28 858.38 1456.64 870.125 1477.01 882.665 1497.37 896.024 1517.74 910.22 1538.11 925.266 1558.47 941.167 1578.84 957.919 1599.21 975.511 1619.57 993.926 1639.94 1013.14 1660.3 1033.11 1680.67 1053.8 1701.04 1074.56 1721.4 1094.68 1741.77 1114.03 1762.14 1132.47 1782.5 1149.89 1802.87 1166.16 1823.23 1181.19 1843.6 1194.88 1863.97 1207.14 1884.33 1217.9 1904.7 1227.09 1925.07 1234.66 1945.43 1240.55 1965.8 1244.73 1986.16 1247.19 2006.53 1247.9 2026.9 1246.86 2047.26 1244.08 2067.63 1239.58 2087.99 1233.39 2108.36 1225.87 2128.73 1217.39 2149.09 1207.95 2169.46 1197.56 2189.83 1186.24 2210.19 1174.01 2230.56 1160.9 2250.92 1146.92 2271.29 1132.1 2291.66 1116.46" clip-path="url(#clip522)"/><polyline style="stroke:#adafe4;stroke-linecap:butt;stroke-linejoin:round;stroke-width:4;stroke-opacity:1;fill:none" points="255.035 715.446 275.401 711.354 295.767 707.352 316.133 703.45 336.5 699.655 356.866 695.977 377.232 692.424 397.598 689.002 417.964 685.721 438.331 682.587 458.697 679.608 479.063 676.794 499.429 674.156 519.796 671.701 540.162 669.435 560.528 667.364 580.894 665.494 601.261 663.829 621.627 662.374 641.993 661.134 662.359 660.111 682.725 659.31 703.092 658.731 723.458 658.378 743.824 658.252 764.19 658.353 784.557 658.682 804.923 659.239 825.289 660.024 845.655 661.034 866.021 662.268 886.388 663.647 906.754 665.097 927.12 666.623 947.486 668.233 967.853 669.935 988.219 671.738 1008.59 673.652 1028.95 675.69 1049.32 677.863 1069.68 680.184 1090.05 682.668 1110.42 685.328 1130.78 688.18 1151.15 691.239 1171.51 694.521 1191.88 698.04 1212.25 701.814 1232.61 705.858 1252.98 710.186 1273.35 714.816 1293.71 719.684 1314.08 724.768 1334.44 730.145 1354.81 735.89 1375.18 742.077 1395.54 748.781 1415.91 756.077 1436.28 764.034 1456.64 772.723 1477.01 782.211 1497.37 792.559 1517.74 803.827 1538.11 816.07 1558.47 829.338 1578.84 843.675 1599.21 859.12 1619.57 875.704 1639.94 893.455 1660.3 912.389 1680.67 932.52 1701.04 953.486 1721.4 974.822 1741.77 996.371 1762.14 1017.98 1782.5 1039.49 1802.87 1060.76 1823.23 1081.64 1843.6 1101.99 1863.97 1121.68 1884.33 1140.57 1904.7 1158.54 1925.07 1175.48 1945.43 1191.28 1965.8 1205.82 1986.16 1219.03 2006.53 1230.82 2026.9 1241.12 2047.26 1249.85 2067.63 1256.97 2087.99 1262.44 2108.36 1266.56 2128.73 1269.7 2149.09 1271.82 2169.46 1272.93 2189.83 1273.02 2210.19 1272.08 2230.56 1270.11 2250.92 1267.11 2271.29 1263.07 2291.66 1258.01" clip-path="url(#clip522)"/><polyline style="stroke:#ddd5da;stroke-linecap:butt;stroke-linejoin:round;stroke-width:4;stroke-opacity:1;fill:none" points="255.035 766.846 275.401 762.221 295.767 757.581 316.133 752.935 336.5 748.291 356.866 743.661 377.232 739.053 397.598 734.477 417.964 729.942 438.331 725.458 458.697 721.035 479.063 716.683 499.429 712.415 519.796 708.241 540.162 704.171 560.528 700.214 580.894 696.38 601.261 692.679 621.627 689.118 641.993 685.708 662.359 682.455 682.725 679.368 703.092 676.454 723.458 673.721 743.824 671.175 764.19 668.823 784.557 666.67 804.923 664.721 825.289 662.982 845.655 661.457 866.021 660.15 886.388 658.983 906.754 657.878 927.12 656.835 947.486 655.855 967.853 654.943 988.219 654.101 1008.59 653.337 1028.95 652.658 1049.32 652.072 1069.68 651.59 1090.05 651.222 1110.42 650.982 1130.78 650.884 1151.15 650.941 1171.51 651.17 1191.88 651.587 1212.25 652.21 1232.61 653.057 1252.98 654.148 1273.35 655.501 1293.71 656.958 1314.08 658.392 1334.44 659.868 1354.81 661.456 1375.18 663.229 1395.54 665.265 1415.91 667.643 1436.28 670.442 1456.64 673.747 1477.01 677.639 1497.37 682.204 1517.74 687.525 1538.11 693.685 1558.47 700.765 1578.84 708.845 1599.21 718.003 1619.57 728.314 1639.94 739.847 1660.3 752.671 1680.67 766.846 1701.04 782.4 1721.4 799.234 1741.77 817.212 1762.14 836.196 1782.5 856.043 1802.87 876.609 1823.23 897.746 1843.6 919.306 1863.97 941.14 1884.33 963.101 1904.7 985.04 1925.07 1006.81 1945.43 1028.28 1965.8 1049.29 1986.16 1069.72 2006.53 1089.43 2026.9 1108.3 2047.26 1126.21 2067.63 1143.04 2087.99 1158.69 2108.36 1173.35 2128.73 1187.26 2149.09 1200.39 2169.46 1212.7 2189.83 1224.17 2210.19 1234.77 2230.56 1244.47 2250.92 1253.25 2271.29 1261.09 2291.66 1267.96" clip-path="url(#clip522)"/></svg>