<svg xmlns="http://www.w3.org/2000/svg" xmlns:xlink="https://www.w3.org/1999/xlink" width="100%" height="100%" fill-rule="evenodd" clip-rule="evenodd" version="1.1" viewBox="0 0 243 121" xml:space="preserve"><g id="Layer-1" transform="matrix(1,0,0,1,-218.634,-366.139)"><g id="g69" transform="matrix(2.5923,0,0,2.5923,-692.918,-647.176)"><circle id="circle23" cx="415.019" cy="423.158" r="8.135" fill="#C93D39" stroke="#C83D3B" stroke-width=".58"/><circle id="circle25" cx="425.558" cy="405.223" r="8.135" fill="#3B972E" stroke="#3B9530" stroke-width=".58"/><circle id="circle27" cx="436.221" cy="423.035" r="8.135" fill="#945BB0" stroke="#8E59A6" stroke-width=".58"/></g><g id="g77" transform="matrix(0.242514,0,0,0.242514,212.997,360.64)"><path id="path73" fill="#FBBC05" fill-rule="nonzero" d="M448.157,95.528L344.976,95.528L272.126,22.677L199.276,95.528L96.094,95.528L96.094,198.709L23.244,271.843L96.094,344.693L96.094,447.874L199.276,447.874L272.126,520.724L344.976,447.874L448.157,447.874L448.157,344.693L521.008,271.843L448.157,198.992L448.157,95.528ZM449.858,271.843C449.858,369.921 370.205,449.575 272.126,449.575C174.047,449.575 94.394,369.921 94.394,271.843C94.394,173.764 174.047,94.11 272.126,94.11C370.205,94.11 449.858,173.764 449.858,271.843Z"/><path id="path75" fill="#FBBC05" fill-rule="nonzero" d="M272.126,116.787C186.52,116.787 117.071,186.236 117.071,271.843C117.071,357.449 186.52,426.898 272.126,426.898C357.732,426.898 427.181,357.449 427.181,271.843C427.181,186.236 357.732,116.787 272.126,116.787ZM226.488,214.299L226.488,239.811L185.386,271.843L226.488,303.874L226.488,329.386L223.654,327.402L162.709,279.78L158.74,276.661L158.74,267.024L162.709,263.906L223.654,216.567L226.488,214.299ZM299.622,199.559L265.89,348.661L265.606,349.795L244.63,349.795L245.764,344.126L279.496,195.307L279.78,194.173L300.756,194.173L299.622,199.559ZM385.512,276.661L381.543,279.78L320.315,327.118L317.48,329.102L317.48,303.591L358.583,271.559L317.48,239.528L317.48,214.016L320.315,216L381.26,263.622L385.228,266.74L385.228,276.661L385.512,276.661Z"/></g></g></svg>