<svg xmlns="http://www.w3.org/2000/svg" xmlns:svg="http://www.w3.org/2000/svg" id="svg2" width="250" height="250" version="1.1"><metadata id="metadata7"/><g id="layer1" transform="translate(-60.488671,-27.093385)"><path style="fill:#158300;fill-opacity:.6627451;stroke:#15a100;stroke-width:4.0999999;stroke-linejoin:round;stroke-miterlimit:4;stroke-opacity:1;stroke-dasharray:none" id="path3039" d="m 255.71429,202.36219 -32.59297,-17.87292 -32.22898,18.52125 6.92639,-36.5208 -27.57406,-24.9282 36.87371,-4.69816 15.18727,-33.92773 15.86283,33.61718 36.9603,3.9597 -27.06994,25.47473 z" transform="matrix(0.99995701,0.00927266,-0.00927266,0.99995701,-34.741093,-55.26826)"/><path style="fill:#be0b00;fill-opacity:.6627451;stroke:#be0b00;stroke-width:4.0999999;stroke-linejoin:round;stroke-miterlimit:4;stroke-opacity:1;stroke-dasharray:none" id="path3039-8" d="m 255.71429,202.36219 -32.59219,-17.79455 -32.22976,18.44288 6.85209,-36.49584 -27.49976,-24.95316 36.82701,-4.76111 15.23397,-33.86478 15.90826,33.55331 36.91487,4.02357 -26.99517,25.4982 z" transform="matrix(0.99991853,0.0127645,-0.0127645,0.99991853,-92.824503,41.696851)"/><path style="fill:#5d0089;fill-opacity:.52941165000000001;stroke:#5d0089;stroke-width:4.09999999;stroke-linejoin:round;stroke-miterlimit:4;stroke-opacity:1;stroke-dasharray:none" id="path3039-8-6" d="m 255.71429,202.36219 -32.59684,-18.25972 -32.22511,18.90805 7.29306,-36.64401 -27.94073,-24.80499 37.1042,-4.38751 14.95678,-34.23838 15.6386,33.93238 37.18453,3.6445 -27.43901,25.35888 z" transform="matrix(0.9999636,0.00853254,-0.00853254,0.9999636,23.997491,42.487393)"/></g></svg>